<?xml version="1.0" encoding="utf-8"?>
<!-- Generator: Adobe Illustrator 23.0.1, SVG Export Plug-In . SVG Version: 6.00 Build 0)  -->
<svg version="1.1" id="Слой_1" xmlns="http://www.w3.org/2000/svg" xmlns:xlink="http://www.w3.org/1999/xlink" x="0px" y="0px"
	 viewBox="0 0 87.5 87.5" style="enable-background:new 0 0 87.5 87.5;" xml:space="preserve">
<style type="text/css">
	.st0{fill:#012340;stroke:#1E5CD9;stroke-width:2.8346;stroke-miterlimit:10;}
</style>
<path class="st0" d="M74.8,4.2h-62c-4.7,0-8.5,3.8-8.5,8.5v62c0,4.7,3.8,8.5,8.5,8.5h62c4.7,0,8.5-3.8,8.5-8.5v-62
	C83.3,8.1,79.4,4.2,74.8,4.2z M15.5,74.1c-1.5,0-2.8-1.2-2.8-2.8c0-1.5,1.2-2.8,2.8-2.8s2.8,1.2,2.8,2.8
	C18.3,72.8,17,74.1,15.5,74.1z M15.5,18.9c-1.5,0-2.8-1.2-2.8-2.8c0-1.5,1.2-2.8,2.8-2.8s2.8,1.2,2.8,2.8
	C18.3,17.7,17,18.9,15.5,18.9z M43.8,74.1c-1.5,0-2.8-1.2-2.8-2.8c0-1.5,1.2-2.8,2.8-2.8s2.8,1.2,2.8,2.8
	C46.5,72.8,45.3,74.1,43.8,74.1z M43.8,18.9c-1.5,0-2.8-1.2-2.8-2.8c0-1.5,1.2-2.8,2.8-2.8s2.8,1.2,2.8,2.8
	C46.5,17.7,45.3,18.9,43.8,18.9z M72,74.1c-1.5,0-2.8-1.2-2.8-2.8c0-1.5,1.2-2.8,2.8-2.8s2.8,1.2,2.8,2.8
	C74.8,72.8,73.5,74.1,72,74.1z M72,18.9c-1.5,0-2.8-1.2-2.8-2.8c0-1.5,1.2-2.8,2.8-2.8s2.8,1.2,2.8,2.8C74.8,17.7,73.5,18.9,72,18.9
	z"/>
</svg>
