<?xml version="1.0" encoding="utf-8"?>
<!-- Generator: Adobe Illustrator 23.0.1, SVG Export Plug-In . SVG Version: 6.00 Build 0)  -->
<svg version="1.1" id="Слой_1" xmlns="http://www.w3.org/2000/svg" xmlns:xlink="http://www.w3.org/1999/xlink" x="0px" y="0px"
	 viewBox="0 0 87.51 87.5" style="enable-background:new 0 0 87.51 87.5;" xml:space="preserve">
<style type="text/css">
	.st0{fill:#812990;}
</style>
<path class="st0" d="M74.75,4.25h-62c-4.69,0-8.5,3.81-8.5,8.5v62c0,4.69,3.81,8.5,8.5,8.5h62c4.69,0,8.5-3.81,8.5-8.5v-62
	C83.25,8.06,79.44,4.25,74.75,4.25z M15.52,74.08c-1.53,0-2.77-1.24-2.77-2.77c0-1.52,1.24-2.76,2.77-2.76
	c1.53,0,2.76,1.24,2.76,2.76C18.28,72.84,17.04,74.08,15.52,74.08z M15.52,18.95c-1.53,0-2.77-1.24-2.77-2.76
	c0-1.53,1.24-2.77,2.77-2.77c1.53,0,2.76,1.24,2.76,2.77C18.28,17.71,17.04,18.95,15.52,18.95z M43.76,74.08
	c-1.53,0-2.77-1.24-2.77-2.77c0-1.52,1.24-2.76,2.77-2.76s2.77,1.24,2.77,2.76C46.53,72.84,45.29,74.08,43.76,74.08z M43.76,18.95
	c-1.53,0-2.77-1.24-2.77-2.76c0-1.53,1.24-2.77,2.77-2.77s2.77,1.24,2.77,2.77C46.53,17.71,45.29,18.95,43.76,18.95z M71.99,74.08
	c-1.53,0-2.76-1.24-2.76-2.77c0-1.52,1.23-2.76,2.76-2.76c1.53,0,2.77,1.24,2.77,2.76C74.77,72.84,73.53,74.08,71.99,74.08z
	 M71.99,18.95c-1.53,0-2.76-1.24-2.76-2.76c0-1.53,1.23-2.77,2.76-2.77c1.53,0,2.77,1.24,2.77,2.77
	C74.77,17.71,73.53,18.95,71.99,18.95z"/>
</svg>
