<?xml version="1.0" encoding="utf-8"?>
<!-- Generator: Adobe Illustrator 23.0.1, SVG Export Plug-In . SVG Version: 6.00 Build 0)  -->
<svg version="1.1" id="Слой_1" xmlns="http://www.w3.org/2000/svg" xmlns:xlink="http://www.w3.org/1999/xlink" x="0px" y="0px"
	 viewBox="0 0 87.51 87.5" style="enable-background:new 0 0 87.51 87.5;" xml:space="preserve">
<style type="text/css">
	.st0{fill:#80298F;}
	.st1{fill:#3C3C3B;}
	.st2{fill:#FCE495;}
	.st3{fill:#EF4925;}
	.st4{fill:#C6C5C4;}
	.st5{fill:#99999A;stroke:#231F20;stroke-miterlimit:10;}
	.st6{fill:#80298F;stroke:#231F20;stroke-miterlimit:10;}
	.st7{opacity:0.1;}
</style>
<g>
	<path d="M13.8,41.17c0.89,0.01,1.63-0.7,1.65-1.59l0.2-11.9c0.01-0.51-0.4-0.93-0.91-0.94l-1.45-0.02
		c-2.07,4.62-3.64,9.42-4.77,14.37L13.8,41.17z"/>
	<path class="st0" d="M41.5,23.07c0,0.53-0.43,0.97-0.97,0.97H31.4c-0.53,0-0.97-0.43-0.97-0.97l0,0c0-0.53,0.43-0.97,0.97-0.97
		h9.14C41.07,22.1,41.5,22.53,41.5,23.07L41.5,23.07z"/>
	<path class="st0" d="M84.39,41.77c-0.11-0.75-0.26-1.5-0.46-2.24L80.31,26.4c-0.48-1.77-2.09-3-3.92-3l-51.87-0.25
		c-7.6-0.01-10.09-0.01-11.8,4.11h1.54c0.68,0,1.23,0.55,1.23,1.23v10.27c0,1.01-0.82,1.83-1.83,1.83H8.41
		C8.28,40.8,8.12,41,7.95,41.19l-4.08,4.34c-1.02,1.08-1.58,2.5-1.59,3.98l0,1.07l0,1l0,0.46l0,1v0.47l-0.01,1l-0.01,2.44
		c0,0.33,0.07,0.64,0.21,0.92c0.25,0.52,0.71,0.94,1.29,1.13l2.55,0.81l0.46,0.14l0.5,0.16l14.95,0.06l9.8,0.04l33.9,0.15
		l15.02,0.07l0.43-0.13l1.16-0.34c1.12-0.33,1.91-1.3,2.01-2.44c0.01-0.08,0.01-0.16,0.01-0.24l0.06-12.86
		C84.57,43.54,84.51,42.65,84.39,41.77z"/>
	<g>
		<path class="st1" d="M1.36,46.94c-0.01,1.39,0.08,2.52,0.19,2.52c0.12,0,0.21-1.13,0.22-2.52c0.01-1.39-0.08-2.52-0.2-2.52
			C1.46,44.42,1.36,45.55,1.36,46.94z"/>
		<path class="st0" d="M14.21,46.93c-0.01,1.79-5.23,3.28-9.03,3.26c-1.64-0.01-2.68-0.26-3.09-0.71c-0.55-0.59-0.17-1.52-0.16-2.54
			c0-1-0.35-1.96,0.19-2.55c0.41-0.46,1.44-0.67,3.1-0.66C9.01,43.74,14.22,45.14,14.21,46.93z"/>
		<g>
			<path class="st2" d="M1.52,44.38c-1.3-0.07-1.3,5.08-0.02,5.09C1.62,48.52,1.64,45.34,1.52,44.38z"/>
			<path class="st0" d="M2.18,44.38l-0.24,0l-0.51,0c0.03,0,0.06,0.09,0.08,0.25c0.12,0.86,0.11,3.73-0.02,4.59
				c-0.02,0.16-0.05,0.25-0.08,0.25l0.51,0l0.24,0C2.34,47.7,2.36,45.99,2.18,44.38z"/>
		</g>
	</g>
	<g>
		<path class="st0" d="M58.42,45.38c0.03,1.79,10.82,3.3,18.67,3.3c3.39,0,6.88-0.25,7.74-0.7c1.13-0.59,1.03-4.5-0.07-5.09
			c-0.86-0.46-4.32-0.68-7.76-0.68C69.14,42.21,58.39,43.59,58.42,45.38z"/>
	</g>
	<g>
		<path class="st0" d="M80.02,51.02c0.01,0.89,1.28,1.63,3.23,1.62c0.84,0,1.71-0.13,1.92-0.36c0.28-0.3,0.26-2.24-0.01-2.54
			c-0.21-0.23-1.07-0.33-1.93-0.33C81.28,49.43,80.01,50.13,80.02,51.02z"/>
	</g>
	<path class="st0" d="M3.89,55.49h-1.9c-0.19-0.4-0.59-0.68-1.06-0.68c-1.76,0-1.66,4.08,0,4.08c0.47,0,0.87-0.28,1.06-0.68h1.9
		c0.75,0,1.36-0.61,1.36-1.36C5.25,56.1,4.64,55.49,3.89,55.49z"/>
	<path class="st0" d="M86.47,55.29c-0.51,0-0.95,0.28-1.15,0.68h-2.17c-0.75,0-1.36,0.61-1.36,1.36c0,0.75,0.61,1.36,1.36,1.36h2.17
		c0.2,0.4,0.64,0.68,1.15,0.68C88.27,59.37,88.38,55.29,86.47,55.29z"/>
	<path d="M26.56,40.15h-7.99c-0.97,0-1.76-0.79-1.76-1.75v-8.96c0-0.97,0.79-1.76,1.76-1.76h7.99c0.97,0,1.76,0.79,1.76,1.76v8.96
		C28.32,39.37,27.53,40.15,26.56,40.15z"/>
	<path d="M39.75,40.15h-7.99c-0.97,0-1.76-0.79-1.76-1.75v-8.96c0-0.97,0.79-1.76,1.76-1.76h7.99c0.97,0,1.76,0.79,1.76,1.76v8.96
		C41.5,39.37,40.72,40.15,39.75,40.15z"/>
	<path d="M52.93,40.15h-7.99c-0.97,0-1.76-0.79-1.76-1.75v-8.96c0-0.97,0.79-1.76,1.76-1.76h7.99c0.97,0,1.76,0.79,1.76,1.76v8.96
		C54.69,39.37,53.9,40.15,52.93,40.15z"/>
	<path d="M66.12,40.15h-7.99c-0.97,0-1.76-0.79-1.76-1.75v-8.96c0-0.97,0.79-1.76,1.76-1.76h7.99c0.97,0,1.76,0.79,1.76,1.76v8.96
		C67.87,39.37,67.09,40.15,66.12,40.15z"/>
	<path d="M80.07,40.15h-8.62c-1.04,0-1.89-1.03-1.89-2.25v-8.86c0-0.76,0.63-1.35,1.41-1.35h6.41c0.78,0,1.56,0.59,1.75,1.35
		l2.26,8.86C81.7,39.12,81.11,40.15,80.07,40.15z"/>
	<g>
		<path class="st3" d="M85.65,43.12c1.18-0.06,1.19,4.64,0.02,4.65C85.55,46.9,85.54,44,85.65,43.12z"/>
		<path class="st0" d="M85.05,43.12h0.22l0.46,0c-0.03,0-0.05,0.09-0.07,0.23c-0.11,0.79-0.1,3.41,0.02,4.19
			c0.02,0.14,0.04,0.23,0.07,0.23l-0.46,0l-0.22,0C84.9,46.15,84.88,44.59,85.05,43.12z"/>
	</g>
	<g>
		<path class="st2" d="M85.38,49.66c0.69-0.04,0.7,2.72,0.01,2.72C85.32,51.87,85.31,50.17,85.38,49.66z"/>
		<path class="st4" d="M85.02,49.66h0.13l0.27,0c-0.01,0-0.03,0.05-0.04,0.13c-0.06,0.46-0.05,2,0.01,2.46
			c0.01,0.08,0.03,0.13,0.04,0.13l-0.27,0h-0.13C84.94,51.43,84.93,50.52,85.02,49.66z"/>
	</g>
	<path class="st0" d="M5.39,51.08c0,0.28-0.23,0.5-0.5,0.5H2.27l0-1h2.62C5.16,50.58,5.39,50.81,5.39,51.08z"/>
	<path class="st0" d="M5.39,52.55c0,0.28-0.23,0.5-0.5,0.5H2.26l0-1h2.62C5.16,52.05,5.39,52.27,5.39,52.55z"/>
	<path class="st0" d="M5.39,54.02c0,0.28-0.23,0.5-0.5,0.5H2.25l0.01-1h2.63C5.16,53.52,5.39,53.74,5.39,54.02z"/>
	<path class="st5" d="M19,58.35c0,2.48-2.01,4.5-4.5,4.5c-2.49,0-4.5-2.01-4.5-4.5c0-2.49,2.01-4.5,4.5-4.5
		C16.98,53.85,19,55.87,19,58.35z"/>
	<path class="st6" d="M14.5,51.29c-3.9,0-7.06,3.15-7.06,7.05c0,3.9,3.15,7.06,7.05,7.06c3.89,0,7.06-3.15,7.06-7.05
		C21.56,54.46,18.4,51.3,14.5,51.29z"/>
	<circle class="st5" cx="72.96" cy="58.35" r="4.5"/>
	<path class="st6" d="M72.97,51.29c-3.9,0-7.06,3.15-7.06,7.05c0,3.9,3.15,7.06,7.05,7.06c3.9,0,7.06-3.15,7.06-7.05
		C80.02,54.46,76.87,51.3,72.97,51.29z"/>
	<path class="st7" d="M86.47,55.29c-0.51,0-0.95,0.28-1.15,0.68h-0.81l0.02-3.43c0.21-0.04,0.38-0.09,0.5-0.15h0.13l0.23,0l0,0
		c0,0,0,0,0,0h0.04c0,0-0.01-0.01-0.01-0.01c0.63-0.11,0.63-2.64-0.01-2.71c0,0,0-0.01,0-0.01l-0.27,0h-0.13v0
		c-0.12-0.06-0.28-0.1-0.47-0.14l0.01-1.43c0.1-0.03,0.2-0.07,0.27-0.11c0.09-0.05,0.17-0.12,0.25-0.21l0.21,0l0.39,0c0,0,0,0,0,0
		c0,0,0,0,0,0h0.07c0,0-0.01-0.01-0.01-0.02c1.07-0.18,1.07-4.5-0.02-4.62c0,0,0.01-0.01,0.01-0.01l-0.46,0h-0.22
		c0,0.01,0,0.02,0,0.03c-0.09-0.11-0.18-0.21-0.29-0.26c-0.07-0.04-0.16-0.07-0.26-0.11c-0.03-0.34-0.06-0.68-0.11-1.01
		c-0.11-0.75-0.26-1.5-0.46-2.24l-0.45-1.62c-9.31,7.95-22.26,12.88-36.58,12.88c-14.75,0-28.03-5.23-37.39-13.59
		c-0.31,1.12-0.61,2.25-0.87,3.38H8.41C8.28,40.8,8.13,41,7.95,41.19l-2.39,2.54c-0.12,0-0.24-0.01-0.36-0.01
		c-1.66-0.01-2.69,0.2-3.1,0.66l0,0l-0.16,0l-0.51,0c0,0,0.01,0.01,0.01,0.02c-1.2,0.13-1.2,4.86-0.02,5.06c0,0-0.01,0.02-0.01,0.02
		h0.08c0,0,0,0,0,0c0,0,0,0,0,0l0.42,0l0.16,0c0.05,0.06,0.12,0.11,0.19,0.16l0,0.94l0,1l0,0.46l0,1v0.47l-0.01,1l0,0.96H1.99
		c-0.19-0.4-0.59-0.68-1.06-0.68c-1.76,0-1.66,4.08,0,4.08c0.47,0,0.87-0.28,1.06-0.68h0.66c0.26,0.37,0.64,0.65,1.09,0.8l2.55,0.81
		l0.46,0.14l0.5,0.16l0.43,0c0.79,3.04,3.53,5.29,6.82,5.29c3.27,0,6.01-2.22,6.81-5.23l0.88,0l9.8,0.04l33.9,0.15l0.31,0
		c0.87,2.91,3.56,5.03,6.75,5.03c3.17,0,5.86-2.09,6.75-4.97l1.21,0.01l0.43-0.13l1.16-0.34c0.71-0.21,1.28-0.68,1.64-1.29h1.2
		c0.2,0.4,0.64,0.68,1.15,0.68C88.27,59.37,88.38,55.29,86.47,55.29z"/>
</g>
</svg>
