<?xml version="1.0" encoding="utf-8"?>
<!-- Generator: Adobe Illustrator 23.0.1, SVG Export Plug-In . SVG Version: 6.00 Build 0)  -->
<svg version="1.1" xmlns="http://www.w3.org/2000/svg" xmlns:xlink="http://www.w3.org/1999/xlink" x="0px" y="0px"
	 viewBox="0 0 87.5 87.5" style="enable-background:new 0 0 87.5 87.5;" xml:space="preserve">
<style type="text/css">
	.st0{fill:#012340;stroke:#1E5CD9;stroke-width:2.8346;stroke-linecap:round;stroke-linejoin:round;stroke-miterlimit:10;}
	.st1{fill:#1E5CD9;}
	.st2{fill:#012340;}
	.st3{fill:#3C3C3B;}
	.st4{fill:#FCE495;}
	.st5{fill:#EF4925;}
	.st6{fill:#C6C5C4;}
	.st7{fill:#99999A;stroke:#231F20;stroke-miterlimit:10;}
	.st8{fill:#012340;stroke:#1E5CD9;stroke-width:1.4173;stroke-miterlimit:10;}
	.st9{opacity:0.1;enable-background:new    ;}
</style>
<g id="Слой_2">
	<path class="st0" d="M85.6,55c-0.1,0-0.2,0-0.3,0c-0.5,0-0.9,0.3-1.1,0.7h-0.7l0-3.3c0.2,0,0.3-0.1,0.4-0.1H84h0.2h0l0,0h0
		c0,0,0,0,0,0c0,0,0,0,0,0c0.6-0.2,0.6-2.6,0-2.6c0,0,0,0,0,0h0H84h0h-0.1c-0.1-0.1-0.3-0.1-0.5-0.1l0-1.4c0.1,0,0.2-0.1,0.2-0.1
		c0.1,0,0.2-0.1,0.2-0.2h0.2h0h0.4h0.1h0c0,0,0,0,0,0c1-0.2,1-4.4,0-4.5c0,0,0,0,0,0c0,0,0,0,0,0h0h-0.4h0h-0.2h0c0,0,0,0,0,0
		c0-0.1-0.1-0.1-0.1-0.1c0,0,0,0,0,0c0,0-0.1-0.1-0.1-0.1c-0.1,0-0.2-0.1-0.2-0.1c0,0,0,0,0,0c0-0.3-0.1-0.7-0.1-1
		c-0.1-0.7-0.3-1.5-0.4-2.2l-3.5-12.8c-0.5-1.7-2-2.9-3.8-2.9l-33.9-0.2c0-0.1,0-0.1,0-0.2c0-0.5-0.4-0.9-0.9-0.9h-8.9
		c-0.5,0-0.9,0.4-0.9,0.9c0,0,0,0.1,0,0.1l-5.8,0c-7.4,0-9.8,0-11.5,4h0.3c-1.4,3.1-2.5,6.4-3.5,9.7c0,0,0,0,0,0
		c-0.3,1.1-0.6,2.2-0.8,3.3H9.4c-0.1,0.2-0.3,0.4-0.4,0.6l-2.3,2.5c-0.1,0-0.2,0-0.3,0c-1.6,0-2.6,0.2-3,0.6H3.1H2.6c0,0,0,0,0,0
		c-0.1,0-0.3,0.1-0.4,0.2c0,0,0,0,0,0c-0.1,0.1-0.1,0.1-0.1,0.2c0,0,0,0.1,0,0.1C2,45,2,45.1,2,45.1c0,0.1,0,0.2-0.1,0.2
		c0,0,0,0.1,0,0.1c-0.2,1.1-0.2,2.6,0.2,3.3c0,0,0,0,0,0c0,0.1,0.1,0.2,0.1,0.2c0,0,0,0,0.1,0.1c0,0,0.1,0.1,0.1,0.1
		c0,0,0.1,0,0.1,0c0,0,0,0,0.1,0c0,0,0,0,0,0h0l0,0h0.1h0.4h0.2c0,0.1,0.1,0.1,0.2,0.2v0.9v1v0.4v0v1v0v0.4l0,1v0.9H3.2
		c-0.2-0.4-0.6-0.7-1-0.7c-0.9,0-1.3,1-1.2,2c0,1,0.4,2,1.2,2c0.5,0,0.8-0.3,1-0.7h0.7c0,0,0,0,0,0C4,58,4.1,58.1,4.2,58.2
		c0,0,0.1,0.1,0.1,0.1c0.2,0.1,0.3,0.2,0.5,0.3l2.5,0.8l0.4,0.1l0.5,0.2l0.4,0c0.8,3,3.4,5.1,6.6,5.1c0.8,0,1.5-0.1,2.3-0.4
		c0,0,0,0,0,0c0.7-0.2,1.3-0.6,1.9-1c0,0,0,0,0,0c0.3-0.2,0.5-0.4,0.8-0.7c0,0,0,0,0.1-0.1c0.5-0.5,0.9-1.1,1.2-1.8c0,0,0,0,0,0
		c0.1-0.3,0.3-0.7,0.4-1c0,0,0,0,0,0l0.9,0l9.5,0l32.9,0.1l0.3,0c0,0,0,0,0,0c0.1,0.3,0.2,0.6,0.4,0.9c0,0,0,0.1,0,0.1
		c1.1,2.3,3.4,3.8,6.1,3.8c3.1,0,5.7-2,6.6-4.8l1.2,0l0.4-0.1l1.1-0.3c0.7-0.2,1.2-0.7,1.6-1.2h1.1c0.2,0.4,0.6,0.7,1.1,0.7
		c0.4,0,0.8-0.2,1-0.6C86.9,57.3,86.7,55.3,85.6,55z M16.3,37.4v1.5c0,0.1,0,0.2,0,0.3L16.3,37.4z"/>
</g>
<g id="Слой_1">
	<path class="st1" d="M14.6,41.2c0.9,0,1.6-0.7,1.6-1.5l0.2-11.6c0-0.5-0.4-0.9-0.9-0.9l-1.4,0c-2,4.5-3.5,9.2-4.6,14L14.6,41.2z"/>
	<path class="st2" d="M41.6,23.7c0,0.5-0.4,0.9-0.9,0.9h-8.9c-0.5,0-0.9-0.4-0.9-0.9l0,0c0-0.5,0.4-0.9,0.9-0.9h8.9
		C41.1,22.7,41.6,23.1,41.6,23.7L41.6,23.7z"/>
	<path class="st2" d="M83.2,41.8c-0.1-0.7-0.3-1.5-0.4-2.2l-3.5-12.8c-0.5-1.7-2-2.9-3.8-2.9l-50.4-0.2c-7.4,0-9.8,0-11.5,4h1.5
		c0.7,0,1.2,0.5,1.2,1.2v10c0,1-0.8,1.8-1.8,1.8H9.4c-0.1,0.2-0.3,0.4-0.4,0.6l-4,4.2c-1,1-1.5,2.4-1.5,3.9v1v1v0.4v1v0.5l0,1l0,2.4
		c0,0.3,0.1,0.6,0.2,0.9c0.2,0.5,0.7,0.9,1.3,1.1l2.5,0.8l0.4,0.1l0.5,0.2l14.5,0.1l9.5,0l32.9,0.1L79.9,60l0.4-0.1l1.1-0.3
		c1.1-0.3,1.9-1.3,2-2.4c0-0.1,0-0.2,0-0.2l0.1-12.5C83.4,43.5,83.4,42.7,83.2,41.8z"/>
	<g>
		<path class="st3" d="M2.6,46.9c0,1.4,0.1,2.4,0.2,2.4c0.1,0,0.2-1.1,0.2-2.4s-0.1-2.4-0.2-2.4C2.7,44.4,2.6,45.5,2.6,46.9z"/>
		<path class="st2" d="M15,46.8C15,48.6,10,50,6.3,50c-1.6,0-2.6-0.3-3-0.7c-0.5-0.6-0.2-1.5-0.2-2.5c0-1-0.3-1.9,0.2-2.5
			c0.4-0.4,1.4-0.7,3-0.6C10,43.7,15.1,45.1,15,46.8z"/>
		<g>
			<path class="st4" d="M2.7,44.4c-1.3-0.1-1.3,4.9,0,4.9C2.8,48.4,2.8,45.3,2.7,44.4z"/>
			<path class="st2" d="M3.4,44.4H3.1H2.6c0,0,0.1,0.1,0.1,0.2c0.1,0.8,0.1,3.6,0,4.5c0,0.2,0,0.2-0.1,0.2h0.5h0.2
				C3.5,47.6,3.5,45.9,3.4,44.4z"/>
		</g>
	</g>
	<g>
		<path class="st2" d="M58,45.3c0,1.7,10.5,3.2,18.1,3.2c3.3,0,6.7-0.2,7.5-0.7c1.1-0.6,1-4.4-0.1-4.9c-0.8-0.4-4.2-0.7-7.5-0.7
			C68.4,42.3,58,43.6,58,45.3z"/>
	</g>
	<g>
		<path class="st2" d="M79,50.8c0,0.9,1.2,1.6,3.1,1.6c0.8,0,1.7-0.1,1.9-0.3c0.3-0.3,0.3-2.2,0-2.5c-0.2-0.2-1-0.3-1.9-0.3
			C80.2,49.3,79,50,79,50.8z"/>
	</g>
	<path class="st2" d="M5,55.2H3.2c-0.2-0.4-0.6-0.7-1-0.7c-1.7,0-1.6,4,0,4c0.5,0,0.8-0.3,1-0.7H5c0.7,0,1.3-0.6,1.3-1.3
		C6.3,55.8,5.7,55.2,5,55.2z"/>
	<path class="st2" d="M85.3,55c-0.5,0-0.9,0.3-1.1,0.7H82c-0.7,0-1.3,0.6-1.3,1.3s0.6,1.3,1.3,1.3h2.1c0.2,0.4,0.6,0.7,1.1,0.7
		C87,58.9,87.1,55,85.3,55z"/>
	<path class="st1" d="M27,40.3h-7.8c-0.9,0-1.7-0.8-1.7-1.7v-8.7c0-0.9,0.8-1.7,1.7-1.7H27c0.9,0,1.7,0.8,1.7,1.7v8.7
		C28.8,39.5,28,40.3,27,40.3z"/>
	<path class="st1" d="M39.9,40.3h-7.8c-0.9,0-1.7-0.8-1.7-1.7v-8.7c0-0.9,0.8-1.7,1.7-1.7h7.8c0.9,0,1.7,0.8,1.7,1.7v8.7
		C41.6,39.5,40.8,40.3,39.9,40.3z"/>
	<path class="st1" d="M52.7,40.3h-7.8c-0.9,0-1.7-0.8-1.7-1.7v-8.7c0-0.9,0.8-1.7,1.7-1.7h7.8c0.9,0,1.7,0.8,1.7,1.7v8.7
		C54.4,39.5,53.6,40.3,52.7,40.3z"/>
	<path class="st1" d="M65.5,40.3h-7.8c-0.9,0-1.7-0.8-1.7-1.7v-8.7c0-0.9,0.8-1.7,1.7-1.7h7.8c0.9,0,1.7,0.8,1.7,1.7v8.7
		C67.2,39.5,66.4,40.3,65.5,40.3z"/>
	<path class="st1" d="M79,40.3h-8.4c-1,0-1.8-1-1.8-2.2v-8.6c0-0.7,0.6-1.3,1.4-1.3h6.2c0.8,0,1.5,0.6,1.7,1.3l2.2,8.6
		C80.6,39.3,80.1,40.3,79,40.3z"/>
	<g>
		<path class="st5" d="M84.5,43.1c1.1-0.1,1.2,4.5,0,4.5C84.4,46.8,84.4,44,84.5,43.1z"/>
		<path class="st2" d="M83.9,43.1h0.2h0.4c0,0,0,0.1-0.1,0.2c-0.1,0.8-0.1,3.3,0,4.1c0,0.1,0,0.2,0.1,0.2h-0.4h-0.2
			C83.7,46.1,83.7,44.6,83.9,43.1z"/>
	</g>
	<g>
		<path class="st4" d="M84.2,49.5c0.7,0,0.7,2.6,0,2.6C84.1,51.6,84.1,50,84.2,49.5z"/>
		<path class="st6" d="M83.9,49.5H84h0.3c0,0,0,0,0,0.1c-0.1,0.4,0,1.9,0,2.4c0,0.1,0,0.1,0,0.1H84h-0.1
			C83.8,51.2,83.8,50.3,83.9,49.5z"/>
	</g>
	<path class="st2" d="M6.5,50.9c0,0.3-0.2,0.5-0.5,0.5H3.4v-1H6C6.2,50.4,6.5,50.6,6.5,50.9z"/>
	<path class="st2" d="M6.5,52.3c0,0.3-0.2,0.5-0.5,0.5H3.4v-1H6C6.2,51.8,6.5,52,6.5,52.3z"/>
	<path class="st2" d="M6.5,53.7c0,0.3-0.2,0.5-0.5,0.5H3.4l0-1H6C6.2,53.2,6.5,53.5,6.5,53.7z"/>
	<path class="st7" d="M19.7,57.9c0,2.4-2,4.4-4.4,4.4s-4.4-2-4.4-4.4s2-4.4,4.4-4.4C17.7,53.6,19.7,55.5,19.7,57.9z"/>
	<path class="st8" d="M15.3,51.1c-3.8,0-6.9,3.1-6.9,6.9c0,3.8,3.1,6.9,6.9,6.9c3.8,0,6.9-3.1,6.9-6.9
		C22.2,54.2,19.1,51.1,15.3,51.1z"/>
	<circle class="st7" cx="72.1" cy="57.9" r="4.4"/>
	<path class="st8" d="M72.1,51.1c-3.8,0-6.9,3.1-6.9,6.9c0,3.8,3.1,6.9,6.9,6.9c3.8,0,6.9-3.1,6.9-6.9C79,54.2,75.9,51.1,72.1,51.1z
		"/>
	<path class="st9" d="M85.3,55c-0.5,0-0.9,0.3-1.1,0.7h-0.8l0-3.3c0.2,0,0.4-0.1,0.5-0.1H84h0.2l0,0l0,0h0l0,0
		c0.6-0.1,0.6-2.6,0-2.6v0H84h-0.1l0,0c-0.1-0.1-0.3-0.1-0.5-0.1l0-1.4c0.1,0,0.2-0.1,0.3-0.1c0.1,0,0.2-0.1,0.2-0.2h0.2h0.4l0,0
		l0,0h0.1c0,0,0,0,0,0c1-0.2,1-4.4,0-4.5l0,0h-0.4h-0.2c0,0,0,0,0,0c-0.1-0.1-0.2-0.2-0.3-0.3c-0.1,0-0.2-0.1-0.3-0.1
		c0-0.3-0.1-0.7-0.1-1c-0.1-0.7-0.3-1.5-0.4-2.2l-0.4-1.6c-9,7.7-21.6,12.5-35.5,12.5c-14.3,0-27.2-5.1-36.3-13.2
		c-0.3,1.1-0.6,2.2-0.8,3.3H9.4c-0.1,0.2-0.3,0.4-0.4,0.6l-2.3,2.5c-0.1,0-0.2,0-0.3,0c-1.6,0-2.6,0.2-3,0.6l0,0H3.1H2.6
		c0,0,0,0,0,0c-1.2,0.1-1.2,4.7,0,4.9l0,0h0.1l0,0l0,0h0.4h0.2c0,0.1,0.1,0.1,0.2,0.2v0.9v1v0.4v1v0.5l0,1v0.9H3.2
		c-0.2-0.4-0.6-0.7-1-0.7c-1.7,0-1.6,4,0,4c0.5,0,0.8-0.3,1-0.7h0.6c0.3,0.4,0.6,0.6,1.1,0.8l2.5,0.8l0.4,0.1l0.5,0.2h0.4
		c0.8,3,3.4,5.1,6.6,5.1c3.2,0,5.8-2.2,6.6-5.1h0.9l9.5,0l32.9,0.1h0.3c0.8,2.8,3.5,4.9,6.6,4.9c3.1,0,5.7-2,6.6-4.8l1.2,0l0.4-0.1
		l1.1-0.3c0.7-0.2,1.2-0.7,1.6-1.3h1.2c0.2,0.4,0.6,0.7,1.1,0.7C87,58.9,87.1,55,85.3,55z"/>
</g>
</svg>
