<?xml version="1.0" encoding="utf-8"?>
<!-- Generator: Adobe Illustrator 23.0.1, SVG Export Plug-In . SVG Version: 6.00 Build 0)  -->
<svg version="1.1" xmlns="http://www.w3.org/2000/svg" xmlns:xlink="http://www.w3.org/1999/xlink" x="0px" y="0px"
	 viewBox="0 0 87.5 87.5" style="enable-background:new 0 0 87.5 87.5;" xml:space="preserve">
<style type="text/css">
	.st0{fill:#012340;stroke:#1E5CD9;stroke-width:2.8346;stroke-miterlimit:10;}
	.st1{fill:none;}
	.st2{opacity:0.2;fill:#80298F;enable-background:new    ;}
	.st3{fill:#012340;}
	.st4{fill:#1E5CD9;stroke:#012340;stroke-width:2.8346;stroke-linecap:round;stroke-linejoin:round;stroke-miterlimit:10;}
</style>
<g id="Слой_4">
</g>
<g id="Слой_2">
</g>
<g id="Слой_3">
	<g>
		<path class="st0" d="M81.1,8.6H59.1l-1.7-6.5c-0.1-0.4-0.7-0.7-1.3-0.7h-3.5c-0.4,0-0.8,0.1-1,0.3c-0.3,0.2-0.4,0.4-0.3,0.6l1,4.1
			h-5.1V3.1c0-0.4-0.6-0.8-1.3-0.8h-4.2c-0.7,0-1.3,0.4-1.3,0.8v3.3h-5.6l1-4.1c0.1-0.2-0.1-0.5-0.3-0.6c-0.3-0.2-0.6-0.3-1-0.3
			h-3.5c-0.7,0-1.2,0.3-1.3,0.7l-1.7,6.5H6.5c-1.5,0-2.7,0.7-2.7,1.6v34c0,0.9,1.2,1.6,2.7,1.6h3.4v0.6c0,0.6,0.8,1.2,1.9,1.2h5.9
			L8,84.8c-0.1,0.2,0.1,0.5,0.3,0.7c0.3,0.2,0.6,0.3,1,0.3h4.2c0.7,0,1.2-0.3,1.3-0.7L19.2,68h21.5v11.7c0,0.4,0.6,0.8,1.3,0.8H45
			c0.7,0,1.3-0.4,1.3-0.8V68h21.5l4.3,17.1c0.1,0.4,0.7,0.7,1.3,0.7h4.2c0.4,0,0.8-0.1,1-0.3c0.3-0.2,0.4-0.4,0.3-0.7l-9.7-37.3h5.9
			c1,0,1.9-0.5,1.9-1.2v-0.6h3.9c1.5,0,2.7-0.7,2.7-1.6v-34C83.7,9.3,82.5,8.6,81.1,8.6z M24.3,47.6h16v17.9H19.8L24.3,47.6z
			 M47.2,65.5V47.6h15.5l4.5,17.9H47.2z"/>
		<g>
			<defs>
				<polygon id="SVGID_1_" points="9.3,85 13.5,85 34.5,2.2 30.9,2.2 				"/>
			</defs>
			<clipPath id="SVGID_2_">
				<use xlink:href="#SVGID_1_"  style="overflow:visible;"/>
			</clipPath>
		</g>
		<g>
			<defs>
				<polygon id="SVGID_3_" points="9.3,85 13.5,85 34.5,2.2 30.9,2.2 				"/>
			</defs>
			<clipPath id="SVGID_4_">
				<use xlink:href="#SVGID_3_"  style="overflow:visible;"/>
			</clipPath>
		</g>
		<g>
			<defs>
				<polygon id="SVGID_5_" points="9.3,85 13.5,85 34.5,2.2 30.9,2.2 				"/>
			</defs>
			<clipPath id="SVGID_6_">
				<use xlink:href="#SVGID_5_"  style="overflow:visible;"/>
			</clipPath>
		</g>
		<polygon class="st1" points="9.3,85 13.5,85 34.5,2.2 30.9,2.2 		"/>
		<polygon class="st1" points="9.3,85 13.5,85 34.5,2.2 30.9,2.2 		"/>
		<polygon class="st1" points="77.7,85 73.5,85 52.5,2.2 56.1,2.2 		"/>
		<path class="st1" d="M75.2,46.8H11.8c-0.3,0-0.6-0.1-0.6-0.3v-1.9c0-0.2,0.2-0.3,0.6-0.3h63.4c0.3,0,0.6,0.1,0.6,0.3v1.9
			C75.8,46.6,75.5,46.8,75.2,46.8z"/>
		<path class="st1" d="M75.2,46.8H11.8c-0.3,0-0.6-0.1-0.6-0.3v-1.9c0-0.2,0.2-0.3,0.6-0.3h63.4c0.3,0,0.6,0.1,0.6,0.3v1.9
			C75.8,46.6,75.5,46.8,75.2,46.8z"/>
		<g>
			<polygon class="st2" points="43.5,7.2 31.7,7.2 31.7,7.3 43.5,7.3 55.2,7.3 55.2,7.2 			"/>
		</g>
		<polygon class="st1" points="43.5,7.2 31.7,7.2 31.7,9.8 43.5,9.8 55.2,9.8 55.2,7.2 		"/>
		<polygon class="st3" points="68.3,65.5 18.7,65.5 18.1,68 69,68 		"/>
		<path class="st3" d="M69.3,47.6h5.9c1,0,1.9-0.5,1.9-1.2v-1.9c0-0.6-0.8-1.1-1.9-1.1h-7L57.4,2.1c-0.1-0.4-0.7-0.7-1.3-0.7h-3.5
			c-0.4,0-0.8,0.1-1,0.3c-0.3,0.2-0.4,0.4-0.3,0.6l1,4.1h-5.1V3.1c0-0.4-0.6-0.8-1.3-0.8h-4.2c-0.7,0-1.3,0.4-1.3,0.8v3.3h-5.6
			l1-4.1c0.1-0.2-0.1-0.5-0.3-0.6c-0.3-0.2-0.6-0.3-1-0.3h-3.5c-0.7,0-1.2,0.3-1.3,0.7L18.8,43.4h-7c-1.1,0-1.9,0.5-1.9,1.1v1.9
			c0,0.6,0.8,1.2,1.9,1.2h5.9L8,84.8c-0.1,0.2,0.1,0.5,0.3,0.7c0.3,0.2,0.6,0.3,1,0.3h4.2c0.7,0,1.2-0.3,1.3-0.7l9.5-37.5h16v19.2
			c0,0.2,0.1,0.3,0.3,0.5v12.5c0,0.4,0.6,0.8,1.3,0.8H45c0.7,0,1.3-0.4,1.3-0.8V67.5c0.5-0.1,0.8-0.4,0.8-0.7V47.6h15.5l9.5,37.5
			c0.1,0.4,0.7,0.7,1.3,0.7h4.2c0.4,0,0.8-0.1,1-0.3c0.3-0.2,0.4-0.4,0.3-0.7L69.3,47.6z M33.6,11h6.7v32.3H25.4L33.6,11z M47.2,11
			h6.2l8.2,32.3H47.2V11z"/>
		<rect x="6.5" y="10.2" class="st4" width="74.6" height="34"/>
	</g>
</g>
<g id="Слой_1">
</g>
</svg>
