<?xml version="1.0" encoding="utf-8"?>
<!-- Generator: Adobe Illustrator 23.0.1, SVG Export Plug-In . SVG Version: 6.00 Build 0)  -->
<svg version="1.1" id="Слой_1" xmlns="http://www.w3.org/2000/svg" xmlns:xlink="http://www.w3.org/1999/xlink" x="0px" y="0px"
	 viewBox="0 0 87.51 87.5" style="enable-background:new 0 0 87.51 87.5;" xml:space="preserve">
<style type="text/css">
	.st0{fill:#80298F;}
	.st1{fill:#D6D6D6;}
	.st2{fill:#FCF6B0;}
	.st3{fill:#E30613;}
	.st4{fill:#9B9B9B;}
	.st5{fill:#80298F;stroke:#231F20;stroke-miterlimit:10;}
	.st6{opacity:0.1;}
</style>
<path d="M84.08,49.34l2.17-0.43c0.78-0.15,1.28-0.91,1.12-1.69l-2.21-11.11c-0.15-0.78-0.91-1.28-1.68-1.13l-2.17,0.43
	c-0.78,0.16-1.28,0.91-1.12,1.69l2.21,11.11C82.55,48.99,83.31,49.5,84.08,49.34z"/>
<path class="st0" d="M83.98,46.98l-0.14-0.62l-1.64-7.19c-0.02-0.1-0.05-0.2-0.09-0.29c-0.04-0.12-0.1-0.24-0.17-0.35l-5.37-8.81
	c-1.16-1.9-3.23-3.07-5.46-3.07c-10.96-0.8-21.89-0.84-32.78,0c-1.96,0.31-2.8,0.5-4.01,1.62L24.03,36.2
	c-0.31,0.24-0.66,0.43-1.02,0.58L4.85,41.13c-0.15,0.03-0.3,0.08-0.45,0.14c-0.07,0.03-0.14,0.06-0.2,0.09
	c-0.08,0.03-0.15,0.06-0.23,0.1c-0.1,0.05-0.2,0.12-0.3,0.18c-0.03,0.02-0.07,0.04-0.1,0.06c-0.11,0.08-0.23,0.16-0.33,0.25
	c-0.01,0.01-0.03,0.02-0.04,0.03c-0.3,0.26-0.56,0.57-0.77,0.91c-0.11,0.19-0.21,0.39-0.29,0.59h0c0,0.01,0,0.01,0,0.01l-1.85,4.73
	v0c-0.07,0.19-0.13,0.39-0.15,0.59c-0.04,0.29-0.04,0.6,0.02,0.9l0.21,1.02l0.52,2.56l0.05,0.24l0.06,0.28
	c0.23,1.14,1.16,2.01,2.31,2.15l1.94,0.25h0.42h17.65h34.51h18.17l4.67-1.96c0.69-0.26,1.28-0.67,1.76-1.2
	c0.5-0.55,0.86-1.23,1.03-1.98l0.52-2.21C84.12,48.25,84.12,47.6,83.98,46.98z M75.93,37.72c-0.25,0.42-0.7,0.68-1.19,0.69
	l-47.35,1.06c-0.6,0-1.14-0.36-1.37-0.91c-0.24-0.57-0.11-1.21,0.33-1.64c2.97-2.9,6.13-5.61,9.66-8.28
	c0.64-0.48,1.4-0.77,2.21-0.83c3.87-0.28,8.2-0.41,13.21-0.41c5.01,0,10.61,0.14,17.13,0.42c1.28,0.05,2.43,0.68,3.18,1.72
	c1.97,2.76,3.36,4.99,4.26,6.82C76.2,36.79,76.18,37.31,75.93,37.72z"/>
<path d="M71.73,29.53c-0.74-1.04-1.9-1.67-3.18-1.72c-6.52-0.28-12.12-0.42-17.12-0.42c-5.02,0-9.34,0.14-13.22,0.41
	c-0.8,0.06-1.57,0.34-2.21,0.83c-3.53,2.67-6.69,5.38-9.65,8.28c-0.44,0.43-0.57,1.07-0.33,1.64c0.23,0.55,0.77,0.91,1.37,0.91
	l47.35-1.06c0.49-0.01,0.93-0.27,1.19-0.69c0.25-0.42,0.28-0.93,0.06-1.37C75.09,34.52,73.69,32.29,71.73,29.53z M74.91,37.11
	c-0.04,0.07-0.12,0.11-0.2,0.12l-47.32,1.06h-0.01c-0.12,0-0.23-0.07-0.28-0.18c-0.05-0.11-0.02-0.24,0.07-0.33
	c2.93-2.87,6.05-5.54,9.54-8.18c0.46-0.35,1-0.55,1.58-0.59c3.85-0.28,8.14-0.41,13.13-0.41c4.99,0,10.57,0.14,17.07,0.42
	c0.91,0.04,1.73,0.49,2.26,1.23c1.93,2.7,3.29,4.88,4.17,6.65C74.96,36.95,74.96,37.04,74.91,37.11z"/>
<rect x="42.74" y="32.25" transform="matrix(0.1076 -0.9942 0.9942 0.1076 9.5043 77.1892)" width="10.02" height="2.1"/>
<rect x="64.16" y="28.16" transform="matrix(0.9831 -0.1833 0.1833 0.9831 -4.9644 12.6255)" width="3.3" height="10.02"/>
<path class="st1" d="M5.13,44.97l-0.02,0.05l-0.9,2.41c-0.14,0.37-0.57,0.66-1.05,0.76c-0.12,0.03-0.24,0.04-0.37,0.04H0.28v0
	l1.85-4.73c0,0,0-0.01,0-0.01h1.88C4.94,43.47,5.42,44.18,5.13,44.97z"/>
<path class="st2" d="M5.11,45.01l-0.9,2.41c-0.14,0.37-0.57,0.66-1.05,0.76c-0.86-0.19-1.51-1.04-1.51-2.05
	c0-1.16,0.84-2.1,1.87-2.1C4.2,44.03,4.78,44.42,5.11,45.01z"/>
<path class="st2" d="M1.56,53.29l-0.68,0l-0.52-2.56h0.87c0.36,0,0.71,0.22,0.77,0.52l0.27,1.22C2.36,52.91,2.05,53.29,1.56,53.29z"
	/>
<path class="st1" d="M83.74,45.94l-1.66,0.01c-0.6,0-1.18-0.42-1.29-0.93l-1.08-4.91c-0.09-0.43,0.27-0.77,0.8-0.77h1.72l0.05,0.24
	l0.7,3.04l0.14,0.59l0.55,2.44L83.74,45.94z"/>
<path class="st3" d="M83.14,42.54c0.01,0.05,0,0.1-0.03,0.13c-0.03,0.04-0.07,0.06-0.12,0.06h-1.6c-0.42,0-0.82-0.27-0.9-0.62
	l-0.4-1.9c-0.11-0.53,0.33-0.64,0.9-0.64l1.28,0.01c0.11,0,0.2,0.07,0.22,0.18L83.14,42.54z"/>
<path class="st2" d="M83.7,45.26c0.01,0.04,0,0.08-0.03,0.11c-0.02,0.03-0.06,0.05-0.1,0.05c-0.4,0-1.41,0-1.41,0
	c-0.34,0-0.65-0.21-0.7-0.5l-0.2-1.21c-0.07-0.4,0.23-0.74,0.67-0.74h1.11c0.08,0,0.15,0.06,0.17,0.14L83.7,45.26z"/>
<path class="st4" d="M19.74,53.98c0,2.64-2.14,4.77-4.77,4.77c-2.64,0-4.77-2.14-4.77-4.77c0-2.64,2.14-4.77,4.77-4.77
	C17.6,49.2,19.74,51.34,19.74,53.98z"/>
<path class="st5" d="M14.97,46.49c-4.13,0-7.49,3.35-7.49,7.48c0,4.13,3.35,7.49,7.48,7.49c4.14,0,7.49-3.35,7.49-7.48
	C22.45,49.85,19.1,46.49,14.97,46.49z"/>
<path class="st4" d="M73.99,53.98c0,2.64-2.14,4.77-4.77,4.77c-2.64,0-4.77-2.14-4.77-4.77c0-2.64,2.14-4.77,4.77-4.77
	C71.85,49.2,73.99,51.34,73.99,53.98z"/>
<path class="st5" d="M69.22,46.49c-4.14,0-7.49,3.35-7.49,7.48c0,4.13,3.35,7.49,7.48,7.49c4.13,0,7.49-3.35,7.49-7.48
	C76.7,49.85,73.36,46.49,69.22,46.49z"/>
<path class="st6" d="M85.16,36.12c-0.1-0.53-0.49-0.92-0.96-1.08c-0.5,0.38-1,0.76-1.51,1.12c-10.37,7.34-24.79,11.9-40.74,11.9
	c-12.66,0-24.34-2.88-33.81-7.73l-3.3,0.79c-0.15,0.03-0.3,0.08-0.45,0.14c-0.07,0.03-0.14,0.06-0.2,0.09
	c-0.08,0.03-0.15,0.06-0.23,0.1c-0.1,0.05-0.2,0.12-0.3,0.18c-0.03,0.02-0.07,0.04-0.1,0.06c-0.11,0.08-0.23,0.16-0.33,0.25
	c-0.01,0.01-0.03,0.02-0.04,0.03c-0.3,0.26-0.56,0.57-0.77,0.91c-0.11,0.19-0.21,0.39-0.29,0.59h0c0,0.01,0,0.01,0,0.01l-1.85,4.73
	v0c-0.07,0.19-0.13,0.39-0.15,0.59c-0.04,0.29-0.04,0.6,0.02,0.9l0.21,1.02l0.52,2.56l0.05,0.24l0.06,0.28
	c0.23,1.14,1.16,2.01,2.31,2.15l1.94,0.25h2.57c0.95,3.04,3.79,5.24,7.14,5.24c3.35,0,6.2-2.2,7.15-5.24h39.96
	c0.95,3.04,3.79,5.24,7.14,5.24c3.42,0,6.3-2.29,7.2-5.42l4.26-1.78c0.69-0.26,1.28-0.67,1.76-1.2c0.5-0.55,0.86-1.23,1.03-1.98
	l0.41-1.72c0.07,0,0.15-0.01,0.23-0.02l2.17-0.43c0.78-0.15,1.28-0.91,1.12-1.69L85.16,36.12z"/>
</svg>
