<?xml version="1.0" encoding="utf-8"?>
<!-- Generator: Adobe Illustrator 23.0.1, SVG Export Plug-In . SVG Version: 6.00 Build 0)  -->
<svg version="1.1" xmlns="http://www.w3.org/2000/svg" xmlns:xlink="http://www.w3.org/1999/xlink" x="0px" y="0px"
	 viewBox="0 0 87.5 87.5" style="enable-background:new 0 0 87.5 87.5;" xml:space="preserve">
<style type="text/css">
	.st0{fill:#012340;stroke:#1E5CD9;stroke-width:2.8346;stroke-miterlimit:10;}
	.st1{fill:#012340;}
	.st2{fill:#1E5CD9;}
	.st3{fill:#D6D6D6;}
	.st4{fill:#FCF6B0;}
	.st5{fill:#E30613;}
	.st6{fill:#9B9B9B;}
	.st7{opacity:0.1;enable-background:new    ;}
</style>
<g id="Слой_3">
	<path class="st0" d="M85.7,47.1l-1.9-9.3l-0.3-1.3c0-0.1-0.1-0.2-0.1-0.3c0,0,0,0,0,0c-0.3-0.5-0.9-0.9-1.5-0.7l-2.1,0.4
		c-0.4,0.1-0.7,0.3-0.9,0.6l-3.7-6.1c-1.1-1.8-3.1-3-5.3-3c-10.5-0.8-21-0.8-31.5,0c-1.9,0.3-2.7,0.5-3.9,1.6l-9.9,7.6
		c-0.3,0.2-0.6,0.4-1,0.6L9.5,40.5c0,0,0,0,0,0l-3.2,0.8c-0.1,0-0.3,0.1-0.4,0.1c-0.1,0-0.1,0.1-0.2,0.1c-0.1,0-0.1,0.1-0.2,0.1
		c-0.1,0-0.2,0.1-0.3,0.2c0,0-0.1,0-0.1,0.1C5,41.8,4.9,41.9,4.8,42c0,0,0,0,0,0c-0.3,0.3-0.5,0.5-0.7,0.9c-0.1,0.2-0.2,0.4-0.3,0.6
		c0,0,0,0,0,0L1.9,48c-0.1,0.2-0.1,0.4-0.1,0.6c0,0.3,0,0.6,0,0.9l0.2,1l0.5,2.5l0,0.2l0.1,0.3c0.1,0.5,0.4,1,0.8,1.4
		c0.4,0.4,0.9,0.6,1.4,0.7l1.9,0.2h0.4h2.1c0,0.1,0.1,0.1,0.1,0.2c0.1,0.2,0.2,0.4,0.3,0.6c0,0.1,0.1,0.2,0.2,0.3
		c0.1,0.3,0.3,0.5,0.5,0.8c0,0.1,0.1,0.1,0.2,0.2c0.2,0.2,0.4,0.5,0.6,0.7c0,0,0,0.1,0.1,0.1c0.2,0.2,0.5,0.5,0.8,0.7
		c0,0,0,0,0.1,0.1c1.2,0.9,2.7,1.4,4.3,1.4c3.2,0,6-2.1,6.9-5h1.2h33.2h4.1c0,0.1,0.1,0.1,0.1,0.2c0.1,0.2,0.2,0.4,0.3,0.6
		c0,0.1,0.1,0.2,0.2,0.3c0.1,0.3,0.3,0.5,0.5,0.8c0,0.1,0.1,0.1,0.2,0.2c0.2,0.2,0.4,0.5,0.6,0.7c0,0,0,0.1,0.1,0.1
		c0.2,0.2,0.5,0.5,0.8,0.7c0,0,0,0,0.1,0.1c1.2,0.9,2.7,1.4,4.3,1.4c3.3,0,6.1-2.2,6.9-5.2l4.1-1.7c0.7-0.3,1.2-0.6,1.7-1.2
		c0.5-0.5,0.8-1.2,1-1.9l0.4-1.6c0.1,0,0.1,0,0.2,0l2.1-0.4c0.5-0.1,0.8-0.4,1-0.8C85.7,47.6,85.8,47.4,85.7,47.1z M74.8,36.8
		c0,0,0-0.1,0-0.1c0,0,0,0,0,0C74.8,36.7,74.8,36.7,74.8,36.8z M74.7,36.4c-0.9-1.7-2.2-3.8-4-6.4c0-0.1-0.1-0.1-0.1-0.2
		c0,0.1,0.1,0.1,0.1,0.2C72.5,32.6,73.8,34.7,74.7,36.4z M26.6,38.3c0,0.1,0,0.3,0.1,0.4c0.2,0.5,0.7,0.9,1.3,0.9l45.5-1
		c0.5,0,0.9-0.3,1.1-0.7c0.1-0.2,0.2-0.4,0.2-0.6c0,0.2-0.1,0.4-0.2,0.6c-0.2,0.4-0.7,0.7-1.1,0.7l-45.5,1c-0.6,0-1.1-0.3-1.3-0.9
		C26.6,38.6,26.6,38.5,26.6,38.3z"/>
</g>
<g id="Слой_1">
	<path class="st1" d="M82.4,46.9l-0.1-0.6l-1.6-6.9c0-0.1,0-0.2-0.1-0.3c0-0.1-0.1-0.2-0.2-0.3l-5.2-8.5c-1.1-1.8-3.1-3-5.3-3
		c-10.5-0.8-21-0.8-31.5,0c-1.9,0.3-2.7,0.5-3.9,1.6l-9.9,7.6c-0.3,0.2-0.6,0.4-1,0.6L6.3,41.2c-0.1,0-0.3,0.1-0.4,0.1
		c-0.1,0-0.1,0.1-0.2,0.1c-0.1,0-0.1,0.1-0.2,0.1c-0.1,0-0.2,0.1-0.3,0.2c0,0-0.1,0-0.1,0.1C5,41.9,4.9,41.9,4.8,42c0,0,0,0,0,0
		c-0.3,0.3-0.5,0.5-0.7,0.9c-0.1,0.2-0.2,0.4-0.3,0.6l0,0c0,0,0,0,0,0L2,48l0,0c-0.1,0.2-0.1,0.4-0.1,0.6c0,0.3,0,0.6,0,0.9l0.2,1
		l0.5,2.5l0,0.2l0.1,0.3c0.2,1.1,1.1,1.9,2.2,2.1l1.9,0.2h0.4h17h33.2h17.5l4.5-1.9c0.7-0.3,1.2-0.6,1.7-1.2c0.5-0.5,0.8-1.2,1-1.9
		l0.5-2.1C82.6,48.1,82.6,47.5,82.4,46.9z M74.7,38c-0.2,0.4-0.7,0.7-1.1,0.7l-45.5,1c-0.6,0-1.1-0.3-1.3-0.9
		c-0.2-0.5-0.1-1.2,0.3-1.6c2.9-2.8,5.9-5.4,9.3-8c0.6-0.5,1.3-0.7,2.1-0.8c3.7-0.3,7.9-0.4,12.7-0.4s10.2,0.1,16.5,0.4
		c1.2,0,2.3,0.7,3.1,1.7c1.9,2.7,3.2,4.8,4.1,6.6C75,37.1,74.9,37.6,74.7,38z"/>
	<path class="st2" d="M85.7,47.1l-2.1-10.7c-0.1-0.8-0.9-1.2-1.6-1.1l-2.1,0.4c-0.8,0.2-1.2,0.9-1.1,1.6L80.9,48
		c0.1,0.8,0.9,1.2,1.6,1.1l2.1-0.4C85.4,48.6,85.8,47.8,85.7,47.1z"/>
	<path class="st2" d="M70.7,30.1c-0.7-1-1.8-1.6-3.1-1.7C61.3,28.2,55.9,28,51.1,28c-4.8,0-9,0.1-12.7,0.4c-0.8,0.1-1.5,0.3-2.1,0.8
		c-3.4,2.6-6.4,5.2-9.3,8c-0.4,0.4-0.5,1-0.3,1.6c0.2,0.5,0.7,0.9,1.3,0.9l45.5-1c0.5,0,0.9-0.3,1.1-0.7c0.2-0.4,0.3-0.9,0.1-1.3
		C73.9,34.9,72.5,32.7,70.7,30.1z"/>
	<path class="st1" d="M62.6,29.4l1.5,8.3l-16,0.4l1-8.9c0.7,0,1.3,0,2,0C54.6,29.2,58.4,29.3,62.6,29.4z"/>
	<path class="st1" d="M28,38.5c-0.1,0-0.2-0.1-0.3-0.2c0-0.1,0-0.2,0.1-0.3c2.8-2.8,5.8-5.3,9.2-7.9c0.4-0.3,1-0.5,1.5-0.6
		c2.6-0.2,5.4-0.3,8.6-0.4l-1,8.9L28,38.5L28,38.5z"/>
	<path class="st1" d="M73.7,37.4c0,0.1-0.1,0.1-0.2,0.1l-6.2,0.1l-1.5-8.1c0.6,0,1.1,0,1.7,0.1c0.9,0,1.7,0.5,2.2,1.2
		c1.9,2.6,3.2,4.7,4,6.4C73.8,37.2,73.8,37.3,73.7,37.4z"/>
	<path class="st3" d="M6.6,44.9L6.6,44.9l-0.9,2.4c-0.1,0.4-0.5,0.6-1,0.7c-0.1,0-0.2,0-0.4,0H1.9l0,0l1.8-4.5v0h1.8
		C6.4,43.5,6.9,44.2,6.6,44.9z"/>
	<path class="st4" d="M6.4,45l-0.9,2.3c-0.1,0.4-0.6,0.6-1,0.7c-0.8-0.2-1.5-1-1.5-2c0-1.1,0.8-2,1.8-2C5.5,44,6.1,44.4,6.4,45z"/>
	<path class="st4" d="M2.9,53H2.3l-0.5-2.5h0.8c0.3,0,0.7,0.2,0.7,0.5l0.3,1.2C3.7,52.6,3.4,53,2.9,53z"/>
	<path class="st3" d="M82.2,45.9l-1.6,0c-0.6,0-1.1-0.4-1.2-0.9l-1-4.7c-0.1-0.4,0.3-0.7,0.8-0.7h1.7l0,0.2l0.7,2.9l0.1,0.6l0.5,2.3
		L82.2,45.9z"/>
	<path class="st5" d="M81.6,42.6c0,0,0,0.1,0,0.1c0,0-0.1,0.1-0.1,0.1h-1.5c-0.4,0-0.8-0.3-0.9-0.6l-0.4-1.8
		c-0.1-0.5,0.3-0.6,0.9-0.6l1.2,0c0.1,0,0.2,0.1,0.2,0.2L81.6,42.6z"/>
	<path class="st4" d="M82.2,45.2c0,0,0,0.1,0,0.1c0,0-0.1,0-0.1,0c-0.4,0-1.4,0-1.4,0c-0.3,0-0.6-0.2-0.7-0.5l-0.2-1.2
		C79.8,43.3,80,43,80.5,43h1.1c0.1,0,0.1,0.1,0.2,0.1L82.2,45.2z"/>
	<path class="st6" d="M20.7,53.6c0,2.5-2.1,4.6-4.6,4.6c-2.5,0-4.6-2.1-4.6-4.6c0-2.5,2.1-4.6,4.6-4.6C18.6,49,20.7,51,20.7,53.6z"
		/>
	<path class="st0" d="M16.1,46.4c-4,0-7.2,3.2-7.2,7.2s3.2,7.2,7.2,7.2c4,0,7.2-3.2,7.2-7.2S20,46.4,16.1,46.4z"/>
	<path class="st6" d="M72.8,53.6c0,2.5-2.1,4.6-4.6,4.6c-2.5,0-4.6-2.1-4.6-4.6c0-2.5,2.1-4.6,4.6-4.6C70.8,49,72.8,51,72.8,53.6z"
		/>
	<path class="st0" d="M68.2,46.4c-4,0-7.2,3.2-7.2,7.2s3.2,7.2,7.2,7.2c4,0,7.2-3.2,7.2-7.2C75.4,49.6,72.2,46.4,68.2,46.4z"/>
	<path class="st7" d="M83.6,36.4c-0.1-0.5-0.5-0.9-0.9-1c-0.5,0.4-1,0.7-1.5,1.1c-10,7.1-23.8,11.4-39.2,11.4
		c-12.2,0-23.4-2.8-32.5-7.4l-3.2,0.8c-0.1,0-0.3,0.1-0.4,0.1c-0.1,0-0.1,0.1-0.2,0.1c-0.1,0-0.1,0.1-0.2,0.1
		c-0.1,0-0.2,0.1-0.3,0.2c0,0-0.1,0-0.1,0.1C5,41.8,4.9,41.9,4.8,42c0,0,0,0,0,0c-0.3,0.3-0.5,0.5-0.7,0.9c-0.1,0.2-0.2,0.4-0.3,0.6
		l0,0c0,0,0,0,0,0L1.9,48l0,0c-0.1,0.2-0.1,0.4-0.1,0.6c0,0.3,0,0.6,0,0.9l0.2,1l0.5,2.5l0,0.2l0.1,0.3c0.2,1.1,1.1,1.9,2.2,2.1
		l1.9,0.2h2.5c0.9,2.9,3.6,5,6.9,5s6-2.1,6.9-5h38.4c0.9,2.9,3.6,5,6.9,5c3.3,0,6.1-2.2,6.9-5.2l4.1-1.7c0.7-0.3,1.2-0.6,1.7-1.2
		c0.5-0.5,0.8-1.2,1-1.9l0.4-1.7c0.1,0,0.1,0,0.2,0l2.1-0.4c0.8-0.1,1.2-0.9,1.1-1.6L83.6,36.4z"/>
</g>
<g id="Слой_2">
</g>
</svg>
