<?xml version="1.0" encoding="utf-8"?>
<!-- Generator: Adobe Illustrator 23.0.1, SVG Export Plug-In . SVG Version: 6.00 Build 0)  -->
<svg version="1.1" id="Слой_1" xmlns="http://www.w3.org/2000/svg" xmlns:xlink="http://www.w3.org/1999/xlink" x="0px" y="0px"
	 viewBox="0 0 87.5 87.5" style="enable-background:new 0 0 87.5 87.5;" xml:space="preserve">
<style type="text/css">
	.st0{fill:#012340;stroke:#1E5CD9;stroke-width:2.8346;stroke-miterlimit:10;}
</style>
<g>
	<polygon class="st0" points="42.1,14.9 43.7,16.5 45.3,14.9 45.3,9.3 52,9.3 52,7.3 52,6.1 45.3,6.1 45.3,0 44.2,0 42.1,0 
		42.1,6.1 35.3,6.1 35.3,7.3 35.3,9.3 42.1,9.3 	"/>
	<path class="st0" d="M24.6,42.7c0.5,0,0.9-0.2,1.2-0.5l17.9-17.9l0,0v-5L23.4,39.8c-0.3,0.3-0.5,0.8-0.5,1.2
		C22.8,41.9,23.6,42.7,24.6,42.7z"/>
	<path class="st0" d="M43.7,24.3l17.9,17.9c0.3,0.3,0.8,0.5,1.2,0.5c1,0,1.7-0.8,1.7-1.7c0-0.5-0.2-0.9-0.5-1.2L43.7,19.3L43.7,24.3
		L43.7,24.3z"/>
	<path class="st0" d="M84.1,63.3l-24.6-10V43L43.7,27.2L28,42.8v10.5l-24.7,10c-1.8,0.7-1,2.8,0.9,2L7,64.2v23.3h17.2H28h8.2V64.9
		l7.4-7.5h0l7.5,7.5v22.6h4.6h3.6h17.1h3.9l0-23.3l2.7,1.1C85.2,66.1,85.9,64,84.1,63.3z M20.8,78.3h-6.7v-10l3.3-3.3l3.3,3.3V78.3z
		 M47.1,50h-6.7V40l3.3-3.3l3.3,3.3V50z M73.3,78.3h-6.7v-10l3.3-3.3l3.3,3.3V78.3z"/>
</g>
</svg>
