<?xml version="1.0" encoding="utf-8"?>
<!-- Generator: Adobe Illustrator 23.0.1, SVG Export Plug-In . SVG Version: 6.00 Build 0)  -->
<svg version="1.1" id="Слой_1" xmlns="http://www.w3.org/2000/svg" xmlns:xlink="http://www.w3.org/1999/xlink" x="0px" y="0px"
	 viewBox="0 0 87.51 87.5" style="enable-background:new 0 0 87.51 87.5;" xml:space="preserve">
<style type="text/css">
	.st0{fill-rule:evenodd;clip-rule:evenodd;fill:#80298F;}
</style>
<path class="st0" d="M42.08,0h2.1h1.1v6.1h6.77v1.15v2.04h-6.77v5.6l-1.6,1.6l-1.6-1.6V9.29h-6.76V7.25V6.1h6.76V0L42.08,0z
	 M28.05,53.32L3.39,63.34C1.62,64,2.36,66.11,4.31,65.31l2.65-1.08V87.5h17.17h3.92h8.21V64.89h0l7.44-7.51l0.01,0l7.52,7.51V87.5
	h4.58h3.64h17.13h3.92l0.04-23.28l2.65,1.08c1.96,0.8,2.69-1.31,0.92-1.97L59.46,53.31V42.96L43.68,27.17L28.05,42.82V53.32
	L28.05,53.32z M24.09,57.27l0.04,30.23L24.09,57.27L24.09,57.27z M78.87,63.54l-19.41-7.89l19.02,7.74L78.87,63.54L78.87,63.54z
	 M43.68,19.35l-20.32,20.4c-0.32,0.32-0.51,0.75-0.51,1.23c0,0.96,0.78,1.74,1.74,1.74c0.48,0,0.92-0.2,1.24-0.52l17.86-17.88
	L43.68,19.35l20.33,20.4c0.32,0.32,0.51,0.75,0.51,1.23c0,0.96-0.78,1.74-1.74,1.74c-0.48,0-0.92-0.2-1.24-0.52L43.68,24.32
	L43.68,19.35L43.68,19.35z M14.19,68.23l3.31-3.34l3.34,3.34v10.03h-6.65V68.23L14.19,68.23z M40.43,40.02l3.31-3.34l3.34,3.34
	v10.03h-6.65V40.02L40.43,40.02z M66.68,68.23l3.31-3.34l3.34,3.34v10.03h-6.65V68.23L66.68,68.23z"/>
</svg>
