<?xml version="1.0" encoding="utf-8"?>
<!-- Generator: Adobe Illustrator 23.0.1, SVG Export Plug-In . SVG Version: 6.00 Build 0)  -->
<svg version="1.1" xmlns="http://www.w3.org/2000/svg" xmlns:xlink="http://www.w3.org/1999/xlink" x="0px" y="0px"
	 viewBox="0 0 87.5 87.5" style="enable-background:new 0 0 87.5 87.5;" xml:space="preserve">
<style type="text/css">
	.st0{fill:#012340;stroke:#1E5CD9;stroke-width:2.8346;stroke-miterlimit:10;}
	.st1{enable-background:new    ;}
	.st2{fill:#012340;}
	.st3{fill:#424148;}
	.st4{fill:#1E5CD9;}
	.st5{clip-path:url(#SVGID_2_);enable-background:new    ;}
	.st6{fill:#35353B;}
	.st7{fill:#29292D;}
	.st8{fill:#414148;}
	.st9{fill:#4C4C54;}
	.st10{fill:#1A191D;}
	.st11{clip-path:url(#SVGID_4_);enable-background:new    ;}
	.st12{fill:#222125;}
	.st13{clip-path:url(#SVGID_6_);enable-background:new    ;}
	.st14{fill:#37363D;}
	.st15{clip-path:url(#SVGID_8_);enable-background:new    ;}
	.st16{clip-path:url(#SVGID_10_);enable-background:new    ;}
	.st17{clip-path:url(#SVGID_12_);enable-background:new    ;}
	.st18{fill:#CACACA;}
	.st19{clip-path:url(#SVGID_14_);enable-background:new    ;}
	.st20{fill:#C31C27;}
	.st21{clip-path:url(#SVGID_18_);enable-background:new    ;}
	.st22{clip-path:url(#SVGID_22_);enable-background:new    ;}
	.st23{fill:#D93F48;}
	.st24{clip-path:url(#SVGID_26_);enable-background:new    ;}
	.st25{clip-path:url(#SVGID_28_);enable-background:new    ;}
	.st26{fill:#FFB700;}
	.st27{clip-path:url(#SVGID_30_);enable-background:new    ;}
	.st28{clip-path:url(#SVGID_32_);enable-background:new    ;}
	.st29{fill:#FFD438;}
	.st30{fill:#5F5F66;}
	.st31{fill:#777777;}
</style>
<g id="Слой_2">
	<path class="st0" d="M83.3,49.3L81,50.6l0-10.9l-8.9-5.2l0-1l0-8.8l-2.3-1.3l-1.9,1.1L50.4,14.3l0-2.1l-2.3-1.3l-5,2.9l-2.9,10.5
		l0,17l-8.1-4.7l0-2.3l-1.8-1V24l-7.8-4.6l-20.8,12l0,24.3l7.8,4.5l11-6.4l0,0.6c-1.2,1-2.4,2-3.4,3c-0.5,0.4-1,1-1.4,1.5
		c-0.6,0.7-1.1,1.4-1.3,1.9l0,0c0,0,0,0,0,0.1c-0.2,0.4-0.4,0.8-0.6,1.2c0,0,0,0.1,0,0.1c-0.2,0.4-0.3,0.8-0.4,1.2c0,0,0,0,0,0.1
		c-0.1,0.4-0.2,0.9-0.3,1.3c0,0,0,0,0,0c-0.1,0.4-0.1,0.9-0.1,1.3c0,1.6,0.5,2.8,1.4,3.4l-1.2,0.7l0,2.3l16,9.2l7.8-4.6l0-2.3
		l-1.4-0.8c1.3-1.8,2.1-4,2.2-6l5.6,3.3l0,1L42.5,73l0,1.1l3.4,1.9l40.8-23.7v-1.1L83.3,49.3z M28,69L28,69c0,0,0-0.1,0.1-0.1
		c0,0.1-0.1,0.2-0.1,0.3C28,69.1,28,69.1,28,69C28,69,28,69,28,69z M28.5,68.2c0,0.1-0.1,0.1-0.1,0.2C28.4,68.4,28.5,68.3,28.5,68.2
		z M31.5,65C31.5,64.9,31.5,64.9,31.5,65C31.5,64.9,31.5,64.9,31.5,65z M75.9,38.5l-1.4-0.3C74.9,38.2,75.4,38.4,75.9,38.5z"/>
</g>
<g id="Слой_1">
	<g>
		<g class="st1">
			<g>
				<polygon class="st2" points="37,75 37,77.3 29.1,81.9 29.1,79.6 				"/>
			</g>
			<g>
				<polygon class="st2" points="29.1,79.6 29.1,81.9 13.1,72.7 13.1,70.3 				"/>
			</g>
			<g>
				<polygon class="st3" points="37,75 29.1,79.6 13.1,70.3 21,65.8 				"/>
			</g>
		</g>
	</g>
	<g>
		<g class="st1">
			<g>
				<polygon class="st4" points="86.6,51.2 86.6,52.4 45.8,76.1 45.8,74.9 				"/>
			</g>
			<g>
				<polygon class="st2" points="45.8,74.9 45.8,76.1 42.4,74.1 42.5,73 				"/>
			</g>
			<g>
				<polygon class="st4" points="86.6,51.2 45.8,74.9 42.5,73 83.3,49.3 				"/>
			</g>
		</g>
	</g>
	<g class="st1">
		<g>
			<defs>
				<path id="SVGID_1_" d="M74.4,38.1L58.7,29c2.6,0.6,4,1,6.6,1.6L81,39.7C78.4,39.1,77,38.7,74.4,38.1z"/>
			</defs>
			<clipPath id="SVGID_2_">
				<use xlink:href="#SVGID_1_"  style="overflow:visible;"/>
			</clipPath>
			<g class="st5">
				<path class="st6" d="M74.4,38.1L58.7,29c2.6,0.6,4,1,6.6,1.6L81,39.7C78.4,39.1,77,38.7,74.4,38.1L74.4,38.1z"/>
			</g>
		</g>
	</g>
	<g>
		<polygon class="st7" points="66.7,61 50.9,51.8 50.9,33.5 66.7,42.6 		"/>
	</g>
	<g>
		<polygon class="st8" points="66.7,42.6 50.9,33.5 58.7,29 74.4,38.1 		"/>
	</g>
	<g>
		<polygon class="st2" points="74.4,38.1 81,39.7 81,52.7 66.7,61 66.7,42.6 		"/>
		<polygon class="st2" points="68.1,43.4 74.6,39.6 79.6,40.8 79.6,51.9 68.1,58.5 		"/>
	</g>
	<g>
		<polygon class="st2" points="50.4,12.1 45.4,15.1 42.5,25.5 50.4,21 		"/>
		<polygon class="st2" points="42.5,25.5 42.4,51.4 50.3,46.9 50.4,21 		"/>
	</g>
	<polygon class="st4" points="45.4,15.1 43.1,13.7 40.2,24.2 42.5,25.5 	"/>
	<polygon class="st4" points="40.2,24.2 40.2,50.1 42.4,51.4 42.5,25.5 	"/>
	<g>
		<polygon class="st4" points="50.4,12.1 45.4,15.1 43.1,13.7 48.1,10.8 		"/>
	</g>
	<g>
		<polygon class="st2" points="69.6,25.4 69.5,59.2 63.5,62.7 56.8,35.1 66.4,25.9 		"/>
	</g>
	<g>
		<polygon class="st9" points="69.6,25.4 66.4,27.3 46.1,15.5 49.3,13.7 		"/>
	</g>
	<polygon class="st2" points="66.4,27.3 46.1,15.5 43.2,26.2 63.5,37.9 	"/>
	<polygon class="st2" points="43.2,26.2 43.2,51 63.5,62.7 63.5,37.9 	"/>
	<g>
		<polygon class="st2" points="72.1,24.7 67.1,27.6 64.2,38.1 72.1,33.5 		"/>
		<polygon class="st2" points="64.2,38.1 64.2,63.9 72,59.4 72.1,33.5 		"/>
	</g>
	<polygon class="st4" points="67.1,27.6 64.8,26.3 61.9,36.7 64.2,38.1 	"/>
	<polygon class="st4" points="61.9,36.7 61.9,62.6 64.2,63.9 64.2,38.1 	"/>
	<g>
		<polygon class="st4" points="72.1,24.7 67.1,27.6 64.8,26.3 69.8,23.4 		"/>
	</g>
	<path class="st4" d="M33.7,43.8c10.9,0.4,6.9-10,12.9-11.6l13.7,8c-6.1,4.2-2.2,13.4-12.9,11.6L33.7,43.8z"/>
	<g>
		<polygon class="st2" points="1.6,31.5 1.6,55.8 9.4,60.3 9.4,36.1 		"/>
	</g>
	<g>
		<polygon class="st2" points="9.4,36.1 9.4,60.3 30.3,48.3 30.3,24 		"/>
	</g>
	<g>
		<polygon class="st3" points="1.6,31.5 9.4,36.1 30.3,24 22.4,19.5 		"/>
		<polygon class="st2" points="3,31.5 3.8,32 9.4,35.3 28.1,24.5 28.9,24 22.4,20.3 		"/>
		<polygon class="st2" points="3.8,32 9.4,35.3 28.1,24.5 22.4,21.2 		"/>
	</g>
	<g class="st1">
		<g>
			<polygon class="st2" points="64.2,54.9 64.2,63.9 55,69.2 55,60.2 			"/>
		</g>
		<g>
			<polygon class="st2" points="62.8,57 62.8,63.4 56.4,67.1 56.4,60.7 			"/>
		</g>
		<g>
			<polygon class="st2" points="55,60.2 55,69.2 52.4,67.7 52.4,58.6 			"/>
		</g>
		<g>
			<polygon class="st2" points="64.2,54.9 55,60.2 52.4,58.6 61.5,53.3 			"/>
		</g>
	</g>
	<g class="st1">
		<g>
			<polygon class="st4" points="32.1,34.3 32.1,55.9 23.1,61.1 23.1,39.4 			"/>
		</g>
		<g>
			<polygon class="st2" points="23.1,39.4 23.1,61.1 20.4,59.6 20.5,37.9 			"/>
		</g>
		<g>
			<polygon class="st4" points="32.1,34.3 23.1,39.4 20.5,37.9 29.4,32.7 			"/>
		</g>
	</g>
	<g>
		<g class="st1">
			<g>
				<polygon class="st2" points="52.3,48.3 52.3,67.5 44.4,72 44.5,52.8 				"/>
			</g>
			<g>
				<polygon class="st2" points="44.5,52.8 44.4,72 23.6,60 23.6,40.8 				"/>
			</g>
			<g>
				<polygon class="st10" points="41.2,53.8 41.2,58.6 40.2,58 26.9,50.3 26.9,45.6 30.2,47.4 				"/>
			</g>
			<g>
				<polygon class="st3" points="52.3,48.3 44.5,52.8 23.6,40.8 31.5,36.2 				"/>
				<polygon class="st2" points="50.9,48.3 50.1,48.7 44.5,52 25.8,41.2 25,40.8 31.5,37 				"/>
				<polygon class="st2" points="50.1,48.7 44.5,52 25.8,41.2 31.5,37.9 				"/>
			</g>
		</g>
	</g>
	<g class="st1">
		<g>
			<polygon class="st4" points="55,47.6 55,69.2 46.1,74.4 46.1,52.7 			"/>
			<g>
				<path class="st2" d="M46.6,73.5l0-20.5l7.9-4.6l0,20.5L46.6,73.5z M46.9,53.2l0,19.9l7.4-4.3l0-19.9L46.9,53.2z"/>
			</g>
		</g>
		<g>
			<polygon class="st2" points="46.1,52.7 46.1,74.4 43.4,72.9 43.4,51.2 			"/>
		</g>
		<g>
			<polygon class="st4" points="55,47.6 46.1,52.7 43.4,51.2 52.4,46 			"/>
		</g>
	</g>
	<g>
		<g class="st1">
			<g class="st1">
				<g>
					<defs>
						<path id="SVGID_3_" d="M49.3,68.4l0.4,0.2c-0.2-0.1-0.5-0.1-0.8,0.1l-0.4-0.2C48.8,68.3,49.1,68.3,49.3,68.4z"/>
					</defs>
					<clipPath id="SVGID_4_">
						<use xlink:href="#SVGID_3_"  style="overflow:visible;"/>
					</clipPath>
					<g class="st11">
						<path class="st12" d="M48.8,68.7l-0.4-0.2c0.3-0.2,0.6-0.2,0.8-0.1l0.4,0.2C49.4,68.5,49.1,68.5,48.8,68.7L48.8,68.7z"/>
					</g>
				</g>
			</g>
			<g class="st1">
				<g>
					<defs>
						<path id="SVGID_5_" d="M48,71.4l-0.4-0.2c-0.2-0.1-0.3-0.4-0.3-0.7c0-0.7,0.5-1.6,1.1-2l0.4,0.2c-0.6,0.4-1.1,1.3-1.1,2
							C47.7,71,47.8,71.3,48,71.4z"/>
					</defs>
					<clipPath id="SVGID_6_">
						<use xlink:href="#SVGID_5_"  style="overflow:visible;"/>
					</clipPath>
					<g class="st13">
						<path class="st12" d="M48,71.4l-0.4-0.2c-0.2-0.1-0.3-0.4-0.3-0.7c0-0.7,0.5-1.6,1.1-2l0.4,0.2c-0.6,0.4-1.1,1.3-1.1,2
							C47.7,71,47.8,71.3,48,71.4L48,71.4z"/>
					</g>
				</g>
			</g>
			<g>
				<path class="st14" d="M48.8,68.7c0.6-0.4,1.1-0.1,1.1,0.7c0,0.7-0.5,1.6-1.1,2c-0.6,0.4-1.1,0.1-1.1-0.7
					C47.7,69.9,48.2,69,48.8,68.7z"/>
			</g>
		</g>
	</g>
	<g>
		<g class="st1">
			<g class="st1">
				<g>
					<defs>
						<path id="SVGID_7_" d="M49.1,65.6l0.3,0.2c-0.2-0.1-0.4-0.1-0.6,0.1l-0.3-0.2C48.8,65.5,49,65.5,49.1,65.6z"/>
					</defs>
					<clipPath id="SVGID_8_">
						<use xlink:href="#SVGID_7_"  style="overflow:visible;"/>
					</clipPath>
					<g class="st15">
						<path class="st12" d="M48.8,65.8l-0.3-0.2c0.2-0.1,0.5-0.1,0.6-0.1l0.3,0.2C49.2,65.6,49,65.6,48.8,65.8L48.8,65.8z"/>
					</g>
				</g>
			</g>
			<g class="st1">
				<g>
					<defs>
						<path id="SVGID_9_" d="M48.2,67.8l-0.3-0.2c-0.2-0.1-0.2-0.3-0.2-0.6c0-0.5,0.4-1.2,0.9-1.5l0.3,0.2c-0.5,0.3-0.9,0.9-0.9,1.5
							C47.9,67.5,48,67.7,48.2,67.8z"/>
					</defs>
					<clipPath id="SVGID_10_">
						<use xlink:href="#SVGID_9_"  style="overflow:visible;"/>
					</clipPath>
					<g class="st16">
						<path class="st12" d="M48.2,67.8l-0.3-0.2c-0.2-0.1-0.2-0.3-0.2-0.6c0-0.5,0.4-1.2,0.9-1.5l0.3,0.2c-0.5,0.3-0.9,0.9-0.9,1.5
							C47.9,67.5,48,67.7,48.2,67.8L48.2,67.8z"/>
					</g>
				</g>
			</g>
			<g>
				<path class="st14" d="M48.8,65.8c0.5-0.3,0.9,0,0.9,0.5s-0.4,1.2-0.9,1.5s-0.9,0-0.9-0.5C47.9,66.7,48.3,66.1,48.8,65.8z"/>
			</g>
		</g>
	</g>
	<g class="st1">
		<g>
			<defs>
				<path id="SVGID_11_" d="M22.5,56.2l13.7,8c-1-0.6-2.4-0.5-4,0.4l-13.7-8C20,55.7,21.4,55.6,22.5,56.2z"/>
			</defs>
			<clipPath id="SVGID_12_">
				<use xlink:href="#SVGID_11_"  style="overflow:visible;"/>
			</clipPath>
			<g class="st17">
				<path class="st18" d="M32.2,64.5l-13.7-8c1.2-0.7,2.4-0.9,3.3-0.7l13.7,8C34.5,63.6,33.4,63.8,32.2,64.5L32.2,64.5z"/>
				<path class="st4" d="M35.4,63.9l-13.7-8c0.2,0.1,0.5,0.2,0.7,0.3l13.7,8C35.9,64,35.7,63.9,35.4,63.9L35.4,63.9z"/>
			</g>
		</g>
	</g>
	<g class="st1">
		<g>
			<defs>
				<path id="SVGID_13_" d="M28.2,77.8l-13.7-8c-1-0.6-1.6-1.8-1.6-3.6c0-3.6,2.5-7.9,5.6-9.7l13.7,8c-3.1,1.8-5.6,6.1-5.6,9.7
					C26.6,76,27.2,77.2,28.2,77.8z"/>
			</defs>
			<clipPath id="SVGID_14_">
				<use xlink:href="#SVGID_13_"  style="overflow:visible;"/>
			</clipPath>
			<g class="st19">
				<path class="st4" d="M28.2,77.8l-13.7-8c-1-0.6-1.6-1.8-1.6-3.6c0-1.7,0.6-3.5,1.5-5.2L28,69c-0.9,1.7-1.5,3.5-1.5,5.2
					C26.6,76,27.2,77.2,28.2,77.8L28.2,77.8z"/>
				<path class="st18" d="M28,69l-13.7-8c1-1.9,2.5-3.5,4.1-4.4l13.7,8C30.5,65.5,29.1,67.1,28,69L28,69z"/>
			</g>
		</g>
	</g>
	<g>
		<path class="st2" d="M32.2,64.5c3.1-1.8,5.6-0.4,5.6,3.2s-2.5,7.9-5.6,9.7c-3.1,1.8-5.6,0.4-5.6-3.2S29.1,66.3,32.2,64.5z"/>
	</g>
	<g>
		<path class="st9" d="M32.2,69.2c0.9-0.5,1.6-0.1,1.6,0.9c0,1-0.7,2.2-1.5,2.7c-0.9,0.5-1.6,0.1-1.6-0.9
			C30.6,70.9,31.3,69.7,32.2,69.2z"/>
	</g>
	<path class="st4" d="M41.2,53.8v3.4c-0.3,0.2-0.7,0.5-1.1,0.7c-4.4,3.2-10.7,8.1-12.1,11l-13.7-8c1.1-2.7,8-8.1,12.6-11.4
		c1.3-1,2.5-1.7,3.2-2.2L41.2,53.8z"/>
	<g>
		<g>
			<g class="st1">
				<g>
					<polygon class="st2" points="52.2,58.3 52,58.2 52,51.5 52.2,51.7 					"/>
				</g>
				<g>
					<polygon class="st9" points="52.2,51.7 52,51.5 53.6,50.6 53.8,50.7 					"/>
				</g>
				<g>
					<polygon class="st2" points="53.8,50.7 53.8,57.4 52.2,58.3 52.2,51.7 					"/>
				</g>
			</g>
		</g>
		<g>
			<g class="st1">
				<g class="st1">
					<g>
						<path id="SVGID_15_" class="st20" d="M53.5,53.8l-0.2-0.1c-0.1-0.1-0.2,0-0.4,0l0.2,0.1C53.2,53.8,53.4,53.8,53.5,53.8z"/>
					</g>
					<g>
						<defs>
							<path id="SVGID_16_" d="M53.5,53.8l-0.2-0.1c-0.1-0.1-0.2,0-0.4,0l0.2,0.1C53.2,53.8,53.4,53.8,53.5,53.8z"/>
						</defs>
						<clipPath id="SVGID_18_">
							<use xlink:href="#SVGID_16_"  style="overflow:visible;"/>
						</clipPath>
						<g class="st21">
							<path class="st20" d="M53.5,53.8l-0.2-0.1c-0.1-0.1-0.2,0-0.4,0l0.2,0.1C53.2,53.8,53.4,53.8,53.5,53.8L53.5,53.8z"/>
						</g>
					</g>
				</g>
				<g class="st1">
					<g>
						<path id="SVGID_17_" class="st20" d="M52.5,55l0.2,0.1c-0.1-0.1-0.2-0.2-0.2-0.4c0-0.4,0.2-0.8,0.6-1l-0.2-0.1
							c-0.3,0.2-0.6,0.6-0.6,1C52.3,54.9,52.4,55,52.5,55z"/>
					</g>
					<g>
						<defs>
							<path id="SVGID_20_" d="M52.5,55l0.2,0.1c-0.1-0.1-0.2-0.2-0.2-0.4c0-0.4,0.2-0.8,0.6-1l-0.2-0.1c-0.3,0.2-0.6,0.6-0.6,1
								C52.3,54.9,52.4,55,52.5,55z"/>
						</defs>
						<clipPath id="SVGID_22_">
							<use xlink:href="#SVGID_20_"  style="overflow:visible;"/>
						</clipPath>
						<g class="st22">
							<path class="st20" d="M53.1,53.9l-0.2-0.1c-0.3,0.2-0.6,0.6-0.6,1c0,0.2,0.1,0.3,0.2,0.4l0.2,0.1c-0.1-0.1-0.2-0.2-0.2-0.4
								C52.5,54.5,52.8,54,53.1,53.9L53.1,53.9z"/>
						</g>
					</g>
				</g>
				<g>
					<path class="st23" d="M53.1,53.9c-0.3,0.2-0.6,0.6-0.6,1s0.2,0.5,0.6,0.3s0.6-0.6,0.6-1C53.6,53.8,53.4,53.7,53.1,53.9z"/>
				</g>
			</g>
		</g>
		<g>
			<g class="st1">
				<g class="st1">
					<g>
						<path id="SVGID_19_" class="st4" d="M53.5,55.8l-0.2-0.1c-0.1-0.1-0.2,0-0.4,0l0.2,0.1C53.2,55.8,53.4,55.8,53.5,55.8z"/>
					</g>
					<g>
						<defs>
							<path id="SVGID_24_" d="M53.5,55.8l-0.2-0.1c-0.1-0.1-0.2,0-0.4,0l0.2,0.1C53.2,55.8,53.4,55.8,53.5,55.8z"/>
						</defs>
						<clipPath id="SVGID_26_">
							<use xlink:href="#SVGID_24_"  style="overflow:visible;"/>
						</clipPath>
						<g class="st24">
							<path class="st4" d="M53.5,55.8l-0.2-0.1c-0.1-0.1-0.2,0-0.4,0l0.2,0.1C53.2,55.8,53.4,55.8,53.5,55.8L53.5,55.8z"/>
						</g>
					</g>
				</g>
				<g class="st1">
					<g>
						<path id="SVGID_21_" class="st4" d="M52.5,57.1l0.2,0.1c-0.1-0.1-0.2-0.2-0.2-0.4c0-0.4,0.2-0.8,0.6-1l-0.2-0.1
							c-0.3,0.2-0.6,0.6-0.6,1C52.3,56.9,52.4,57,52.5,57.1z"/>
					</g>
					<g>
						<defs>
							<path id="SVGID_27_" d="M52.5,57.1l0.2,0.1c-0.1-0.1-0.2-0.2-0.2-0.4c0-0.4,0.2-0.8,0.6-1l-0.2-0.1c-0.3,0.2-0.6,0.6-0.6,1
								C52.3,56.9,52.4,57,52.5,57.1z"/>
						</defs>
						<clipPath id="SVGID_28_">
							<use xlink:href="#SVGID_27_"  style="overflow:visible;"/>
						</clipPath>
						<g class="st25">
							<path class="st4" d="M53.1,55.9l-0.2-0.1c-0.3,0.2-0.6,0.6-0.6,1c0,0.2,0.1,0.3,0.2,0.4l0.2,0.1c-0.1-0.1-0.2-0.2-0.2-0.4
								C52.5,56.5,52.8,56.1,53.1,55.9L53.1,55.9z"/>
						</g>
					</g>
				</g>
				<g>
					<path class="st2" d="M53.1,55.9c-0.3,0.2-0.6,0.6-0.6,1s0.2,0.5,0.6,0.3c0.3-0.2,0.6-0.6,0.6-1C53.6,55.8,53.4,55.7,53.1,55.9z
						"/>
				</g>
			</g>
		</g>
		<g>
			<g class="st1">
				<g class="st1">
					<g>
						<path id="SVGID_23_" class="st26" d="M53.5,51.7l-0.2-0.1c-0.1-0.1-0.2,0-0.4,0l0.2,0.1C53.2,51.7,53.4,51.7,53.5,51.7z"/>
					</g>
					<g>
						<defs>
							<path id="SVGID_29_" d="M53.5,51.7l-0.2-0.1c-0.1-0.1-0.2,0-0.4,0l0.2,0.1C53.2,51.7,53.4,51.7,53.5,51.7z"/>
						</defs>
						<clipPath id="SVGID_30_">
							<use xlink:href="#SVGID_29_"  style="overflow:visible;"/>
						</clipPath>
						<g class="st27">
							<path class="st26" d="M53.5,51.7l-0.2-0.1c-0.1-0.1-0.2,0-0.4,0l0.2,0.1C53.2,51.7,53.4,51.7,53.5,51.7L53.5,51.7z"/>
						</g>
					</g>
				</g>
				<g class="st1">
					<g>
						<path id="SVGID_25_" class="st26" d="M52.5,52.9l0.2,0.1c-0.1-0.1-0.2-0.2-0.2-0.4c0-0.3,0.2-0.8,0.6-1l-0.2-0.1
							c-0.3,0.2-0.6,0.6-0.6,1C52.3,52.8,52.4,52.9,52.5,52.9z"/>
					</g>
					<g>
						<defs>
							<path id="SVGID_31_" d="M52.5,52.9l0.2,0.1c-0.1-0.1-0.2-0.2-0.2-0.4c0-0.3,0.2-0.8,0.6-1l-0.2-0.1c-0.3,0.2-0.6,0.6-0.6,1
								C52.3,52.8,52.4,52.9,52.5,52.9z"/>
						</defs>
						<clipPath id="SVGID_32_">
							<use xlink:href="#SVGID_31_"  style="overflow:visible;"/>
						</clipPath>
						<g class="st28">
							<path class="st26" d="M53.1,51.7l-0.2-0.1c-0.3,0.2-0.6,0.6-0.6,1c0,0.2,0.1,0.3,0.2,0.4l0.2,0.1c-0.1-0.1-0.2-0.2-0.2-0.4
								C52.5,52.3,52.8,51.9,53.1,51.7L53.1,51.7z"/>
						</g>
					</g>
				</g>
				<g>
					<path class="st29" d="M53.1,51.7c-0.3,0.2-0.6,0.6-0.6,1c0,0.4,0.2,0.5,0.6,0.3c0.3-0.2,0.6-0.6,0.6-1
						C53.6,51.7,53.4,51.6,53.1,51.7z"/>
				</g>
			</g>
		</g>
	</g>
	<polygon class="st30" points="19.7,37.4 10.4,42.7 10.4,36.9 19.7,31.6 	"/>
	<g>
		<g>
			<polygon class="st4" points="13.8,35.5 13.8,40.2 19.3,37 19.3,32.3 19,32.5 			"/>
			<polygon class="st2" points="13.8,35.5 13.8,39.8 19,36.8 19,36.8 19,32.5 16.8,33.8 16.4,34 15.5,34.5 14.6,35 			"/>
			<path class="st3" d="M16.8,33.8l0.6-0.3c0.6,0.2,1.1,0.4,1.7,0.7v0.6C18.3,34.4,17.5,34.1,16.8,33.8L16.8,33.8z"/>
			<path class="st2" d="M15.5,34.5l0.1-0.1c1.1,0.4,2.2,0.8,3.3,1.3v1.1c-1.5-0.6-2.9-1.2-4.4-1.8L15.5,34.5z"/>
			<polygon class="st3" points="14.6,35 19,36.8 19,36.8 19,36.8 19,35.9 15.5,34.5 			"/>
		</g>
		<g>
			<g>
				<g>
					<path class="st2" d="M10.9,37.8C10.9,37.8,10.9,37.7,10.9,37.8l-0.1-0.3c0-0.1,0-0.2,0.1-0.2l0.2-0.1c0,0,0,0,0.1,0
						c0,0,0.1,0,0.1,0.1v0.2c0,0.1,0,0.2-0.1,0.2L10.9,37.8C11,37.8,11,37.8,10.9,37.8z"/>
					<path class="st31" d="M11.3,37.1C11.3,37.1,11.4,37.1,11.3,37.1l0.1,0.3c0,0.1,0,0.2-0.1,0.2L11,37.7c0,0,0,0,0,0
						c0,0-0.1,0-0.1-0.1v-0.2c0-0.1,0-0.2,0.1-0.2L11.3,37.1C11.3,37.1,11.3,37.1,11.3,37.1L11.3,37.1z M11.3,37.1
						C11.3,37.1,11.2,37.1,11.3,37.1L11,37.3c-0.1,0-0.1,0.1-0.1,0.2v0.2c0,0.1,0,0.1,0.1,0.1c0,0,0,0,0.1,0l0.2-0.1
						c0.1,0,0.1-0.1,0.1-0.2L11.3,37.1C11.4,37.1,11.3,37.1,11.3,37.1L11.3,37.1z"/>
				</g>
				<g>
					<path class="st2" d="M11.6,37.4C11.5,37.4,11.5,37.4,11.6,37.4l-0.1-0.3c0-0.1,0-0.2,0.1-0.2l0.2-0.1c0,0,0,0,0.1,0
						c0,0,0.1,0,0.1,0.1V37c0,0.1,0,0.2-0.1,0.2L11.6,37.4C11.6,37.4,11.6,37.4,11.6,37.4z"/>
					<path class="st31" d="M11.9,36.7C12,36.7,12,36.8,11.9,36.7L12,37c0,0.1,0,0.2-0.1,0.2l-0.2,0.1c0,0,0,0,0,0c0,0-0.1,0-0.1-0.1
						v-0.2c0-0.1,0-0.2,0.1-0.2L11.9,36.7C11.9,36.7,11.9,36.7,11.9,36.7L11.9,36.7z M11.9,36.7C11.9,36.7,11.9,36.7,11.9,36.7
						l-0.3,0.2c-0.1,0-0.1,0.1-0.1,0.2v0.2c0,0.1,0,0.1,0.1,0.1c0,0,0,0,0.1,0l0.2-0.1c0.1,0,0.1-0.1,0.1-0.2L11.9,36.7
						C12,36.7,12,36.7,11.9,36.7L11.9,36.7z"/>
				</g>
				<g>
					<path class="st2" d="M12.2,37C12.2,37,12.2,37,12.2,37l-0.1-0.3c0-0.1,0-0.2,0.1-0.2l0.2-0.1c0,0,0,0,0.1,0c0,0,0.1,0,0.1,0.1
						v0.2c0,0.1,0,0.2-0.1,0.2L12.2,37C12.3,37,12.2,37,12.2,37z"/>
					<path class="st31" d="M12.6,36.3C12.6,36.3,12.6,36.4,12.6,36.3l0.1,0.3c0,0.1,0,0.2-0.1,0.2L12.3,37c0,0,0,0,0,0
						c0,0-0.1,0-0.1-0.1v-0.2c0-0.1,0-0.2,0.1-0.2L12.6,36.3C12.5,36.3,12.6,36.3,12.6,36.3L12.6,36.3z M12.6,36.3L12.6,36.3
						C12.6,36.3,12.5,36.3,12.6,36.3l-0.3,0.2c-0.1,0-0.1,0.1-0.1,0.2v0.2c0,0.1,0,0.1,0.1,0.1c0,0,0,0,0.1,0l0.2-0.1
						c0.1,0,0.1-0.1,0.1-0.2L12.6,36.3C12.7,36.4,12.6,36.3,12.6,36.3L12.6,36.3z"/>
				</g>
				<g>
					<path class="st2" d="M12.9,36.6C12.8,36.6,12.8,36.6,12.9,36.6l-0.1-0.3c0-0.1,0-0.2,0.1-0.2l0.2-0.1c0,0,0,0,0.1,0
						c0,0,0.1,0,0.1,0.1v0.2c0,0.1,0,0.2-0.1,0.2L12.9,36.6C12.9,36.6,12.9,36.6,12.9,36.6z"/>
					<path class="st31" d="M13.2,36C13.3,36,13.3,36,13.2,36l0.1,0.3c0,0.1,0,0.2-0.1,0.2l-0.2,0.1c0,0,0,0,0,0c0,0-0.1,0-0.1-0.1
						v-0.2c0-0.1,0-0.2,0.1-0.2L13.2,36C13.2,36,13.2,36,13.2,36L13.2,36z M13.2,35.9L13.2,35.9C13.2,35.9,13.2,35.9,13.2,35.9
						l-0.3,0.2c-0.1,0-0.1,0.1-0.1,0.2v0.2c0,0.1,0,0.1,0.1,0.1c0,0,0,0,0.1,0l0.2-0.1c0.1,0,0.1-0.1,0.1-0.2L13.2,35.9
						C13.3,36,13.3,35.9,13.2,35.9L13.2,35.9z"/>
				</g>
			</g>
			<g>
				<g>
					<path class="st2" d="M10.9,38.4C10.9,38.4,10.9,38.3,10.9,38.4l-0.1-0.3c0-0.1,0-0.2,0.1-0.2l0.2-0.1c0,0,0,0,0.1,0
						c0,0,0.1,0,0.1,0.1V38c0,0.1,0,0.2-0.1,0.2L10.9,38.4C11,38.4,11,38.4,10.9,38.4z"/>
					<path class="st31" d="M11.3,37.7C11.3,37.7,11.4,37.7,11.3,37.7l0.1,0.3c0,0.1,0,0.2-0.1,0.2L11,38.4c0,0,0,0,0,0
						c0,0-0.1,0-0.1-0.1v-0.2c0-0.1,0-0.2,0.1-0.2L11.3,37.7C11.3,37.7,11.3,37.7,11.3,37.7L11.3,37.7z M11.3,37.7
						C11.3,37.7,11.3,37.7,11.3,37.7L11,37.9c-0.1,0-0.1,0.1-0.1,0.2v0.2c0,0.1,0,0.1,0.1,0.1c0,0,0,0,0.1,0l0.2-0.1
						c0.1,0,0.1-0.1,0.1-0.2L11.3,37.7C11.4,37.7,11.4,37.7,11.3,37.7L11.3,37.7z"/>
				</g>
				<g>
					<path class="st2" d="M11.6,38C11.5,38,11.5,38,11.6,38l-0.1-0.3c0-0.1,0-0.2,0.1-0.2l0.2-0.1c0,0,0,0,0.1,0c0,0,0.1,0,0.1,0.1
						v0.2c0,0.1,0,0.2-0.1,0.2L11.6,38C11.6,38,11.6,38,11.6,38z"/>
					<path class="st31" d="M11.9,37.3C12,37.3,12,37.4,11.9,37.3l0.1,0.3c0,0.1,0,0.2-0.1,0.2L11.6,38c0,0,0,0,0,0
						c0,0-0.1,0-0.1-0.1v-0.2c0-0.1,0-0.2,0.1-0.2L11.9,37.3C11.9,37.3,11.9,37.3,11.9,37.3L11.9,37.3z M11.9,37.3
						C11.9,37.3,11.9,37.3,11.9,37.3l-0.3,0.2c-0.1,0-0.1,0.1-0.1,0.2v0.2c0,0.1,0,0.1,0.1,0.1c0,0,0,0,0.1,0l0.2-0.1
						c0.1,0,0.1-0.1,0.1-0.2L11.9,37.3C12,37.4,12,37.3,11.9,37.3L11.9,37.3z"/>
				</g>
				<g>
					<path class="st2" d="M12.2,37.6C12.2,37.6,12.2,37.6,12.2,37.6l-0.1-0.3c0-0.1,0-0.2,0.1-0.2l0.2-0.1c0,0,0,0,0.1,0
						c0,0,0.1,0,0.1,0.1v0.2c0,0.1,0,0.2-0.1,0.2L12.2,37.6C12.3,37.6,12.3,37.6,12.2,37.6z"/>
					<path class="st31" d="M12.6,36.9C12.6,36.9,12.7,37,12.6,36.9l0.1,0.3c0,0.1,0,0.2-0.1,0.2l-0.2,0.1c0,0,0,0,0,0
						c0,0-0.1,0-0.1-0.1v-0.2c0-0.1,0-0.2,0.1-0.2L12.6,36.9C12.6,36.9,12.6,36.9,12.6,36.9L12.6,36.9z M12.6,36.9
						C12.6,36.9,12.5,36.9,12.6,36.9l-0.3,0.2c-0.1,0-0.1,0.1-0.1,0.2v0.2c0,0.1,0,0.1,0.1,0.1c0,0,0,0,0.1,0l0.2-0.1
						c0.1,0,0.1-0.1,0.1-0.2L12.6,36.9C12.7,37,12.6,36.9,12.6,36.9L12.6,36.9z"/>
				</g>
				<g>
					<path class="st2" d="M12.9,37.2C12.8,37.2,12.8,37.2,12.9,37.2l-0.1-0.3c0-0.1,0-0.2,0.1-0.2l0.2-0.1c0,0,0,0,0.1,0
						c0,0,0.1,0,0.1,0.1v0.2c0,0.1,0,0.2-0.1,0.2L12.9,37.2C12.9,37.2,12.9,37.2,12.9,37.2z"/>
					<path class="st31" d="M13.2,36.6C13.3,36.6,13.3,36.6,13.2,36.6l0.1,0.3c0,0.1,0,0.2-0.1,0.2l-0.2,0.1c0,0,0,0,0,0
						c0,0-0.1,0-0.1-0.1v-0.2c0-0.1,0-0.2,0.1-0.2L13.2,36.6C13.2,36.6,13.2,36.6,13.2,36.6L13.2,36.6z M13.2,36.5L13.2,36.5
						C13.2,36.5,13.2,36.6,13.2,36.5l-0.3,0.2c-0.1,0-0.1,0.1-0.1,0.2v0.2c0,0.1,0,0.1,0.1,0.1c0,0,0,0,0.1,0l0.2-0.1
						c0.1,0,0.1-0.1,0.1-0.2L13.2,36.5C13.3,36.6,13.3,36.5,13.2,36.5L13.2,36.5z"/>
				</g>
			</g>
			<g>
				<g>
					<path class="st2" d="M11,39C10.9,39,10.9,38.9,11,39l-0.1-0.3c0-0.1,0-0.2,0.1-0.2l0.2-0.1c0,0,0,0,0.1,0c0,0,0.1,0,0.1,0.1
						v0.2c0,0.1,0,0.2-0.1,0.2L11,39C11,39,11,39,11,39z"/>
					<path class="st31" d="M11.3,38.3C11.3,38.3,11.4,38.3,11.3,38.3l0.1,0.3c0,0.1,0,0.2-0.1,0.2L11,39c0,0,0,0,0,0
						c0,0-0.1,0-0.1-0.1v-0.2c0-0.1,0-0.2,0.1-0.2L11.3,38.3C11.3,38.3,11.3,38.3,11.3,38.3L11.3,38.3z M11.3,38.3
						C11.3,38.3,11.3,38.3,11.3,38.3L11,38.5c-0.1,0-0.1,0.1-0.1,0.2v0.2c0,0.1,0,0.1,0.1,0.1c0,0,0,0,0.1,0l0.2-0.1
						c0.1,0,0.1-0.1,0.1-0.2L11.3,38.3C11.4,38.3,11.4,38.3,11.3,38.3L11.3,38.3z"/>
				</g>
				<g>
					<path class="st2" d="M11.6,38.6C11.6,38.6,11.5,38.6,11.6,38.6l-0.1-0.3c0-0.1,0-0.2,0.1-0.2l0.2-0.1c0,0,0,0,0.1,0
						c0,0,0.1,0,0.1,0.1v0.2c0,0.1,0,0.2-0.1,0.2L11.6,38.6C11.6,38.6,11.6,38.6,11.6,38.6z"/>
					<path class="st31" d="M11.9,37.9C12,37.9,12,38,11.9,37.9l0.1,0.3c0,0.1,0,0.2-0.1,0.2l-0.2,0.1c0,0,0,0,0,0c0,0-0.1,0-0.1-0.1
						v-0.2c0-0.1,0-0.2,0.1-0.2L11.9,37.9C11.9,37.9,11.9,37.9,11.9,37.9L11.9,37.9z M11.9,37.9C11.9,37.9,11.9,37.9,11.9,37.9
						l-0.3,0.2c-0.1,0-0.1,0.1-0.1,0.2v0.2c0,0.1,0,0.1,0.1,0.1c0,0,0,0,0.1,0l0.2-0.1c0.1,0,0.1-0.1,0.1-0.2L11.9,37.9
						C12,37.9,12,37.9,11.9,37.9L11.9,37.9z"/>
				</g>
				<g>
					<path class="st2" d="M12.2,38.2C12.2,38.2,12.2,38.2,12.2,38.2l-0.1-0.3c0-0.1,0-0.2,0.1-0.2l0.2-0.1c0,0,0,0,0.1,0
						c0,0,0.1,0,0.1,0.1v0.2c0,0.1,0,0.2-0.1,0.2L12.2,38.2C12.3,38.2,12.3,38.2,12.2,38.2z"/>
					<path class="st31" d="M12.6,37.5C12.6,37.5,12.7,37.6,12.6,37.5l0.1,0.3c0,0.1,0,0.2-0.1,0.2l-0.2,0.1c0,0,0,0,0,0
						c0,0-0.1,0-0.1-0.1v-0.2c0-0.1,0-0.2,0.1-0.2L12.6,37.5C12.6,37.6,12.6,37.5,12.6,37.5L12.6,37.5z M12.6,37.5
						C12.6,37.5,12.6,37.5,12.6,37.5l-0.3,0.2c-0.1,0-0.1,0.1-0.1,0.2v0.2c0,0.1,0,0.1,0.1,0.1c0,0,0,0,0.1,0l0.2-0.1
						c0.1,0,0.1-0.1,0.1-0.2L12.6,37.5C12.7,37.6,12.6,37.5,12.6,37.5L12.6,37.5z"/>
				</g>
				<g>
					<path class="st2" d="M12.9,37.8C12.8,37.8,12.8,37.8,12.9,37.8l-0.1-0.3c0-0.1,0-0.2,0.1-0.2l0.2-0.1c0,0,0,0,0.1,0
						c0,0,0.1,0,0.1,0.1v0.2c0,0.1,0,0.2-0.1,0.2L12.9,37.8C12.9,37.8,12.9,37.8,12.9,37.8z"/>
					<path class="st31" d="M13.2,37.2C13.3,37.2,13.3,37.2,13.2,37.2l0.1,0.3c0,0.1,0,0.2-0.1,0.2l-0.2,0.1c0,0,0,0,0,0
						c0,0-0.1,0-0.1-0.1v-0.2c0-0.1,0-0.2,0.1-0.2L13.2,37.2C13.2,37.2,13.2,37.2,13.2,37.2L13.2,37.2z M13.2,37.1
						C13.2,37.1,13.2,37.2,13.2,37.1l-0.3,0.2c-0.1,0-0.1,0.1-0.1,0.2v0.2c0,0.1,0,0.1,0.1,0.1c0,0,0,0,0.1,0l0.2-0.1
						c0.1,0,0.1-0.1,0.1-0.2L13.2,37.1C13.3,37.2,13.3,37.1,13.2,37.1L13.2,37.1z"/>
				</g>
			</g>
			<g>
				<g>
					<path class="st2" d="M11,39.6C10.9,39.6,10.9,39.5,11,39.6l-0.1-0.3c0-0.1,0-0.2,0.1-0.2l0.2-0.1c0,0,0,0,0.1,0
						c0,0,0.1,0,0.1,0.1v0.2c0,0.1,0,0.2-0.1,0.2L11,39.6C11,39.6,11,39.6,11,39.6z"/>
					<path class="st31" d="M11.3,38.9C11.4,38.9,11.4,38.9,11.3,38.9l0.1,0.3c0,0.1,0,0.2-0.1,0.2L11,39.6c0,0,0,0,0,0
						c0,0-0.1,0-0.1-0.1v-0.2c0-0.1,0-0.2,0.1-0.2L11.3,38.9C11.3,38.9,11.3,38.9,11.3,38.9L11.3,38.9z M11.3,38.9
						C11.3,38.9,11.3,38.9,11.3,38.9L11,39.1c-0.1,0-0.1,0.1-0.1,0.2v0.2c0,0.1,0,0.1,0.1,0.1c0,0,0,0,0.1,0l0.2-0.1
						c0.1,0,0.1-0.1,0.1-0.2L11.3,38.9C11.4,38.9,11.4,38.9,11.3,38.9L11.3,38.9z"/>
				</g>
				<g>
					<path class="st2" d="M11.6,39.2C11.6,39.2,11.5,39.2,11.6,39.2l-0.1-0.3c0-0.1,0-0.2,0.1-0.2l0.2-0.1c0,0,0,0,0.1,0
						c0,0,0.1,0,0.1,0.1v0.2c0,0.1,0,0.2-0.1,0.2L11.6,39.2C11.7,39.2,11.6,39.2,11.6,39.2z"/>
					<path class="st31" d="M12,38.5C12,38.5,12,38.6,12,38.5l0.1,0.3c0,0.1,0,0.2-0.1,0.2l-0.2,0.1c0,0,0,0,0,0c0,0-0.1,0-0.1-0.1
						v-0.2c0-0.1,0-0.2,0.1-0.2L12,38.5C11.9,38.5,11.9,38.5,12,38.5L12,38.5z M12,38.5C11.9,38.5,11.9,38.5,12,38.5l-0.3,0.2
						c-0.1,0-0.1,0.1-0.1,0.2v0.2c0,0.1,0,0.1,0.1,0.1c0,0,0,0,0.1,0l0.2-0.1c0.1,0,0.1-0.1,0.1-0.2L12,38.5
						C12,38.6,12,38.5,12,38.5L12,38.5z"/>
				</g>
				<g>
					<path class="st2" d="M12.3,38.8C12.2,38.8,12.2,38.8,12.3,38.8l-0.1-0.3c0-0.1,0-0.2,0.1-0.2l0.2-0.1c0,0,0,0,0.1,0
						c0,0,0.1,0,0.1,0.1v0.2c0,0.1,0,0.2-0.1,0.2L12.3,38.8C12.3,38.8,12.3,38.8,12.3,38.8z"/>
					<path class="st31" d="M12.6,38.1C12.6,38.1,12.7,38.2,12.6,38.1l0.1,0.3c0,0.1,0,0.2-0.1,0.2l-0.2,0.1c0,0,0,0,0,0
						c0,0-0.1,0-0.1-0.1v-0.2c0-0.1,0-0.2,0.1-0.2L12.6,38.1C12.6,38.2,12.6,38.1,12.6,38.1L12.6,38.1z M12.6,38.1
						C12.6,38.1,12.6,38.1,12.6,38.1l-0.3,0.2c-0.1,0-0.1,0.1-0.1,0.2v0.2c0,0.1,0,0.1,0.1,0.1c0,0,0,0,0.1,0l0.2-0.1
						c0.1,0,0.1-0.1,0.1-0.2L12.6,38.1C12.7,38.2,12.7,38.1,12.6,38.1L12.6,38.1z"/>
				</g>
				<g>
					<path class="st2" d="M12.9,38.4C12.9,38.4,12.8,38.4,12.9,38.4l-0.1-0.3c0-0.1,0-0.2,0.1-0.2l0.2-0.1c0,0,0,0,0.1,0
						c0,0,0.1,0,0.1,0.1V38c0,0.1,0,0.2-0.1,0.2L12.9,38.4C12.9,38.4,12.9,38.4,12.9,38.4z"/>
					<path class="st31" d="M13.2,37.8C13.3,37.8,13.3,37.8,13.2,37.8l0.1,0.3c0,0.1,0,0.2-0.1,0.2l-0.2,0.1c0,0,0,0,0,0
						c0,0-0.1,0-0.1-0.1v-0.2c0-0.1,0-0.2,0.1-0.2L13.2,37.8C13.2,37.8,13.2,37.8,13.2,37.8L13.2,37.8z M13.2,37.7
						C13.2,37.7,13.2,37.8,13.2,37.7l-0.3,0.2c-0.1,0-0.1,0.1-0.1,0.2v0.2c0,0.1,0,0.1,0.1,0.1c0,0,0,0,0.1,0l0.2-0.1
						c0.1,0,0.1-0.1,0.1-0.2L13.2,37.7C13.3,37.8,13.3,37.7,13.2,37.7L13.2,37.7z"/>
				</g>
			</g>
			<g>
				<g>
					<path class="st2" d="M11,40.2C10.9,40.2,10.9,40.2,11,40.2l-0.1-0.3c0-0.1,0-0.2,0.1-0.2l0.2-0.1c0,0,0,0,0.1,0
						c0,0,0.1,0,0.1,0.1v0.2c0,0.1,0,0.2-0.1,0.2L11,40.2C11,40.2,11,40.2,11,40.2z"/>
					<path class="st31" d="M11.3,39.5C11.3,39.5,11.4,39.6,11.3,39.5l0.1,0.3c0,0.1,0,0.2-0.1,0.2L11,40.2c0,0,0,0,0,0
						c0,0-0.1,0-0.1-0.1v-0.2c0-0.1,0-0.2,0.1-0.2L11.3,39.5C11.3,39.5,11.3,39.5,11.3,39.5L11.3,39.5z M11.3,39.5
						C11.3,39.5,11.3,39.5,11.3,39.5L11,39.7c-0.1,0-0.1,0.1-0.1,0.2v0.2c0,0.1,0,0.1,0.1,0.1c0,0,0,0,0.1,0l0.2-0.1
						c0.1,0,0.1-0.1,0.1-0.2L11.3,39.5C11.4,39.6,11.4,39.5,11.3,39.5L11.3,39.5z"/>
				</g>
				<g>
					<path class="st2" d="M11.6,39.8C11.6,39.8,11.5,39.8,11.6,39.8l-0.1-0.3c0-0.1,0-0.2,0.1-0.2l0.2-0.1c0,0,0,0,0.1,0
						c0,0,0.1,0,0.1,0.1v0.2c0,0.1,0,0.2-0.1,0.2L11.6,39.8C11.6,39.8,11.6,39.8,11.6,39.8z"/>
					<path class="st31" d="M11.9,39.1C12,39.1,12,39.2,11.9,39.1l0.1,0.3c0,0.1,0,0.2-0.1,0.2l-0.2,0.1c0,0,0,0,0,0
						c0,0-0.1,0-0.1-0.1v-0.2c0-0.1,0-0.2,0.1-0.2L11.9,39.1C11.9,39.1,11.9,39.1,11.9,39.1L11.9,39.1z M11.9,39.1
						C11.9,39.1,11.9,39.1,11.9,39.1l-0.3,0.2c-0.1,0-0.1,0.1-0.1,0.2v0.2c0,0.1,0,0.1,0.1,0.1c0,0,0,0,0.1,0l0.2-0.1
						c0.1,0,0.1-0.1,0.1-0.2L11.9,39.1C12,39.2,12,39.1,11.9,39.1L11.9,39.1z"/>
				</g>
				<g>
					<path class="st2" d="M12.2,39.4C12.2,39.4,12.2,39.4,12.2,39.4l-0.1-0.3c0-0.1,0-0.2,0.1-0.2l0.2-0.1c0,0,0,0,0.1,0
						c0,0,0.1,0,0.1,0.1V39c0,0.1,0,0.2-0.1,0.2L12.2,39.4C12.3,39.4,12.3,39.4,12.2,39.4z"/>
					<path class="st31" d="M12.6,38.8C12.6,38.8,12.7,38.8,12.6,38.8l0.1,0.3c0,0.1,0,0.2-0.1,0.2l-0.2,0.1c0,0,0,0,0,0
						c0,0-0.1,0-0.1-0.1v-0.2c0-0.1,0-0.2,0.1-0.2L12.6,38.8C12.6,38.8,12.6,38.8,12.6,38.8L12.6,38.8z M12.6,38.7
						C12.6,38.7,12.6,38.8,12.6,38.7l-0.3,0.2c-0.1,0-0.1,0.1-0.1,0.2v0.2c0,0.1,0,0.1,0.1,0.1c0,0,0,0,0.1,0l0.2-0.1
						c0.1,0,0.1-0.1,0.1-0.2L12.6,38.7C12.7,38.8,12.6,38.7,12.6,38.7L12.6,38.7z"/>
				</g>
				<g>
					<path class="st2" d="M12.9,39C12.8,39,12.8,39,12.9,39l-0.1-0.3c0-0.1,0-0.2,0.1-0.2l0.2-0.1c0,0,0,0,0.1,0c0,0,0.1,0,0.1,0.1
						v0.2c0,0.1,0,0.2-0.1,0.2L12.9,39C12.9,39,12.9,39,12.9,39z"/>
					<path class="st31" d="M13.2,38.4C13.3,38.4,13.3,38.4,13.2,38.4l0.1,0.3c0,0.1,0,0.2-0.1,0.2L12.9,39c0,0,0,0,0,0
						c0,0-0.1,0-0.1-0.1v-0.2c0-0.1,0-0.2,0.1-0.2L13.2,38.4C13.2,38.4,13.2,38.4,13.2,38.4L13.2,38.4z M13.2,38.4
						C13.2,38.4,13.2,38.4,13.2,38.4l-0.3,0.2c-0.1,0-0.1,0.1-0.1,0.2v0.2c0,0.1,0,0.1,0.1,0.1c0,0,0,0,0.1,0l0.2-0.1
						c0.1,0,0.1-0.1,0.1-0.2L13.2,38.4C13.3,38.4,13.3,38.4,13.2,38.4L13.2,38.4z"/>
				</g>
			</g>
			<g>
				<g>
					<path class="st2" d="M11,40.8C10.9,40.8,10.9,40.8,11,40.8l-0.1-0.3c0-0.1,0-0.2,0.1-0.2l0.2-0.1c0,0,0,0,0.1,0
						c0,0,0.1,0,0.1,0.1v0.2c0,0.1,0,0.2-0.1,0.2L11,40.8C11,40.8,11,40.8,11,40.8z"/>
					<path class="st31" d="M11.3,40.1C11.4,40.1,11.4,40.2,11.3,40.1l0.1,0.3c0,0.1,0,0.2-0.1,0.2L11,40.8c0,0,0,0,0,0
						c0,0-0.1,0-0.1-0.1v-0.2c0-0.1,0-0.2,0.1-0.2L11.3,40.1C11.3,40.1,11.3,40.1,11.3,40.1L11.3,40.1z M11.3,40.1
						C11.3,40.1,11.3,40.1,11.3,40.1L11,40.3c-0.1,0-0.1,0.1-0.1,0.2v0.2c0,0.1,0,0.1,0.1,0.1c0,0,0,0,0.1,0l0.2-0.1
						c0.1,0,0.1-0.1,0.1-0.2L11.3,40.1C11.4,40.2,11.4,40.1,11.3,40.1L11.3,40.1z"/>
				</g>
				<g>
					<path class="st2" d="M11.6,40.4C11.6,40.4,11.5,40.4,11.6,40.4l-0.1-0.3c0-0.1,0-0.2,0.1-0.2l0.2-0.1c0,0,0,0,0.1,0
						c0,0,0.1,0,0.1,0.1V40c0,0.1,0,0.2-0.1,0.2L11.6,40.4C11.7,40.4,11.6,40.4,11.6,40.4z"/>
					<path class="st31" d="M12,39.7C12,39.7,12,39.8,12,39.7L12,40c0,0.1,0,0.2-0.1,0.2l-0.2,0.1c0,0,0,0,0,0c0,0-0.1,0-0.1-0.1
						v-0.2c0-0.1,0-0.2,0.1-0.2L12,39.7C11.9,39.8,11.9,39.7,12,39.7L12,39.7z M12,39.7C11.9,39.7,11.9,39.7,12,39.7l-0.3,0.2
						c-0.1,0-0.1,0.1-0.1,0.2v0.2c0,0.1,0,0.1,0.1,0.1c0,0,0,0,0.1,0l0.2-0.1c0.1,0,0.1-0.1,0.1-0.2L12,39.7
						C12,39.8,12,39.7,12,39.7L12,39.7z"/>
				</g>
				<g>
					<path class="st2" d="M12.3,40C12.2,40,12.2,40,12.3,40l-0.1-0.3c0-0.1,0-0.2,0.1-0.2l0.2-0.1c0,0,0,0,0.1,0c0,0,0.1,0,0.1,0.1
						v0.2c0,0.1,0,0.2-0.1,0.2L12.3,40C12.3,40,12.3,40,12.3,40z"/>
					<path class="st31" d="M12.6,39.4C12.6,39.4,12.7,39.4,12.6,39.4l0.1,0.3c0,0.1,0,0.2-0.1,0.2L12.3,40c0,0,0,0,0,0
						c0,0-0.1,0-0.1-0.1v-0.2c0-0.1,0-0.2,0.1-0.2L12.6,39.4C12.6,39.4,12.6,39.4,12.6,39.4L12.6,39.4z M12.6,39.3
						C12.6,39.3,12.6,39.4,12.6,39.3l-0.3,0.2c-0.1,0-0.1,0.1-0.1,0.2v0.2c0,0.1,0,0.1,0.1,0.1c0,0,0,0,0.1,0l0.2-0.1
						c0.1,0,0.1-0.1,0.1-0.2L12.6,39.3C12.7,39.4,12.7,39.3,12.6,39.3L12.6,39.3z"/>
				</g>
				<g>
					<path class="st2" d="M12.9,39.6C12.9,39.6,12.8,39.6,12.9,39.6l-0.1-0.3c0-0.1,0-0.2,0.1-0.2l0.2-0.1c0,0,0,0,0.1,0
						c0,0,0.1,0,0.1,0.1v0.2c0,0.1,0,0.2-0.1,0.2L12.9,39.6C12.9,39.6,12.9,39.6,12.9,39.6z"/>
					<path class="st31" d="M13.2,39C13.3,39,13.3,39,13.2,39l0.1,0.3c0,0.1,0,0.2-0.1,0.2l-0.2,0.1c0,0,0,0,0,0c0,0-0.1,0-0.1-0.1
						v-0.2c0-0.1,0-0.2,0.1-0.2L13.2,39C13.2,39,13.2,39,13.2,39L13.2,39z M13.2,39C13.2,39,13.2,39,13.2,39l-0.3,0.2
						c-0.1,0-0.1,0.1-0.1,0.2v0.2c0,0.1,0,0.1,0.1,0.1c0,0,0,0,0.1,0l0.2-0.1c0.1,0,0.1-0.1,0.1-0.2L13.2,39
						C13.3,39,13.3,39,13.2,39L13.2,39z"/>
				</g>
			</g>
			<g>
				<path class="st2" d="M11,41.6C10.9,41.6,10.9,41.6,11,41.6l-0.1-0.3c0-0.1,0-0.2,0.1-0.2l0.6-0.4c0,0,0,0,0.1,0
					c0,0,0.1,0,0.1,0.1V41c0,0.1,0,0.2-0.1,0.2L11,41.6C11,41.6,11,41.6,11,41.6z"/>
				<path class="st31" d="M11.7,40.7C11.8,40.7,11.8,40.7,11.7,40.7l0.1,0.3c0,0.1,0,0.2-0.1,0.2L11,41.6c0,0,0,0,0,0
					c0,0-0.1,0-0.1-0.1v-0.2c0-0.1,0-0.2,0.1-0.2L11.7,40.7C11.7,40.7,11.7,40.7,11.7,40.7L11.7,40.7z M11.7,40.7
					C11.7,40.7,11.7,40.7,11.7,40.7L11,41.1c-0.1,0-0.1,0.1-0.1,0.2v0.2c0,0.1,0,0.1,0.1,0.1c0,0,0,0,0.1,0l0.6-0.4
					c0.1,0,0.1-0.1,0.1-0.2L11.7,40.7C11.8,40.7,11.8,40.7,11.7,40.7L11.7,40.7z"/>
			</g>
			<g>
				<path class="st2" d="M12.5,40.7C12.5,40.7,12.4,40.7,12.5,40.7l-0.1-0.3c0-0.1,0-0.2,0.1-0.2l0.6-0.4c0,0,0,0,0.1,0
					c0,0,0.1,0,0.1,0.1v0.2c0,0.1,0,0.2-0.1,0.2L12.5,40.7C12.6,40.7,12.5,40.7,12.5,40.7z"/>
				<path class="st31" d="M13.3,39.8C13.3,39.8,13.3,39.8,13.3,39.8l0.1,0.3c0,0.1,0,0.2-0.1,0.2l-0.6,0.4c0,0,0,0,0,0
					c0,0-0.1,0-0.1-0.1v-0.2c0-0.1,0-0.2,0.1-0.2L13.3,39.8C13.2,39.8,13.2,39.8,13.3,39.8L13.3,39.8z M13.3,39.8
					C13.2,39.8,13.2,39.8,13.3,39.8l-0.7,0.4c-0.1,0-0.1,0.1-0.1,0.2v0.2c0,0.1,0,0.1,0.1,0.1c0,0,0,0,0.1,0l0.6-0.4
					c0.1,0,0.1-0.1,0.1-0.2L13.3,39.8C13.3,39.8,13.3,39.8,13.3,39.8L13.3,39.8z"/>
			</g>
		</g>
	</g>
</g>
</svg>
