<?xml version="1.0" encoding="utf-8"?>
<!-- Generator: Adobe Illustrator 23.0.1, SVG Export Plug-In . SVG Version: 6.00 Build 0)  -->
<svg version="1.1" id="Слой_1" xmlns="http://www.w3.org/2000/svg" xmlns:xlink="http://www.w3.org/1999/xlink" x="0px" y="0px"
	 viewBox="0 0 87.51 87.5" style="enable-background:new 0 0 87.51 87.5;" xml:space="preserve">
<style type="text/css">
	.st0{opacity:0.3;fill:#E9E2E1;}
	.st1{opacity:0.3;}
	.st2{fill:#80298F;}
	.st3{enable-background:new    ;}
	.st4{fill:#3D0A45;}
	.st5{fill:#424148;}
	.st6{fill:#55095E;}
	.st7{clip-path:url(#SVGID_2_);enable-background:new    ;}
	.st8{fill:#35353B;}
	.st9{fill:#29292D;}
	.st10{fill:#414148;}
	.st11{fill:#4C4C54;}
	.st12{fill:#1A191D;}
	.st13{clip-path:url(#SVGID_4_);enable-background:new    ;}
	.st14{fill:#222125;}
	.st15{clip-path:url(#SVGID_6_);enable-background:new    ;}
	.st16{fill:#37363D;}
	.st17{clip-path:url(#SVGID_8_);enable-background:new    ;}
	.st18{clip-path:url(#SVGID_10_);enable-background:new    ;}
	.st19{clip-path:url(#SVGID_12_);enable-background:new    ;}
	.st20{fill:#CACACA;}
	.st21{clip-path:url(#SVGID_14_);enable-background:new    ;}
	.st22{clip-path:url(#SVGID_16_);enable-background:new    ;}
	.st23{fill:#C31C27;}
	.st24{clip-path:url(#SVGID_18_);enable-background:new    ;}
	.st25{fill:#D93F48;}
	.st26{clip-path:url(#SVGID_20_);enable-background:new    ;}
	.st27{clip-path:url(#SVGID_22_);enable-background:new    ;}
	.st28{clip-path:url(#SVGID_24_);enable-background:new    ;}
	.st29{fill:#FFB700;}
	.st30{clip-path:url(#SVGID_26_);enable-background:new    ;}
	.st31{fill:#FFD438;}
	.st32{fill:#5F5F66;}
	.st33{fill:#777777;}
</style>
<path class="st0" d="M90.82,51.96L45.71,77.98l-13.25-7.65c-0.01-1.27-0.01-4.26-0.02-5.53l0.01-2.15l40.37-21.09L90.82,51.96z"/>
<path class="st0" d="M39.65,76.63l-20.96-12.1l-5.84,3.05l-0.01,2.15c0.01,1.27,0.01,4.26,0.02,5.53l15.59,9.17l11.2-6.46V76.63z"/>
<g class="st1">
	<polygon class="st2" points="25.07,41.18 32.62,45.86 32.62,47.7 9.1,61.68 0,56.09 	"/>
</g>
<g>
	<g class="st3">
		<g>
			<polygon class="st4" points="36.9,75.26 36.89,77.6 28.97,82.2 28.98,79.86 			"/>
		</g>
		<g>
			<polygon class="st4" points="28.98,79.86 28.97,82.2 12.83,72.91 12.84,70.56 			"/>
		</g>
		<g>
			<polygon class="st5" points="36.9,75.26 28.98,79.86 12.84,70.56 20.76,65.96 			"/>
		</g>
	</g>
</g>
<g>
	<g class="st3">
		<g>
			<polygon class="st2" points="87.02,51.29 87.02,52.43 45.83,76.35 45.83,75.21 			"/>
		</g>
		<g>
			<polygon class="st6" points="45.83,75.21 45.83,76.35 42.43,74.39 42.44,73.25 			"/>
		</g>
		<g>
			<polygon class="st2" points="87.02,51.29 45.83,75.21 42.44,73.25 83.63,49.34 			"/>
		</g>
	</g>
</g>
<g class="st3">
	<defs>
		<path id="SVGID_1_" class="st3" d="M74.7,38.04l-15.86-9.22c2.6,0.63,4.05,0.98,6.65,1.62l15.86,9.22
			C78.75,39.03,77.29,38.67,74.7,38.04z"/>
	</defs>
	<clipPath id="SVGID_2_">
		<use xlink:href="#SVGID_1_"  style="overflow:visible;"/>
	</clipPath>
	<g class="st7">
		<path class="st8" d="M74.7,38.04l-15.86-9.22c2.6,0.63,4.05,0.98,6.65,1.62l15.86,9.22C78.75,39.03,77.29,38.67,74.7,38.04
			L74.7,38.04z"/>
	</g>
</g>
<g>
	<polygon class="st9" points="66.86,61.1 51,51.88 51,33.35 66.86,42.57 	"/>
</g>
<g>
	<polygon class="st10" points="66.86,42.57 51,33.35 58.84,28.82 74.7,38.04 	"/>
</g>
<g>
	<polygon class="st4" points="74.7,38.04 81.35,39.66 81.33,52.75 66.86,61.1 66.86,42.57 	"/>
	<polygon class="st4" points="68.29,43.39 74.92,39.57 79.92,40.78 79.91,51.92 68.29,58.63 	"/>
</g>
<g>
	<polygon class="st6" points="50.43,11.83 45.39,14.78 42.51,25.31 50.41,20.75 	"/>
	<polygon class="st6" points="42.51,25.31 42.43,51.43 50.33,46.87 50.41,20.75 	"/>
</g>
<polygon class="st2" points="45.39,14.78 43.07,13.43 40.19,23.99 42.51,25.34 "/>
<polygon class="st2" points="40.19,23.99 40.12,50.09 42.43,51.43 42.51,25.34 "/>
<g>
	<polygon class="st2" points="50.43,11.83 45.39,14.78 43.07,13.43 48.11,10.48 	"/>
</g>
<g>
	<polygon class="st4" points="69.81,25.21 69.71,59.35 63.65,62.87 56.89,34.98 66.6,25.71 	"/>
</g>
<g>
	<polygon class="st11" points="69.81,25.21 66.6,27.09 46.12,15.24 49.33,13.35 	"/>
</g>
<polygon class="st4" points="66.6,27.09 46.12,15.24 43.24,25.98 63.72,37.84 "/>
<polygon class="st4" points="43.24,25.98 43.17,51.01 63.65,62.87 63.72,37.84 "/>
<g>
	<polygon class="st6" points="72.35,24.5 67.31,27.45 64.43,37.98 72.33,33.42 	"/>
	<polygon class="st6" points="64.43,37.98 64.35,64.1 72.25,59.54 72.33,33.42 	"/>
</g>
<polygon class="st2" points="67.31,27.45 64.99,26.1 62.11,36.66 64.43,38.01 "/>
<polygon class="st2" points="62.11,36.66 62.04,62.76 64.35,64.1 64.43,38.01 "/>
<g>
	<polygon class="st2" points="72.35,24.5 67.31,27.45 64.99,26.1 70.03,23.15 	"/>
</g>
<path class="st2" d="M33.63,43.81c11,0.36,6.97-10.14,13.06-11.75l13.81,8.03c-6.17,4.19-2.25,13.57-13.06,11.75L33.63,43.81z"/>
<g>
	<polygon class="st4" points="1.2,31.38 1.19,55.9 9.11,60.45 9.11,35.98 	"/>
</g>
<g>
	<polygon class="st4" points="9.11,35.98 9.11,60.45 30.16,48.3 30.16,23.83 	"/>
</g>
<g>
	<polygon class="st5" points="1.2,31.38 9.11,35.98 30.16,23.83 22.24,19.23 	"/>
	<polygon class="st4" points="2.59,31.38 3.4,31.85 9.12,35.17 27.96,24.29 28.76,23.83 22.24,20.04 	"/>
	<polygon class="st4" points="3.4,31.85 9.12,35.17 27.96,24.29 22.24,20.97 	"/>
</g>
<g class="st3">
	<g>
		<polygon class="st4" points="64.39,54.94 64.35,64.1 55.12,69.46 55.15,60.3 		"/>
	</g>
	<g>
		<polygon class="st4" points="62.98,57.14 62.96,63.53 56.52,67.26 56.55,60.88 		"/>
	</g>
	<g>
		<polygon class="st4" points="55.15,60.3 55.12,69.46 52.43,67.91 52.47,58.75 		"/>
	</g>
	<g>
		<polygon class="st4" points="64.39,54.94 55.15,60.3 52.47,58.75 61.7,53.39 		"/>
	</g>
</g>
<g class="st3">
	<g>
		<polygon class="st2" points="31.97,34.14 31.94,56.01 22.9,61.23 22.93,39.36 		"/>
	</g>
	<g>
		<polygon class="st6" points="22.93,39.36 22.9,61.23 20.21,59.68 20.24,37.81 		"/>
	</g>
	<g>
		<polygon class="st2" points="31.97,34.14 22.93,39.36 20.24,37.81 29.28,32.59 		"/>
	</g>
</g>
<g>
	<g class="st3">
		<g>
			<polygon class="st4" points="52.4,48.27 52.34,67.65 44.43,72.25 44.48,52.87 			"/>
		</g>
		<g>
			<polygon class="st4" points="44.48,52.87 44.43,72.25 23.38,60.1 23.44,40.72 			"/>
		</g>
		<g>
			<polygon class="st12" points="41.17,53.88 41.17,58.67 40.12,58.07 26.78,50.36 26.78,45.56 30.04,47.45 			"/>
		</g>
		<g>
			<polygon class="st5" points="52.4,48.27 44.48,52.87 23.44,40.72 31.35,36.12 			"/>
			<polygon class="st4" points="51,48.27 50.19,48.74 44.48,52.06 25.64,41.18 24.83,40.72 31.36,36.93 			"/>
			<polygon class="st4" points="50.19,48.74 44.48,52.06 25.64,41.18 31.36,37.86 			"/>
		</g>
	</g>
</g>
<g class="st3">
	<g>
		<polygon class="st2" points="55.15,47.58 55.12,69.46 46.08,74.68 46.11,52.8 		"/>
		<g>
			<path class="st6" d="M46.59,73.8l0.03-20.7l8.02-4.63l-0.03,20.7L46.59,73.8z M46.88,53.25l-0.03,20.09l7.5-4.33l0.03-20.09
				L46.88,53.25z"/>
		</g>
	</g>
	<g>
		<polygon class="st6" points="46.11,52.8 46.08,74.68 43.39,73.13 43.42,51.25 		"/>
	</g>
	<g>
		<polygon class="st2" points="55.15,47.58 46.11,52.8 43.42,51.25 52.46,46.03 		"/>
	</g>
</g>
<g>
	<g class="st3">
		<g class="st3">
			<defs>
				<path id="SVGID_3_" class="st3" d="M49.34,68.6l0.36,0.21c-0.21-0.12-0.5-0.11-0.82,0.08l-0.36-0.21
					C48.83,68.5,49.13,68.48,49.34,68.6z"/>
			</defs>
			<clipPath id="SVGID_4_">
				<use xlink:href="#SVGID_3_"  style="overflow:visible;"/>
			</clipPath>
			<g class="st13">
				<path class="st14" d="M48.87,68.89l-0.36-0.21c0.32-0.19,0.61-0.2,0.82-0.08l0.36,0.21C49.49,68.69,49.19,68.71,48.87,68.89
					L48.87,68.89z"/>
			</g>
		</g>
		<g class="st3">
			<defs>
				<path id="SVGID_5_" class="st3" d="M48.06,71.64l-0.36-0.21c-0.21-0.12-0.34-0.38-0.34-0.74c0-0.74,0.52-1.63,1.16-2l0.36,0.21
					c-0.64,0.37-1.16,1.27-1.16,2C47.72,71.26,47.85,71.52,48.06,71.64z"/>
			</defs>
			<clipPath id="SVGID_6_">
				<use xlink:href="#SVGID_5_"  style="overflow:visible;"/>
			</clipPath>
			<g class="st15">
				<path class="st14" d="M48.06,71.64l-0.36-0.21c-0.21-0.12-0.34-0.38-0.34-0.74c0-0.74,0.52-1.63,1.16-2l0.36,0.21
					c-0.64,0.37-1.16,1.27-1.16,2C47.72,71.26,47.85,71.52,48.06,71.64L48.06,71.64z"/>
			</g>
		</g>
		<g>
			<path class="st16" d="M48.87,68.89c0.64-0.37,1.16-0.07,1.16,0.66c0,0.74-0.51,1.63-1.15,2c-0.64,0.37-1.16,0.07-1.16-0.66
				C47.71,70.16,48.23,69.26,48.87,68.89z"/>
		</g>
	</g>
</g>
<g>
	<g class="st3">
		<g class="st3">
			<defs>
				<path id="SVGID_7_" class="st3" d="M49.17,65.75l0.27,0.16c-0.16-0.09-0.38-0.08-0.62,0.06l-0.27-0.16
					C48.8,65.67,49.02,65.65,49.17,65.75z"/>
			</defs>
			<clipPath id="SVGID_8_">
				<use xlink:href="#SVGID_7_"  style="overflow:visible;"/>
			</clipPath>
			<g class="st17">
				<path class="st14" d="M48.83,65.96l-0.27-0.16c0.24-0.14,0.46-0.15,0.62-0.06l0.27,0.16C49.29,65.81,49.07,65.82,48.83,65.96
					L48.83,65.96z"/>
			</g>
		</g>
		<g class="st3">
			<defs>
				<path id="SVGID_9_" class="st3" d="M48.22,68.01l-0.27-0.16c-0.16-0.09-0.25-0.28-0.25-0.56c0-0.55,0.39-1.22,0.86-1.5
					l0.27,0.16c-0.48,0.28-0.87,0.95-0.86,1.5C47.96,67.73,48.06,67.92,48.22,68.01z"/>
			</defs>
			<clipPath id="SVGID_10_">
				<use xlink:href="#SVGID_9_"  style="overflow:visible;"/>
			</clipPath>
			<g class="st18">
				<path class="st14" d="M48.22,68.01l-0.27-0.16c-0.16-0.09-0.25-0.28-0.25-0.56c0-0.55,0.39-1.22,0.86-1.5l0.27,0.16
					c-0.48,0.28-0.87,0.95-0.86,1.5C47.96,67.73,48.06,67.92,48.22,68.01L48.22,68.01z"/>
			</g>
		</g>
		<g>
			<path class="st16" d="M48.83,65.96c0.48-0.28,0.87-0.05,0.87,0.5c0,0.55-0.38,1.22-0.86,1.5c-0.48,0.28-0.87,0.05-0.87-0.5
				C47.96,66.91,48.35,66.24,48.83,65.96z"/>
		</g>
	</g>
</g>
<g>
	<g class="st3">
		<g class="st3">
			<defs>
				<path id="SVGID_11_" class="st3" d="M22.25,56.28l13.81,8.03c-1.03-0.6-2.45-0.51-4.02,0.39l-13.81-8.03
					C19.8,55.76,21.22,55.68,22.25,56.28z"/>
			</defs>
			<clipPath id="SVGID_12_">
				<use xlink:href="#SVGID_11_"  style="overflow:visible;"/>
			</clipPath>
			<g class="st19">
				<path class="st20" d="M32.04,64.7l-13.81-8.03c1.23-0.71,2.38-0.92,3.31-0.68l13.81,8.03C34.42,63.78,33.27,63.99,32.04,64.7
					L32.04,64.7z"/>
				<path class="st2" d="M35.35,64.02l-13.81-8.03c0.25,0.06,0.49,0.16,0.71,0.29l13.81,8.03C35.84,64.18,35.6,64.08,35.35,64.02
					L35.35,64.02z"/>
			</g>
		</g>
		<g class="st3">
			<defs>
				<path id="SVGID_13_" class="st3" d="M28.06,78.08l-13.81-8.03c-1.01-0.59-1.64-1.84-1.65-3.63c-0.01-3.59,2.51-7.96,5.63-9.76
					l13.81,8.03c-3.12,1.8-5.64,6.17-5.63,9.76C26.41,76.24,27.04,77.49,28.06,78.08z"/>
			</defs>
			<clipPath id="SVGID_14_">
				<use xlink:href="#SVGID_13_"  style="overflow:visible;"/>
			</clipPath>
			<g class="st21">
				<path class="st2" d="M28.06,78.08l-13.81-8.03c-1.01-0.59-1.64-1.84-1.65-3.63c0-1.7,0.56-3.58,1.49-5.28l13.81,8.03
					c-0.93,1.7-1.5,3.58-1.49,5.28C26.41,76.24,27.04,77.49,28.06,78.08L28.06,78.08z"/>
				<path class="st20" d="M27.9,69.18l-13.81-8.03c1.03-1.88,2.5-3.53,4.14-4.48l13.81,8.03C30.4,65.65,28.93,67.3,27.9,69.18
					L27.9,69.18z"/>
			</g>
		</g>
		<g>
			<path class="st6" d="M32.04,64.7c3.12-1.8,5.66-0.36,5.67,3.23c0.01,3.59-2.51,7.96-5.63,9.76s-5.66,0.36-5.67-3.23
				C26.4,70.87,28.92,66.5,32.04,64.7z"/>
		</g>
		<g>
			<path class="st11" d="M32.05,69.39c0.87-0.5,1.57-0.1,1.57,0.9c0,1-0.7,2.21-1.56,2.71c-0.87,0.5-1.57,0.1-1.57-0.9
				C30.49,71.1,31.19,69.89,32.05,69.39z"/>
		</g>
	</g>
</g>
<path class="st2" d="M41.17,53.88v3.44c-0.34,0.24-0.69,0.49-1.06,0.75c-4.49,3.24-10.78,8.2-12.22,11.11l-13.81-8.03
	c1.08-2.77,8.05-8.16,12.69-11.46c1.36-0.96,2.51-1.75,3.27-2.24L41.17,53.88z"/>
<g>
	<g>
		<g class="st3">
			<g>
				<polygon class="st4" points="52.27,58.4 52.06,58.28 52.04,51.59 52.24,51.71 				"/>
			</g>
			<g>
				<polygon class="st11" points="52.24,51.71 52.04,51.59 53.64,50.66 53.84,50.78 				"/>
			</g>
			<g>
				<polygon class="st4" points="53.84,50.78 53.87,57.48 52.27,58.4 52.24,51.71 				"/>
			</g>
		</g>
	</g>
	<g>
		<g class="st3">
			<g class="st3">
				<defs>
					<path id="SVGID_15_" class="st3" d="M53.55,53.88l-0.2-0.12c-0.1-0.06-0.24-0.05-0.4,0.04l0.2,0.12
						C53.31,53.83,53.45,53.82,53.55,53.88z"/>
				</defs>
				<use xlink:href="#SVGID_15_"  style="overflow:visible;fill:#C31C27;"/>
				<clipPath id="SVGID_16_">
					<use xlink:href="#SVGID_15_"  style="overflow:visible;"/>
				</clipPath>
				<g class="st22">
					<path class="st23" d="M53.55,53.88l-0.2-0.12c-0.1-0.06-0.24-0.05-0.4,0.04l0.2,0.12C53.31,53.83,53.45,53.82,53.55,53.88
						L53.55,53.88z"/>
				</g>
			</g>
			<g class="st3">
				<defs>
					<path id="SVGID_17_" class="st3" d="M52.56,55.12l0.2,0.12c-0.1-0.06-0.16-0.18-0.16-0.36c0-0.36,0.25-0.79,0.56-0.96
						l-0.2-0.12c-0.31,0.18-0.56,0.61-0.56,0.96C52.4,54.94,52.46,55.06,52.56,55.12z"/>
				</defs>
				<use xlink:href="#SVGID_17_"  style="overflow:visible;fill:#C31C27;"/>
				<clipPath id="SVGID_18_">
					<use xlink:href="#SVGID_17_"  style="overflow:visible;"/>
				</clipPath>
				<g class="st24">
					<path class="st23" d="M53.15,53.92l-0.2-0.12c-0.31,0.18-0.56,0.61-0.56,0.96c0,0.18,0.06,0.3,0.16,0.36l0.2,0.12
						c-0.1-0.06-0.16-0.18-0.16-0.36C52.6,54.53,52.85,54.09,53.15,53.92L53.15,53.92z"/>
				</g>
			</g>
			<g>
				<path class="st25" d="M53.15,53.92c-0.31,0.18-0.56,0.61-0.56,0.96c0,0.35,0.25,0.5,0.56,0.32c0.31-0.18,0.56-0.61,0.56-0.96
					C53.71,53.88,53.46,53.74,53.15,53.92z"/>
			</g>
		</g>
	</g>
	<g>
		<g class="st3">
			<g class="st3">
				<defs>
					<path id="SVGID_19_" class="st3" d="M53.55,55.93l-0.2-0.12c-0.1-0.06-0.24-0.05-0.4,0.04l0.2,0.12
						C53.31,55.88,53.45,55.87,53.55,55.93z"/>
				</defs>
				<use xlink:href="#SVGID_19_"  style="overflow:visible;fill:#80298F;"/>
				<clipPath id="SVGID_20_">
					<use xlink:href="#SVGID_19_"  style="overflow:visible;"/>
				</clipPath>
				<g class="st26">
					<path class="st2" d="M53.55,55.93l-0.2-0.12c-0.1-0.06-0.24-0.05-0.4,0.04l0.2,0.12C53.31,55.88,53.45,55.87,53.55,55.93
						L53.55,55.93z"/>
				</g>
			</g>
			<g class="st3">
				<defs>
					<path id="SVGID_21_" class="st3" d="M52.56,57.18l0.2,0.12c-0.1-0.06-0.16-0.18-0.16-0.36c0-0.36,0.25-0.79,0.56-0.96
						l-0.2-0.12c-0.31,0.18-0.56,0.61-0.56,0.96C52.4,56.99,52.46,57.12,52.56,57.18z"/>
				</defs>
				<use xlink:href="#SVGID_21_"  style="overflow:visible;fill:#80298F;"/>
				<clipPath id="SVGID_22_">
					<use xlink:href="#SVGID_21_"  style="overflow:visible;"/>
				</clipPath>
				<g class="st27">
					<path class="st2" d="M53.15,55.97l-0.2-0.12c-0.31,0.18-0.56,0.61-0.56,0.96c0,0.18,0.06,0.3,0.16,0.36l0.2,0.12
						c-0.1-0.06-0.16-0.18-0.16-0.36C52.6,56.58,52.85,56.15,53.15,55.97L53.15,55.97z"/>
				</g>
			</g>
			<g>
				<path class="st6" d="M53.15,55.97c-0.31,0.18-0.56,0.61-0.56,0.96c0,0.35,0.25,0.5,0.56,0.32c0.31-0.18,0.56-0.61,0.56-0.96
					C53.71,55.93,53.46,55.79,53.15,55.97z"/>
			</g>
		</g>
	</g>
	<g>
		<g class="st3">
			<g class="st3">
				<defs>
					<path id="SVGID_23_" class="st3" d="M53.55,51.76l-0.2-0.12c-0.1-0.06-0.24-0.05-0.4,0.04l0.2,0.12
						C53.31,51.7,53.45,51.7,53.55,51.76z"/>
				</defs>
				<use xlink:href="#SVGID_23_"  style="overflow:visible;fill:#FFB700;"/>
				<clipPath id="SVGID_24_">
					<use xlink:href="#SVGID_23_"  style="overflow:visible;"/>
				</clipPath>
				<g class="st28">
					<path class="st29" d="M53.55,51.76l-0.2-0.12c-0.1-0.06-0.24-0.05-0.4,0.04l0.2,0.12C53.31,51.7,53.45,51.7,53.55,51.76
						L53.55,51.76z"/>
				</g>
			</g>
			<g class="st3">
				<defs>
					<path id="SVGID_25_" class="st3" d="M52.56,53l0.2,0.12c-0.1-0.06-0.16-0.18-0.16-0.36c0-0.35,0.25-0.79,0.56-0.96l-0.2-0.12
						c-0.31,0.18-0.56,0.61-0.56,0.96C52.4,52.82,52.46,52.94,52.56,53z"/>
				</defs>
				<use xlink:href="#SVGID_25_"  style="overflow:visible;fill:#FFB700;"/>
				<clipPath id="SVGID_26_">
					<use xlink:href="#SVGID_25_"  style="overflow:visible;"/>
				</clipPath>
				<g class="st30">
					<path class="st29" d="M53.15,51.79l-0.2-0.12c-0.31,0.18-0.56,0.61-0.56,0.96c0,0.18,0.06,0.3,0.16,0.36l0.2,0.12
						c-0.1-0.06-0.16-0.18-0.16-0.36C52.6,52.4,52.85,51.97,53.15,51.79L53.15,51.79z"/>
				</g>
			</g>
			<g>
				<path class="st31" d="M53.15,51.79c-0.31,0.18-0.56,0.61-0.56,0.96c0,0.36,0.25,0.5,0.56,0.32c0.31-0.18,0.56-0.61,0.56-0.97
					C53.71,51.76,53.46,51.62,53.15,51.79z"/>
			</g>
		</g>
	</g>
</g>
<polygon class="st32" points="19.45,37.31 10.12,42.7 10.12,36.85 19.45,31.47 "/>
<g>
	<g>
		<polygon class="st2" points="13.51,35.4 13.51,40.17 19.11,36.93 19.11,32.16 18.78,32.36 		"/>
		<polygon class="st4" points="13.51,35.4 13.51,39.77 18.74,36.75 18.78,36.73 18.78,32.36 16.5,33.67 16.15,33.87 15.28,34.37 
			14.32,34.93 		"/>
		<path class="st5" d="M16.5,33.67l0.59-0.34c0.56,0.22,1.13,0.43,1.68,0.66v0.57C18.02,34.24,17.26,33.95,16.5,33.67L16.5,33.67z"
			/>
		<path class="st4" d="M15.28,34.37l0.12-0.07c1.14,0.42,2.27,0.85,3.38,1.33v1.06c-1.49-0.56-2.95-1.18-4.42-1.79L15.28,34.37z"/>
		<polygon class="st5" points="14.32,34.93 18.74,36.75 18.74,36.75 18.78,36.73 18.78,35.76 15.28,34.37 		"/>
	</g>
	<g>
		<g>
			<g>
				<path class="st4" d="M10.64,37.7c-0.05,0-0.08-0.04-0.08-0.09l0-0.2c0-0.08,0.05-0.18,0.12-0.22l0.25-0.15
					c0.02-0.01,0.04-0.02,0.06-0.02c0.05,0,0.08,0.04,0.08,0.09l0,0.2c0,0.08-0.05,0.18-0.12,0.22l-0.25,0.15
					C10.67,37.69,10.65,37.7,10.64,37.7z"/>
				<path class="st33" d="M10.99,37.02c0.04,0,0.07,0.03,0.07,0.09l0,0.2c0,0.08-0.05,0.17-0.12,0.21l-0.25,0.15
					c-0.02,0.01-0.04,0.02-0.05,0.02c-0.04,0-0.07-0.03-0.07-0.09l0-0.2c0-0.08,0.05-0.17,0.12-0.21l0.25-0.15
					C10.95,37.03,10.97,37.02,10.99,37.02L10.99,37.02z M10.98,37.01c-0.02,0-0.04,0.01-0.06,0.02l-0.25,0.15
					c-0.07,0.04-0.13,0.14-0.13,0.23l0,0.2c0,0.06,0.03,0.1,0.09,0.1c0.02,0,0.04-0.01,0.06-0.02l0.25-0.15
					c0.07-0.04,0.13-0.14,0.13-0.23l0-0.2C11.07,37.05,11.04,37.01,10.98,37.01L10.98,37.01z"/>
			</g>
			<g>
				<path class="st4" d="M11.29,37.31c-0.05,0-0.08-0.04-0.08-0.09l0-0.2c0-0.08,0.05-0.18,0.12-0.22l0.25-0.15
					c0.02-0.01,0.04-0.02,0.06-0.02c0.05,0,0.08,0.04,0.08,0.09l0,0.2c0,0.08-0.05,0.18-0.12,0.22l-0.25,0.15
					C11.32,37.3,11.3,37.31,11.29,37.31z"/>
				<path class="st33" d="M11.63,36.64c0.04,0,0.07,0.03,0.07,0.09l0,0.2c0,0.08-0.05,0.17-0.12,0.21l-0.25,0.15
					c-0.02,0.01-0.04,0.02-0.05,0.02c-0.04,0-0.07-0.03-0.07-0.09l0-0.2c0-0.08,0.05-0.17,0.12-0.21l0.25-0.15
					C11.6,36.64,11.62,36.64,11.63,36.64L11.63,36.64z M11.63,36.62c-0.02,0-0.04,0.01-0.06,0.02l-0.25,0.15
					c-0.07,0.04-0.13,0.14-0.13,0.23l0,0.2c0,0.06,0.03,0.1,0.09,0.1c0.02,0,0.04-0.01,0.06-0.02l0.25-0.15
					c0.07-0.04,0.13-0.14,0.13-0.23l0-0.2C11.72,36.66,11.69,36.62,11.63,36.62L11.63,36.62z"/>
			</g>
			<g>
				<path class="st4" d="M11.94,36.92c-0.05,0-0.08-0.04-0.08-0.09l0-0.2c0-0.08,0.05-0.18,0.12-0.22l0.25-0.15
					c0.02-0.01,0.04-0.02,0.06-0.02c0.05,0,0.08,0.04,0.08,0.09l0,0.2c0,0.08-0.05,0.18-0.12,0.22l-0.25,0.15
					C11.97,36.91,11.95,36.92,11.94,36.92z"/>
				<path class="st33" d="M12.28,36.25c0.04,0,0.07,0.03,0.07,0.09l0,0.2c0,0.08-0.05,0.17-0.12,0.21l-0.25,0.15
					c-0.02,0.01-0.04,0.02-0.05,0.02c-0.04,0-0.07-0.03-0.07-0.09l0-0.2c0-0.08,0.05-0.17,0.12-0.21l0.25-0.15
					C12.25,36.25,12.27,36.25,12.28,36.25L12.28,36.25z M12.28,36.23L12.28,36.23c-0.02,0-0.04,0.01-0.06,0.02l-0.25,0.15
					c-0.07,0.04-0.13,0.14-0.13,0.23l0,0.2c0,0.06,0.03,0.1,0.09,0.1c0.02,0,0.04-0.01,0.06-0.02l0.25-0.15
					c0.07-0.04,0.13-0.14,0.13-0.23l0-0.2C12.37,36.27,12.34,36.23,12.28,36.23L12.28,36.23z"/>
			</g>
			<g>
				<path class="st4" d="M12.58,36.53c-0.05,0-0.08-0.04-0.08-0.09l0-0.2c0-0.08,0.05-0.18,0.12-0.22l0.25-0.15
					c0.02-0.01,0.04-0.02,0.06-0.02c0.05,0,0.08,0.04,0.08,0.09l0,0.2c0,0.08-0.05,0.18-0.12,0.22l-0.25,0.15
					C12.62,36.53,12.6,36.53,12.58,36.53z"/>
				<path class="st33" d="M12.93,35.86c0.04,0,0.07,0.03,0.07,0.09l0,0.2c0,0.08-0.05,0.17-0.12,0.21l-0.25,0.15
					c-0.02,0.01-0.04,0.02-0.05,0.02c-0.04,0-0.07-0.03-0.07-0.09l0-0.2c0-0.08,0.05-0.17,0.12-0.21l0.25-0.15
					C12.9,35.86,12.92,35.86,12.93,35.86L12.93,35.86z M12.93,35.84L12.93,35.84c-0.02,0-0.04,0.01-0.06,0.02l-0.25,0.15
					c-0.07,0.04-0.13,0.14-0.13,0.23l0,0.2c0,0.06,0.03,0.1,0.09,0.1c0.02,0,0.04-0.01,0.06-0.02l0.25-0.15
					c0.07-0.04,0.13-0.14,0.13-0.23l0-0.2C13.02,35.88,12.99,35.84,12.93,35.84L12.93,35.84z"/>
			</g>
		</g>
		<g>
			<g>
				<path class="st4" d="M10.64,38.31c-0.05,0-0.08-0.04-0.08-0.09l0-0.2c0-0.08,0.05-0.18,0.12-0.22l0.25-0.15
					c0.02-0.01,0.04-0.02,0.06-0.02c0.05,0,0.08,0.04,0.08,0.09l0,0.2c0,0.08-0.05,0.18-0.12,0.22l-0.25,0.15
					C10.68,38.3,10.66,38.31,10.64,38.31z"/>
				<path class="st33" d="M10.99,37.63c0.04,0,0.07,0.03,0.07,0.09l0,0.2c0,0.08-0.05,0.17-0.12,0.21l-0.25,0.15
					c-0.02,0.01-0.04,0.02-0.05,0.02c-0.04,0-0.07-0.03-0.07-0.09l0-0.2c0-0.08,0.05-0.17,0.12-0.21l0.25-0.15
					C10.96,37.64,10.98,37.63,10.99,37.63L10.99,37.63z M10.99,37.62c-0.02,0-0.04,0.01-0.06,0.02l-0.25,0.15
					c-0.07,0.04-0.13,0.14-0.13,0.23l0,0.2c0,0.06,0.03,0.1,0.09,0.1c0.02,0,0.04-0.01,0.06-0.02l0.25-0.15
					c0.07-0.04,0.13-0.14,0.13-0.23l0-0.2C11.08,37.65,11.05,37.61,10.99,37.62L10.99,37.62z"/>
			</g>
			<g>
				<path class="st4" d="M11.29,37.92c-0.05,0-0.08-0.04-0.08-0.09l0-0.2c0-0.08,0.05-0.18,0.12-0.22l0.25-0.15
					c0.02-0.01,0.04-0.02,0.06-0.02c0.05,0,0.08,0.04,0.08,0.09l0,0.2c0,0.08-0.05,0.18-0.12,0.22l-0.25,0.15
					C11.33,37.91,11.31,37.92,11.29,37.92z"/>
				<path class="st33" d="M11.64,37.24c0.04,0,0.07,0.03,0.07,0.09l0,0.2c0,0.08-0.05,0.17-0.12,0.21l-0.25,0.15
					c-0.02,0.01-0.04,0.02-0.05,0.02c-0.04,0-0.07-0.03-0.07-0.09l0-0.2c0-0.08,0.05-0.17,0.12-0.21l0.25-0.15
					C11.61,37.25,11.63,37.24,11.64,37.24L11.64,37.24z M11.64,37.23c-0.02,0-0.04,0.01-0.06,0.02l-0.25,0.15
					c-0.07,0.04-0.13,0.14-0.13,0.23l0,0.2c0,0.06,0.03,0.1,0.09,0.1c0.02,0,0.04-0.01,0.06-0.02l0.25-0.15
					c0.07-0.04,0.13-0.14,0.13-0.23l0-0.2C11.73,37.27,11.69,37.23,11.64,37.23L11.64,37.23z"/>
			</g>
			<g>
				<path class="st4" d="M11.94,37.53c-0.05,0-0.08-0.04-0.08-0.09l0-0.2c0-0.08,0.05-0.18,0.12-0.22l0.25-0.15
					c0.02-0.01,0.04-0.02,0.06-0.02c0.05,0,0.08,0.04,0.08,0.09l0,0.2c0,0.08-0.05,0.18-0.12,0.22L12,37.51
					C11.98,37.52,11.96,37.53,11.94,37.53z"/>
				<path class="st33" d="M12.29,36.85c0.04,0,0.07,0.03,0.07,0.09l0,0.2c0,0.08-0.05,0.17-0.12,0.21L12,37.5
					c-0.02,0.01-0.04,0.02-0.05,0.02c-0.04,0-0.07-0.03-0.07-0.09l0-0.2c0-0.08,0.05-0.17,0.12-0.21l0.25-0.15
					C12.26,36.86,12.28,36.85,12.29,36.85L12.29,36.85z M12.29,36.84c-0.02,0-0.04,0.01-0.06,0.02l-0.25,0.15
					c-0.07,0.04-0.13,0.14-0.13,0.23l0,0.2c0,0.06,0.03,0.1,0.09,0.1c0.02,0,0.04-0.01,0.06-0.02l0.25-0.15
					c0.07-0.04,0.13-0.14,0.13-0.23l0-0.2C12.38,36.88,12.34,36.84,12.29,36.84L12.29,36.84z"/>
			</g>
			<g>
				<path class="st4" d="M12.59,37.14c-0.05,0-0.08-0.04-0.08-0.09l0-0.2c0-0.08,0.05-0.18,0.12-0.22l0.25-0.15
					c0.02-0.01,0.04-0.02,0.06-0.02c0.05,0,0.08,0.04,0.08,0.09l0,0.2c0,0.08-0.05,0.18-0.12,0.22l-0.25,0.15
					C12.63,37.13,12.61,37.14,12.59,37.14z"/>
				<path class="st33" d="M12.94,36.47c0.04,0,0.07,0.03,0.07,0.09l0,0.2c0,0.08-0.05,0.17-0.12,0.21l-0.25,0.15
					c-0.02,0.01-0.04,0.02-0.05,0.02c-0.04,0-0.07-0.03-0.07-0.09l0-0.2c0-0.08,0.05-0.17,0.12-0.21l0.25-0.15
					C12.91,36.47,12.93,36.47,12.94,36.47L12.94,36.47z M12.94,36.45L12.94,36.45c-0.02,0-0.04,0.01-0.06,0.02l-0.25,0.15
					c-0.07,0.04-0.13,0.14-0.13,0.23l0,0.2c0,0.06,0.03,0.1,0.09,0.1c0.02,0,0.04-0.01,0.06-0.02l0.25-0.15
					c0.07-0.04,0.13-0.14,0.13-0.23l0-0.2C13.03,36.49,12.99,36.45,12.94,36.45L12.94,36.45z"/>
			</g>
		</g>
		<g>
			<g>
				<path class="st4" d="M10.65,38.91c-0.05,0-0.08-0.04-0.08-0.09l0-0.2c0-0.08,0.05-0.18,0.12-0.22l0.25-0.15
					c0.02-0.01,0.04-0.02,0.06-0.02c0.05,0,0.08,0.04,0.08,0.09l0,0.2c0,0.08-0.05,0.18-0.12,0.22l-0.25,0.15
					C10.69,38.91,10.67,38.91,10.65,38.91z"/>
				<path class="st33" d="M11,38.24c0.04,0,0.07,0.03,0.07,0.09l0,0.2c0,0.08-0.05,0.17-0.12,0.21l-0.25,0.15
					c-0.02,0.01-0.04,0.02-0.05,0.02c-0.04,0-0.07-0.03-0.07-0.09l0-0.2c0-0.08,0.05-0.17,0.12-0.21l0.25-0.15
					C10.97,38.25,10.99,38.24,11,38.24L11,38.24z M11,38.22c-0.02,0-0.04,0.01-0.06,0.02l-0.25,0.15c-0.07,0.04-0.13,0.14-0.13,0.23
					l0,0.2c0,0.06,0.03,0.1,0.09,0.1c0.02,0,0.04-0.01,0.06-0.02l0.25-0.15c0.07-0.04,0.13-0.14,0.13-0.23l0-0.2
					C11.09,38.26,11.05,38.22,11,38.22L11,38.22z"/>
			</g>
			<g>
				<path class="st4" d="M11.3,38.53c-0.05,0-0.08-0.04-0.08-0.09l0-0.2c0-0.08,0.05-0.18,0.12-0.22l0.25-0.15
					c0.02-0.01,0.04-0.02,0.06-0.02c0.05,0,0.08,0.04,0.08,0.09l0,0.2c0,0.08-0.05,0.18-0.12,0.22l-0.25,0.15
					C11.34,38.52,11.32,38.53,11.3,38.53z"/>
				<path class="st33" d="M11.65,37.85c0.04,0,0.07,0.03,0.07,0.09l0,0.2c0,0.08-0.05,0.17-0.12,0.21l-0.25,0.15
					c-0.02,0.01-0.04,0.02-0.05,0.02c-0.04,0-0.07-0.03-0.07-0.09l0-0.2c0-0.08,0.05-0.17,0.12-0.21l0.25-0.15
					C11.62,37.86,11.64,37.85,11.65,37.85L11.65,37.85z M11.65,37.84c-0.02,0-0.04,0.01-0.06,0.02L11.34,38
					c-0.07,0.04-0.13,0.14-0.13,0.23l0,0.2c0,0.06,0.03,0.1,0.09,0.1c0.02,0,0.04-0.01,0.06-0.02l0.25-0.15
					c0.07-0.04,0.13-0.14,0.13-0.23l0-0.2C11.74,37.87,11.7,37.83,11.65,37.84L11.65,37.84z"/>
			</g>
			<g>
				<path class="st4" d="M11.95,38.14c-0.05,0-0.08-0.04-0.08-0.09l0-0.2c0-0.08,0.05-0.18,0.12-0.22l0.25-0.15
					c0.02-0.01,0.04-0.02,0.06-0.02c0.05,0,0.08,0.04,0.08,0.09l0,0.2c0,0.08-0.05,0.18-0.12,0.22l-0.25,0.15
					C11.99,38.13,11.97,38.14,11.95,38.14z"/>
				<path class="st33" d="M12.3,37.46c0.04,0,0.07,0.03,0.07,0.09l0,0.2c0,0.08-0.05,0.17-0.12,0.21l-0.25,0.15
					c-0.02,0.01-0.04,0.02-0.05,0.02c-0.04,0-0.07-0.03-0.07-0.09l0-0.2c0-0.08,0.05-0.17,0.12-0.21l0.25-0.15
					C12.27,37.47,12.29,37.46,12.3,37.46L12.3,37.46z M12.3,37.45c-0.02,0-0.04,0.01-0.06,0.02l-0.25,0.15
					c-0.07,0.04-0.13,0.14-0.13,0.23l0,0.2c0,0.06,0.03,0.1,0.09,0.1c0.02,0,0.04-0.01,0.06-0.02l0.25-0.15
					c0.07-0.04,0.13-0.14,0.13-0.23l0-0.2C12.39,37.49,12.35,37.45,12.3,37.45L12.3,37.45z"/>
			</g>
			<g>
				<path class="st4" d="M12.6,37.75c-0.05,0-0.08-0.04-0.08-0.09l0-0.2c0-0.08,0.05-0.18,0.12-0.22l0.25-0.15
					c0.02-0.01,0.04-0.02,0.06-0.02c0.05,0,0.08,0.04,0.08,0.09l0,0.2c0,0.08-0.05,0.18-0.12,0.22l-0.25,0.15
					C12.64,37.74,12.62,37.75,12.6,37.75z"/>
				<path class="st33" d="M12.95,37.07c0.04,0,0.07,0.03,0.07,0.09l0,0.2c0,0.08-0.05,0.17-0.12,0.21l-0.25,0.15
					c-0.02,0.01-0.04,0.02-0.05,0.02c-0.04,0-0.07-0.03-0.07-0.09l0-0.2c0-0.08,0.05-0.17,0.12-0.21l0.25-0.15
					C12.92,37.08,12.94,37.07,12.95,37.07L12.95,37.07z M12.95,37.06c-0.02,0-0.04,0.01-0.06,0.02l-0.25,0.15
					c-0.07,0.04-0.13,0.14-0.13,0.23l0,0.2c0,0.06,0.03,0.1,0.09,0.1c0.02,0,0.04-0.01,0.06-0.02l0.25-0.15
					c0.07-0.04,0.13-0.14,0.13-0.23l0-0.2C13.04,37.1,13,37.06,12.95,37.06L12.95,37.06z"/>
			</g>
		</g>
		<g>
			<g>
				<path class="st4" d="M10.66,39.52c-0.05,0-0.08-0.04-0.08-0.09l0-0.2c0-0.08,0.05-0.18,0.12-0.22l0.25-0.15
					c0.02-0.01,0.04-0.02,0.06-0.02c0.05,0,0.08,0.04,0.08,0.09l0,0.2c0,0.08-0.05,0.18-0.12,0.22l-0.25,0.15
					C10.7,39.52,10.68,39.52,10.66,39.52z"/>
				<path class="st33" d="M11.01,38.85c0.04,0,0.07,0.03,0.07,0.09l0,0.2c0,0.08-0.05,0.17-0.12,0.21l-0.25,0.15
					c-0.02,0.01-0.04,0.02-0.05,0.02c-0.04,0-0.07-0.03-0.07-0.09l0-0.2c0-0.08,0.05-0.17,0.12-0.21l0.25-0.15
					C10.98,38.85,11,38.85,11.01,38.85L11.01,38.85z M11.01,38.83c-0.02,0-0.04,0.01-0.06,0.02L10.7,39
					c-0.07,0.04-0.13,0.14-0.13,0.23l0,0.2c0,0.06,0.03,0.1,0.09,0.1c0.02,0,0.04-0.01,0.06-0.02l0.25-0.15
					c0.07-0.04,0.13-0.14,0.13-0.23l0-0.2C11.1,38.87,11.06,38.83,11.01,38.83L11.01,38.83z"/>
			</g>
			<g>
				<path class="st4" d="M11.31,39.13c-0.05,0-0.08-0.04-0.08-0.09l0-0.2c0-0.08,0.05-0.18,0.12-0.22l0.25-0.15
					c0.02-0.01,0.04-0.02,0.06-0.02c0.05,0,0.08,0.04,0.08,0.09l0,0.2c0,0.08-0.05,0.18-0.12,0.22l-0.25,0.15
					C11.35,39.13,11.33,39.13,11.31,39.13z"/>
				<path class="st33" d="M11.66,38.46c0.04,0,0.07,0.03,0.07,0.09l0,0.2c0,0.08-0.05,0.17-0.12,0.21l-0.25,0.15
					c-0.02,0.01-0.04,0.02-0.05,0.02c-0.04,0-0.07-0.03-0.07-0.09l0-0.2c0-0.08,0.05-0.17,0.12-0.21l0.25-0.15
					C11.63,38.47,11.65,38.46,11.66,38.46L11.66,38.46z M11.66,38.44c-0.02,0-0.04,0.01-0.06,0.02l-0.25,0.15
					c-0.07,0.04-0.13,0.14-0.13,0.23l0,0.2c0,0.06,0.03,0.1,0.09,0.1c0.02,0,0.04-0.01,0.06-0.02l0.25-0.15
					c0.07-0.04,0.13-0.14,0.13-0.23l0-0.2C11.75,38.48,11.71,38.44,11.66,38.44L11.66,38.44z"/>
			</g>
			<g>
				<path class="st4" d="M11.96,38.75c-0.05,0-0.08-0.04-0.08-0.09l0-0.2c0-0.08,0.05-0.18,0.12-0.22l0.25-0.15
					c0.02-0.01,0.04-0.02,0.06-0.02c0.05,0,0.08,0.04,0.08,0.09l0,0.2c0,0.08-0.05,0.18-0.12,0.22l-0.25,0.15
					C12,38.74,11.98,38.75,11.96,38.75z"/>
				<path class="st33" d="M12.31,38.07c0.04,0,0.07,0.03,0.07,0.09l0,0.2c0,0.08-0.05,0.17-0.12,0.21l-0.25,0.15
					c-0.02,0.01-0.04,0.02-0.05,0.02c-0.04,0-0.07-0.03-0.07-0.09l0-0.2c0-0.08,0.05-0.17,0.12-0.21l0.25-0.15
					C12.28,38.08,12.3,38.07,12.31,38.07L12.31,38.07z M12.31,38.05c-0.02,0-0.04,0.01-0.06,0.02L12,38.22
					c-0.07,0.04-0.13,0.14-0.13,0.23l0,0.2c0,0.06,0.03,0.1,0.09,0.1c0.02,0,0.04-0.01,0.06-0.02l0.25-0.15
					c0.07-0.04,0.13-0.14,0.13-0.23l0-0.2C12.4,38.09,12.36,38.05,12.31,38.05L12.31,38.05z"/>
			</g>
			<g>
				<path class="st4" d="M12.61,38.36c-0.05,0-0.08-0.04-0.08-0.09l0-0.2c0-0.08,0.05-0.18,0.12-0.22l0.25-0.15
					c0.02-0.01,0.04-0.02,0.06-0.02c0.05,0,0.08,0.04,0.08,0.09l0,0.2c0,0.08-0.05,0.18-0.12,0.22l-0.25,0.15
					C12.65,38.35,12.63,38.36,12.61,38.36z"/>
				<path class="st33" d="M12.96,37.68c0.04,0,0.07,0.03,0.07,0.09l0,0.2c0,0.08-0.05,0.17-0.12,0.21l-0.25,0.15
					c-0.02,0.01-0.04,0.02-0.05,0.02c-0.04,0-0.07-0.03-0.07-0.09l0-0.2c0-0.08,0.05-0.17,0.12-0.21l0.25-0.15
					C12.93,37.69,12.95,37.68,12.96,37.68L12.96,37.68z M12.96,37.67c-0.02,0-0.04,0.01-0.06,0.02l-0.25,0.15
					c-0.07,0.04-0.13,0.14-0.13,0.23l0,0.2c0,0.06,0.03,0.1,0.09,0.1c0.02,0,0.04-0.01,0.06-0.02l0.25-0.15
					c0.07-0.04,0.13-0.14,0.13-0.23l0-0.2C13.05,37.71,13.01,37.67,12.96,37.67L12.96,37.67z"/>
			</g>
		</g>
		<g>
			<g>
				<path class="st4" d="M10.65,40.14c-0.05,0-0.08-0.04-0.08-0.09l0-0.2c0-0.08,0.05-0.18,0.12-0.22l0.25-0.15
					c0.02-0.01,0.04-0.02,0.06-0.02c0.05,0,0.08,0.04,0.08,0.09l0,0.2c0,0.08-0.05,0.18-0.12,0.22l-0.25,0.15
					C10.69,40.13,10.67,40.14,10.65,40.14z"/>
				<path class="st33" d="M11,39.47c0.04,0,0.07,0.03,0.07,0.09l0,0.2c0,0.08-0.05,0.17-0.12,0.21l-0.25,0.15
					c-0.02,0.01-0.04,0.02-0.05,0.02c-0.04,0-0.07-0.03-0.07-0.09l0-0.2c0-0.08,0.05-0.17,0.12-0.21l0.25-0.15
					C10.97,39.47,10.99,39.47,11,39.47L11,39.47z M11,39.45c-0.02,0-0.04,0.01-0.06,0.02l-0.25,0.15c-0.07,0.04-0.13,0.14-0.13,0.23
					l0,0.2c0,0.06,0.03,0.1,0.09,0.1c0.02,0,0.04-0.01,0.06-0.02l0.25-0.15c0.07-0.04,0.13-0.14,0.13-0.23l0-0.2
					C11.09,39.49,11.05,39.45,11,39.45L11,39.45z"/>
			</g>
			<g>
				<path class="st4" d="M11.3,39.75c-0.05,0-0.08-0.04-0.08-0.09l0-0.2c0-0.08,0.05-0.18,0.12-0.22l0.25-0.15
					c0.02-0.01,0.04-0.02,0.06-0.02c0.05,0,0.08,0.04,0.08,0.09l0,0.2c0,0.08-0.05,0.18-0.12,0.22l-0.25,0.15
					C11.34,39.74,11.32,39.75,11.3,39.75z"/>
				<path class="st33" d="M11.65,39.08c0.04,0,0.07,0.03,0.07,0.09l0,0.2c0,0.08-0.05,0.17-0.12,0.21l-0.25,0.15
					c-0.02,0.01-0.04,0.02-0.05,0.02c-0.04,0-0.07-0.03-0.07-0.09l0-0.2c0-0.08,0.05-0.17,0.12-0.21l0.25-0.15
					C11.62,39.08,11.64,39.08,11.65,39.08L11.65,39.08z M11.65,39.06c-0.02,0-0.04,0.01-0.06,0.02l-0.25,0.15
					c-0.07,0.04-0.13,0.14-0.13,0.23l0,0.2c0,0.06,0.03,0.1,0.09,0.1c0.02,0,0.04-0.01,0.06-0.02l0.25-0.15
					c0.07-0.04,0.13-0.14,0.13-0.23l0-0.2C11.74,39.1,11.7,39.06,11.65,39.06L11.65,39.06z"/>
			</g>
			<g>
				<path class="st4" d="M11.95,39.36c-0.05,0-0.08-0.04-0.08-0.09l0-0.2c0-0.08,0.05-0.18,0.12-0.22l0.25-0.15
					c0.02-0.01,0.04-0.02,0.06-0.02c0.05,0,0.08,0.04,0.08,0.09l0,0.2c0,0.08-0.05,0.18-0.12,0.22l-0.25,0.15
					C11.99,39.36,11.97,39.36,11.95,39.36z"/>
				<path class="st33" d="M12.3,38.69c0.04,0,0.07,0.03,0.07,0.09l0,0.2c0,0.08-0.05,0.17-0.12,0.21l-0.25,0.15
					c-0.02,0.01-0.04,0.02-0.05,0.02c-0.04,0-0.07-0.03-0.07-0.09l0-0.2c0-0.08,0.05-0.17,0.12-0.21l0.25-0.15
					C12.27,38.69,12.29,38.69,12.3,38.69L12.3,38.69z M12.3,38.67c-0.02,0-0.04,0.01-0.06,0.02l-0.25,0.15
					c-0.07,0.04-0.13,0.14-0.13,0.23l0,0.2c0,0.06,0.03,0.1,0.09,0.1c0.02,0,0.04-0.01,0.06-0.02l0.25-0.15
					c0.07-0.04,0.13-0.14,0.13-0.23l0-0.2C12.39,38.71,12.35,38.67,12.3,38.67L12.3,38.67z"/>
			</g>
			<g>
				<path class="st4" d="M12.6,38.97c-0.05,0-0.08-0.04-0.08-0.09l0-0.2c0-0.08,0.05-0.18,0.12-0.22l0.25-0.15
					c0.02-0.01,0.04-0.02,0.06-0.02c0.05,0,0.08,0.04,0.08,0.09l0,0.2c0,0.08-0.05,0.18-0.12,0.22l-0.25,0.15
					C12.64,38.97,12.62,38.97,12.6,38.97z"/>
				<path class="st33" d="M12.95,38.3c0.04,0,0.07,0.03,0.07,0.09l0,0.2c0,0.08-0.05,0.17-0.12,0.21l-0.25,0.15
					c-0.02,0.01-0.04,0.02-0.05,0.02c-0.04,0-0.07-0.03-0.07-0.09l0-0.2c0-0.08,0.05-0.17,0.12-0.21l0.25-0.15
					C12.92,38.3,12.94,38.3,12.95,38.3L12.95,38.3z M12.95,38.28c-0.02,0-0.04,0.01-0.06,0.02l-0.25,0.15
					c-0.07,0.04-0.13,0.14-0.13,0.23l0,0.2c0,0.06,0.03,0.1,0.09,0.1c0.02,0,0.04-0.01,0.06-0.02l0.25-0.15
					c0.07-0.04,0.13-0.14,0.13-0.23l0-0.2C13.04,38.32,13,38.28,12.95,38.28L12.95,38.28z"/>
			</g>
		</g>
		<g>
			<g>
				<path class="st4" d="M10.66,40.75c-0.05,0-0.08-0.04-0.08-0.09l0-0.2c0-0.08,0.05-0.18,0.12-0.22l0.25-0.15
					c0.02-0.01,0.04-0.02,0.06-0.02c0.05,0,0.08,0.04,0.08,0.09l0,0.2c0,0.08-0.05,0.18-0.12,0.22l-0.25,0.15
					C10.7,40.74,10.68,40.75,10.66,40.75z"/>
				<path class="st33" d="M11.01,40.07c0.04,0,0.07,0.03,0.07,0.09l0,0.2c0,0.08-0.05,0.17-0.12,0.21l-0.25,0.15
					c-0.02,0.01-0.04,0.02-0.05,0.02c-0.04,0-0.07-0.03-0.07-0.09l0-0.2c0-0.08,0.05-0.17,0.12-0.21l0.25-0.15
					C10.98,40.08,11,40.07,11.01,40.07L11.01,40.07z M11.01,40.06c-0.02,0-0.04,0.01-0.06,0.02l-0.25,0.15
					c-0.07,0.04-0.13,0.14-0.13,0.23l0,0.2c0,0.06,0.03,0.1,0.09,0.1c0.02,0,0.04-0.01,0.06-0.02l0.25-0.15
					c0.07-0.04,0.13-0.14,0.13-0.23l0-0.2C11.1,40.1,11.06,40.06,11.01,40.06L11.01,40.06z"/>
			</g>
			<g>
				<path class="st4" d="M11.31,40.36c-0.05,0-0.08-0.04-0.08-0.09l0-0.2c0-0.08,0.05-0.18,0.12-0.22l0.25-0.15
					c0.02-0.01,0.04-0.02,0.06-0.02c0.05,0,0.08,0.04,0.08,0.09l0,0.2c0,0.08-0.05,0.18-0.12,0.22l-0.25,0.15
					C11.35,40.35,11.33,40.36,11.31,40.36z"/>
				<path class="st33" d="M11.66,39.68c0.04,0,0.07,0.03,0.07,0.09l0,0.2c0,0.08-0.05,0.17-0.12,0.21l-0.25,0.15
					c-0.02,0.01-0.04,0.02-0.05,0.02c-0.04,0-0.07-0.03-0.07-0.09l0-0.2c0-0.08,0.05-0.17,0.12-0.21l0.25-0.15
					C11.63,39.69,11.65,39.68,11.66,39.68L11.66,39.68z M11.66,39.67c-0.02,0-0.04,0.01-0.06,0.02l-0.25,0.15
					c-0.07,0.04-0.13,0.14-0.13,0.23l0,0.2c0,0.06,0.03,0.1,0.09,0.1c0.02,0,0.04-0.01,0.06-0.02l0.25-0.15
					c0.07-0.04,0.13-0.14,0.13-0.23l0-0.2C11.75,39.71,11.71,39.67,11.66,39.67L11.66,39.67z"/>
			</g>
			<g>
				<path class="st4" d="M11.96,39.97c-0.05,0-0.08-0.04-0.08-0.09l0-0.2c0-0.08,0.05-0.18,0.12-0.22l0.25-0.15
					c0.02-0.01,0.04-0.02,0.06-0.02c0.05,0,0.08,0.04,0.08,0.09l0,0.2c0,0.08-0.05,0.18-0.12,0.22l-0.25,0.15
					C12,39.96,11.98,39.97,11.96,39.97z"/>
				<path class="st33" d="M12.31,39.3c0.04,0,0.07,0.03,0.07,0.09l0,0.2c0,0.08-0.05,0.17-0.12,0.21l-0.25,0.15
					c-0.02,0.01-0.04,0.02-0.05,0.02c-0.04,0-0.07-0.03-0.07-0.09l0-0.2c0-0.08,0.05-0.17,0.12-0.21l0.25-0.15
					C12.28,39.3,12.3,39.3,12.31,39.3L12.31,39.3z M12.31,39.28c-0.02,0-0.04,0.01-0.06,0.02L12,39.45
					c-0.07,0.04-0.13,0.14-0.13,0.23l0,0.2c0,0.06,0.03,0.1,0.09,0.1c0.02,0,0.04-0.01,0.06-0.02l0.25-0.15
					c0.07-0.04,0.13-0.14,0.13-0.23l0-0.2C12.4,39.32,12.36,39.28,12.31,39.28L12.31,39.28z"/>
			</g>
			<g>
				<path class="st4" d="M12.61,39.58c-0.05,0-0.08-0.04-0.08-0.09l0-0.2c0-0.08,0.05-0.18,0.12-0.22l0.25-0.15
					c0.02-0.01,0.04-0.02,0.06-0.02c0.05,0,0.08,0.04,0.08,0.09l0,0.2c0,0.08-0.05,0.18-0.12,0.22l-0.25,0.15
					C12.65,39.58,12.63,39.58,12.61,39.58z"/>
				<path class="st33" d="M12.96,38.91c0.04,0,0.07,0.03,0.07,0.09l0,0.2c0,0.08-0.05,0.17-0.12,0.21l-0.25,0.15
					c-0.02,0.01-0.04,0.02-0.05,0.02c-0.04,0-0.07-0.03-0.07-0.09l0-0.2c0-0.08,0.05-0.17,0.12-0.21l0.25-0.15
					C12.93,38.91,12.95,38.91,12.96,38.91L12.96,38.91z M12.96,38.89c-0.02,0-0.04,0.01-0.06,0.02l-0.25,0.15
					c-0.07,0.04-0.13,0.14-0.13,0.23l0,0.2c0,0.06,0.03,0.1,0.09,0.1c0.02,0,0.04-0.01,0.06-0.02l0.25-0.15
					c0.07-0.04,0.13-0.14,0.13-0.23l0-0.2C13.05,38.93,13.01,38.89,12.96,38.89L12.96,38.89z"/>
			</g>
		</g>
		<g>
			<path class="st4" d="M10.68,41.56c-0.05,0-0.08-0.04-0.08-0.09l0-0.2c0-0.08,0.05-0.18,0.12-0.22l0.65-0.39
				c0.02-0.01,0.04-0.02,0.06-0.02c0.05,0,0.08,0.04,0.08,0.09l0,0.2c0,0.08-0.05,0.18-0.12,0.22l-0.65,0.39
				C10.72,41.56,10.7,41.56,10.68,41.56z"/>
			<path class="st33" d="M11.43,40.65c0.04,0,0.07,0.03,0.07,0.09l0,0.2c0,0.08-0.05,0.17-0.12,0.21l-0.65,0.39
				c-0.02,0.01-0.04,0.02-0.05,0.02c-0.04,0-0.07-0.03-0.07-0.09l0-0.2c0-0.08,0.05-0.17,0.12-0.21l0.65-0.39
				C11.4,40.65,11.42,40.65,11.43,40.65L11.43,40.65z M11.43,40.63c-0.02,0-0.04,0.01-0.06,0.02l-0.65,0.39
				c-0.07,0.04-0.13,0.14-0.13,0.23l0,0.2c0,0.06,0.03,0.1,0.09,0.1c0.02,0,0.04-0.01,0.06-0.02l0.65-0.39
				c0.07-0.04,0.13-0.14,0.13-0.23l0-0.2C11.52,40.67,11.48,40.63,11.43,40.63L11.43,40.63z"/>
		</g>
		<g>
			<path class="st4" d="M12.22,40.64c-0.05,0-0.08-0.04-0.08-0.09l0-0.2c0-0.08,0.05-0.18,0.12-0.22l0.65-0.39
				c0.02-0.01,0.04-0.02,0.06-0.02c0.05,0,0.08,0.04,0.08,0.09l0,0.2c0,0.08-0.05,0.18-0.12,0.22l-0.65,0.39
				C12.26,40.63,12.24,40.64,12.22,40.64z"/>
			<path class="st33" d="M12.98,39.72c0.04,0,0.07,0.03,0.07,0.09l0,0.2c0,0.08-0.05,0.17-0.12,0.21l-0.65,0.39
				c-0.02,0.01-0.04,0.02-0.05,0.02c-0.04,0-0.07-0.03-0.07-0.09l0-0.2c0-0.08,0.05-0.17,0.12-0.21l0.65-0.39
				C12.94,39.73,12.96,39.72,12.98,39.72L12.98,39.72z M12.98,39.7c-0.02,0-0.04,0.01-0.06,0.02l-0.65,0.39
				c-0.07,0.04-0.13,0.14-0.13,0.23l0,0.2c0,0.06,0.03,0.1,0.09,0.1c0.02,0,0.04-0.01,0.06-0.02l0.65-0.39
				c0.07-0.04,0.13-0.14,0.13-0.23l0-0.2C13.06,39.74,13.03,39.7,12.98,39.7L12.98,39.7z"/>
		</g>
	</g>
</g>
</svg>
