<?xml version="1.0" encoding="utf-8"?>
<!-- Generator: Adobe Illustrator 23.0.1, SVG Export Plug-In . SVG Version: 6.00 Build 0)  -->
<svg version="1.1" xmlns="http://www.w3.org/2000/svg" xmlns:xlink="http://www.w3.org/1999/xlink" x="0px" y="0px"
	 viewBox="0 0 87.5 87.5" style="enable-background:new 0 0 87.5 87.5;" xml:space="preserve">
<style type="text/css">
	.st0{fill:#012340;stroke:#1E5CD9;stroke-width:2.8346;stroke-miterlimit:10;}
	.st1{fill:url(#SVGID_1_);}
	.st2{filter:url(#Adobe_OpacityMaskFilter);}
	.st3{filter:url(#Adobe_OpacityMaskFilter_1_);}
	.st4{mask:url(#SVGID_2_);fill:url(#SVGID_3_);}
	.st5{fill:url(#SVGID_4_);}
	.st6{fill:url(#SVGID_5_);}
	.st7{fill:url(#SVGID_6_);}
	.st8{fill:url(#SVGID_7_);}
	.st9{fill:url(#SVGID_8_);}
	.st10{fill:url(#SVGID_9_);}
	.st11{filter:url(#Adobe_OpacityMaskFilter_2_);}
	.st12{filter:url(#Adobe_OpacityMaskFilter_3_);}
	.st13{mask:url(#SVGID_10_);fill:url(#SVGID_11_);}
	.st14{fill:url(#SVGID_12_);}
	.st15{fill:url(#SVGID_13_);}
	.st16{fill:url(#SVGID_14_);}
	.st17{fill:url(#SVGID_15_);}
	.st18{fill:url(#SVGID_16_);}
	.st19{fill:#4B4B59;}
	.st20{fill:url(#SVGID_17_);}
	.st21{fill:#012340;}
	.st22{fill:#1E5CD9;}
	.st23{opacity:0.5;}
	.st24{fill:url(#SVGID_18_);}
	.st25{opacity:0.9;fill:url(#SVGID_19_);}
	.st26{fill:#292930;}
	.st27{fill:url(#SVGID_20_);}
	.st28{opacity:0.9;fill:url(#SVGID_21_);}
	.st29{fill:url(#SVGID_22_);}
	.st30{opacity:0.9;fill:url(#SVGID_23_);}
	.st31{fill:url(#SVGID_24_);}
	.st32{opacity:0.9;fill:url(#SVGID_25_);}
</style>
<g id="Слой_2">
	<path class="st0" d="M76.9,16.2H72V14h-0.9v-0.4v-1.4H72v-1.4c0-0.5-0.5-1-1.1-1h-5.2c-0.6,0-1.1,0.4-1.1,1s0,1.4,0,1.4h0.9v1.4V14
		h-0.9v2.2H22.8V14h-0.9v-0.4v-1.4h0.9v-1.4c0-0.5-0.5-1-1.1-1h-5.2c-0.6,0-1.1,0.4-1.1,1s0,1.4,0,1.4h0.9v1.4V14h-0.9v2.2h-4.9
		c-3.4,0-6.2,2.8-6.2,6.2v40.8c0,3.4,2.8,6.2,6.2,6.2h4.9v3.3v1.7c0,0.2,0.2,0.4,0.4,0.4h6.6c0.2,0,0.4-0.2,0.4-0.4v-1.7v-3.3h41.8
		v3.3v1.7c0,0.2,0.2,0.4,0.4,0.4h6.6c0.2,0,0.4-0.2,0.4-0.4v-1.7v-3.3h4.9c3.4,0,6.2-2.8,6.2-6.2V22.4C83.1,19,80.3,16.2,76.9,16.2z
		"/>
</g>
<g id="Слой_1">
	
		<linearGradient id="SVGID_1_" gradientUnits="userSpaceOnUse" x1="-174.895" y1="39.146" x2="-169.3885" y2="39.146" gradientTransform="matrix(-1 0 0 1 -153 0)">
		<stop  offset="0" style="stop-color:#0D0D1C"/>
		<stop  offset="7.575760e-02" style="stop-color:#121221"/>
		<stop  offset="0.1111" style="stop-color:#FFFFFF"/>
		<stop  offset="0.1667" style="stop-color:#FFFFFF"/>
		<stop  offset="0.2222" style="stop-color:#4B4B59"/>
		<stop  offset="0.5909" style="stop-color:#9A9AA9"/>
		<stop  offset="0.6667" style="stop-color:#FFFFFF"/>
		<stop  offset="0.8131" style="stop-color:#FFFFFF"/>
		<stop  offset="0.8788" style="stop-color:#A0A0AF"/>
		<stop  offset="1" style="stop-color:#0D0D1C"/>
	</linearGradient>
	<rect x="16.4" y="10.6" class="st1" width="5.5" height="57"/>
	<defs>
		<filter id="Adobe_OpacityMaskFilter" filterUnits="userSpaceOnUse" x="16.4" y="10.6" width="5.5" height="3">
			<feColorMatrix  type="matrix" values="1 0 0 0 0  0 1 0 0 0  0 0 1 0 0  0 0 0 1 0"/>
		</filter>
	</defs>
	<mask maskUnits="userSpaceOnUse" x="16.4" y="10.6" width="5.5" height="3" id="SVGID_2_">
		<g class="st2">
			<defs>
				<filter id="Adobe_OpacityMaskFilter_1_" filterUnits="userSpaceOnUse" x="16.4" y="10.6" width="5.5" height="3">
					<feFlood  style="flood-color:white;flood-opacity:1" result="back"/>
					<feBlend  in="SourceGraphic" in2="back" mode="normal"/>
				</filter>
			</defs>
			<mask maskUnits="userSpaceOnUse" x="16.4" y="10.6" width="5.5" height="3" id="SVGID_2_">
				<g class="st3">
				</g>
			</mask>
			<linearGradient id="SVGID_3_" gradientUnits="userSpaceOnUse" x1="19.1417" y1="13.6136" x2="19.1417" y2="10.5922">
				<stop  offset="3.763440e-02" style="stop-color:#000000"/>
				<stop  offset="1" style="stop-color:#C9C9C9"/>
			</linearGradient>
			<rect x="16.4" y="10.6" class="st4" width="5.5" height="3"/>
		</g>
	</mask>
	<linearGradient id="SVGID_4_" gradientUnits="userSpaceOnUse" x1="19.1417" y1="13.6136" x2="19.1417" y2="10.5922">
		<stop  offset="3.030300e-02" style="stop-color:#030303"/>
		<stop  offset="1" style="stop-color:#030303"/>
	</linearGradient>
	<rect x="16.4" y="10.6" class="st5" width="5.5" height="3"/>
	
		<linearGradient id="SVGID_5_" gradientUnits="userSpaceOnUse" x1="-174.895" y1="44.3025" x2="-169.3885" y2="44.3025" gradientTransform="matrix(-1 0 0 1 -153 0)">
		<stop  offset="0" style="stop-color:#0D0D1C"/>
		<stop  offset="7.575760e-02" style="stop-color:#121221"/>
		<stop  offset="0.1111" style="stop-color:#FFFFFF"/>
		<stop  offset="0.1667" style="stop-color:#FFFFFF"/>
		<stop  offset="0.2222" style="stop-color:#4B4B59"/>
		<stop  offset="0.5909" style="stop-color:#9A9AA9"/>
		<stop  offset="0.6667" style="stop-color:#FFFFFF"/>
		<stop  offset="0.8131" style="stop-color:#FFFFFF"/>
		<stop  offset="0.8788" style="stop-color:#A0A0AF"/>
		<stop  offset="1" style="stop-color:#0D0D1C"/>
	</linearGradient>
	<rect x="16.4" y="15.8" class="st6" width="5.5" height="57"/>
	
		<linearGradient id="SVGID_6_" gradientUnits="userSpaceOnUse" x1="-175.844" y1="44.4689" x2="-168.4389" y2="44.4689" gradientTransform="matrix(-1 0 0 1 -153 0)">
		<stop  offset="0" style="stop-color:#525261"/>
		<stop  offset="7.575760e-02" style="stop-color:#565665"/>
		<stop  offset="0.1111" style="stop-color:#FFFFFF"/>
		<stop  offset="0.1667" style="stop-color:#FFFFFF"/>
		<stop  offset="0.2222" style="stop-color:#898998"/>
		<stop  offset="0.5909" style="stop-color:#D1D1E0"/>
		<stop  offset="0.6667" style="stop-color:#FFFFFF"/>
		<stop  offset="0.8131" style="stop-color:#FFFFFF"/>
		<stop  offset="0.8788" style="stop-color:#D5D5E4"/>
		<stop  offset="1" style="stop-color:#525261"/>
	</linearGradient>
	<path class="st7" d="M15.8,74.9h6.6c0.2,0,0.4-0.2,0.4-0.4V14h-7.4v60.5C15.4,74.7,15.6,74.9,15.8,74.9z"/>
	
		<linearGradient id="SVGID_7_" gradientUnits="userSpaceOnUse" x1="-175.844" y1="-15.4466" x2="-168.4389" y2="-15.4466" gradientTransform="matrix(-1 0 0 -1 -153 -4.4329)">
		<stop  offset="0" style="stop-color:#525261"/>
		<stop  offset="7.575760e-02" style="stop-color:#565665"/>
		<stop  offset="0.1111" style="stop-color:#FFFFFF"/>
		<stop  offset="0.1667" style="stop-color:#FFFFFF"/>
		<stop  offset="0.2222" style="stop-color:#898998"/>
		<stop  offset="0.5909" style="stop-color:#D1D1E0"/>
		<stop  offset="0.6667" style="stop-color:#FFFFFF"/>
		<stop  offset="0.8131" style="stop-color:#FFFFFF"/>
		<stop  offset="0.8788" style="stop-color:#D5D5E4"/>
		<stop  offset="1" style="stop-color:#525261"/>
	</linearGradient>
	<path class="st8" d="M22.8,10.8v1.4h-7.4c0,0,0-0.9,0-1.4s0.5-1,1.1-1h5.2C22.3,9.8,22.8,10.3,22.8,10.8z"/>
	<linearGradient id="SVGID_8_" gradientUnits="userSpaceOnUse" x1="19.1415" y1="72.8177" x2="19.1415" y2="68.4356">
		<stop  offset="0" style="stop-color:#FFFFFF"/>
		<stop  offset="1" style="stop-color:#000000"/>
	</linearGradient>
	<rect x="15.4" y="68.4" class="st9" width="7.4" height="4.4"/>
	
		<linearGradient id="SVGID_9_" gradientUnits="userSpaceOnUse" x1="-224.0573" y1="39.146" x2="-218.5508" y2="39.146" gradientTransform="matrix(-1 0 0 1 -153 0)">
		<stop  offset="0" style="stop-color:#0D0D1C"/>
		<stop  offset="7.575760e-02" style="stop-color:#121221"/>
		<stop  offset="0.1111" style="stop-color:#FFFFFF"/>
		<stop  offset="0.1667" style="stop-color:#FFFFFF"/>
		<stop  offset="0.2222" style="stop-color:#4B4B59"/>
		<stop  offset="0.5909" style="stop-color:#9A9AA9"/>
		<stop  offset="0.6667" style="stop-color:#FFFFFF"/>
		<stop  offset="0.8131" style="stop-color:#FFFFFF"/>
		<stop  offset="0.8788" style="stop-color:#A0A0AF"/>
		<stop  offset="1" style="stop-color:#0D0D1C"/>
	</linearGradient>
	<rect x="65.6" y="10.6" class="st10" width="5.5" height="57"/>
	<defs>
		<filter id="Adobe_OpacityMaskFilter_2_" filterUnits="userSpaceOnUse" x="65.6" y="10.6" width="5.5" height="3">
			<feColorMatrix  type="matrix" values="1 0 0 0 0  0 1 0 0 0  0 0 1 0 0  0 0 0 1 0"/>
		</filter>
	</defs>
	<mask maskUnits="userSpaceOnUse" x="65.6" y="10.6" width="5.5" height="3" id="SVGID_10_">
		<g class="st11">
			<defs>
				<filter id="Adobe_OpacityMaskFilter_3_" filterUnits="userSpaceOnUse" x="65.6" y="10.6" width="5.5" height="3">
					<feFlood  style="flood-color:white;flood-opacity:1" result="back"/>
					<feBlend  in="SourceGraphic" in2="back" mode="normal"/>
				</filter>
			</defs>
			<mask maskUnits="userSpaceOnUse" x="65.6" y="10.6" width="5.5" height="3" id="SVGID_10_">
				<g class="st12">
				</g>
			</mask>
			<linearGradient id="SVGID_11_" gradientUnits="userSpaceOnUse" x1="68.3041" y1="13.6136" x2="68.3041" y2="10.5922">
				<stop  offset="3.763440e-02" style="stop-color:#000000"/>
				<stop  offset="1" style="stop-color:#C9C9C9"/>
			</linearGradient>
			<rect x="65.6" y="10.6" class="st13" width="5.5" height="3"/>
		</g>
	</mask>
	<linearGradient id="SVGID_12_" gradientUnits="userSpaceOnUse" x1="68.3041" y1="13.6136" x2="68.3041" y2="10.5922">
		<stop  offset="3.030300e-02" style="stop-color:#030303"/>
		<stop  offset="1" style="stop-color:#030303"/>
	</linearGradient>
	<rect x="65.6" y="10.6" class="st14" width="5.5" height="3"/>
	
		<linearGradient id="SVGID_13_" gradientUnits="userSpaceOnUse" x1="-224.0573" y1="44.3025" x2="-218.5508" y2="44.3025" gradientTransform="matrix(-1 0 0 1 -153 0)">
		<stop  offset="0" style="stop-color:#0D0D1C"/>
		<stop  offset="7.575760e-02" style="stop-color:#121221"/>
		<stop  offset="0.1111" style="stop-color:#FFFFFF"/>
		<stop  offset="0.1667" style="stop-color:#FFFFFF"/>
		<stop  offset="0.2222" style="stop-color:#4B4B59"/>
		<stop  offset="0.5909" style="stop-color:#9A9AA9"/>
		<stop  offset="0.6667" style="stop-color:#FFFFFF"/>
		<stop  offset="0.8131" style="stop-color:#FFFFFF"/>
		<stop  offset="0.8788" style="stop-color:#A0A0AF"/>
		<stop  offset="1" style="stop-color:#0D0D1C"/>
	</linearGradient>
	<rect x="65.6" y="15.8" class="st15" width="5.5" height="57"/>
	
		<linearGradient id="SVGID_14_" gradientUnits="userSpaceOnUse" x1="-225.0063" y1="44.4689" x2="-217.6013" y2="44.4689" gradientTransform="matrix(-1 0 0 1 -153 0)">
		<stop  offset="0" style="stop-color:#525261"/>
		<stop  offset="7.575760e-02" style="stop-color:#565665"/>
		<stop  offset="0.1111" style="stop-color:#FFFFFF"/>
		<stop  offset="0.1667" style="stop-color:#FFFFFF"/>
		<stop  offset="0.2222" style="stop-color:#898998"/>
		<stop  offset="0.5909" style="stop-color:#D1D1E0"/>
		<stop  offset="0.6667" style="stop-color:#FFFFFF"/>
		<stop  offset="0.8131" style="stop-color:#FFFFFF"/>
		<stop  offset="0.8788" style="stop-color:#D5D5E4"/>
		<stop  offset="1" style="stop-color:#525261"/>
	</linearGradient>
	<path class="st16" d="M65,74.9h6.6c0.2,0,0.4-0.2,0.4-0.4V14h-7.4v60.5C64.6,74.7,64.8,74.9,65,74.9z"/>
	
		<linearGradient id="SVGID_15_" gradientUnits="userSpaceOnUse" x1="-225.0063" y1="-15.4466" x2="-217.6013" y2="-15.4466" gradientTransform="matrix(-1 0 0 -1 -153 -4.4329)">
		<stop  offset="0" style="stop-color:#525261"/>
		<stop  offset="7.575760e-02" style="stop-color:#565665"/>
		<stop  offset="0.1111" style="stop-color:#FFFFFF"/>
		<stop  offset="0.1667" style="stop-color:#FFFFFF"/>
		<stop  offset="0.2222" style="stop-color:#898998"/>
		<stop  offset="0.5909" style="stop-color:#D1D1E0"/>
		<stop  offset="0.6667" style="stop-color:#FFFFFF"/>
		<stop  offset="0.8131" style="stop-color:#FFFFFF"/>
		<stop  offset="0.8788" style="stop-color:#D5D5E4"/>
		<stop  offset="1" style="stop-color:#525261"/>
	</linearGradient>
	<path class="st17" d="M72,10.8v1.4h-7.4c0,0,0-0.9,0-1.4s0.5-1,1.1-1h5.2C71.5,9.8,72,10.3,72,10.8z"/>
	<linearGradient id="SVGID_16_" gradientUnits="userSpaceOnUse" x1="68.3038" y1="72.8177" x2="68.3038" y2="68.4356">
		<stop  offset="0" style="stop-color:#FFFFFF"/>
		<stop  offset="1" style="stop-color:#000000"/>
	</linearGradient>
	<rect x="64.6" y="68.4" class="st18" width="7.4" height="4.4"/>
	<path class="st19" d="M10.6,69.5c-3.4,0-6.2-2.8-6.2-6.2V22.4c0-3.4,2.8-6.2,6.2-6.2h66.3c3.4,0,6.2,2.8,6.2,6.2v40.8
		c0,3.4-2.8,6.2-6.2,6.2H10.6z"/>
	<linearGradient id="SVGID_17_" gradientUnits="userSpaceOnUse" x1="12.7353" y1="73.8827" x2="74.7747" y2="11.8433">
		<stop  offset="0" style="stop-color:#A0A0AF"/>
		<stop  offset="0.1008" style="stop-color:#FFFFFF"/>
		<stop  offset="0.3333" style="stop-color:#FFFFFF"/>
		<stop  offset="0.4091" style="stop-color:#D1D1E6"/>
		<stop  offset="0.7778" style="stop-color:#4B4B59"/>
		<stop  offset="0.8333" style="stop-color:#FFFFFF"/>
		<stop  offset="0.8889" style="stop-color:#FFFFFF"/>
		<stop  offset="1" style="stop-color:#FFFFFF"/>
	</linearGradient>
	<path class="st20" d="M10.6,69.3c-3.3,0-6-2.7-6-6V22.4c0-3.3,2.7-6,6-6h66.3c3.3,0,6,2.7,6,6v40.8c0,3.3-2.7,6-6,6H10.6z"/>
	<path class="st21" d="M10.6,68.8c-3.1,0-5.5-2.5-5.5-5.5V22.4c0-3.1,2.5-5.5,5.5-5.5h66.3c3.1,0,5.5,2.5,5.5,5.5v40.8
		c0,3.1-2.5,5.5-5.5,5.5H10.6z"/>
	<path class="st22" d="M76.9,18.8c2,0,3.7,1.6,3.7,3.7v40.8c0,2-1.6,3.7-3.7,3.7H10.6c-2,0-3.7-1.6-3.7-3.7V22.4
		c0-2,1.6-3.7,3.7-3.7H76.9L76.9,18.8z M76.9,18H10.6c-2.4,0-4.4,2-4.4,4.4v40.8c0,2.4,2,4.4,4.4,4.4h66.3c2.4,0,4.4-2,4.4-4.4V22.4
		C81.4,20,79.4,18,76.9,18L76.9,18z"/>
	<g>
		<path class="st23" d="M20.1,21.7c0,0.5-0.4,1-1,1s-1-0.4-1-1c0-0.5,0.4-1,1-1S20.1,21.1,20.1,21.7z"/>
		<radialGradient id="SVGID_18_" cx="19.1417" cy="21.5393" r="0.9338" gradientUnits="userSpaceOnUse">
			<stop  offset="0" style="stop-color:#EDEDED"/>
			<stop  offset="0.2498" style="stop-color:#EBEBEB"/>
			<stop  offset="0.3754" style="stop-color:#E3E3E3"/>
			<stop  offset="0.4734" style="stop-color:#D6D6D6"/>
			<stop  offset="0.557" style="stop-color:#C3C3C3"/>
			<stop  offset="0.6315" style="stop-color:#ABABAB"/>
			<stop  offset="0.6994" style="stop-color:#8D8D8D"/>
			<stop  offset="0.7612" style="stop-color:#6A6A6A"/>
			<stop  offset="0.8182" style="stop-color:#424242"/>
			<stop  offset="0.9141" style="stop-color:#808080"/>
			<stop  offset="0.9747" style="stop-color:#545454"/>
			<stop  offset="1" style="stop-color:#404040"/>
		</radialGradient>
		<path class="st24" d="M20.1,21.5c0,0.5-0.4,0.9-0.9,0.9c-0.5,0-0.9-0.4-0.9-0.9c0-0.5,0.4-0.9,0.9-0.9
			C19.7,20.6,20.1,21,20.1,21.5z"/>
		<linearGradient id="SVGID_19_" gradientUnits="userSpaceOnUse" x1="19.1417" y1="21.9344" x2="19.1417" y2="20.6513">
			<stop  offset="0" style="stop-color:#000000"/>
			<stop  offset="1" style="stop-color:#FFFFFF"/>
		</linearGradient>
		<path class="st25" d="M19.1,20.7c-0.5,0-0.8,0.4-0.8,0.8c0,0,0,0.1,0,0.1c0.2,0.2,0.5,0.3,0.8,0.3c0.3,0,0.6-0.1,0.8-0.3
			c0,0,0-0.1,0-0.1C20,21,19.6,20.7,19.1,20.7z"/>
		<path class="st26" d="M18.7,21.7c0-0.2,0.2-0.4,0.4-0.4s0.4,0.2,0.4,0.4c0,0.1,0,0.1,0,0.2c0.1-0.1,0.1-0.2,0.1-0.3
			c0-0.3-0.2-0.5-0.5-0.5c-0.3,0-0.5,0.2-0.5,0.5c0,0.1,0,0.2,0.1,0.3C18.7,21.8,18.7,21.7,18.7,21.7z"/>
	</g>
	<g>
		<path class="st23" d="M20.1,64.1c0,0.5-0.4,1-1,1s-1-0.4-1-1c0-0.5,0.4-1,1-1S20.1,63.5,20.1,64.1z"/>
		<radialGradient id="SVGID_20_" cx="19.1417" cy="63.9259" r="0.9338" gradientUnits="userSpaceOnUse">
			<stop  offset="0" style="stop-color:#EDEDED"/>
			<stop  offset="0.2498" style="stop-color:#EBEBEB"/>
			<stop  offset="0.3754" style="stop-color:#E3E3E3"/>
			<stop  offset="0.4734" style="stop-color:#D6D6D6"/>
			<stop  offset="0.557" style="stop-color:#C3C3C3"/>
			<stop  offset="0.6315" style="stop-color:#ABABAB"/>
			<stop  offset="0.6994" style="stop-color:#8D8D8D"/>
			<stop  offset="0.7612" style="stop-color:#6A6A6A"/>
			<stop  offset="0.8182" style="stop-color:#424242"/>
			<stop  offset="0.9141" style="stop-color:#808080"/>
			<stop  offset="0.9747" style="stop-color:#545454"/>
			<stop  offset="1" style="stop-color:#404040"/>
		</radialGradient>
		<path class="st27" d="M20.1,63.9c0,0.5-0.4,0.9-0.9,0.9c-0.5,0-0.9-0.4-0.9-0.9c0-0.5,0.4-0.9,0.9-0.9
			C19.7,63,20.1,63.4,20.1,63.9z"/>
		<linearGradient id="SVGID_21_" gradientUnits="userSpaceOnUse" x1="19.1417" y1="64.321" x2="19.1417" y2="63.038">
			<stop  offset="0" style="stop-color:#000000"/>
			<stop  offset="1" style="stop-color:#FFFFFF"/>
		</linearGradient>
		<path class="st28" d="M19.1,63c-0.5,0-0.8,0.4-0.8,0.8c0,0,0,0.1,0,0.1c0.2,0.2,0.5,0.3,0.8,0.3c0.3,0,0.6-0.1,0.8-0.3
			c0,0,0-0.1,0-0.1C20,63.4,19.6,63,19.1,63z"/>
		<path class="st26" d="M18.7,64.1c0-0.2,0.2-0.4,0.4-0.4s0.4,0.2,0.4,0.4c0,0.1,0,0.1,0,0.2c0.1-0.1,0.1-0.2,0.1-0.3
			c0-0.3-0.2-0.5-0.5-0.5c-0.3,0-0.5,0.2-0.5,0.5c0,0.1,0,0.2,0.1,0.3C18.7,64.2,18.7,64.1,18.7,64.1z"/>
	</g>
	<g>
		<path class="st23" d="M69.3,21.7c0,0.5-0.4,1-1,1c-0.5,0-1-0.4-1-1c0-0.5,0.4-1,1-1C68.9,20.7,69.3,21.1,69.3,21.7z"/>
		<radialGradient id="SVGID_22_" cx="68.304" cy="21.5393" r="0.9338" gradientUnits="userSpaceOnUse">
			<stop  offset="0" style="stop-color:#EDEDED"/>
			<stop  offset="0.2498" style="stop-color:#EBEBEB"/>
			<stop  offset="0.3754" style="stop-color:#E3E3E3"/>
			<stop  offset="0.4734" style="stop-color:#D6D6D6"/>
			<stop  offset="0.557" style="stop-color:#C3C3C3"/>
			<stop  offset="0.6315" style="stop-color:#ABABAB"/>
			<stop  offset="0.6994" style="stop-color:#8D8D8D"/>
			<stop  offset="0.7612" style="stop-color:#6A6A6A"/>
			<stop  offset="0.8182" style="stop-color:#424242"/>
			<stop  offset="0.9141" style="stop-color:#808080"/>
			<stop  offset="0.9747" style="stop-color:#545454"/>
			<stop  offset="1" style="stop-color:#404040"/>
		</radialGradient>
		<path class="st29" d="M69.2,21.5c0,0.5-0.4,0.9-0.9,0.9c-0.5,0-0.9-0.4-0.9-0.9c0-0.5,0.4-0.9,0.9-0.9
			C68.8,20.6,69.2,21,69.2,21.5z"/>
		<linearGradient id="SVGID_23_" gradientUnits="userSpaceOnUse" x1="68.304" y1="21.9344" x2="68.304" y2="20.6513">
			<stop  offset="0" style="stop-color:#000000"/>
			<stop  offset="1" style="stop-color:#FFFFFF"/>
		</linearGradient>
		<path class="st30" d="M68.3,20.7c-0.5,0-0.8,0.4-0.8,0.8c0,0,0,0.1,0,0.1c0.2,0.2,0.5,0.3,0.8,0.3c0.3,0,0.6-0.1,0.8-0.3
			c0,0,0-0.1,0-0.1C69.1,21,68.8,20.7,68.3,20.7z"/>
		<path class="st26" d="M67.9,21.7c0-0.2,0.2-0.4,0.4-0.4c0.2,0,0.4,0.2,0.4,0.4c0,0.1,0,0.1,0,0.2c0.1-0.1,0.1-0.2,0.1-0.3
			c0-0.3-0.2-0.5-0.5-0.5c-0.3,0-0.5,0.2-0.5,0.5c0,0.1,0,0.2,0.1,0.3C67.9,21.8,67.9,21.7,67.9,21.7z"/>
	</g>
	<g>
		<path class="st23" d="M69.3,64.1c0,0.5-0.4,1-1,1c-0.5,0-1-0.4-1-1c0-0.5,0.4-1,1-1C68.9,63.1,69.3,63.5,69.3,64.1z"/>
		<radialGradient id="SVGID_24_" cx="68.304" cy="63.9259" r="0.9338" gradientUnits="userSpaceOnUse">
			<stop  offset="0" style="stop-color:#EDEDED"/>
			<stop  offset="0.2498" style="stop-color:#EBEBEB"/>
			<stop  offset="0.3754" style="stop-color:#E3E3E3"/>
			<stop  offset="0.4734" style="stop-color:#D6D6D6"/>
			<stop  offset="0.557" style="stop-color:#C3C3C3"/>
			<stop  offset="0.6315" style="stop-color:#ABABAB"/>
			<stop  offset="0.6994" style="stop-color:#8D8D8D"/>
			<stop  offset="0.7612" style="stop-color:#6A6A6A"/>
			<stop  offset="0.8182" style="stop-color:#424242"/>
			<stop  offset="0.9141" style="stop-color:#808080"/>
			<stop  offset="0.9747" style="stop-color:#545454"/>
			<stop  offset="1" style="stop-color:#404040"/>
		</radialGradient>
		<path class="st31" d="M69.2,63.9c0,0.5-0.4,0.9-0.9,0.9c-0.5,0-0.9-0.4-0.9-0.9c0-0.5,0.4-0.9,0.9-0.9
			C68.8,63,69.2,63.4,69.2,63.9z"/>
		<linearGradient id="SVGID_25_" gradientUnits="userSpaceOnUse" x1="68.304" y1="64.321" x2="68.304" y2="63.038">
			<stop  offset="0" style="stop-color:#000000"/>
			<stop  offset="1" style="stop-color:#FFFFFF"/>
		</linearGradient>
		<path class="st32" d="M68.3,63c-0.5,0-0.8,0.4-0.8,0.8c0,0,0,0.1,0,0.1c0.2,0.2,0.5,0.3,0.8,0.3c0.3,0,0.6-0.1,0.8-0.3
			c0,0,0-0.1,0-0.1C69.1,63.4,68.8,63,68.3,63z"/>
		<path class="st26" d="M67.9,64.1c0-0.2,0.2-0.4,0.4-0.4c0.2,0,0.4,0.2,0.4,0.4c0,0.1,0,0.1,0,0.2c0.1-0.1,0.1-0.2,0.1-0.3
			c0-0.3-0.2-0.5-0.5-0.5c-0.3,0-0.5,0.2-0.5,0.5c0,0.1,0,0.2,0.1,0.3C67.9,64.2,67.9,64.1,67.9,64.1z"/>
	</g>
</g>
</svg>
