<?xml version="1.0" encoding="utf-8"?>
<!-- Generator: Adobe Illustrator 23.0.1, SVG Export Plug-In . SVG Version: 6.00 Build 0)  -->
<svg version="1.1"
	 id="Слой_1" image-rendering="optimizeQuality" text-rendering="geometricPrecision" shape-rendering="geometricPrecision"
	 xmlns="http://www.w3.org/2000/svg" xmlns:xlink="http://www.w3.org/1999/xlink" x="0px" y="0px" viewBox="0 0 300 300"
	 style="enable-background:new 0 0 300 300;" xml:space="preserve">
<style type="text/css">
	.st0{fill:#2AC64B;}
	.st1{fill:#008A5A;}
	.st2{fill:#009550;}
	.st3{fill:#00983E;}
	.st4{fill:#009A37;}
	.st5{fill:#00863F;}
	.st6{fill:#06CBF6;}
	.st7{fill:url(#SVGID_1_);}
	.st8{fill:#666565;}
	.st9{fill-rule:evenodd;clip-rule:evenodd;fill:url(#SVGID_2_);}
	.st10{fill-rule:evenodd;clip-rule:evenodd;fill:url(#SVGID_3_);}
	.st11{fill-rule:evenodd;clip-rule:evenodd;fill:url(#SVGID_4_);}
	.st12{fill-rule:evenodd;clip-rule:evenodd;fill:#97CC1A;}
	.st13{fill-rule:evenodd;clip-rule:evenodd;fill:url(#SVGID_5_);}
	.st14{fill-rule:evenodd;clip-rule:evenodd;fill:url(#SVGID_6_);}
	.st15{fill-rule:evenodd;clip-rule:evenodd;fill:url(#SVGID_7_);}
	.st16{fill-rule:evenodd;clip-rule:evenodd;fill:url(#SVGID_8_);}
	.st17{fill-rule:evenodd;clip-rule:evenodd;fill:url(#SVGID_9_);}
	.st18{fill-rule:evenodd;clip-rule:evenodd;fill:url(#SVGID_10_);}
</style>
<g>
	<path class="st0" d="M51.7,101.2c-3.7-1.7-6.8-3-9.4-3.9c-0.5-4.1-0.9-8.2-1.2-12.2c-0.2-3.4-0.1-6.7,0.3-10
		c2.2,0.4,5.3,0.9,9.2,1.7c-0.4,4.6-0.4,9.5,0,14.7C50.8,94.7,51.2,98,51.7,101.2z M87.9,122.6c-9.3-6.8-18-12.1-25.5-16.1
		c-1.5-9.4-2.2-18.8-1.6-27.6c7,1.5,15.2,3.5,24.3,6.1C84.5,96.8,85.6,109.6,87.9,122.6L87.9,122.6z M183.1,127.6
		c-0.1,1-0.2,2.1-0.3,3.1c-12.7,6.6-25.3,15.5-36.6,27.5c-3.7,3.9-7,7.8-10,11.7c-3.4-4.3-7.1-8.7-11-13.1c-1.7-2-3.5-3.9-5.2-5.7
		c-2.9-19.5-4.8-38.7-5.1-56.7C137.3,102.3,161.6,113.1,183.1,127.6L183.1,127.6z"/>
	<path class="st1" d="M54.4,57.8c-1.9,5.7-3.3,12.1-3.9,18.9c-3.9-0.8-7-1.3-9.2-1.7C41.6,73,42,71,42.4,69
		C45.2,66,49.2,62.1,54.4,57.8z"/>
	<path class="st2" d="M98.5,33c-6.7,12.2-12,28.7-13.4,50.7c0,0.4-0.1,0.9-0.1,1.3c-9.1-2.5-17.4-4.5-24.3-6c0-0.3,0-0.6,0.1-0.9
		c0.9-11.5,4.3-22.1,9.4-31.5C78.2,41.6,87.6,36.9,98.5,33z"/>
	<path class="st3" d="M183.1,127.6c-21.4-14.5-45.7-25.3-68.2-33.3c-0.4-21.5,1.2-41.2,5.7-57.6c0.1-0.5,0.3-0.9,0.4-1.3
		c17.9,10.5,41.2,22.3,63.2,27.5C186,82.4,185.4,104.5,183.1,127.6L183.1,127.6z"/>
	<path class="st4" d="M258.9,85.1c-0.5,9.1-1.8,18-3.9,27c-2.6,0.1-5.5,0.3-8.7,0.5c1.4-6.9,2.5-14,3.1-21.2
		c1.9-24.2-5.9-42.7-15-55.6c2.7,0.8,5.2,1.5,7.5,2.2C252.1,50.9,260,67.5,258.9,85.1z M236.3,113.8c-7.1,1-15.1,2.6-23.6,5
		c1.9-12.2,2.8-24.1,2.1-35.2c-1.5-25.3-8.4-43.3-16.5-55.9c7.6,1.2,14.8,2.7,21.4,4.3c10.6,12.5,18.1,28.1,19.4,46
		C240,89.4,238.8,101.6,236.3,113.8z"/>
	<path class="st5" d="M184.1,62.9c-22.1-5.2-45.4-16.9-63.2-27.5c0.9-3.3,2-6.2,3.2-8.9c3.3-0.6,6.6-1,10.1-1.4
		c14-1.4,27.9-1.3,41.2-0.2c1.6,3.5,3,7.4,4.2,11.8C181.7,44.7,183.2,53.5,184.1,62.9z"/>
	<path class="st6" d="M88.7,13.1c-0.7,0.5-24.5,15.1-34.2,44.7c-5.2,4.3-9.2,8.2-12,11.2C48.9,41,74.7,18.1,88.7,13.1z M103.7,24.6
		c-1.8,2.5-3.5,5.3-5.2,8.4c-10.9,3.9-20.3,8.6-28.3,13.6c6.1-11.2,14.6-20.7,24.3-28.2C96.8,19.9,99.9,22.1,103.7,24.6L103.7,24.6z
		"/>
	
		<linearGradient id="SVGID_1_" gradientUnits="userSpaceOnUse" x1="-44992.7891" y1="-23817.8477" x2="-44470.3438" y2="-23802.0156" gradientTransform="matrix(0.253 0 0 0.253 11484.2539 6041.7881)">
		<stop  offset="0" style="stop-color:#0288F7"/>
		<stop  offset="1" style="stop-color:#2EE2BD"/>
	</linearGradient>
	<path class="st7" d="M241.9,38c-2.4-0.7-4.9-1.5-7.5-2.2c-10.7-15.2-23.2-22.7-23.2-22.7C219.5,16,231.9,25.2,241.9,38z M219.7,32
		c-6.6-1.5-13.8-3-21.4-4.3C184.7,6.4,167.7,0.3,166.8,0C185.1,3.7,205.3,15,219.7,32z M175.3,24.9c-13.3-1.1-27.2-1.2-41.2,0.2
		c-3.5,0.3-6.8,0.8-10.1,1.4C133.8,3.3,149.7,0,149.7,0h0.5C150.2,0,165.4,3.2,175.3,24.9z M133.1,0c-0.8,0.3-16.2,5.8-29.5,24.6
		c-3.8-2.5-6.9-4.7-9.2-6.3C106.5,8.9,120.3,2.6,133.1,0L133.1,0z"/>
	<path class="st8" d="M150,300h16.4l6.1-26.5h-44.9l6.1,26.5H150z"/>
	
		<linearGradient id="SVGID_2_" gradientUnits="userSpaceOnUse" x1="-44952.8203" y1="-23047.7578" x2="-45081.332" y2="-23365.5566" gradientTransform="matrix(0.253 0 0 0.253 11484.2539 6041.7881)">
		<stop  offset="0" style="stop-color:#CB1918"/>
		<stop  offset="0.388" style="stop-color:#A2183D"/>
		<stop  offset="0.749" style="stop-color:#902869"/>
		<stop  offset="1" style="stop-color:#73358A"/>
	</linearGradient>
	<path class="st9" d="M88.1,181.5c3.2,6.5,6.2,12.3,8.7,17.2c4.4,8.3,8.7,15.4,13,21.8c1.3-4.4,2.8-9.1,4.8-13.9
		c-3.4-7.8-6.8-16.1-10-24.8c-7-18.8-13.3-39.4-16.7-59.3c-9.3-6.8-18-12.1-25.5-16.1C66.7,133.3,78.1,160.9,88.1,181.5L88.1,181.5z
		"/>
	
		<linearGradient id="SVGID_3_" gradientUnits="userSpaceOnUse" x1="-45017.6563" y1="-23021.5352" x2="-45146.1719" y2="-23339.3379" gradientTransform="matrix(0.253 0 0 0.253 11484.2539 6041.7881)">
		<stop  offset="0" style="stop-color:#CB1918"/>
		<stop  offset="0.388" style="stop-color:#A2183D"/>
		<stop  offset="0.749" style="stop-color:#902869"/>
		<stop  offset="1" style="stop-color:#73358A"/>
	</linearGradient>
	<path class="st10" d="M73.3,181.2c1.8,3.1,3.6,6.2,5.6,9.4c9,14.8,19.4,28.4,28.7,39.5c0.3-1.4,0.6-2.7,1-4.1
		c-3.7-5.1-7.4-10.4-10.5-15.2c-4.5-6.9-11-17-17.8-29.4c-11.6-21.2-24.1-49.3-28.4-80.1c-3.7-1.7-6.8-3-9.4-3.9
		C46,124.9,56.5,152.1,73.3,181.2L73.3,181.2z"/>
	
		<linearGradient id="SVGID_4_" gradientUnits="userSpaceOnUse" x1="-44839.2813" y1="-23093.6699" x2="-44967.7969" y2="-23411.4727" gradientTransform="matrix(0.253 0 0 0.253 11484.2539 6041.7881)">
		<stop  offset="0" style="stop-color:#CB1918"/>
		<stop  offset="0.388" style="stop-color:#A2183D"/>
		<stop  offset="0.749" style="stop-color:#902869"/>
		<stop  offset="1" style="stop-color:#73358A"/>
	</linearGradient>
	<path class="st11" d="M121.5,161.3c1.2,7,2.5,14.1,4,21.1c0.1,0.7,0.3,1.3,0.4,2c3-4.8,6.3-9.6,10.1-14.5c-3.5-4.5-7.2-8.9-11-13.1
		c-1.7-2-3.5-3.9-5.2-5.7C120.4,154.4,120.9,157.8,121.5,161.3L121.5,161.3z"/>
	<path class="st12" d="M246.3,112.6c-4.2,20.3-11.5,39-19.3,55.1c1.6,1.6,3.1,3.2,4.6,4.7c11.1-20.7,19-40.5,23.5-60.3
		C252.5,112.2,249.6,112.3,246.3,112.6z M212.7,118.8c-1.5,9.7-3.7,19.5-6.4,29.3c4.6,4.2,9.6,8.8,14.6,13.6
		c6.2-14.8,12-31.3,15.4-47.9C229.2,114.8,221.1,116.4,212.7,118.8L212.7,118.8z"/>
	
		<linearGradient id="SVGID_5_" gradientUnits="userSpaceOnUse" x1="-44575.2148" y1="-23273.5332" x2="-44761.7109" y2="-23069.8242" gradientTransform="matrix(0.253 0 0 0.253 11484.2539 6041.7881)">
		<stop  offset="0" style="stop-color:#ADD816"/>
		<stop  offset="1" style="stop-color:#DBD704"/>
	</linearGradient>
	<path class="st13" d="M146.1,158.2c-3.7,3.9-7,7.8-10,11.7c13.3,16.8,23.2,32.8,30.4,46.2c2.6-10.1,5.3-21.2,7.7-32.6
		c1.6-7.4,3-14.8,4.2-22.2c1.7-10.3,3.2-20.5,4.3-30.6C170.1,137.3,157.5,146.2,146.1,158.2z M227,167.7c-0.3,0.6-0.6,1.2-0.9,1.8
		c-8.8,17.8-18.1,32.2-24,41.2c-6.8,10.4-15.9,22.6-23.1,32c0.3,0.7,0.5,1.3,0.8,1.9c11.2-12.2,27.9-31.9,41.4-54.1
		c3.4-5.6,6.6-11.1,9.5-16.5c0.3-0.6,0.6-1.1,0.9-1.7C230.1,170.8,228.6,169.3,227,167.7L227,167.7z M206.3,148.1l-0.3,1.3
		c-8.6,31-21.7,61-32,81.7c1.1,2.4,2.1,4.8,3,6.8c9.6-11.4,17.4-22.9,26.2-39.2c4.8-9,11-21.2,16.9-35.2l0.8-1.9
		C215.9,156.9,210.9,152.3,206.3,148.1L206.3,148.1z"/>
	
		<linearGradient id="SVGID_6_" gradientUnits="userSpaceOnUse" x1="-44716.2383" y1="-22882.1445" x2="-44874.9922" y2="-23149.8652" gradientTransform="matrix(0.253 0 0 0.253 11484.2539 6041.7881)">
		<stop  offset="0" style="stop-color:#E1282B"/>
		<stop  offset="0.388" style="stop-color:#E3402A"/>
		<stop  offset="0.702" style="stop-color:#E76226"/>
		<stop  offset="1" style="stop-color:#F19A0A"/>
	</linearGradient>
	<path class="st14" d="M158.6,258.1c7-7.2,13-13.6,18.4-20.1c-0.9-2.1-1.9-4.4-3-6.8C166.6,245.7,160.6,255.7,158.6,258.1z"/>
	
		<linearGradient id="SVGID_7_" gradientUnits="userSpaceOnUse" x1="-44706.0781" y1="-22888.1699" x2="-44864.832" y2="-23155.8906" gradientTransform="matrix(0.253 0 0 0.253 11484.2539 6041.7881)">
		<stop  offset="0" style="stop-color:#E1282B"/>
		<stop  offset="0.388" style="stop-color:#E3402A"/>
		<stop  offset="0.702" style="stop-color:#E76226"/>
		<stop  offset="1" style="stop-color:#F19A0A"/>
	</linearGradient>
	<path class="st15" d="M167.2,257.6c0.4-0.4,5.3-5.1,12.5-13c-0.3-0.6-0.5-1.3-0.8-1.9C172.5,251.1,167.6,257.2,167.2,257.6z"/>
	
		<linearGradient id="SVGID_8_" gradientUnits="userSpaceOnUse" x1="-44733.0742" y1="-22872.1621" x2="-44891.8281" y2="-23139.8828" gradientTransform="matrix(0.253 0 0 0.253 11484.2539 6041.7881)">
		<stop  offset="0" style="stop-color:#E1282B"/>
		<stop  offset="0.388" style="stop-color:#E3402A"/>
		<stop  offset="0.702" style="stop-color:#E76226"/>
		<stop  offset="1" style="stop-color:#F19A0A"/>
	</linearGradient>
	<path class="st16" d="M126,184.4c8.2,38.6,19.6,74,19.6,74h8.9c0,0,5.7-18,12-42.3c-7.2-13.4-17.1-29.4-30.4-46.2
		C132.3,174.7,128.9,179.6,126,184.4z"/>
	
		<linearGradient id="SVGID_9_" gradientUnits="userSpaceOnUse" x1="-44820.5781" y1="-22820.2715" x2="-44979.3359" y2="-23087.9941" gradientTransform="matrix(0.253 0 0 0.253 11484.2539 6041.7881)">
		<stop  offset="0" style="stop-color:#E1282B"/>
		<stop  offset="0.388" style="stop-color:#E3402A"/>
		<stop  offset="0.702" style="stop-color:#E76226"/>
		<stop  offset="1" style="stop-color:#F19A0A"/>
	</linearGradient>
	<path class="st17" d="M109.8,220.5c9,13.4,18.5,24.1,31.5,37.5c-3-3.5-14.8-23.9-26.7-51.4C112.7,211.5,111.1,216.1,109.8,220.5
		L109.8,220.5z"/>
	
		<linearGradient id="SVGID_10_" gradientUnits="userSpaceOnUse" x1="-44849.9688" y1="-22802.8438" x2="-45008.7227" y2="-23070.5664" gradientTransform="matrix(0.253 0 0 0.253 11484.2539 6041.7881)">
		<stop  offset="0" style="stop-color:#E1282B"/>
		<stop  offset="0.388" style="stop-color:#E3402A"/>
		<stop  offset="0.702" style="stop-color:#E76226"/>
		<stop  offset="1" style="stop-color:#F19A0A"/>
	</linearGradient>
	<path class="st18" d="M107.5,230.1c13.6,16.3,24.8,27,25.3,27.6c-0.6-0.7-12.9-15.8-24.4-31.7C108.1,227.3,107.7,228.7,107.5,230.1
		L107.5,230.1z"/>
</g>
</svg>
