<?xml version="1.0" encoding="utf-8"?>
<!-- Generator: Adobe Illustrator 23.0.1, SVG Export Plug-In . SVG Version: 6.00 Build 0)  -->
<svg version="1.1" id="Слой_1" xmlns="http://www.w3.org/2000/svg" xmlns:xlink="http://www.w3.org/1999/xlink" x="0px" y="0px"
	 viewBox="0 0 300 300" style="enable-background:new 0 0 300 300;" xml:space="preserve">
<style type="text/css">
	.st0{fill:#B3B3B3;}
	.st1{fill:#A6120D;}
	.st2{fill:#DD1B16;}
	.st3{fill:#F2F2F2;}
</style>
<g>
	<path class="st0" d="M149.5,0L8.4,49.7l22.3,184.9l119,65.4l119.6-66.3l22.3-184.9L149.5,0z"/>
	<path class="st1" d="M277.5,59.5L149.2,15.7v268.6l107.5-59.5L277.5,59.5L277.5,59.5z"/>
	<path class="st2" d="M24.2,60.3l19.1,165.4l105.9,58.7V15.7L24.2,60.3L24.2,60.3z"/>
	<path class="st3" d="M184.5,158.7l-35.3,16.5H112L94.5,219l-32.5,0.6l87.3-194.1L184.5,158.7L184.5,158.7z M181.1,150.4l-31.7-62.7
		l-26,61.6h25.7L181.1,150.4L181.1,150.4z"/>
	<path class="st0" d="M149.2,25.5l0.2,62.2l29.5,61.7h-29.6l-0.1,25.8l41,0l19.2,44.4l31.1,0.6L149.2,25.5L149.2,25.5z"/>
</g>
</svg>
