<?xml version="1.0" encoding="utf-8"?>
<!-- Generator: Adobe Illustrator 23.0.1, SVG Export Plug-In . SVG Version: 6.00 Build 0)  -->
<svg version="1.1" xmlns="http://www.w3.org/2000/svg" xmlns:xlink="http://www.w3.org/1999/xlink" x="0px" y="0px"
	 viewBox="0 0 93.95 93.95" style="enable-background:new 0 0 93.95 93.95;" xml:space="preserve">
<style type="text/css">
	.st0{display:none;}
	.st1{display:inline;}
	.st2{fill:#FFFFFF;}
	.st3{enable-background:new    ;}
	.st4{fill:#FF9100;}
	.st5{fill:#EF9F00;}
	.st6{fill:#FFCE00;}
	.st7{fill:#FFB024;}
	.st8{fill:#FFDE52;}
	.st9{fill:#EF7700;}
</style>
<g id="Слой_1" class="st0">
	<g id="OBJECTS" class="st1">
		<g>
			<path class="st2" d="M0,46.51c0.76-0.89,1.46-1.86,2.29-2.66c5.87-5.65,11.76-11.27,17.65-16.89c4.51-4.3,9.04-8.59,13.55-12.89
				c3-2.85,5.97-5.75,8.98-8.57c2.66-2.49,6.39-2.48,9.05,0.04c4.56,4.32,9.09,8.69,13.63,13.04c0.09,0.09,0.2,0.15,0.42,0.33
				c0.03-0.41,0.06-0.7,0.06-0.99c0-3.76,0-7.51,0.01-11.27c0-2.13,0.58-2.79,2.41-2.79c3.38,0,6.75,0,10.13,0
				c1.73,0,2.35,0.71,2.35,2.7c0,8.57,0.01,17.14-0.01,25.72c0,0.71,0.19,1.17,0.65,1.61c3.85,3.64,7.7,7.29,11.53,10.96
				c0.48,0.46,0.84,1.11,1.25,1.67c0,0.4,0,0.8,0,1.2c-1.23,1.73-2.44,3.46-3.68,5.17c-1.07,1.48-2.02,1.61-3.33,0.37
				c-3.5-3.32-6.98-6.68-10.47-10.01c-3.07-2.93-6.14-5.86-9.21-8.79c-3.17-3.02-6.33-6.05-9.5-9.07
				c-3.41-3.27-6.83-6.53-10.23-9.81c-0.4-0.38-0.68-0.39-1.09,0c-3.11,3.01-6.24,6-9.36,8.99c-3.11,2.97-6.22,5.94-9.33,8.91
				c-3.13,2.99-6.26,5.97-9.38,8.96c-3.49,3.34-6.98,6.67-10.47,10.01c-0.4,0.38-0.79,0.79-1.22,1.14c-1,0.77-1.9,0.71-2.68-0.34
				c-1.37-1.81-2.67-3.69-4-5.54C0,47.31,0,46.91,0,46.51z"/>
			<path class="st2" d="M54.43,89.27c0-8.53,0-17,0-25.53c-0.33-0.02-0.58-0.04-0.82-0.04c-4.43,0-8.85,0.01-13.28-0.02
				c-0.66,0-0.84,0.2-0.84,0.96c0.02,7.83,0.01,15.66,0.02,23.49c0,0.37,0,0.73,0,1.22c-0.35,0-0.62,0-0.88,0c-7,0-14.01,0-21.01,0
				c-2.7,0-4.19-1.68-4.19-4.78c-0.01-10.3,0-20.59-0.02-30.89c0-0.78,0.25-1.24,0.76-1.72c5.18-4.86,10.33-9.76,15.5-14.64
				c4.55-4.3,9.11-8.58,13.66-12.88c1.21-1.14,2.41-2.3,3.65-3.48c1.84,1.73,3.63,3.42,5.42,5.11c5.22,4.93,10.45,9.87,15.67,14.8
				c4.01,3.79,8.02,7.57,12.01,11.38c0.25,0.24,0.44,0.72,0.44,1.09C80.53,63.9,80.54,74.45,80.51,85
				c-0.01,2.54-1.54,4.31-3.73,4.32c-7.3,0.03-14.61,0.01-21.91,0.01C54.77,89.34,54.68,89.31,54.43,89.27z"/>
		</g>
	</g>
	<g id="DESIGNED_BY_FREEPIK" class="st1">
	</g>
</g>
<g id="Слой_2">
	<g>
		<g class="st3">
			<g>
				<polygon class="st4" points="27.05,70.01 41.79,61.44 41.77,67.14 27.03,75.7 				"/>
			</g>
			<g>
				<polygon class="st4" points="22.1,67.15 36.84,58.59 41.79,61.44 27.05,70.01 				"/>
			</g>
			<g>
				<polygon class="st4" points="27.05,70.01 27.03,75.7 22.09,72.85 22.1,67.15 				"/>
			</g>
			<g>
				<polygon class="st4" points="22.12,61.47 36.86,52.91 36.84,58.59 22.1,67.15 				"/>
			</g>
			<g>
				<polygon class="st4" points="22.12,61.47 22.1,67.15 17.15,64.3 17.17,58.61 				"/>
			</g>
			<g>
				<polygon class="st4" points="17.17,58.61 31.9,50.05 36.86,52.91 22.12,61.47 				"/>
			</g>
			<g>
				<polygon class="st4" points="12.24,50.08 26.98,41.51 31.92,44.37 17.18,52.93 				"/>
			</g>
			<g>
				<polygon class="st4" points="17.18,52.93 31.92,44.37 31.9,50.05 17.17,58.61 				"/>
			</g>
			<g>
				<polygon class="st4" points="17.18,52.93 17.17,58.61 12.22,55.76 12.24,50.08 				"/>
			</g>
			<g>
				<polygon class="st4" points="32,72.87 46.74,64.31 46.72,70 31.99,78.56 				"/>
			</g>
			<g>
				<polygon class="st4" points="32,72.87 31.99,78.56 27.03,75.7 27.05,70.01 				"/>
			</g>
			<g>
				<polygon class="st4" points="27.05,70.01 41.79,61.44 46.74,64.31 32,72.87 				"/>
			</g>
			<g>
				<polygon class="st5" points="27.07,64.33 41.8,55.76 41.79,61.44 27.05,70.01 				"/>
			</g>
			<g>
				<polygon class="st5" points="22.12,61.47 36.86,52.91 41.8,55.76 27.07,64.33 				"/>
			</g>
			<g>
				<polygon class="st5" points="27.07,64.33 27.05,70.01 22.1,67.15 22.12,61.47 				"/>
			</g>
			<g>
				<polygon class="st6" points="22.14,55.79 22.12,61.47 17.17,58.61 17.18,52.93 				"/>
			</g>
			<g>
				<polygon class="st6" points="22.14,55.79 36.87,47.23 36.86,52.91 22.12,61.47 				"/>
			</g>
			<g>
				<polygon class="st6" points="17.18,52.93 31.92,44.37 36.87,47.23 22.14,55.79 				"/>
			</g>
			<g>
				<polygon class="st4" points="17.2,47.25 31.94,38.69 31.92,44.37 17.18,52.93 				"/>
			</g>
			<g>
				<polygon class="st4" points="12.26,44.4 26.99,35.83 31.94,38.69 17.2,47.25 				"/>
			</g>
			<g>
				<polygon class="st4" points="17.2,47.25 17.18,52.93 12.24,50.08 12.26,44.4 				"/>
			</g>
			<g>
				<polygon class="st4" points="12.27,38.71 27.01,30.15 26.99,35.83 12.26,44.4 				"/>
			</g>
			<g>
				<polygon class="st6" points="12.27,38.71 27.01,30.15 31.95,33 17.22,41.57 				"/>
			</g>
			<g>
				<polygon class="st4" points="7.33,35.86 22.06,27.29 27.01,30.15 12.27,38.71 				"/>
			</g>
			<g>
				<polygon class="st4" points="12.27,38.71 12.26,44.4 7.31,41.54 7.33,35.86 				"/>
			</g>
			<g>
				<polygon class="st2" points="32.02,67.19 32,72.87 27.05,70.01 27.07,64.33 				"/>
			</g>
			<g>
				<polygon class="st2" points="32.02,67.19 46.76,58.62 46.74,64.31 32,72.87 				"/>
			</g>
			<g>
				<polygon class="st2" points="27.07,64.33 41.8,55.76 46.76,58.62 32.02,67.19 				"/>
			</g>
			<g>
				<polygon class="st5" points="27.08,58.65 41.82,50.08 41.8,55.76 27.07,64.33 				"/>
			</g>
			<g>
				<polygon class="st5" points="27.08,58.65 27.07,64.33 22.12,61.47 22.14,55.79 				"/>
			</g>
			<g>
				<polygon class="st5" points="22.14,55.79 36.87,47.23 41.82,50.08 27.08,58.65 				"/>
			</g>
			<g>
				<polygon class="st6" points="22.15,50.11 36.89,41.54 36.87,47.23 22.14,55.79 				"/>
			</g>
			<g>
				<polygon class="st6" points="22.15,50.11 22.14,55.79 17.18,52.93 17.2,47.25 				"/>
			</g>
			<g>
				<polygon class="st6" points="17.2,47.25 31.94,38.69 36.89,41.54 22.15,50.11 				"/>
			</g>
			<g>
				<polygon class="st6" points="17.22,41.57 31.95,33 31.94,38.69 17.2,47.25 				"/>
			</g>
			<g>
				<polygon class="st6" points="17.22,41.57 17.2,47.25 12.26,44.4 12.27,38.71 				"/>
			</g>
			<g>
				<polygon class="st4" points="7.34,30.17 22.08,21.6 27,24.44 12.26,33.01 				"/>
			</g>
			<g>
				<polygon class="st4" points="12.29,33.02 27.02,24.46 27.01,30.15 12.27,38.71 				"/>
			</g>
			<g>
				<polygon class="st4" points="12.26,33.01 27,24.44 27.02,24.46 12.29,33.02 				"/>
			</g>
			<g>
				<polygon class="st4" points="12.29,33.02 12.27,38.71 7.33,35.86 7.34,30.17 12.26,33.01 				"/>
			</g>
			<g>
				<polygon class="st5" points="27.1,52.96 41.83,44.4 41.82,50.08 27.08,58.65 				"/>
			</g>
			<g>
				<polygon class="st5" points="27.1,52.96 27.08,58.65 22.14,55.79 22.15,50.11 				"/>
			</g>
			<g>
				<polygon class="st5" points="22.15,50.11 36.89,41.54 41.83,44.4 27.1,52.96 				"/>
			</g>
			<g>
				<polygon class="st6" points="22.17,44.43 36.9,35.86 36.89,41.54 22.15,50.11 				"/>
			</g>
			<g>
				<polygon class="st6" points="22.17,44.43 22.15,50.11 17.2,47.25 17.22,41.57 				"/>
			</g>
			<g>
				<polygon class="st6" points="17.22,41.57 31.95,33 36.9,35.86 22.17,44.43 				"/>
			</g>
			<g>
				<polygon class="st6" points="12.29,33.02 27.02,24.46 31.95,27.3 17.21,35.86 				"/>
			</g>
			<g>
				<polygon class="st6" points="17.23,35.88 17.22,41.57 12.27,38.71 12.29,33.02 17.21,35.86 				"/>
			</g>
			<g>
				<polygon class="st6" points="17.21,35.86 31.95,27.3 31.97,27.31 17.23,35.88 				"/>
			</g>
			<g>
				<polygon class="st6" points="17.23,35.88 31.97,27.31 31.95,33 17.22,41.57 				"/>
			</g>
			<g>
				<polygon class="st7" points="7.33,24.47 22.07,15.91 27.02,18.76 12.28,27.33 				"/>
			</g>
			<g>
				<polygon class="st4" points="12.28,27.33 12.26,33.01 7.34,30.17 7.32,30.15 7.33,24.47 				"/>
			</g>
			<g>
				<polygon class="st4" points="12.28,27.33 27.02,18.76 27,24.44 12.26,33.01 				"/>
			</g>
			<g>
				<polygon class="st6" points="17.22,30.18 31.96,21.62 31.95,27.3 17.21,35.86 				"/>
			</g>
			<g>
				<polygon class="st6" points="12.28,27.33 27.02,18.76 31.96,21.62 17.22,30.18 				"/>
			</g>
			<g>
				<polygon class="st6" points="17.22,30.18 17.21,35.86 12.29,33.02 12.26,33.01 12.28,27.33 				"/>
			</g>
		</g>
		<g class="st3">
			<g>
				<polygon class="st4" points="17.24,24.49 31.98,15.93 31.96,21.62 17.22,30.18 				"/>
			</g>
			<g>
				<polygon class="st4" points="12.3,21.63 27.03,13.07 31.98,15.93 17.24,24.49 				"/>
			</g>
			<g>
				<polygon class="st4" points="17.24,24.49 17.22,30.18 12.28,27.33 12.3,21.63 				"/>
			</g>
		</g>
		<g class="st3">
			<g>
				<polygon class="st4" points="36.93,81.41 51.67,72.85 51.65,78.53 36.91,87.1 				"/>
			</g>
			<g>
				<polygon class="st4" points="36.93,81.41 51.67,72.85 56.61,75.71 41.88,84.27 				"/>
			</g>
			<g>
				<polygon class="st4" points="31.99,78.56 46.72,70 51.67,72.85 36.93,81.41 				"/>
			</g>
			<g>
				<polygon class="st4" points="36.93,81.41 36.91,87.1 31.97,84.24 31.99,78.56 				"/>
			</g>
			<g>
				<polygon class="st4" points="41.88,84.27 56.61,75.71 56.6,81.39 41.86,89.95 				"/>
			</g>
			<g>
				<polygon class="st4" points="41.88,84.27 41.86,89.95 36.91,87.1 36.93,81.41 				"/>
			</g>
			<g>
				<polygon class="st5" points="36.95,75.72 36.93,81.41 31.99,78.56 32,72.87 				"/>
			</g>
			<g>
				<polygon class="st5" points="36.95,75.72 51.68,67.16 51.67,72.85 36.93,81.41 				"/>
			</g>
			<g>
				<polygon class="st5" points="32,72.87 46.74,64.31 51.68,67.16 36.95,75.72 				"/>
			</g>
			<g>
				<polygon class="st5" points="41.89,78.58 56.63,70.01 56.61,75.71 41.88,84.27 				"/>
			</g>
			<g>
				<polygon class="st5" points="41.89,78.58 41.88,84.27 36.93,81.41 36.95,75.72 				"/>
			</g>
			<g>
				<polygon class="st5" points="36.95,75.72 51.68,67.16 56.63,70.01 41.89,78.58 				"/>
			</g>
			<g>
				<polygon class="st8" points="36.96,70.04 51.7,61.48 51.68,67.16 36.95,75.72 				"/>
			</g>
			<g>
				<polygon class="st8" points="32.02,67.19 46.76,58.62 51.7,61.48 36.96,70.04 				"/>
			</g>
			<g>
				<polygon class="st8" points="36.96,70.04 36.95,75.72 32,72.87 32.02,67.19 				"/>
			</g>
			<g>
				<polygon class="st2" points="32.03,61.51 46.77,52.94 46.76,58.62 32.02,67.19 				"/>
			</g>
			<g>
				<polygon class="st2" points="27.08,58.65 41.82,50.08 46.77,52.94 32.03,61.51 				"/>
			</g>
			<g>
				<polygon class="st2" points="32.03,61.51 32.02,67.19 27.07,64.33 27.08,58.65 				"/>
			</g>
			<g>
				<polygon class="st8" points="41.91,72.9 56.64,64.33 56.63,70.01 41.89,78.58 				"/>
			</g>
			<g>
				<polygon class="st8" points="41.91,72.9 41.89,78.58 36.95,75.72 36.96,70.04 				"/>
			</g>
			<g>
				<polygon class="st8" points="36.96,70.04 51.7,61.48 56.64,64.33 41.91,72.9 				"/>
			</g>
			<g>
				<polygon class="st5" points="32.05,55.82 32.03,61.51 27.08,58.65 27.1,52.96 				"/>
			</g>
			<g>
				<polygon class="st5" points="32.05,55.82 46.79,47.26 46.77,52.94 32.03,61.51 				"/>
			</g>
			<g>
				<polygon class="st5" points="27.1,52.96 41.83,44.4 46.79,47.26 32.05,55.82 				"/>
			</g>
			<g>
				<polygon class="st6" points="27.11,47.28 41.85,38.72 41.83,44.4 27.1,52.96 				"/>
			</g>
			<g>
				<polygon class="st6" points="22.17,44.43 36.9,35.86 41.85,38.72 27.11,47.28 				"/>
			</g>
			<g>
				<polygon class="st6" points="27.11,47.28 27.1,52.96 22.15,50.11 22.17,44.43 				"/>
			</g>
			<g>
				<polygon class="st6" points="17.23,35.88 31.97,27.31 36.89,30.15 22.15,38.72 				"/>
			</g>
			<g>
				<polygon class="st6" points="22.18,38.74 22.17,44.43 17.22,41.57 17.23,35.88 22.15,38.72 				"/>
			</g>
			<g>
				<polygon class="st6" points="22.15,38.72 36.89,30.15 36.92,30.17 22.18,38.74 				"/>
			</g>
			<g>
				<polygon class="st6" points="22.18,38.74 36.92,30.17 36.9,35.86 22.17,44.43 				"/>
			</g>
			<g>
				<polygon class="st6" points="22.17,33.04 36.91,24.47 36.89,30.15 22.15,38.72 				"/>
			</g>
			<g>
				<polygon class="st6" points="17.22,30.18 31.96,21.62 36.91,24.47 22.17,33.04 				"/>
			</g>
			<g>
				<polygon class="st6" points="22.17,33.04 22.15,38.72 17.23,35.88 17.21,35.86 17.22,30.18 				"/>
			</g>
			<g>
				<polygon class="st6" points="22.19,27.34 22.17,33.04 17.22,30.18 17.24,24.49 				"/>
			</g>
			<g>
				<polygon class="st6" points="22.19,27.34 36.92,18.78 36.91,24.47 22.17,33.04 				"/>
			</g>
			<g>
				<polygon class="st6" points="17.24,24.49 31.98,15.93 36.92,18.78 22.19,27.34 				"/>
			</g>
			<g>
				<polygon class="st4" points="17.26,18.81 31.99,10.24 31.98,15.93 17.24,24.49 				"/>
			</g>
			<g>
				<polygon class="st7" points="12.31,15.95 27.05,7.39 31.99,10.24 17.26,18.81 				"/>
			</g>
			<g>
				<polygon class="st4" points="17.26,18.81 17.24,24.49 12.3,21.63 12.31,15.95 				"/>
			</g>
		</g>
		<g class="st3">
			<g>
				<polygon class="st9" points="46.84,87.13 61.57,78.57 61.56,84.25 46.82,92.82 				"/>
			</g>
			<g>
				<polygon class="st4" points="41.89,84.28 56.63,75.71 61.57,78.57 46.84,87.13 				"/>
			</g>
			<g>
				<polygon class="st4" points="46.84,87.13 46.82,92.82 41.88,89.96 41.89,84.28 				"/>
			</g>
		</g>
		<g class="st3">
			<g>
				<polygon class="st5" points="32.07,50.14 46.8,41.58 46.79,47.26 32.05,55.82 				"/>
			</g>
			<g>
				<polygon class="st5" points="27.11,47.28 41.85,38.72 46.8,41.58 32.07,50.14 				"/>
			</g>
			<g>
				<polygon class="st5" points="32.07,50.14 32.05,55.82 27.1,52.96 27.11,47.28 				"/>
			</g>
			<g>
				<polygon class="st6" points="22.18,38.74 36.92,30.17 41.84,33.01 27.11,41.58 				"/>
			</g>
			<g>
				<polygon class="st6" points="27.11,41.58 41.84,33.01 41.87,33.03 27.13,41.59 				"/>
			</g>
			<g>
				<polygon class="st6" points="27.13,41.59 41.87,33.03 41.85,38.72 27.11,47.28 				"/>
			</g>
			<g>
				<polygon class="st6" points="27.13,41.59 27.11,47.28 22.17,44.43 22.18,38.74 27.11,41.58 				"/>
			</g>
			<g>
				<polygon class="st5" points="27.13,41.59 41.87,33.03 46.79,35.87 32.05,44.43 				"/>
			</g>
			<g>
				<polygon class="st5" points="32.08,44.45 32.07,50.14 27.11,47.28 27.13,41.59 32.05,44.43 				"/>
			</g>
			<g>
				<polygon class="st5" points="32.05,44.43 46.79,35.87 46.82,35.89 32.08,44.45 				"/>
			</g>
			<g>
				<polygon class="st5" points="32.08,44.45 46.82,35.89 46.8,41.58 32.07,50.14 				"/>
			</g>
			<g>
				<polygon class="st6" points="22.17,33.04 36.91,24.47 41.86,27.33 27.12,35.89 				"/>
			</g>
			<g>
				<polygon class="st6" points="27.12,35.89 27.11,41.58 22.18,38.74 22.15,38.72 22.17,33.04 				"/>
			</g>
			<g>
				<polygon class="st6" points="27.12,35.89 41.86,27.33 41.84,33.01 27.11,41.58 				"/>
			</g>
			<g>
				<polygon class="st5" points="32.07,38.75 46.8,30.19 46.79,35.87 32.05,44.43 				"/>
			</g>
			<g>
				<polygon class="st5" points="27.12,35.89 41.86,27.33 46.8,30.19 32.07,38.75 				"/>
			</g>
			<g>
				<polygon class="st5" points="32.07,38.75 32.05,44.43 27.13,41.59 27.11,41.58 27.12,35.89 				"/>
			</g>
			<g>
				<polygon class="st5" points="27.14,30.2 41.88,21.64 41.86,27.33 27.12,35.89 				"/>
			</g>
			<g>
				<polygon class="st5" points="22.19,27.34 36.92,18.78 41.88,21.64 27.14,30.2 				"/>
			</g>
			<g>
				<polygon class="st5" points="27.14,30.2 27.12,35.89 22.17,33.04 22.19,27.34 				"/>
			</g>
			<g>
				<polygon class="st6" points="22.2,21.66 22.19,27.34 17.24,24.49 17.26,18.81 				"/>
			</g>
			<g>
				<polygon class="st6" points="22.2,21.66 36.94,13.1 36.92,18.78 22.19,27.34 				"/>
			</g>
			<g>
				<polygon class="st6" points="17.26,18.81 31.99,10.24 36.94,13.1 22.2,21.66 				"/>
			</g>
			<g>
				<polygon class="st4" points="22.22,15.98 36.95,7.42 36.94,13.1 22.2,21.66 				"/>
			</g>
			<g>
				<polygon class="st7" points="17.27,13.13 32.01,4.56 36.95,7.42 22.22,15.98 				"/>
			</g>
			<g>
				<polygon class="st4" points="22.22,15.98 22.2,21.66 17.26,18.81 17.27,13.13 				"/>
			</g>
		</g>
		<g class="st3">
			<g>
				<polygon class="st2" points="36.98,64.36 51.72,55.8 51.7,61.48 36.96,70.04 				"/>
			</g>
			<g>
				<polygon class="st2" points="32.03,61.51 46.77,52.94 51.72,55.8 36.98,64.36 				"/>
			</g>
			<g>
				<polygon class="st2" points="36.98,64.36 36.96,70.04 32.02,67.19 32.03,61.51 				"/>
			</g>
			<g>
				<polygon class="st2" points="37,58.68 51.73,50.11 51.72,55.8 36.98,64.36 				"/>
			</g>
			<g>
				<polygon class="st2" points="32.05,55.82 46.79,47.26 51.73,50.11 37,58.68 				"/>
			</g>
			<g>
				<polygon class="st2" points="37,58.68 36.98,64.36 32.03,61.51 32.05,55.82 				"/>
			</g>
		</g>
		<g class="st3">
			<g>
				<polygon class="st5" points="27.15,24.52 41.89,15.96 41.88,21.64 27.14,30.2 				"/>
			</g>
			<g>
				<polygon class="st5" points="22.2,21.66 36.94,13.1 41.89,15.96 27.15,24.52 				"/>
			</g>
			<g>
				<polygon class="st5" points="27.15,24.52 27.14,30.2 22.19,27.34 22.2,21.66 				"/>
			</g>
			<g>
				<polygon class="st5" points="27.17,18.84 41.91,10.28 41.89,15.96 27.15,24.52 				"/>
			</g>
			<g>
				<polygon class="st5" points="22.22,15.98 36.95,7.42 41.91,10.28 27.17,18.84 				"/>
			</g>
			<g>
				<polygon class="st5" points="27.17,18.84 27.15,24.52 22.2,21.66 22.22,15.98 				"/>
			</g>
		</g>
		<g class="st3">
			<g>
				<polygon class="st8" points="41.92,67.22 56.66,58.65 56.64,64.33 41.91,72.9 				"/>
			</g>
			<g>
				<polygon class="st8" points="36.98,64.36 51.72,55.8 56.66,58.65 41.92,67.22 				"/>
			</g>
			<g>
				<polygon class="st8" points="41.92,67.22 41.91,72.9 36.96,70.04 36.98,64.36 				"/>
			</g>
			<g>
				<polygon class="st8" points="41.94,61.53 56.68,52.97 56.66,58.65 41.92,67.22 				"/>
			</g>
			<g>
				<polygon class="st8" points="37,58.68 51.73,50.11 56.68,52.97 41.94,61.53 				"/>
			</g>
			<g>
				<polygon class="st8" points="41.94,61.53 41.92,67.22 36.98,64.36 37,58.68 				"/>
			</g>
			<g>
				<polygon class="st2" points="37.01,53 51.75,44.43 51.73,50.11 37,58.68 				"/>
			</g>
			<g>
				<polygon class="st8" points="37.01,53 51.75,44.43 56.69,47.29 41.96,55.85 				"/>
			</g>
			<g>
				<polygon class="st2" points="32.07,50.14 46.8,41.58 51.75,44.43 37.01,53 				"/>
			</g>
			<g>
				<polygon class="st2" points="37.01,53 37,58.68 32.05,55.82 32.07,50.14 				"/>
			</g>
			<g>
				<polygon class="st8" points="41.96,55.85 56.69,47.29 56.68,52.97 41.94,61.53 				"/>
			</g>
			<g>
				<polygon class="st8" points="41.96,55.85 41.94,61.53 37,58.68 37.01,53 				"/>
			</g>
			<g>
				<polygon class="st2" points="32.08,44.45 46.82,35.89 51.74,38.73 37,47.29 				"/>
			</g>
			<g>
				<polygon class="st2" points="37.03,47.3 51.76,38.74 51.75,44.43 37.01,53 				"/>
			</g>
			<g>
				<polygon class="st2" points="37.03,47.3 37.01,53 32.07,50.14 32.08,44.45 37,47.29 				"/>
			</g>
			<g>
				<polygon class="st2" points="37,47.29 51.74,38.73 51.76,38.74 37.03,47.3 				"/>
			</g>
			<g>
				<polygon class="st2" points="37.02,41.61 51.76,33.05 51.74,38.73 37,47.29 				"/>
			</g>
			<g>
				<polygon class="st2" points="32.07,38.75 46.8,30.19 51.76,33.05 37.02,41.61 				"/>
			</g>
			<g>
				<polygon class="st2" points="37.02,41.61 37,47.29 32.08,44.45 32.05,44.43 32.07,38.75 				"/>
			</g>
			<g>
				<polygon class="st5" points="32.08,33.06 46.82,24.5 46.8,30.19 32.07,38.75 				"/>
			</g>
			<g>
				<polygon class="st5" points="27.14,30.2 41.88,21.64 46.82,24.5 32.08,33.06 				"/>
			</g>
			<g>
				<polygon class="st5" points="32.08,33.06 32.07,38.75 27.12,35.89 27.14,30.2 				"/>
			</g>
		</g>
		<g class="st3">
			<g>
				<polygon class="st5" points="46.85,81.44 61.59,72.88 61.57,78.57 46.84,87.13 				"/>
			</g>
			<g>
				<polygon class="st5" points="41.91,78.59 56.64,70.02 61.59,72.88 46.85,81.44 				"/>
			</g>
			<g>
				<polygon class="st5" points="46.85,81.44 46.84,87.13 41.89,84.28 41.91,78.59 				"/>
			</g>
		</g>
		<g class="st3">
			<g>
				<polygon class="st8" points="46.87,75.76 61.61,67.2 61.59,72.88 46.85,81.44 				"/>
			</g>
			<g>
				<polygon class="st8" points="41.92,72.91 56.66,64.34 61.61,67.2 46.87,75.76 				"/>
			</g>
			<g>
				<polygon class="st8" points="46.87,75.76 46.85,81.44 41.91,78.59 41.92,72.91 				"/>
			</g>
		</g>
		<g class="st3">
			<g>
				<polygon class="st4" points="51.8,84.3 66.53,75.73 66.52,81.42 51.78,89.99 				"/>
			</g>
			<g>
				<polygon class="st4" points="46.85,81.44 61.59,72.88 66.53,75.73 51.8,84.3 				"/>
			</g>
			<g>
				<polygon class="st4" points="51.8,84.3 51.78,89.99 46.84,87.13 46.85,81.44 				"/>
			</g>
		</g>
		<g class="st3">
			<g>
				<polygon class="st8" points="46.88,70.08 61.62,61.52 61.61,67.2 46.87,75.76 				"/>
			</g>
			<g>
				<polygon class="st8" points="41.94,67.22 56.68,58.66 61.62,61.52 46.88,70.08 				"/>
			</g>
			<g>
				<polygon class="st8" points="46.88,70.08 46.87,75.76 41.92,72.91 41.94,67.22 				"/>
			</g>
		</g>
		<g class="st3">
			<g>
				<polygon class="st8" points="51.81,78.62 66.55,70.05 66.53,75.73 51.8,84.3 				"/>
			</g>
			<g>
				<polygon class="st8" points="46.87,75.76 61.61,67.2 66.55,70.05 51.81,78.62 				"/>
			</g>
			<g>
				<polygon class="st8" points="51.81,78.62 51.8,84.3 46.85,81.44 46.87,75.76 				"/>
			</g>
		</g>
		<g class="st3">
			<g>
				<polygon class="st2" points="32.1,27.38 46.84,18.81 46.82,24.5 32.08,33.06 				"/>
			</g>
			<g>
				<polygon class="st2" points="27.15,24.52 41.89,15.96 46.84,18.81 32.1,27.38 				"/>
			</g>
			<g>
				<polygon class="st2" points="32.1,27.38 32.08,33.06 27.14,30.2 27.15,24.52 				"/>
			</g>
			<g>
				<polygon class="st2" points="32.12,21.69 46.85,13.13 46.84,18.81 32.1,27.38 				"/>
			</g>
			<g>
				<polygon class="st2" points="27.17,18.84 41.91,10.28 46.85,13.13 32.12,21.69 				"/>
			</g>
			<g>
				<polygon class="st2" points="32.12,21.69 32.1,27.38 27.15,24.52 27.17,18.84 				"/>
			</g>
			<g>
				<polygon class="st7" points="22.23,10.3 36.97,1.74 41.92,4.59 27.19,13.16 				"/>
			</g>
			<g>
				<polygon class="st4" points="27.19,13.16 41.92,4.59 41.91,10.28 27.17,18.84 				"/>
			</g>
			<g>
				<polygon class="st4" points="27.19,13.16 27.17,18.84 22.22,15.98 22.23,10.3 				"/>
			</g>
			<g>
				<polygon class="st4" points="32.13,16.01 46.87,7.45 46.85,13.13 32.12,21.69 				"/>
			</g>
			<g>
				<polygon class="st4" points="32.13,16.01 32.12,21.69 27.17,18.84 27.19,13.16 				"/>
			</g>
			<g>
				<polygon class="st7" points="27.19,13.16 41.92,4.59 46.87,7.45 32.13,16.01 				"/>
			</g>
		</g>
		<g class="st3">
			<g>
				<polygon class="st8" points="37.04,35.92 51.77,27.35 51.76,33.05 37.02,41.61 				"/>
			</g>
			<g>
				<polygon class="st8" points="32.08,33.06 46.82,24.5 51.77,27.35 37.04,35.92 				"/>
			</g>
			<g>
				<polygon class="st8" points="37.04,35.92 37.02,41.61 32.07,38.75 32.08,33.06 				"/>
			</g>
		</g>
		<g class="st3">
			<g>
				<polygon class="st8" points="37.03,47.3 51.76,38.74 56.68,41.58 41.95,50.15 				"/>
			</g>
			<g>
				<polygon class="st8" points="41.96,50.16 56.7,41.59 56.69,47.29 41.96,55.85 				"/>
			</g>
			<g>
				<polygon class="st8" points="41.95,50.15 56.68,41.58 56.7,41.59 41.96,50.16 				"/>
			</g>
			<g>
				<polygon class="st8" points="41.96,50.16 41.96,55.85 37.01,53 37.03,47.3 41.95,50.15 				"/>
			</g>
		</g>
		<g class="st3">
			<g>
				<polygon class="st8" points="46.9,64.4 61.64,55.83 61.62,61.52 46.88,70.08 				"/>
			</g>
			<g>
				<polygon class="st8" points="41.96,61.54 56.69,52.98 61.64,55.83 46.9,64.4 				"/>
			</g>
			<g>
				<polygon class="st8" points="46.9,64.4 46.88,70.08 41.94,67.22 41.96,61.54 				"/>
			</g>
		</g>
		<g class="st3">
			<g>
				<polygon class="st8" points="37.05,30.24 51.79,21.67 51.77,27.35 37.04,35.92 				"/>
			</g>
			<g>
				<polygon class="st8" points="32.1,27.38 46.84,18.81 51.79,21.67 37.05,30.24 				"/>
			</g>
			<g>
				<polygon class="st8" points="37.05,30.24 37.04,35.92 32.08,33.06 32.1,27.38 				"/>
			</g>
		</g>
		<g class="st3">
			<g>
				<polygon class="st2" points="37.07,24.56 51.8,15.99 51.79,21.67 37.05,30.24 				"/>
			</g>
			<g>
				<polygon class="st2" points="32.12,21.69 46.85,13.13 51.8,15.99 37.07,24.56 				"/>
			</g>
			<g>
				<polygon class="st2" points="37.07,24.56 37.05,30.24 32.1,27.38 32.12,21.69 				"/>
			</g>
		</g>
		<g class="st3">
			<g>
				<polygon class="st8" points="41.96,44.46 56.7,35.9 56.68,41.58 41.95,50.15 				"/>
			</g>
			<g>
				<polygon class="st8" points="37.02,41.61 51.76,33.05 56.7,35.9 41.96,44.46 				"/>
			</g>
			<g>
				<polygon class="st8" points="41.96,44.46 41.95,50.15 37.03,47.3 37,47.29 37.02,41.61 				"/>
			</g>
			<g>
				<polygon class="st8" points="41.98,38.77 56.72,30.21 56.7,35.9 41.96,44.46 				"/>
			</g>
			<g>
				<polygon class="st8" points="37.04,35.92 51.77,27.35 56.72,30.21 41.98,38.77 				"/>
			</g>
			<g>
				<polygon class="st8" points="41.98,38.77 41.96,44.46 37.02,41.61 37.04,35.92 				"/>
			</g>
		</g>
		<g class="st3">
			<g>
				<polygon class="st5" points="37.08,18.87 51.82,10.31 51.8,15.99 37.07,24.56 				"/>
			</g>
			<g>
				<polygon class="st5" points="32.13,16.01 46.87,7.45 51.82,10.31 37.08,18.87 				"/>
			</g>
			<g>
				<polygon class="st5" points="37.08,18.87 37.07,24.56 32.12,21.69 32.13,16.01 				"/>
			</g>
		</g>
		<g class="st3">
			<g>
				<polygon class="st8" points="42,33.09 56.73,24.53 56.72,30.21 41.98,38.77 				"/>
			</g>
			<g>
				<polygon class="st8" points="37.05,30.24 51.79,21.67 56.73,24.53 42,33.09 				"/>
			</g>
			<g>
				<polygon class="st8" points="42,33.09 41.98,38.77 37.04,35.92 37.05,30.24 				"/>
			</g>
		</g>
		<g class="st3">
			<g>
				<polygon class="st9" points="56.74,87.15 71.48,78.59 71.46,84.28 56.73,92.84 				"/>
			</g>
			<g>
				<polygon class="st4" points="51.8,84.3 66.53,75.73 71.48,78.59 56.74,87.15 				"/>
			</g>
			<g>
				<polygon class="st4" points="56.74,87.15 56.73,92.84 51.78,89.99 51.8,84.3 				"/>
			</g>
			<g>
				<polygon class="st5" points="56.76,81.47 71.5,72.91 71.48,78.59 56.74,87.15 				"/>
			</g>
			<g>
				<polygon class="st5" points="51.81,78.62 66.55,70.05 71.5,72.91 56.76,81.47 				"/>
			</g>
			<g>
				<polygon class="st5" points="56.76,81.47 56.74,87.15 51.8,84.3 51.81,78.62 				"/>
			</g>
			<g>
				<polygon class="st8" points="51.83,72.93 66.57,64.37 66.55,70.05 51.81,78.62 				"/>
			</g>
			<g>
				<polygon class="st8" points="46.88,70.08 61.62,61.52 66.57,64.37 51.83,72.93 				"/>
			</g>
			<g>
				<polygon class="st8" points="51.83,72.93 51.81,78.62 46.87,75.76 46.88,70.08 				"/>
			</g>
			<g>
				<polygon class="st5" points="56.77,75.79 56.76,81.47 51.81,78.62 51.83,72.93 				"/>
			</g>
			<g>
				<polygon class="st5" points="51.83,72.93 66.57,64.37 71.51,67.22 56.77,75.79 				"/>
			</g>
			<g>
				<polygon class="st5" points="56.77,75.79 71.51,67.22 71.5,72.91 56.76,81.47 				"/>
			</g>
			<g>
				<polygon class="st5" points="51.85,67.25 51.83,72.93 46.88,70.08 46.9,64.4 				"/>
			</g>
			<g>
				<polygon class="st5" points="51.85,67.25 66.58,58.69 66.57,64.37 51.83,72.93 				"/>
			</g>
			<g>
				<polygon class="st5" points="46.9,64.4 61.64,55.83 66.58,58.69 51.85,67.25 				"/>
			</g>
			<g>
				<polygon class="st8" points="46.92,58.72 46.9,64.4 41.96,61.54 41.97,55.86 				"/>
			</g>
			<g>
				<polygon class="st8" points="46.92,58.72 61.65,50.15 61.64,55.83 46.9,64.4 				"/>
			</g>
			<g>
				<polygon class="st8" points="41.97,55.86 56.71,47.3 61.65,50.15 46.92,58.72 				"/>
			</g>
			<g>
				<polygon class="st5" points="51.85,67.25 66.58,58.69 71.53,61.54 56.79,70.11 				"/>
			</g>
			<g>
				<polygon class="st5" points="56.79,70.11 56.77,75.79 51.83,72.93 51.85,67.25 				"/>
			</g>
			<g>
				<polygon class="st5" points="56.79,70.11 71.53,61.54 71.51,67.22 56.77,75.79 				"/>
			</g>
			<g>
				<polygon class="st5" points="51.86,61.57 66.6,53.01 66.58,58.69 51.85,67.25 				"/>
			</g>
			<g>
				<polygon class="st5" points="51.86,61.57 51.85,67.25 46.9,64.4 46.92,58.72 				"/>
			</g>
			<g>
				<polygon class="st5" points="46.92,58.72 61.65,50.15 66.6,53.01 51.86,61.57 				"/>
			</g>
			<g>
				<polygon class="st8" points="41.99,50.17 56.73,41.6 61.64,44.45 46.91,53.01 				"/>
			</g>
			<g>
				<polygon class="st8" points="46.93,53.02 46.92,58.72 41.97,55.86 41.99,50.17 46.91,53.01 				"/>
			</g>
			<g>
				<polygon class="st8" points="46.91,53.01 61.64,44.45 61.67,44.46 46.93,53.02 				"/>
			</g>
			<g>
				<polygon class="st8" points="46.93,53.02 61.67,44.46 61.65,50.15 46.92,58.72 				"/>
			</g>
			<g>
				<polygon class="st8" points="46.92,47.33 61.66,38.77 61.64,44.45 46.91,53.01 				"/>
			</g>
			<g>
				<polygon class="st8" points="41.98,44.47 56.72,35.91 61.66,38.77 46.92,47.33 				"/>
			</g>
			<g>
				<polygon class="st8" points="46.92,47.33 46.91,53.01 41.99,50.17 41.97,50.16 41.98,44.47 				"/>
			</g>
		</g>
		<g class="st3">
			<g>
				<polygon class="st4" points="61.71,84.33 76.45,75.76 76.43,81.45 61.69,90.01 				"/>
			</g>
			<g>
				<polygon class="st4" points="56.76,81.47 71.5,72.91 76.45,75.76 61.71,84.33 				"/>
			</g>
			<g>
				<polygon class="st4" points="61.71,84.33 61.69,90.01 56.74,87.15 56.76,81.47 				"/>
			</g>
		</g>
		<g class="st3">
			<g>
				<polygon class="st6" points="61.73,78.65 76.46,70.08 76.45,75.76 61.71,84.33 				"/>
			</g>
			<g>
				<polygon class="st6" points="56.77,75.79 71.51,67.22 76.46,70.08 61.73,78.65 				"/>
			</g>
			<g>
				<polygon class="st6" points="61.73,78.65 61.71,84.33 56.76,81.47 56.77,75.79 				"/>
			</g>
		</g>
		<g class="st3">
			<g>
				<polygon class="st4" points="37.1,13.19 51.84,4.63 51.82,10.31 37.08,18.87 				"/>
			</g>
			<g>
				<polygon class="st7" points="32.15,10.33 46.88,1.77 51.84,4.63 37.1,13.19 				"/>
			</g>
			<g>
				<polygon class="st4" points="37.1,13.19 37.08,18.87 32.13,16.01 32.15,10.33 				"/>
			</g>
		</g>
		<g class="st3">
			<g>
				<polygon class="st2" points="42.01,27.41 56.75,18.85 56.73,24.53 42,33.09 				"/>
			</g>
			<g>
				<polygon class="st2" points="37.07,24.56 51.8,15.99 56.75,18.85 42.01,27.41 				"/>
			</g>
			<g>
				<polygon class="st2" points="42.01,27.41 42,33.09 37.05,30.24 37.07,24.56 				"/>
			</g>
		</g>
		<g class="st3">
			<g>
				<polygon class="st8" points="46.94,41.64 61.68,33.07 61.66,38.77 46.92,47.33 				"/>
			</g>
			<g>
				<polygon class="st8" points="42,38.78 56.73,30.22 61.68,33.07 46.94,41.64 				"/>
			</g>
			<g>
				<polygon class="st8" points="46.94,41.64 46.92,47.33 41.98,44.47 42,38.78 				"/>
			</g>
		</g>
		<g class="st3">
			<g>
				<polygon class="st5" points="42.03,21.73 56.76,13.16 56.75,18.85 42.01,27.41 				"/>
			</g>
			<g>
				<polygon class="st5" points="37.08,18.87 51.82,10.31 56.76,13.16 42.03,21.73 				"/>
			</g>
			<g>
				<polygon class="st5" points="42.03,21.73 42.01,27.41 37.07,24.56 37.08,18.87 				"/>
			</g>
		</g>
		<g class="st3">
			<g>
				<polygon class="st8" points="46.96,35.96 61.69,27.39 61.68,33.07 46.94,41.64 				"/>
			</g>
			<g>
				<polygon class="st8" points="42.01,33.1 56.75,24.54 61.69,27.39 46.96,35.96 				"/>
			</g>
			<g>
				<polygon class="st8" points="46.96,35.96 46.94,41.64 42,38.78 42.01,33.1 				"/>
			</g>
		</g>
		<g class="st3">
			<g>
				<polygon class="st4" points="42.04,16.05 56.78,7.48 56.76,13.16 42.03,21.73 				"/>
			</g>
			<g>
				<polygon class="st7" points="37.1,13.19 51.84,4.63 56.78,7.48 42.04,16.05 				"/>
			</g>
			<g>
				<polygon class="st4" points="42.04,16.05 42.03,21.73 37.08,18.87 37.1,13.19 				"/>
			</g>
		</g>
		<g class="st3">
			<g>
				<polygon class="st2" points="46.97,30.27 61.71,21.71 61.69,27.39 46.96,35.96 				"/>
			</g>
			<g>
				<polygon class="st2" points="42.03,27.42 56.76,18.85 61.71,21.71 46.97,30.27 				"/>
			</g>
			<g>
				<polygon class="st2" points="46.97,30.27 46.96,35.96 42.01,33.1 42.03,27.42 				"/>
			</g>
		</g>
		<g class="st3">
			<g>
				<polygon class="st5" points="46.99,24.59 61.73,16.03 61.71,21.71 46.97,30.27 				"/>
			</g>
			<g>
				<polygon class="st5" points="42.04,21.74 56.78,13.17 61.73,16.03 46.99,24.59 				"/>
			</g>
			<g>
				<polygon class="st5" points="46.99,24.59 46.97,30.27 42.03,27.42 42.04,21.74 				"/>
			</g>
		</g>
		<g class="st3">
			<g>
				<polygon class="st6" points="56.81,64.43 71.54,55.86 71.53,61.54 56.79,70.11 				"/>
			</g>
			<g>
				<polygon class="st6" points="51.86,61.57 66.6,53.01 71.54,55.86 56.81,64.43 				"/>
			</g>
			<g>
				<polygon class="st6" points="56.81,64.43 56.79,70.11 51.85,67.25 51.86,61.57 				"/>
			</g>
			<g>
				<polygon class="st5" points="46.93,53.02 61.67,44.46 66.59,47.3 51.85,55.86 				"/>
			</g>
			<g>
				<polygon class="st5" points="51.85,55.86 66.59,47.3 66.62,47.31 51.88,55.88 				"/>
			</g>
			<g>
				<polygon class="st5" points="51.88,55.88 66.62,47.31 66.6,53.01 51.86,61.57 				"/>
			</g>
			<g>
				<polygon class="st5" points="51.88,55.88 51.86,61.57 46.92,58.72 46.93,53.02 51.85,55.86 				"/>
			</g>
			<g>
				<polygon class="st6" points="51.88,55.88 66.62,47.31 71.53,50.16 56.8,58.72 				"/>
			</g>
			<g>
				<polygon class="st6" points="56.82,58.73 56.81,64.43 51.86,61.57 51.88,55.88 56.8,58.72 				"/>
			</g>
			<g>
				<polygon class="st6" points="56.8,58.72 71.53,50.16 71.56,50.17 56.82,58.73 				"/>
			</g>
			<g>
				<polygon class="st6" points="56.82,58.73 71.56,50.17 71.54,55.86 56.81,64.43 				"/>
			</g>
			<g>
				<polygon class="st5" points="51.87,50.18 51.85,55.86 46.93,53.02 46.91,53.01 46.92,47.33 				"/>
			</g>
			<g>
				<polygon class="st5" points="51.87,50.18 66.61,41.62 66.59,47.3 51.85,55.86 				"/>
			</g>
			<g>
				<polygon class="st5" points="46.92,47.33 61.66,38.77 66.61,41.62 51.87,50.18 				"/>
			</g>
			<g>
				<polygon class="st6" points="56.81,53.04 56.8,58.72 51.88,55.88 51.85,55.86 51.87,50.18 				"/>
			</g>
			<g>
				<polygon class="st6" points="56.81,53.04 71.55,44.47 71.53,50.16 56.8,58.72 				"/>
			</g>
			<g>
				<polygon class="st6" points="51.87,50.18 66.61,41.62 71.55,44.47 56.81,53.04 				"/>
			</g>
			<g>
				<polygon class="st5" points="51.89,44.49 66.62,35.93 66.61,41.62 51.87,50.18 				"/>
			</g>
			<g>
				<polygon class="st5" points="46.94,41.64 61.68,33.07 66.62,35.93 51.89,44.49 				"/>
			</g>
			<g>
				<polygon class="st5" points="51.89,44.49 51.87,50.18 46.92,47.33 46.94,41.64 				"/>
			</g>
			<g>
				<polygon class="st8" points="51.9,38.81 66.64,30.25 66.62,35.93 51.89,44.49 				"/>
			</g>
			<g>
				<polygon class="st8" points="46.96,35.96 61.69,27.39 66.64,30.25 51.9,38.81 				"/>
			</g>
			<g>
				<polygon class="st8" points="51.9,38.81 51.89,44.49 46.94,41.64 46.96,35.96 				"/>
			</g>
		</g>
		<g class="st3">
			<g>
				<polygon class="st6" points="61.74,72.97 76.48,64.4 76.46,70.08 61.73,78.65 				"/>
			</g>
			<g>
				<polygon class="st6" points="56.79,70.11 71.53,61.54 76.48,64.4 61.74,72.97 				"/>
			</g>
			<g>
				<polygon class="st6" points="61.74,72.97 61.73,78.65 56.77,75.79 56.79,70.11 				"/>
			</g>
		</g>
		<g class="st3">
			<g>
				<polygon class="st9" points="66.67,81.5 81.41,72.94 81.39,78.62 66.66,87.18 				"/>
			</g>
			<g>
				<polygon class="st4" points="61.73,78.65 76.46,70.08 81.41,72.94 66.67,81.5 				"/>
			</g>
			<g>
				<polygon class="st4" points="66.67,81.5 66.66,87.18 61.71,84.33 61.73,78.65 				"/>
			</g>
		</g>
		<g class="st3">
			<g>
				<polygon class="st6" points="61.76,67.28 76.49,58.72 76.48,64.4 61.74,72.97 				"/>
			</g>
			<g>
				<polygon class="st6" points="56.81,64.43 71.54,55.86 76.49,58.72 61.76,67.28 				"/>
			</g>
			<g>
				<polygon class="st6" points="61.76,67.28 61.74,72.97 56.79,70.11 56.81,64.43 				"/>
			</g>
		</g>
		<g class="st3">
			<g>
				<polygon class="st9" points="66.69,75.82 81.42,67.26 81.41,72.94 66.67,81.5 				"/>
			</g>
			<g>
				<polygon class="st4" points="61.74,72.97 76.48,64.4 81.42,67.26 66.69,75.82 				"/>
			</g>
			<g>
				<polygon class="st4" points="66.69,75.82 66.67,81.5 61.73,78.65 61.74,72.97 				"/>
			</g>
		</g>
		<g class="st3">
			<g>
				<polygon class="st5" points="56.83,47.35 71.57,38.78 71.55,44.47 56.81,53.04 				"/>
			</g>
			<g>
				<polygon class="st5" points="51.89,44.49 66.62,35.93 71.57,38.78 56.83,47.35 				"/>
			</g>
			<g>
				<polygon class="st5" points="56.83,47.35 56.81,53.04 51.87,50.18 51.89,44.49 				"/>
			</g>
		</g>
		<g class="st3">
			<g>
				<polygon class="st6" points="66.7,70.14 81.44,61.57 81.42,67.26 66.69,75.82 				"/>
			</g>
			<g>
				<polygon class="st6" points="61.76,67.28 76.49,58.72 81.44,61.57 66.7,70.14 				"/>
			</g>
			<g>
				<polygon class="st6" points="66.7,70.14 66.69,75.82 61.74,72.97 61.76,67.28 				"/>
			</g>
			<g>
				<polygon class="st6" points="56.82,58.73 71.56,50.17 76.48,53.01 61.74,61.57 				"/>
			</g>
			<g>
				<polygon class="st6" points="61.77,61.59 61.76,67.28 56.81,64.43 56.82,58.73 61.74,61.57 				"/>
			</g>
			<g>
				<polygon class="st6" points="61.74,61.57 76.48,53.01 76.51,53.03 61.77,61.59 				"/>
			</g>
			<g>
				<polygon class="st6" points="61.77,61.59 76.51,53.03 76.49,58.72 61.76,67.28 				"/>
			</g>
			<g>
				<polygon class="st6" points="61.76,55.89 76.5,47.33 76.48,53.01 61.74,61.57 				"/>
			</g>
			<g>
				<polygon class="st6" points="56.81,53.04 71.55,44.47 76.5,47.33 61.76,55.89 				"/>
			</g>
			<g>
				<polygon class="st6" points="61.76,55.89 61.74,61.57 56.82,58.73 56.8,58.72 56.81,53.04 				"/>
			</g>
		</g>
		<g class="st3">
			<g>
				<polygon class="st9" points="47,18.91 61.74,10.35 61.73,16.03 46.99,24.59 				"/>
			</g>
			<g>
				<polygon class="st7" points="42.06,16.05 56.8,7.49 61.74,10.35 47,18.91 				"/>
			</g>
			<g>
				<polygon class="st4" points="47,18.91 46.99,24.59 42.04,21.74 42.06,16.05 				"/>
			</g>
		</g>
		<g class="st3">
			<g>
				<polygon class="st2" points="51.92,33.13 66.65,24.56 66.64,30.25 51.9,38.81 				"/>
			</g>
			<g>
				<polygon class="st2" points="46.97,30.27 61.71,21.71 66.65,24.56 51.92,33.13 				"/>
			</g>
			<g>
				<polygon class="st2" points="51.92,33.13 51.9,38.81 46.96,35.96 46.97,30.27 				"/>
			</g>
		</g>
		<g class="st3">
			<g>
				<polygon class="st4" points="51.93,27.45 66.67,18.88 66.65,24.56 51.92,33.13 				"/>
			</g>
			<g>
				<polygon class="st7" points="46.99,24.59 61.73,16.03 66.67,18.88 51.93,27.45 				"/>
			</g>
			<g>
				<polygon class="st4" points="51.93,27.45 51.92,33.13 46.97,30.27 46.99,24.59 				"/>
			</g>
		</g>
		<g class="st3">
			<g>
				<polygon class="st5" points="56.85,41.67 71.58,33.1 71.57,38.78 56.83,47.35 				"/>
			</g>
			<g>
				<polygon class="st5" points="51.9,38.81 66.64,30.25 71.58,33.1 56.85,41.67 				"/>
			</g>
			<g>
				<polygon class="st5" points="56.85,41.67 56.83,47.35 51.89,44.49 51.9,38.81 				"/>
			</g>
		</g>
		<g class="st3">
			<g>
				<polygon class="st5" points="56.86,35.98 71.6,27.42 71.58,33.1 56.85,41.67 				"/>
			</g>
			<g>
				<polygon class="st5" points="51.92,33.13 66.65,24.56 71.6,27.42 56.86,35.98 				"/>
			</g>
			<g>
				<polygon class="st5" points="56.86,35.98 56.85,41.67 51.9,38.81 51.92,33.13 				"/>
			</g>
		</g>
		<g class="st3">
			<g>
				<polygon class="st6" points="61.78,50.2 76.51,41.64 76.5,47.33 61.76,55.89 				"/>
			</g>
			<g>
				<polygon class="st6" points="56.83,47.35 71.57,38.78 76.51,41.64 61.78,50.2 				"/>
			</g>
			<g>
				<polygon class="st6" points="61.78,50.2 61.76,55.89 56.81,53.04 56.83,47.35 				"/>
			</g>
		</g>
		<g class="st3">
			<g>
				<polygon class="st6" points="61.77,61.59 76.51,53.03 81.43,55.87 66.7,64.43 				"/>
			</g>
			<g>
				<polygon class="st6" points="66.72,64.45 81.46,55.88 81.44,61.57 66.7,70.14 				"/>
			</g>
			<g>
				<polygon class="st6" points="66.7,64.43 81.43,55.87 81.46,55.88 66.72,64.45 				"/>
			</g>
			<g>
				<polygon class="st6" points="66.72,64.45 66.7,70.14 61.76,67.28 61.77,61.59 66.7,64.43 				"/>
			</g>
		</g>
		<g class="st3">
			<g>
				<polygon class="st6" points="66.71,58.75 81.45,50.19 81.43,55.87 66.7,64.43 				"/>
			</g>
			<g>
				<polygon class="st6" points="61.76,55.89 76.5,47.33 81.45,50.19 66.71,58.75 				"/>
			</g>
			<g>
				<polygon class="st6" points="66.71,58.75 66.7,64.43 61.77,61.59 61.74,61.57 61.76,55.89 				"/>
			</g>
		</g>
		<g class="st3">
			<g>
				<polygon class="st9" points="71.65,72.99 86.38,64.43 86.37,70.11 71.63,78.68 				"/>
			</g>
			<g>
				<polygon class="st4" points="66.7,70.14 81.44,61.57 86.38,64.43 71.65,72.99 				"/>
			</g>
			<g>
				<polygon class="st4" points="71.65,72.99 71.63,78.68 66.69,75.82 66.7,70.14 				"/>
			</g>
		</g>
		<g class="st3">
			<g>
				<polygon class="st9" points="56.88,30.3 71.61,21.74 71.6,27.42 56.86,35.98 				"/>
			</g>
			<g>
				<polygon class="st7" points="51.93,27.45 66.67,18.88 71.61,21.74 56.88,30.3 				"/>
			</g>
			<g>
				<polygon class="st4" points="56.88,30.3 56.86,35.98 51.92,33.13 51.93,27.45 				"/>
			</g>
		</g>
		<g class="st3">
			<g>
				<polygon class="st6" points="61.79,44.52 76.53,35.96 76.51,41.64 61.78,50.2 				"/>
			</g>
			<g>
				<polygon class="st6" points="56.85,41.67 71.58,33.1 76.53,35.96 61.79,44.52 				"/>
			</g>
			<g>
				<polygon class="st6" points="61.79,44.52 61.78,50.2 56.83,47.35 56.85,41.67 				"/>
			</g>
		</g>
		<g class="st3">
			<g>
				<polygon class="st9" points="61.81,38.84 76.54,30.27 76.53,35.96 61.79,44.52 				"/>
			</g>
			<g>
				<polygon class="st7" points="56.86,35.98 71.6,27.42 76.54,30.27 61.81,38.84 				"/>
			</g>
			<g>
				<polygon class="st4" points="61.81,38.84 61.79,44.52 56.85,41.67 56.86,35.98 				"/>
			</g>
		</g>
		<g class="st3">
			<g>
				<polygon class="st4" points="66.72,64.45 81.46,55.88 86.38,58.73 71.64,67.29 				"/>
			</g>
			<g>
				<polygon class="st9" points="71.66,67.3 86.4,58.74 86.38,64.43 71.65,72.99 				"/>
			</g>
			<g>
				<polygon class="st4" points="71.64,67.29 86.38,58.73 86.4,58.74 71.66,67.3 				"/>
			</g>
			<g>
				<polygon class="st4" points="71.66,67.3 71.65,72.99 66.7,70.14 66.72,64.45 71.64,67.29 				"/>
			</g>
			<g>
				<polygon class="st4" points="71.66,61.61 71.64,67.29 66.72,64.45 66.7,64.43 66.71,58.75 				"/>
			</g>
			<g>
				<polygon class="st9" points="71.66,61.61 86.39,53.04 86.38,58.73 71.64,67.29 				"/>
			</g>
			<g>
				<polygon class="st7" points="66.71,58.75 81.45,50.19 86.39,53.04 71.66,61.61 				"/>
			</g>
			<g>
				<polygon class="st9" points="66.73,53.06 81.47,44.5 81.45,50.19 66.71,58.75 				"/>
			</g>
			<g>
				<polygon class="st4" points="61.78,50.2 76.51,41.64 81.47,44.5 66.73,53.06 				"/>
			</g>
			<g>
				<polygon class="st4" points="66.73,53.06 66.71,58.75 61.76,55.89 61.78,50.2 				"/>
			</g>
		</g>
		<g class="st3">
			<g>
				<polygon class="st9" points="66.74,47.38 81.48,38.82 81.47,44.5 66.73,53.06 				"/>
			</g>
			<g>
				<polygon class="st7" points="61.79,44.52 76.53,35.96 81.48,38.82 66.74,47.38 				"/>
			</g>
			<g>
				<polygon class="st4" points="66.74,47.38 66.73,53.06 61.78,50.2 61.79,44.52 				"/>
			</g>
		</g>
	</g>
</g>
</svg>
