<?xml version="1.0" encoding="utf-8"?>
<!-- Generator: Adobe Illustrator 23.0.1, SVG Export Plug-In . SVG Version: 6.00 Build 0)  -->
<svg version="1.1" xmlns="http://www.w3.org/2000/svg" xmlns:xlink="http://www.w3.org/1999/xlink" x="0px" y="0px"
	 viewBox="0 0 93.95 93.95" style="enable-background:new 0 0 93.95 93.95;" xml:space="preserve">
<style type="text/css">
	.st0{display:none;}
	.st1{display:inline;}
	.st2{fill:#FFFFFF;}
	.st3{enable-background:new    ;}
	.st4{fill:#8E969B;}
	.st5{fill:#DDDDDD;}
	.st6{fill:#BCC2C4;}
	.st7{fill:#006E9E;}
	.st8{fill:#00A0F9;}
	.st9{fill:#707A7F;}
	.st10{fill:#7BD7FF;}
</style>
<g id="Слой_1" class="st0">
	<g id="OBJECTS" class="st1">
		<g>
			<path class="st2" d="M67.08,77.02c0.14-2.2,0.28-4.27,0.4-6.34c0.5-8.53,0.99-17.06,1.48-25.59c0.03-0.53,0.06-1.06,0.05-1.58
				c-0.03-1.02-0.62-1.67-1.61-1.85c-1.2-0.22-1.82-0.85-1.74-1.79c0.08-0.91,0.84-1.52,2.01-1.52c4.29-0.01,8.58-0.01,12.87,0
				c1.12,0,1.85,0.6,1.93,1.5c0.09,0.97-0.5,1.59-1.7,1.81c-1.08,0.2-1.71,0.96-1.65,2.12c0.31,5.46,0.64,10.92,0.96,16.38
				c0.28,4.84,0.55,9.68,0.83,14.52c0.04,0.74,0.09,1.48,0.15,2.35c0.7,0,1.34,0,1.98,0c2.03,0.01,3.38,1.18,3.38,2.92
				c0,1.75-1.36,2.94-3.37,2.94c-8.61,0-17.22,0-25.83,0c-15.42,0-30.84,0-46.25-0.01c-1.74,0-2.88-0.72-3.3-2.05
				c-0.59-1.88,0.75-3.71,2.82-3.8c0.77-0.04,1.54-0.01,2.4-0.01c0.1-1.5,0.21-2.92,0.29-4.34c0.34-5.8,0.66-11.6,1-17.4
				c0.22-3.72,0.44-7.44,0.67-11.17c0.09-1.5-0.41-2.2-1.85-2.48c-0.99-0.19-1.52-0.82-1.48-1.72c0.04-0.85,0.7-1.5,1.67-1.54
				c0.99-0.05,1.99-0.03,2.98-0.03c3.2,0,6.4,0,9.61,0.01c0.31,0,0.62-0.01,0.93,0.02c0.9,0.09,1.56,0.72,1.62,1.52
				c0.06,0.9-0.48,1.54-1.46,1.74c-1.47,0.3-1.97,0.89-1.88,2.37c0.4,6.98,0.82,13.96,1.23,20.94c0.22,3.72,0.44,7.44,0.61,11.17
				c0.03,0.71,0.22,0.95,0.96,0.95c3.79-0.04,7.58-0.04,11.38,0c0.77,0.01,0.91-0.27,0.95-0.96c0.52-9.37,1.08-18.74,1.62-28.11
				c0.08-1.36,0.17-2.73,0.22-4.1c0.05-1.36-0.48-1.99-1.81-2.24c-1.04-0.2-1.61-0.85-1.53-1.77c0.06-0.82,0.76-1.49,1.73-1.5
				c4.44-0.03,8.89-0.03,13.33-0.01c0.97,0.01,1.67,0.68,1.73,1.5c0.07,0.93-0.49,1.58-1.52,1.79c-1.36,0.27-1.91,0.94-1.82,2.33
				c0.46,7.91,0.94,15.82,1.4,23.73c0.16,2.76,0.32,5.52,0.43,8.29c0.03,0.76,0.21,1.07,1.06,1.06c3.7-0.05,7.4-0.02,11.1-0.02
				C66.34,77.02,66.64,77.02,67.08,77.02z"/>
			<path class="st2" d="M46.99,34.41c-13.86,0-27.73,0-41.59,0.01c-1.73,0-2.97-0.71-3.71-2.3c-0.4-0.87-0.86-1.72-1.29-2.58
				c-0.76-1.55-0.46-2.49,1.07-3.29c7.3-3.79,14.6-7.58,21.91-11.37c7.08-3.67,14.17-7.33,21.25-11.03c1.6-0.83,3.09-0.83,4.69,0
				c14.24,7.41,28.49,14.79,42.74,22.18c0.14,0.07,0.28,0.14,0.41,0.22c1.54,0.82,1.85,1.79,1.06,3.37
				c-0.41,0.83-0.86,1.66-1.25,2.5c-0.74,1.58-1.98,2.3-3.71,2.3c-10.66-0.01-21.32,0-31.99,0C53.39,34.41,50.19,34.41,46.99,34.41z
				"/>
			<path class="st2" d="M46.97,84.86c13.9,0,27.79,0,41.69,0c2.3,0,3.75,1.67,3.23,3.71c-0.34,1.34-1.53,2.14-3.22,2.14
				c-5.63,0.01-11.25,0.01-16.88,0.01c-22.14,0-44.27,0-66.41,0c-2.03,0-3.34-1.07-3.4-2.78c-0.07-1.81,1.22-3.07,3.2-3.07
				c4.35-0.01,8.71-0.01,13.06-0.01C27.82,84.86,37.4,84.86,46.97,84.86z"/>
		</g>
	</g>
	<g id="DESIGNED_BY_FREEPIK" class="st1">
	</g>
</g>
<g id="Слой_2">
	<g>
		<g class="st3">
			<g>
				<polygon class="st4" points="14.58,38.98 28.77,30.74 28.76,36.21 14.56,44.46 				"/>
			</g>
			<g>
				<polygon class="st4" points="9.81,36.23 24,27.98 28.77,30.74 14.58,38.98 				"/>
			</g>
			<g>
				<polygon class="st4" points="14.58,38.98 14.56,44.46 9.82,41.72 9.79,41.7 9.81,36.23 				"/>
			</g>
		</g>
		<g class="st3">
			<g>
				<polygon class="st4" points="14.59,33.5 28.79,25.25 28.77,30.74 14.58,38.98 				"/>
			</g>
			<g>
				<polygon class="st4" points="9.82,30.75 24.01,22.5 28.79,25.25 14.59,33.5 				"/>
			</g>
			<g>
				<polygon class="st4" points="14.59,33.5 14.58,38.98 9.81,36.23 9.82,30.75 				"/>
			</g>
		</g>
		<g class="st3">
			<g>
				<polygon class="st4" points="14.61,28.03 28.8,19.78 28.79,25.25 14.59,33.5 				"/>
			</g>
			<g>
				<polygon class="st4" points="9.84,25.28 24.03,17.03 28.8,19.78 14.61,28.03 				"/>
			</g>
			<g>
				<polygon class="st4" points="14.61,28.03 14.59,33.5 9.82,30.75 9.84,25.28 				"/>
			</g>
			<g>
				<polygon class="st5" points="14.62,22.56 28.82,14.31 28.8,19.78 14.61,28.03 				"/>
			</g>
			<g>
				<polygon class="st6" points="9.85,19.8 24.05,11.56 28.82,14.31 14.62,22.56 				"/>
			</g>
			<g>
				<polygon class="st5" points="14.62,22.56 14.61,28.03 9.84,25.28 9.85,19.8 				"/>
			</g>
		</g>
		<g class="st3">
			<g>
				<polygon class="st4" points="38.34,80.12 52.54,71.87 52.52,77.35 38.33,85.6 				"/>
			</g>
			<g>
				<polygon class="st4" points="33.58,77.37 47.77,69.13 52.54,71.87 38.34,80.12 				"/>
			</g>
			<g>
				<polygon class="st4" points="38.34,80.12 38.33,85.6 33.56,82.85 33.58,77.37 				"/>
			</g>
			<g>
				<polygon class="st4" points="28.82,69.15 43.02,60.9 47.79,63.65 33.59,71.9 				"/>
			</g>
			<g>
				<polygon class="st4" points="33.59,71.9 33.58,77.37 28.81,74.62 28.82,69.15 				"/>
			</g>
			<g>
				<polygon class="st4" points="33.59,71.9 47.79,63.65 47.77,69.13 33.58,77.37 				"/>
			</g>
			<g>
				<polygon class="st4" points="24.08,60.93 38.27,52.68 43.03,55.42 28.84,63.67 				"/>
			</g>
			<g>
				<polygon class="st4" points="28.84,63.67 43.03,55.42 43.02,60.9 28.82,69.15 				"/>
			</g>
			<g>
				<polygon class="st4" points="28.84,63.67 28.82,69.15 24.06,66.4 24.08,60.93 				"/>
			</g>
			<g>
				<polygon class="st4" points="24.09,55.45 38.29,47.2 38.27,52.68 24.08,60.93 				"/>
			</g>
			<g>
				<polygon class="st4" points="19.33,52.7 33.52,44.45 38.29,47.2 24.09,55.45 				"/>
			</g>
			<g>
				<polygon class="st4" points="24.09,55.45 24.08,60.93 19.31,58.17 19.33,52.7 				"/>
			</g>
			<g>
				<polygon class="st4" points="14.58,44.47 28.78,36.22 33.52,38.96 19.32,47.21 				"/>
			</g>
			<g>
				<polygon class="st4" points="19.32,47.21 33.52,38.96 33.54,38.97 19.35,47.22 				"/>
			</g>
			<g>
				<polygon class="st4" points="19.35,47.22 19.33,52.7 14.57,49.95 14.58,44.47 19.32,47.21 				"/>
			</g>
			<g>
				<polygon class="st4" points="19.35,47.22 33.54,38.97 33.52,44.45 19.33,52.7 				"/>
			</g>
			<g>
				<polygon class="st7" points="33.59,71.9 47.79,63.65 52.55,66.4 38.36,74.65 				"/>
			</g>
			<g>
				<polygon class="st7" points="38.36,74.65 38.34,80.12 33.58,77.37 33.59,71.9 				"/>
			</g>
			<g>
				<polygon class="st7" points="38.36,74.65 52.55,66.4 52.54,71.87 38.34,80.12 				"/>
			</g>
			<g>
				<polygon class="st7" points="28.84,63.67 43.03,55.42 47.8,58.18 33.61,66.43 				"/>
			</g>
			<g>
				<polygon class="st7" points="33.61,66.43 47.8,58.18 47.79,63.65 33.59,71.9 				"/>
			</g>
			<g>
				<polygon class="st7" points="33.61,66.43 33.59,71.9 28.82,69.15 28.84,63.67 				"/>
			</g>
			<g>
				<polygon class="st7" points="28.86,58.2 28.84,63.67 24.08,60.93 24.09,55.45 				"/>
			</g>
			<g>
				<polygon class="st7" points="24.09,55.45 38.29,47.2 43.05,49.95 28.86,58.2 				"/>
			</g>
			<g>
				<polygon class="st7" points="28.86,58.2 43.05,49.95 43.03,55.42 28.84,63.67 				"/>
			</g>
			<g>
				<polygon class="st7" points="19.35,47.22 33.54,38.97 38.28,41.71 24.09,49.96 				"/>
			</g>
			<g>
				<polygon class="st7" points="24.11,49.97 38.3,41.72 38.29,47.2 24.09,55.45 				"/>
			</g>
			<g>
				<polygon class="st7" points="24.09,49.96 38.28,41.71 38.3,41.72 24.11,49.97 				"/>
			</g>
			<g>
				<polygon class="st7" points="24.11,49.97 24.09,55.45 19.33,52.7 19.35,47.22 24.09,49.96 				"/>
			</g>
			<g>
				<polygon class="st7" points="19.34,41.74 33.53,33.49 33.52,38.96 19.32,47.21 				"/>
			</g>
			<g>
				<polygon class="st7" points="19.34,41.74 19.32,47.21 14.58,44.47 14.56,44.46 14.58,38.98 				"/>
			</g>
			<g>
				<polygon class="st7" points="14.58,38.98 28.77,30.74 33.53,33.49 19.34,41.74 				"/>
			</g>
			<g>
				<polygon class="st8" points="28.86,58.2 43.05,49.95 47.82,52.71 33.63,60.96 				"/>
			</g>
			<g>
				<polygon class="st8" points="33.63,60.96 47.82,52.71 47.8,58.18 33.61,66.43 				"/>
			</g>
			<g>
				<polygon class="st8" points="33.63,60.96 33.61,66.43 28.84,63.67 28.86,58.2 				"/>
			</g>
			<g>
				<polygon class="st8" points="24.11,49.97 38.3,41.72 43.04,44.46 28.85,52.71 				"/>
			</g>
			<g>
				<polygon class="st8" points="28.87,52.72 28.86,58.2 24.09,55.45 24.11,49.97 28.85,52.71 				"/>
			</g>
			<g>
				<polygon class="st8" points="28.87,52.72 43.07,44.47 43.05,49.95 28.86,58.2 				"/>
			</g>
			<g>
				<polygon class="st8" points="28.85,52.71 43.04,44.46 43.07,44.47 28.87,52.72 				"/>
			</g>
			<g>
				<polygon class="st8" points="19.34,41.74 33.53,33.49 38.29,36.23 24.1,44.48 				"/>
			</g>
			<g>
				<polygon class="st8" points="24.1,44.48 38.29,36.23 38.28,41.71 24.09,49.96 				"/>
			</g>
			<g>
				<polygon class="st8" points="24.1,44.48 24.09,49.96 19.35,47.22 19.32,47.21 19.34,41.74 				"/>
			</g>
			<g>
				<polygon class="st7" points="14.59,33.5 28.79,25.25 33.55,28 19.35,36.25 				"/>
			</g>
			<g>
				<polygon class="st7" points="19.35,36.25 33.55,28 33.53,33.49 19.34,41.74 				"/>
			</g>
			<g>
				<polygon class="st7" points="19.35,36.25 19.34,41.74 14.58,38.98 14.59,33.5 				"/>
			</g>
			<g>
				<polygon class="st2" points="24.1,44.48 38.29,36.23 43.06,38.99 28.86,47.23 				"/>
			</g>
			<g>
				<polygon class="st2" points="28.86,47.23 43.06,38.99 43.04,44.46 28.85,52.71 				"/>
			</g>
			<g>
				<polygon class="st2" points="28.86,47.23 28.85,52.71 24.11,49.97 24.09,49.96 24.1,44.48 				"/>
			</g>
			<g>
				<polygon class="st8" points="19.35,36.25 33.55,28 38.31,30.75 24.12,39 				"/>
			</g>
			<g>
				<polygon class="st8" points="24.12,39 24.1,44.48 19.34,41.74 19.35,36.25 				"/>
			</g>
			<g>
				<polygon class="st8" points="24.12,39 38.31,30.75 38.29,36.23 24.1,44.48 				"/>
			</g>
			<g>
				<polygon class="st7" points="19.37,30.78 19.35,36.25 14.59,33.5 14.61,28.03 				"/>
			</g>
			<g>
				<polygon class="st7" points="19.37,30.78 33.56,22.53 33.55,28 19.35,36.25 				"/>
			</g>
			<g>
				<polygon class="st7" points="14.61,28.03 28.8,19.78 33.56,22.53 19.37,30.78 				"/>
			</g>
			<g>
				<polygon class="st8" points="19.37,30.78 33.56,22.53 38.33,25.28 24.13,33.53 				"/>
			</g>
			<g>
				<polygon class="st8" points="24.13,33.53 38.33,25.28 38.31,30.75 24.12,39 				"/>
			</g>
			<g>
				<polygon class="st8" points="24.13,33.53 24.12,39 19.35,36.25 19.37,30.78 				"/>
			</g>
			<g>
				<polygon class="st7" points="19.38,25.31 33.58,17.06 33.56,22.53 19.37,30.78 				"/>
			</g>
			<g>
				<polygon class="st7" points="14.62,22.56 28.82,14.31 33.58,17.06 19.38,25.31 				"/>
			</g>
			<g>
				<polygon class="st7" points="19.38,25.31 19.37,30.78 14.61,28.03 14.62,22.56 				"/>
			</g>
			<g>
				<polygon class="st4" points="19.4,19.83 33.59,11.59 33.58,17.06 19.38,25.31 				"/>
			</g>
			<g>
				<polygon class="st4" points="14.64,17.08 28.83,8.84 33.59,11.59 19.4,19.83 				"/>
			</g>
			<g>
				<polygon class="st4" points="19.4,19.83 19.38,25.31 14.62,22.56 14.64,17.08 				"/>
			</g>
		</g>
		<g class="st3">
			<g>
				<polygon class="st9" points="43.09,88.35 57.28,80.1 57.27,85.58 43.07,93.83 				"/>
			</g>
			<g>
				<polygon class="st4" points="38.33,85.6 52.52,77.35 57.28,80.1 43.09,88.35 				"/>
			</g>
			<g>
				<polygon class="st4" points="43.09,88.35 43.07,93.83 38.31,91.08 38.33,85.6 				"/>
			</g>
		</g>
		<g class="st3">
			<g>
				<polygon class="st2" points="28.88,41.75 43.07,33.5 43.06,38.99 28.86,47.23 				"/>
			</g>
			<g>
				<polygon class="st2" points="24.12,39 38.31,30.75 43.07,33.5 28.88,41.75 				"/>
			</g>
			<g>
				<polygon class="st2" points="28.88,41.75 28.86,47.23 24.1,44.48 24.12,39 				"/>
			</g>
		</g>
		<g class="st3">
			<g>
				<polygon class="st8" points="28.87,52.72 43.07,44.47 47.81,47.21 33.61,55.46 				"/>
			</g>
			<g>
				<polygon class="st8" points="33.64,55.47 47.84,47.23 47.82,52.71 33.63,60.96 				"/>
			</g>
			<g>
				<polygon class="st8" points="33.61,55.46 47.81,47.21 47.84,47.23 33.64,55.47 				"/>
			</g>
			<g>
				<polygon class="st8" points="33.64,55.47 33.63,60.96 28.86,58.2 28.87,52.72 33.61,55.46 				"/>
			</g>
		</g>
		<g class="st3">
			<g>
				<polygon class="st5" points="19.39,14.35 33.59,6.1 33.57,11.57 19.38,19.82 				"/>
			</g>
			<g>
				<polygon class="st6" points="14.63,11.6 28.82,3.35 33.59,6.1 19.39,14.35 				"/>
			</g>
			<g>
				<polygon class="st5" points="19.39,14.35 19.38,19.82 14.61,17.07 14.63,11.6 				"/>
			</g>
		</g>
		<g class="st3">
			<g>
				<polygon class="st8" points="24.15,28.06 38.34,19.81 38.33,25.28 24.13,33.53 				"/>
			</g>
			<g>
				<polygon class="st8" points="19.38,25.31 33.58,17.06 38.34,19.81 24.15,28.06 				"/>
			</g>
			<g>
				<polygon class="st8" points="24.15,28.06 24.13,33.53 19.37,30.78 19.38,25.31 				"/>
			</g>
		</g>
		<g class="st3">
			<g>
				<polygon class="st2" points="28.9,36.28 43.09,28.03 43.07,33.5 28.88,41.75 				"/>
			</g>
			<g>
				<polygon class="st2" points="24.13,33.53 38.33,25.28 43.09,28.03 28.9,36.28 				"/>
			</g>
			<g>
				<polygon class="st2" points="28.9,36.28 28.88,41.75 24.12,39 24.13,33.53 				"/>
			</g>
		</g>
		<g class="st3">
			<g>
				<polygon class="st8" points="33.63,49.98 47.82,41.74 47.81,47.21 33.61,55.46 				"/>
			</g>
			<g>
				<polygon class="st8" points="28.86,47.23 43.06,38.99 47.82,41.74 33.63,49.98 				"/>
			</g>
			<g>
				<polygon class="st8" points="33.63,49.98 33.61,55.46 28.87,52.72 28.85,52.71 28.86,47.23 				"/>
			</g>
		</g>
		<g class="st3">
			<g>
				<polygon class="st7" points="38.37,69.18 52.57,60.93 52.55,66.4 38.36,74.65 				"/>
			</g>
			<g>
				<polygon class="st7" points="33.61,66.43 47.8,58.18 52.57,60.93 38.37,69.18 				"/>
			</g>
			<g>
				<polygon class="st7" points="38.37,69.18 38.36,74.65 33.59,71.9 33.61,66.43 				"/>
			</g>
			<g>
				<polygon class="st2" points="38.39,63.7 52.58,55.46 52.57,60.93 38.37,69.18 				"/>
			</g>
			<g>
				<polygon class="st2" points="33.63,60.96 47.82,52.71 52.58,55.46 38.39,63.7 				"/>
			</g>
			<g>
				<polygon class="st2" points="38.39,63.7 38.37,69.18 33.61,66.43 33.63,60.96 				"/>
			</g>
		</g>
		<g class="st3">
			<g>
				<polygon class="st7" points="43.1,82.87 57.3,74.62 57.28,80.1 43.09,88.35 				"/>
			</g>
			<g>
				<polygon class="st7" points="38.34,80.12 52.54,71.87 57.3,74.62 43.1,82.87 				"/>
			</g>
			<g>
				<polygon class="st7" points="43.1,82.87 43.09,88.35 38.33,85.6 38.34,80.12 				"/>
			</g>
		</g>
		<g class="st3">
			<g>
				<polygon class="st7" points="43.12,77.4 57.32,69.15 57.3,74.62 43.1,82.87 				"/>
			</g>
			<g>
				<polygon class="st7" points="38.36,74.65 52.55,66.4 57.32,69.15 43.12,77.4 				"/>
			</g>
			<g>
				<polygon class="st7" points="43.12,77.4 43.1,82.87 38.34,80.12 38.36,74.65 				"/>
			</g>
		</g>
		<g class="st3">
			<g>
				<polygon class="st7" points="43.14,71.93 57.33,63.68 57.32,69.15 43.12,77.4 				"/>
			</g>
			<g>
				<polygon class="st7" points="38.37,69.18 52.57,60.93 57.33,63.68 43.14,71.93 				"/>
			</g>
			<g>
				<polygon class="st7" points="43.14,71.93 43.12,77.4 38.36,74.65 38.37,69.18 				"/>
			</g>
		</g>
		<g class="st3">
			<g>
				<polygon class="st7" points="24.16,22.59 38.36,14.34 38.34,19.81 24.15,28.06 				"/>
			</g>
			<g>
				<polygon class="st7" points="19.4,19.83 33.59,11.59 38.36,14.34 24.16,22.59 				"/>
			</g>
			<g>
				<polygon class="st7" points="24.16,22.59 24.15,28.06 19.38,25.31 19.4,19.83 				"/>
			</g>
		</g>
		<g class="st3">
			<g>
				<polygon class="st8" points="33.64,55.47 47.84,47.23 52.57,49.96 38.38,58.21 				"/>
			</g>
			<g>
				<polygon class="st8" points="38.4,58.22 52.6,49.98 52.58,55.46 38.39,63.7 				"/>
			</g>
			<g>
				<polygon class="st8" points="38.38,58.21 52.57,49.96 52.6,49.98 38.4,58.22 				"/>
			</g>
			<g>
				<polygon class="st8" points="38.4,58.22 38.39,63.7 33.63,60.96 33.64,55.47 38.38,58.21 				"/>
			</g>
			<g>
				<polygon class="st8" points="38.4,52.74 52.59,44.49 52.57,49.96 38.38,58.21 				"/>
			</g>
			<g>
				<polygon class="st8" points="33.63,49.98 47.82,41.74 52.59,44.49 38.4,52.74 				"/>
			</g>
			<g>
				<polygon class="st8" points="38.4,52.74 38.38,58.21 33.64,55.47 33.61,55.46 33.63,49.98 				"/>
			</g>
			<g>
				<polygon class="st2" points="28.88,41.75 43.07,33.5 47.84,36.25 33.64,44.5 				"/>
			</g>
			<g>
				<polygon class="st2" points="33.64,44.5 47.84,36.25 47.82,41.74 33.63,49.98 				"/>
			</g>
			<g>
				<polygon class="st2" points="33.64,44.5 33.63,49.98 28.86,47.23 28.88,41.75 				"/>
			</g>
			<g>
				<polygon class="st2" points="33.64,44.5 47.84,36.25 52.61,39.01 38.41,47.26 				"/>
			</g>
			<g>
				<polygon class="st2" points="38.41,47.26 38.4,52.74 33.63,49.98 33.64,44.5 				"/>
			</g>
			<g>
				<polygon class="st2" points="38.41,47.26 52.61,39.01 52.59,44.49 38.4,52.74 				"/>
			</g>
			<g>
				<polygon class="st8" points="28.9,36.28 43.09,28.03 47.85,30.78 33.66,39.03 				"/>
			</g>
			<g>
				<polygon class="st8" points="33.66,39.03 33.64,44.5 28.88,41.75 28.9,36.28 				"/>
			</g>
			<g>
				<polygon class="st8" points="33.66,39.03 47.85,30.78 47.84,36.25 33.64,44.5 				"/>
			</g>
			<g>
				<polygon class="st10" points="28.91,30.81 43.1,22.56 43.09,28.03 28.9,36.28 				"/>
			</g>
			<g>
				<polygon class="st10" points="24.15,28.06 38.34,19.81 43.1,22.56 28.91,30.81 				"/>
			</g>
			<g>
				<polygon class="st10" points="28.91,30.81 28.9,36.28 24.13,33.53 24.15,28.06 				"/>
			</g>
			<g>
				<polygon class="st8" points="38.43,41.78 52.62,33.53 52.61,39.01 38.41,47.26 				"/>
			</g>
			<g>
				<polygon class="st8" points="33.66,39.03 47.85,30.78 52.62,33.53 38.43,41.78 				"/>
			</g>
			<g>
				<polygon class="st8" points="38.43,41.78 38.41,47.26 33.64,44.5 33.66,39.03 				"/>
			</g>
			<g>
				<polygon class="st10" points="28.91,30.81 43.1,22.56 47.87,25.31 33.67,33.56 				"/>
			</g>
			<g>
				<polygon class="st10" points="33.67,33.56 47.87,25.31 47.85,30.78 33.66,39.03 				"/>
			</g>
			<g>
				<polygon class="st10" points="33.67,33.56 33.66,39.03 28.9,36.28 28.91,30.81 				"/>
			</g>
			<g>
				<polygon class="st10" points="28.92,25.33 28.91,30.81 24.15,28.06 24.16,22.59 				"/>
			</g>
			<g>
				<polygon class="st10" points="24.16,22.59 38.36,14.34 43.11,17.08 28.92,25.33 				"/>
			</g>
			<g>
				<polygon class="st10" points="28.92,25.33 43.11,17.08 43.1,22.56 28.91,30.81 				"/>
			</g>
			<g>
				<polygon class="st7" points="19.42,14.36 33.61,6.11 38.37,8.86 24.18,17.11 				"/>
			</g>
			<g>
				<polygon class="st4" points="24.17,11.63 24.15,17.1 19.39,14.35 19.41,8.88 				"/>
			</g>
			<g>
				<polygon class="st7" points="24.18,17.11 24.16,22.59 19.4,19.83 19.42,14.36 				"/>
			</g>
			<g>
				<polygon class="st7" points="24.18,17.11 38.37,8.86 38.36,14.34 24.16,22.59 				"/>
			</g>
			<g>
				<polygon class="st8" points="38.44,36.31 38.43,41.78 33.66,39.03 33.67,33.56 				"/>
			</g>
			<g>
				<polygon class="st8" points="38.44,36.31 52.64,28.06 52.62,33.53 38.43,41.78 				"/>
			</g>
			<g>
				<polygon class="st8" points="33.67,33.56 47.87,25.31 52.64,28.06 38.44,36.31 				"/>
			</g>
			<g>
				<polygon class="st10" points="33.69,28.08 33.67,33.56 28.91,30.81 28.93,25.33 				"/>
			</g>
			<g>
				<polygon class="st10" points="28.93,25.33 43.12,17.08 47.88,19.84 33.69,28.08 				"/>
			</g>
			<g>
				<polygon class="st10" points="33.69,28.08 47.88,19.84 47.87,25.31 33.67,33.56 				"/>
			</g>
			<g>
				<polygon class="st7" points="24.18,17.11 38.37,8.86 43.14,11.61 28.94,19.86 				"/>
			</g>
			<g>
				<polygon class="st5" points="28.94,14.38 43.14,6.13 43.12,11.6 28.93,19.85 				"/>
			</g>
			<g>
				<path class="st5" d="M28.91,19.84l0.02,0.01L28.91,19.84z"/>
			</g>
			<g>
				<polygon class="st7" points="28.94,19.86 28.93,25.33 24.16,22.59 24.18,17.11 				"/>
			</g>
			<g>
				<polygon class="st7" points="28.94,19.86 43.14,11.61 43.12,17.08 28.93,25.33 				"/>
			</g>
			<g>
				<polygon class="st6" points="19.41,8.88 33.6,0.63 38.37,3.38 24.17,11.63 				"/>
			</g>
			<g>
				<polygon class="st4" points="24.17,11.63 38.37,3.38 38.35,8.85 24.15,17.1 				"/>
			</g>
			<g>
				<polygon class="st2" points="33.69,28.08 47.88,19.84 52.64,22.58 38.44,30.83 				"/>
			</g>
			<g>
				<polygon class="st2" points="38.46,30.84 52.65,22.59 52.64,28.06 38.44,36.31 				"/>
			</g>
			<g>
				<polygon class="st2" points="38.44,30.83 52.64,22.58 52.65,22.59 38.46,30.84 				"/>
			</g>
			<g>
				<polygon class="st2" points="38.46,30.84 38.44,36.31 33.67,33.56 33.69,28.08 38.44,30.83 				"/>
			</g>
			<g>
				<polygon class="st7" points="28.94,19.86 43.14,11.61 47.88,14.35 33.69,22.6 				"/>
			</g>
			<g>
				<polygon class="st7" points="33.69,22.6 33.68,28.08 28.93,25.33 28.94,19.86 				"/>
			</g>
			<g>
				<polygon class="st7" points="33.69,22.6 47.88,14.35 47.87,19.83 33.68,28.08 				"/>
			</g>
			<g>
				<polygon class="st6" points="24.17,11.63 38.37,3.38 43.14,6.13 28.94,14.38 				"/>
			</g>
			<g>
				<polygon class="st5" points="28.94,14.38 28.93,19.85 28.91,19.84 24.15,17.1 24.17,11.63 				"/>
			</g>
			<g>
				<polygon class="st7" points="33.7,22.61 47.89,14.36 52.63,17.09 38.44,25.34 				"/>
			</g>
			<g>
				<polygon class="st7" points="38.44,25.34 52.63,17.09 52.65,17.11 38.46,25.36 				"/>
			</g>
			<g>
				<polygon class="st7" points="38.46,25.36 38.44,30.83 33.69,28.08 33.67,28.07 33.7,22.61 38.44,25.34 				"/>
			</g>
			<g>
				<polygon class="st7" points="38.46,25.36 52.65,17.11 52.64,22.58 38.44,30.83 				"/>
			</g>
			<g>
				<polygon class="st5" points="33.68,17.12 47.88,8.87 47.87,14.34 33.67,22.59 				"/>
			</g>
			<g>
				<polygon class="st5" points="33.68,17.12 33.67,22.59 28.91,19.84 28.93,19.85 28.94,14.38 				"/>
			</g>
			<g>
				<polygon class="st6" points="28.94,14.38 43.14,6.13 47.88,8.87 33.68,17.12 				"/>
			</g>
			<g>
				<polygon class="st4" points="38.45,19.86 38.44,25.34 33.69,22.6 33.66,22.59 33.69,17.12 				"/>
			</g>
			<g>
				<polygon class="st4" points="38.45,19.86 52.65,11.61 52.63,17.09 38.44,25.34 				"/>
			</g>
			<g>
				<polygon class="st6" points="33.69,17.12 47.88,8.87 52.65,11.61 38.45,19.86 				"/>
			</g>
		</g>
		<g class="st3">
			<g>
				<polygon class="st2" points="43.15,66.46 57.35,58.21 57.33,63.68 43.14,71.93 				"/>
			</g>
			<g>
				<polygon class="st2" points="38.39,63.7 52.58,55.46 57.35,58.21 43.15,66.46 				"/>
			</g>
			<g>
				<polygon class="st2" points="43.15,66.46 43.14,71.93 38.37,69.18 38.39,63.7 				"/>
			</g>
		</g>
		<g class="st3">
			<g>
				<polygon class="st9" points="47.88,85.63 62.08,77.38 62.06,82.86 47.87,91.1 				"/>
			</g>
			<g>
				<polygon class="st4" points="43.12,82.88 57.31,74.63 62.08,77.38 47.88,85.63 				"/>
			</g>
			<g>
				<polygon class="st4" points="47.88,85.63 47.87,91.1 43.1,88.36 43.12,82.88 				"/>
			</g>
			<g>
				<polygon class="st7" points="47.9,80.16 62.09,71.91 62.08,77.38 47.88,85.63 				"/>
			</g>
			<g>
				<polygon class="st7" points="43.14,77.41 57.33,69.16 62.09,71.91 47.9,80.16 				"/>
			</g>
			<g>
				<polygon class="st7" points="47.9,80.16 47.88,85.63 43.12,82.88 43.14,77.41 				"/>
			</g>
		</g>
		<g class="st3">
			<g>
				<polygon class="st2" points="38.4,58.22 52.6,49.98 57.34,52.71 43.14,60.96 				"/>
			</g>
			<g>
				<polygon class="st2" points="43.16,60.97 57.35,52.72 57.35,58.21 43.15,66.46 				"/>
			</g>
			<g>
				<polygon class="st2" points="43.14,60.96 57.34,52.71 57.35,52.72 43.16,60.97 				"/>
			</g>
			<g>
				<polygon class="st2" points="43.16,60.97 43.15,66.46 38.39,63.7 38.4,58.22 43.14,60.96 				"/>
			</g>
		</g>
		<g class="st3">
			<g>
				<polygon class="st7" points="47.91,74.69 62.11,66.44 62.09,71.91 47.9,80.16 				"/>
			</g>
			<g>
				<polygon class="st7" points="43.15,71.94 57.35,63.69 62.11,66.44 47.91,74.69 				"/>
			</g>
			<g>
				<polygon class="st7" points="47.91,74.69 47.9,80.16 43.14,77.41 43.15,71.94 				"/>
			</g>
		</g>
		<g class="st3">
			<g>
				<polygon class="st9" points="52.67,82.91 66.86,74.66 66.85,80.14 52.65,88.39 				"/>
			</g>
			<g>
				<polygon class="st4" points="47.9,80.16 62.09,71.91 66.86,74.66 52.67,82.91 				"/>
			</g>
			<g>
				<polygon class="st4" points="52.67,82.91 52.65,88.39 47.88,85.63 47.9,80.16 				"/>
			</g>
		</g>
		<g class="st3">
			<g>
				<polygon class="st2" points="43.16,55.49 57.35,47.24 57.34,52.71 43.14,60.96 				"/>
			</g>
			<g>
				<polygon class="st2" points="38.4,52.74 52.59,44.49 57.35,47.24 43.16,55.49 				"/>
			</g>
			<g>
				<polygon class="st2" points="43.16,55.49 43.14,60.96 38.4,58.22 38.38,58.21 38.4,52.74 				"/>
			</g>
		</g>
		<g class="st3">
			<g>
				<polygon class="st2" points="43.18,50.01 57.37,41.76 57.35,47.24 43.16,55.49 				"/>
			</g>
			<g>
				<polygon class="st2" points="38.41,47.26 52.61,39.01 57.37,41.76 43.18,50.01 				"/>
			</g>
			<g>
				<polygon class="st2" points="43.18,50.01 43.16,55.49 38.4,52.74 38.41,47.26 				"/>
			</g>
		</g>
		<g class="st3">
			<g>
				<polygon class="st7" points="52.68,77.44 66.88,69.19 66.86,74.66 52.67,82.91 				"/>
			</g>
			<g>
				<polygon class="st7" points="47.91,74.69 62.11,66.44 66.88,69.19 52.68,77.44 				"/>
			</g>
			<g>
				<polygon class="st7" points="52.68,77.44 52.67,82.91 47.9,80.16 47.91,74.69 				"/>
			</g>
			<g>
				<polygon class="st2" points="47.93,69.21 47.91,74.69 43.15,71.94 43.17,66.46 				"/>
			</g>
			<g>
				<polygon class="st2" points="47.93,69.21 62.12,60.97 62.11,66.44 47.91,74.69 				"/>
			</g>
			<g>
				<polygon class="st2" points="43.17,66.46 57.36,58.22 62.12,60.97 47.93,69.21 				"/>
			</g>
			<g>
				<polygon class="st8" points="43.18,60.98 57.38,52.73 62.12,55.47 47.92,63.72 				"/>
			</g>
			<g>
				<polygon class="st8" points="47.95,63.73 62.14,55.48 62.12,60.97 47.93,69.21 				"/>
			</g>
			<g>
				<polygon class="st8" points="47.92,63.72 62.12,55.47 62.14,55.48 47.95,63.73 				"/>
			</g>
			<g>
				<polygon class="st8" points="47.95,63.73 47.93,69.21 43.17,66.46 43.18,60.98 47.92,63.72 				"/>
			</g>
		</g>
		<g class="st3">
			<g>
				<polygon class="st2" points="43.19,44.53 57.38,36.28 57.37,41.76 43.18,50.01 				"/>
			</g>
			<g>
				<polygon class="st2" points="38.43,41.78 52.62,33.53 57.38,36.28 43.19,44.53 				"/>
			</g>
			<g>
				<polygon class="st2" points="43.19,44.53 43.18,50.01 38.41,47.26 38.43,41.78 				"/>
			</g>
		</g>
		<g class="st3">
			<g>
				<polygon class="st8" points="47.94,58.25 62.13,50 62.12,55.47 47.92,63.72 				"/>
			</g>
			<g>
				<polygon class="st8" points="43.18,55.5 57.37,47.25 62.13,50 47.94,58.25 				"/>
			</g>
			<g>
				<polygon class="st8" points="47.94,58.25 47.92,63.72 43.18,60.98 43.17,60.97 43.18,55.5 				"/>
			</g>
		</g>
		<g class="st3">
			<g>
				<polygon class="st7" points="52.7,71.97 66.89,63.72 66.88,69.19 52.68,77.44 				"/>
			</g>
			<g>
				<polygon class="st7" points="47.93,69.21 62.12,60.97 66.89,63.72 52.7,71.97 				"/>
			</g>
			<g>
				<polygon class="st7" points="52.7,71.97 52.68,77.44 47.91,74.69 47.93,69.21 				"/>
			</g>
		</g>
		<g class="st3">
			<g>
				<polygon class="st2" points="43.21,39.06 57.4,30.81 57.38,36.28 43.19,44.53 				"/>
			</g>
			<g>
				<polygon class="st2" points="38.44,36.31 52.64,28.06 57.4,30.81 43.21,39.06 				"/>
			</g>
			<g>
				<polygon class="st2" points="43.21,39.06 43.19,44.53 38.43,41.78 38.44,36.31 				"/>
			</g>
		</g>
		<g class="st3">
			<g>
				<polygon class="st2" points="47.95,52.76 62.15,44.51 62.13,50 47.94,58.25 				"/>
			</g>
			<g>
				<polygon class="st2" points="43.19,50.02 57.38,41.77 62.15,44.51 47.95,52.76 				"/>
			</g>
			<g>
				<polygon class="st2" points="47.95,52.76 47.94,58.25 43.18,55.5 43.19,50.02 				"/>
			</g>
		</g>
		<g class="st3">
			<g>
				<polygon class="st2" points="43.22,33.59 57.42,25.34 57.4,30.81 43.21,39.06 				"/>
			</g>
			<g>
				<polygon class="st2" points="38.46,30.84 52.65,22.59 57.42,25.34 43.22,33.59 				"/>
			</g>
			<g>
				<polygon class="st2" points="43.22,33.59 43.21,39.06 38.44,36.31 38.46,30.84 				"/>
			</g>
		</g>
		<g class="st3">
			<g>
				<polygon class="st4" points="57.45,80.19 57.43,85.66 52.67,82.91 52.68,77.44 				"/>
			</g>
			<g>
				<polygon class="st9" points="57.45,80.19 71.64,71.94 71.63,77.42 57.43,85.66 				"/>
			</g>
			<g>
				<polygon class="st4" points="52.68,77.44 66.88,69.19 71.64,71.94 57.45,80.19 				"/>
			</g>
			<g>
				<polygon class="st7" points="57.46,74.72 57.45,80.19 52.68,77.44 52.7,71.97 				"/>
			</g>
			<g>
				<polygon class="st7" points="57.46,74.72 71.66,66.47 71.64,71.94 57.45,80.19 				"/>
			</g>
			<g>
				<polygon class="st7" points="52.7,71.97 66.89,63.72 71.66,66.47 57.46,74.72 				"/>
			</g>
			<g>
				<polygon class="st8" points="47.95,63.73 62.14,55.48 66.89,58.23 52.69,66.47 				"/>
			</g>
			<g>
				<polygon class="st8" points="52.69,66.47 66.89,58.23 66.91,58.24 52.72,66.49 				"/>
			</g>
			<g>
				<polygon class="st8" points="52.72,66.49 66.91,58.24 66.89,63.72 52.7,71.97 				"/>
			</g>
			<g>
				<polygon class="st8" points="52.72,66.49 52.7,71.97 47.93,69.21 47.95,63.73 52.69,66.47 				"/>
			</g>
			<g>
				<polygon class="st9" points="62.23,77.47 76.42,69.22 76.4,74.69 62.21,82.94 				"/>
			</g>
			<g>
				<polygon class="st4" points="62.23,77.47 62.21,82.94 57.45,80.19 57.46,74.72 				"/>
			</g>
			<g>
				<polygon class="st4" points="57.46,74.72 71.66,66.47 76.42,69.22 62.23,77.47 				"/>
			</g>
			<g>
				<polygon class="st7" points="52.72,66.49 66.91,58.24 71.65,60.97 57.46,69.22 				"/>
			</g>
			<g>
				<polygon class="st7" points="57.48,69.24 57.46,74.72 52.7,71.97 52.72,66.49 57.46,69.22 				"/>
			</g>
			<g>
				<polygon class="st7" points="57.46,69.22 71.65,60.97 71.67,60.99 57.48,69.24 				"/>
			</g>
			<g>
				<polygon class="st7" points="57.48,69.24 71.67,60.99 71.66,66.47 57.46,74.72 				"/>
			</g>
			<g>
				<polygon class="st8" points="52.71,61 66.9,52.75 66.89,58.23 52.69,66.47 				"/>
			</g>
			<g>
				<polygon class="st8" points="52.71,61 52.69,66.47 47.95,63.73 47.92,63.72 47.94,58.25 				"/>
			</g>
			<g>
				<polygon class="st8" points="47.94,58.25 62.13,50 66.9,52.75 52.71,61 				"/>
			</g>
			<g>
				<polygon class="st7" points="57.48,69.24 71.67,60.99 76.41,63.72 62.22,71.97 				"/>
			</g>
			<g>
				<polygon class="st7" points="62.24,71.99 62.23,77.47 57.46,74.72 57.48,69.24 62.22,71.97 				"/>
			</g>
			<g>
				<polygon class="st7" points="62.24,71.99 76.44,63.74 76.42,69.22 62.23,77.47 				"/>
			</g>
			<g>
				<polygon class="st7" points="62.22,71.97 76.41,63.72 76.44,63.74 62.24,71.99 				"/>
			</g>
			<g>
				<polygon class="st2" points="57.47,63.75 57.46,69.22 52.72,66.49 52.69,66.47 52.71,61 				"/>
			</g>
			<g>
				<polygon class="st2" points="57.47,63.75 71.66,55.5 71.65,60.97 57.46,69.22 				"/>
			</g>
			<g>
				<polygon class="st2" points="52.71,61 66.9,52.75 71.66,55.5 57.47,63.75 				"/>
			</g>
			<g>
				<polygon class="st2" points="52.72,55.52 66.92,47.27 66.9,52.75 52.71,61 				"/>
			</g>
			<g>
				<polygon class="st2" points="47.95,52.76 62.15,44.51 66.92,47.27 52.72,55.52 				"/>
			</g>
			<g>
				<polygon class="st2" points="52.72,55.52 52.71,61 47.94,58.25 47.95,52.76 				"/>
			</g>
			<g>
				<polygon class="st8" points="47.97,47.29 47.95,52.76 43.19,50.02 43.21,44.54 				"/>
			</g>
			<g>
				<polygon class="st8" points="47.97,47.29 62.16,39.04 62.15,44.51 47.95,52.76 				"/>
			</g>
			<g>
				<polygon class="st8" points="43.21,44.54 57.4,36.29 62.16,39.04 47.97,47.29 				"/>
			</g>
			<g>
				<polygon class="st2" points="57.49,58.27 57.47,63.75 52.71,61 52.72,55.52 				"/>
			</g>
			<g>
				<polygon class="st2" points="57.49,58.27 71.68,50.02 71.66,55.5 57.47,63.75 				"/>
			</g>
			<g>
				<polygon class="st2" points="52.72,55.52 66.92,47.27 71.68,50.02 57.49,58.27 				"/>
			</g>
			<g>
				<polygon class="st8" points="52.74,50.05 52.72,55.52 47.95,52.76 47.97,47.29 				"/>
			</g>
			<g>
				<polygon class="st8" points="52.74,50.05 66.93,41.8 66.92,47.27 52.72,55.52 				"/>
			</g>
			<g>
				<polygon class="st8" points="47.97,47.29 62.16,39.04 66.93,41.8 52.74,50.05 				"/>
			</g>
			<g>
				<polygon class="st8" points="47.98,41.82 47.97,47.29 43.21,44.54 43.22,39.07 				"/>
			</g>
			<g>
				<polygon class="st8" points="47.98,41.82 62.18,33.57 62.16,39.04 47.97,47.29 				"/>
			</g>
			<g>
				<polygon class="st8" points="43.22,39.07 57.42,30.82 62.18,33.57 47.98,41.82 				"/>
			</g>
			<g>
				<polygon class="st8" points="52.75,44.57 52.74,50.05 47.97,47.29 47.98,41.82 				"/>
			</g>
			<g>
				<polygon class="st8" points="52.75,44.57 66.95,36.32 66.93,41.8 52.74,50.05 				"/>
			</g>
			<g>
				<polygon class="st8" points="47.98,41.82 62.18,33.57 66.95,36.32 52.75,44.57 				"/>
			</g>
			<g>
				<polygon class="st2" points="47.98,36.34 47.98,41.82 43.21,39.07 43.23,33.59 				"/>
			</g>
			<g>
				<polygon class="st2" points="47.98,36.34 62.18,28.09 62.17,33.57 47.98,41.82 				"/>
			</g>
			<g>
				<polygon class="st2" points="43.23,33.59 57.42,25.34 62.18,28.09 47.98,36.34 				"/>
			</g>
			<g>
				<polygon class="st7" points="43.22,28.11 57.42,19.86 57.4,25.33 43.21,33.58 				"/>
			</g>
			<g>
				<polygon class="st7" points="43.22,28.11 43.21,33.58 38.46,30.84 38.44,30.83 38.46,25.36 				"/>
			</g>
			<g>
				<polygon class="st7" points="38.46,25.36 52.65,17.11 57.42,19.86 43.22,28.11 				"/>
			</g>
			<g>
				<polygon class="st7" points="43.24,28.11 57.43,19.87 62.17,22.6 47.98,30.85 				"/>
			</g>
			<g>
				<polygon class="st7" points="47.98,30.85 62.17,22.6 62.19,22.62 48,30.87 				"/>
			</g>
			<g>
				<polygon class="st7" points="48,30.87 62.19,22.62 62.18,28.08 47.98,36.33 				"/>
			</g>
			<g>
				<polygon class="st7" points="48,30.87 47.98,36.33 43.23,33.59 43.24,28.11 47.98,30.85 				"/>
			</g>
			<g>
				<polygon class="st4" points="43.21,22.62 57.41,14.37 57.39,19.84 43.2,28.09 				"/>
			</g>
			<g>
				<polygon class="st4" points="43.21,22.62 43.2,28.09 38.46,25.36 38.44,25.34 38.45,19.87 				"/>
			</g>
			<g>
				<polygon class="st6" points="38.45,19.87 52.65,11.62 57.41,14.37 43.21,22.62 				"/>
			</g>
			<g>
				<polygon class="st6" points="43.23,22.62 57.42,14.37 62.19,17.12 47.99,25.37 				"/>
			</g>
			<g>
				<polygon class="st4" points="47.99,25.37 62.19,17.12 62.17,22.6 47.98,30.85 				"/>
			</g>
			<g>
				<polygon class="st4" points="47.99,25.37 47.98,30.85 43.24,28.11 43.21,28.1 43.23,22.62 				"/>
			</g>
		</g>
		<g class="st3">
			<g>
				<polygon class="st7" points="62.23,66.5 76.43,58.25 76.41,63.72 62.22,71.97 				"/>
			</g>
			<g>
				<polygon class="st7" points="57.47,63.75 71.66,55.5 76.43,58.25 62.23,66.5 				"/>
			</g>
			<g>
				<polygon class="st7" points="62.23,66.5 62.22,71.97 57.48,69.24 57.46,69.22 57.47,63.75 				"/>
			</g>
		</g>
		<g class="st3">
			<g>
				<polygon class="st2" points="57.5,52.8 71.7,44.55 71.68,50.02 57.49,58.27 				"/>
			</g>
			<g>
				<polygon class="st2" points="52.74,50.05 66.93,41.8 71.7,44.55 57.5,52.8 				"/>
			</g>
			<g>
				<polygon class="st2" points="57.5,52.8 57.49,58.27 52.72,55.52 52.74,50.05 				"/>
			</g>
		</g>
		<g class="st3">
			<g>
				<polygon class="st8" points="52.77,39.1 66.96,30.85 66.95,36.32 52.75,44.57 				"/>
			</g>
			<g>
				<polygon class="st8" points="48,36.35 62.19,28.1 66.96,30.85 52.77,39.1 				"/>
			</g>
			<g>
				<polygon class="st8" points="52.77,39.1 52.75,44.57 47.98,41.82 48,36.35 				"/>
			</g>
		</g>
		<g class="st3">
			<g>
				<polygon class="st8" points="57.52,47.32 71.71,39.08 71.7,44.55 57.5,52.8 				"/>
			</g>
			<g>
				<polygon class="st8" points="52.75,44.57 66.95,36.32 71.71,39.08 57.52,47.32 				"/>
			</g>
			<g>
				<polygon class="st8" points="57.52,47.32 57.5,52.8 52.74,50.05 52.75,44.57 				"/>
			</g>
			<g>
				<polygon class="st8" points="57.53,41.85 71.73,33.6 71.71,39.08 57.52,47.32 				"/>
			</g>
			<g>
				<polygon class="st8" points="52.77,39.1 66.96,30.85 71.73,33.6 57.53,41.85 				"/>
			</g>
			<g>
				<polygon class="st8" points="57.53,41.85 57.52,47.32 52.75,44.57 52.77,39.1 				"/>
			</g>
			<g>
				<polygon class="st7" points="48.01,30.87 62.2,22.62 66.96,25.37 52.77,33.62 				"/>
			</g>
			<g>
				<polygon class="st7" points="52.77,33.62 66.96,25.37 66.95,30.84 52.75,39.09 				"/>
			</g>
			<g>
				<polygon class="st4" points="52.76,28.13 52.75,33.61 48,30.87 47.98,30.85 47.99,25.38 				"/>
			</g>
			<g>
				<polygon class="st7" points="52.77,33.62 52.75,39.09 47.99,36.34 48.01,30.87 				"/>
			</g>
			<g>
				<polygon class="st7" points="57.55,36.38 71.74,28.13 71.73,33.6 57.53,41.85 				"/>
			</g>
			<g>
				<polygon class="st7" points="57.55,36.38 57.53,41.85 52.77,39.1 52.79,33.63 				"/>
			</g>
			<g>
				<polygon class="st7" points="52.79,33.63 66.98,25.38 71.74,28.13 57.55,36.38 				"/>
			</g>
			<g>
				<polygon class="st4" points="52.76,28.13 66.96,19.89 66.94,25.36 52.75,33.61 				"/>
			</g>
			<g>
				<polygon class="st6" points="47.99,25.38 62.19,17.13 66.96,19.89 52.76,28.13 				"/>
			</g>
			<g>
				<polygon class="st4" points="57.54,30.89 57.52,36.36 52.76,33.61 52.78,28.14 				"/>
			</g>
			<g>
				<polygon class="st4" points="57.54,30.89 71.74,22.64 71.72,28.11 57.52,36.36 				"/>
			</g>
			<g>
				<polygon class="st6" points="52.78,28.14 66.97,19.89 71.74,22.64 57.54,30.89 				"/>
			</g>
		</g>
		<g class="st3">
			<g>
				<polygon class="st7" points="62.25,61.02 76.44,52.77 76.43,58.25 62.23,66.5 				"/>
			</g>
			<g>
				<polygon class="st7" points="57.49,58.27 71.68,50.02 76.44,52.77 62.25,61.02 				"/>
			</g>
			<g>
				<polygon class="st7" points="62.25,61.02 62.23,66.5 57.47,63.75 57.49,58.27 				"/>
			</g>
		</g>
		<g class="st3">
			<g>
				<polygon class="st4" points="62.24,71.99 76.44,63.74 81.17,66.47 66.98,74.72 				"/>
			</g>
			<g>
				<polygon class="st9" points="67,74.74 81.2,66.49 81.18,71.97 66.99,80.22 				"/>
			</g>
			<g>
				<polygon class="st4" points="66.98,74.72 81.17,66.47 81.2,66.49 67,74.74 				"/>
			</g>
			<g>
				<polygon class="st4" points="67,74.74 66.99,80.22 62.23,77.47 62.24,71.99 66.98,74.72 				"/>
			</g>
			<g>
				<polygon class="st7" points="67,69.25 81.19,61 81.17,66.47 66.98,74.72 				"/>
			</g>
			<g>
				<polygon class="st7" points="62.23,66.5 76.43,58.25 81.19,61 67,69.25 				"/>
			</g>
			<g>
				<polygon class="st7" points="67,69.25 66.98,74.72 62.24,71.99 62.22,71.97 62.23,66.5 				"/>
			</g>
			<g>
				<polygon class="st7" points="67.01,63.77 67,69.25 62.23,66.5 62.25,61.02 				"/>
			</g>
			<g>
				<polygon class="st7" points="67.01,63.77 81.21,55.52 81.19,61 67,69.25 				"/>
			</g>
			<g>
				<polygon class="st7" points="62.25,61.02 76.44,52.77 81.21,55.52 67.01,63.77 				"/>
			</g>
			<g>
				<polygon class="st7" points="57.5,52.8 71.7,44.55 76.46,47.3 62.27,55.55 				"/>
			</g>
			<g>
				<polygon class="st7" points="62.27,55.55 62.25,61.02 57.49,58.27 57.5,52.8 				"/>
			</g>
			<g>
				<polygon class="st7" points="62.27,55.55 76.46,47.3 76.44,52.77 62.25,61.02 				"/>
			</g>
			<g>
				<polygon class="st7" points="67.03,58.3 67.01,63.77 62.25,61.02 62.27,55.55 				"/>
			</g>
			<g>
				<polygon class="st7" points="62.27,55.55 76.46,47.3 81.22,50.05 67.03,58.3 				"/>
			</g>
			<g>
				<polygon class="st7" points="67.03,58.3 81.22,50.05 81.21,55.52 67.01,63.77 				"/>
			</g>
			<g>
				<polygon class="st7" points="62.28,50.07 76.47,41.82 76.46,47.3 62.27,55.55 				"/>
			</g>
			<g>
				<polygon class="st7" points="57.52,47.32 71.71,39.08 76.47,41.82 62.28,50.07 				"/>
			</g>
			<g>
				<polygon class="st7" points="62.28,50.07 62.27,55.55 57.5,52.8 57.52,47.32 				"/>
			</g>
		</g>
		<g class="st3">
			<g>
				<polygon class="st9" points="71.76,72 85.95,63.75 85.94,69.22 71.74,77.47 				"/>
			</g>
			<g>
				<polygon class="st4" points="67,69.25 81.19,61 85.95,63.75 71.76,72 				"/>
			</g>
			<g>
				<polygon class="st4" points="71.76,72 71.74,77.47 67,74.74 66.98,74.72 67,69.25 				"/>
			</g>
		</g>
		<g class="st3">
			<g>
				<polygon class="st7" points="62.3,44.6 76.49,36.35 76.47,41.82 62.28,50.07 				"/>
			</g>
			<g>
				<polygon class="st7" points="57.53,41.85 71.73,33.6 76.49,36.35 62.3,44.6 				"/>
			</g>
			<g>
				<polygon class="st7" points="62.3,44.6 62.28,50.07 57.52,47.32 57.53,41.85 				"/>
			</g>
		</g>
		<g class="st3">
			<g>
				<polygon class="st9" points="71.77,66.52 85.97,58.27 85.95,63.75 71.76,72 				"/>
			</g>
			<g>
				<polygon class="st4" points="67.01,63.77 81.21,55.52 85.97,58.27 71.77,66.52 				"/>
			</g>
			<g>
				<polygon class="st4" points="71.77,66.52 71.76,72 67,69.25 67.01,63.77 				"/>
			</g>
			<g>
				<polygon class="st9" points="71.79,61.05 85.98,52.8 85.97,58.27 71.77,66.52 				"/>
			</g>
			<g>
				<polygon class="st4" points="67.03,58.3 81.22,50.05 85.98,52.8 71.79,61.05 				"/>
			</g>
			<g>
				<polygon class="st4" points="71.79,61.05 71.77,66.52 67.01,63.77 67.03,58.3 				"/>
			</g>
			<g>
				<polygon class="st7" points="67.04,52.82 67.03,58.3 62.27,55.55 62.28,50.07 				"/>
			</g>
			<g>
				<polygon class="st7" points="67.04,52.82 81.24,44.57 81.22,50.05 67.03,58.3 				"/>
			</g>
			<g>
				<polygon class="st7" points="62.28,50.07 76.47,41.82 81.24,44.57 67.04,52.82 				"/>
			</g>
			<g>
				<polygon class="st7" points="62.29,39.11 76.48,30.87 76.47,36.34 62.27,44.59 				"/>
			</g>
			<g>
				<polygon class="st7" points="62.29,39.11 62.27,44.59 62.3,44.6 57.53,41.85 57.55,36.38 				"/>
			</g>
			<g>
				<polygon class="st7" points="62.27,44.59 76.47,36.34 76.49,36.35 62.3,44.6 				"/>
			</g>
			<g>
				<polygon class="st4" points="62.3,44.6 76.49,36.35 81.25,39.1 67.06,47.35 				"/>
			</g>
			<g>
				<polygon class="st9" points="67.06,47.35 81.25,39.1 81.24,44.57 67.04,52.82 				"/>
			</g>
			<g>
				<polygon class="st4" points="67.06,47.35 67.04,52.82 62.28,50.07 62.3,44.6 				"/>
			</g>
			<g>
				<polygon class="st7" points="57.55,36.38 71.74,28.13 76.48,30.87 62.29,39.11 				"/>
			</g>
			<g>
				<polygon class="st4" points="67.05,41.86 67.03,47.34 62.3,44.6 62.27,44.59 62.29,39.11 				"/>
			</g>
			<g>
				<polygon class="st9" points="67.05,41.86 81.25,33.61 81.23,39.09 67.03,47.34 				"/>
			</g>
			<g>
				<polygon class="st6" points="62.29,39.11 76.48,30.87 81.25,33.61 67.05,41.86 				"/>
			</g>
			<g>
				<polygon class="st9" points="62.3,33.64 76.5,25.39 76.48,30.87 62.29,39.11 				"/>
			</g>
			<g>
				<polygon class="st6" points="57.54,30.89 71.74,22.64 76.5,25.39 62.3,33.64 				"/>
			</g>
			<g>
				<polygon class="st4" points="62.3,33.64 62.29,39.11 57.52,36.36 57.54,30.89 				"/>
			</g>
		</g>
		<g class="st3">
			<g>
				<polygon class="st9" points="71.81,55.57 86,47.32 85.98,52.8 71.79,61.05 				"/>
			</g>
			<g>
				<polygon class="st6" points="67.04,52.82 81.24,44.57 86,47.32 71.81,55.57 				"/>
			</g>
			<g>
				<polygon class="st4" points="71.81,55.57 71.79,61.05 67.03,58.3 67.04,52.82 				"/>
			</g>
		</g>
	</g>
</g>
</svg>
