<?xml version="1.0" encoding="utf-8"?>
<!-- Generator: Adobe Illustrator 23.0.1, SVG Export Plug-In . SVG Version: 6.00 Build 0)  -->
<svg version="1.1" id="Слой_1" xmlns="http://www.w3.org/2000/svg" xmlns:xlink="http://www.w3.org/1999/xlink" x="0px" y="0px"
	 viewBox="0 0 93.9 93.9" style="enable-background:new 0 0 93.9 93.9;" xml:space="preserve">
<style type="text/css">
	.st0{display:none;}
	.st1{display:inline;}
	.st2{fill:#FFFFFF;}
	.st3{enable-background:new    ;}
	.st4{fill:#FF9100;}
	.st5{fill:#FFBE71;}
	.st6{fill:#FFB600;}
	.st7{fill:#FFCE00;}
	.st8{fill:#FFE36C;}
	.st9{fill:#E86900;}
</style>
<g class="st0">
	<g id="OBJECTS" class="st1">
		<g>
			<path class="st2" d="M36.1,31.5l0-6.7C35.3,19,35.9,15,38,12.6c1.6-1.8,3.5-2.1,4.5-2.1l0,0c0.2,0,0.4,0,0.5,0
				c1.7,0,3.1,0.7,4.2,1.9c2.3,2.6,2.1,7,2,8.5c0.1,0.8,0.2,2.6,0.1,6.9c0.7-0.2,1.4-0.3,1.9-0.3c1,0,1.7,0.2,2.2,0.4
				c0.5,0.1,0.9,0.3,1.3,0.5c3.2-3,5.2-7.3,5.2-12c0-9.2-7.5-16.6-16.7-16.6S26.4,7.1,26.4,16.3C26.4,23,30.3,28.8,36.1,31.5z"/>
			<path class="st2" d="M72.2,41.4c0,0-2.9-7.2-8.3-0.1l-0.3,0.3c0,0,1.1-4.5-0.8-5.8c0,0-3.7-4.6-7.6,1.5c0,0,1-6.5-2.6-7.1
				c0,0-0.2-0.1-0.6-0.2h0l0,0c-0.1,0-0.1,0-0.2,0c0,0,0,0,0,0l0,0c-0.2,0-0.4,0-0.6,0l0,0h0c0,0,0,0,0,0l0,0c0,0-0.1,0-0.2,0l0,0
				c0,0-0.1,0-0.1,0l0,0c0,0-0.1,0-0.2,0l0,0c0,0,0,0-0.1,0c-0.3,0-0.7,0.1-1.1,0.3c0,0,0,0,0,0l0,0c-0.1,0-0.2,0.1-0.2,0.1
				c0,0,0,0,0,0l0,0c-0.1,0-0.1,0.1-0.2,0.1l0,0c0,0,0,0,0,0c-0.1,0-0.2,0.1-0.2,0.2l0,0c0,0,0,0,0,0c-0.1,0.1-0.2,0.1-0.3,0.2l0,0
				c0,0,0,0-0.1,0.1l0,0c-0.1,0.1-0.2,0.2-0.3,0.3c0,0,0,0,0,0l0,0c-0.1,0.1-0.1,0.1-0.2,0.2l0,0c0,0-0.1,0.1-0.1,0.1l0,0
				c-0.4,0.4-0.7,1-1,1.7c0,0,0-0.4,0-1.1c0,0,0-0.1,0-0.1c0-0.1,0-0.2,0-0.3c0,0,0-0.1,0-0.1c0-0.1,0-0.2,0-0.3c0,0,0,0,0-0.1
				c0-0.1,0-0.2,0-0.3c0,0,0-0.1,0-0.1c0-0.1,0-0.3,0-0.4c0,0,0,0,0-0.1c0-0.1,0-0.3,0-0.4c0,0,0-0.1,0-0.1c0-0.1,0-0.3,0-0.4
				c0,0,0,0,0-0.1c0-0.1,0-0.3,0-0.5c0,0,0-0.1,0-0.1c0-0.1,0-0.3,0-0.5c0,0,0-0.1,0-0.1c0-0.1,0-0.3,0-0.5c0,0,0-0.1,0-0.1
				c0-0.2,0-0.3,0-0.5c0,0,0,0,0-0.1c0-0.2,0-0.3,0-0.5c0,0,0,0,0-0.1c0-0.2,0-0.4,0-0.5c0,0,0,0,0,0c0-0.2,0-0.3,0-0.5c0,0,0,0,0,0
				c0-0.2,0-0.4,0-0.5c0,0,0,0,0,0c0-0.2,0-0.4,0-0.5l0,0l0,0l0,0c0-0.1,0-0.2,0-0.3c0,0,0-0.1,0-0.1c0-0.1,0-0.1,0-0.2
				c0,0,0-0.1,0-0.1c0-0.1,0-0.2,0-0.3c0,0,0,0,0,0c0-0.1,0-0.2,0-0.3c0,0,0,0,0-0.1c0-0.1,0-0.1,0-0.2c0,0,0-0.1,0-0.1
				c0-0.1,0-0.1,0-0.2c0,0,0,0,0,0c0-0.1,0-0.2,0-0.2c0,0,0,0,0-0.1c0,0,0-0.1,0-0.2c0,0,0,0,0-0.1c0,0,0-0.1,0-0.1c0,0,0,0,0,0
				c0-0.1,0-0.1,0-0.2c0,0,0,0,0,0c0,0,0-0.1,0-0.1c0,0,0,0,0,0c0,0,0-0.1,0-0.1c0,0,0,0,0,0c0,0,0-0.1,0-0.1c0,0,0,0,0,0
				c0,0,0-0.1,0-0.1c0,0,0,0,0,0c0,0,0,0,0-0.1c0,0,0,0,0,0c0,0,0,0,0-0.1c0,0,0-0.1,0-0.2c0,0,0-0.1,0-0.1c0,0,0,0,0,0
				c0,0,0,0,0-0.1c0,0,0-0.1,0-0.1c0,0,0,0,0,0c0-0.1,0-0.1,0-0.2l0,0c0-0.1,0-0.3,0-0.4c0,0,0,0,0-0.1l0,0c0,0,0-0.1,0-0.1
				c0,0,0,0,0,0c0,0,0-0.1,0-0.2l0,0c0,0,0-0.1,0-0.1v0c0,0,0,0,0,0c0-0.1,0-0.2,0-0.3c0,0,0,0,0,0c0,0,0,0,0-0.1c0-0.1,0-0.2,0-0.3
				v0c0,0,0-0.1,0-0.1c0-0.2,0-0.4,0-0.7c0,0,0,0,0-0.1l0,0c0-0.1,0-0.1,0-0.2v0c0,0,0-0.1,0-0.1c0-0.1,0-0.2,0-0.2l0,0
				c0-0.1,0-0.1,0-0.2l0,0c0-0.1,0-0.1,0-0.2l0,0c0,0,0,0,0,0c0-0.1,0-0.2-0.1-0.4c0,0,0,0,0,0c0-0.1,0-0.1,0-0.2
				c0-0.2-0.1-0.4-0.2-0.6l0,0c0,0,0,0,0-0.1c0-0.1-0.1-0.3-0.1-0.4c0,0,0-0.1,0-0.1l0,0c0-0.1-0.1-0.2-0.1-0.3c0,0,0,0,0-0.1l0,0
				c0-0.1-0.1-0.1-0.1-0.2c0,0,0-0.1-0.1-0.1l0,0c0-0.1-0.1-0.1-0.1-0.1l0,0c0-0.1-0.1-0.1-0.1-0.1l0,0c0-0.1-0.1-0.1-0.1-0.1l0,0
				c0,0,0,0,0,0c-0.1-0.1-0.2-0.2-0.3-0.3c0,0,0,0,0,0l0,0c0,0-0.1-0.1-0.1-0.1l0,0c0,0-0.1,0-0.1-0.1c-0.2-0.1-0.4-0.3-0.7-0.4
				c0,0,0,0,0,0l0,0c-0.1,0-0.2-0.1-0.4-0.1l0,0l0,0c-0.1,0-0.1,0-0.2,0l0,0c0,0-0.1,0-0.1,0c-0.1,0-0.2,0-0.3,0c-0.1,0-0.1,0-0.2,0
				c0,0,0,0-0.1,0c0,0,0,0,0,0l0,0l0,0c0,0,0,0-0.1,0l0,0l0,0c0,0-0.1,0-0.1,0l0,0l0,0c0,0-0.1,0-0.1,0c0,0,0,0,0,0h0
				c-0.1,0-0.2,0-0.3,0l0,0c0,0,0,0,0,0l0,0c-0.1,0-0.2,0-0.3,0l0,0c0,0,0,0,0,0l0,0c0,0-0.1,0-0.2,0c0,0,0,0,0,0l0,0l0,0l0,0l0,0
				c0,0-0.1,0-0.2,0l0,0c0,0,0,0,0,0l0,0c0,0-0.1,0-0.2,0.1l0,0c0,0,0,0,0,0l0,0c-0.1,0-0.1,0-0.2,0.1l0,0h0
				c-0.1,0.1-0.3,0.1-0.4,0.2l0,0c0,0,0,0,0,0c-0.1,0-0.1,0.1-0.2,0.1l0,0c0,0,0,0,0,0l0,0c-0.1,0.1-0.1,0.1-0.2,0.1c0,0,0,0,0,0
				l0,0c-0.1,0.1-0.3,0.2-0.4,0.4l0,0c0,0,0,0,0,0c-0.1,0.1-0.1,0.2-0.2,0.3l0,0c0,0,0,0,0,0l0,0c-0.1,0.1-0.1,0.1-0.2,0.2l0,0
				c0,0,0,0,0,0.1l0,0c0,0.1-0.1,0.2-0.2,0.3l0,0c0,0,0,0,0,0c-0.1,0.1-0.1,0.2-0.2,0.3c0,0,0,0,0,0l0,0c-0.1,0.2-0.2,0.5-0.3,0.7
				l0,0c0,0,0,0,0,0.1l0,0c-0.1,0.4-0.3,0.9-0.3,1.4l0,0c0,0,0,0,0,0c-0.1,0.5-0.2,1.1-0.2,1.8l0,0c0,0,0,0,0,0c0,0.2,0,0.5,0,0.7
				l0,0c0,0,0,0,0,0c0,0.3,0,0.5,0,0.8c0,0,0,0,0,0.1l0,0c0,0.8,0.1,1.6,0.2,2.6c0,0,0,0.1,0,0.1l0,0c0,0.3,0.1,0.6,0.1,0.9l0,7.7
				l0,0l-0.1,12c0,0,0.1,3.9-2.5,1.9l-4-7c0,0-3.2-1.7-5.1-0.3c-2,1.3-0.8,4-0.4,4.8c0,0,8.5,19.2,12.2,26.1
				c0.6,1.2,1.8,2.1,3.1,2.4c-0.2,0.3-0.2,0.6-0.2,1v3.3c0,0.8,0.4,1.5,1,1.9h-1.1c-1.3,0-2.3,1-2.3,2.3v10.4c0,1.3,1,2.3,2.3,2.3
				h27c1.3,0,2.3-1,2.3-2.3V80.7c0-1.3-1-2.3-2.3-2.3h-1.1c0.6-0.4,1-1.1,1-1.9v-3.3c0-0.4-0.1-0.7-0.3-1c1.1-0.3,2.1-0.8,2.9-1.7
				c0.8-0.8,1.4-2,1.3-3.4L72.2,41.4z"/>
		</g>
	</g>
	<g id="DESIGNED_BY_FREEPIK" class="st1">
	</g>
</g>
<g>
	<g>
		<g class="st3">
			<g>
				<polygon class="st4" points="20.2,60.5 32,53.6 31.9,58.2 20.2,65 				"/>
			</g>
			<g>
				<polygon class="st4" points="16.2,58.2 28,51.3 32,53.6 20.2,60.5 				"/>
			</g>
			<g>
				<polygon class="st4" points="20.2,60.5 20.2,65 16.2,62.7 16.2,58.2 				"/>
			</g>
		</g>
		<g class="st3">
			<g>
				<polygon class="st4" points="20.2,55.9 32,49.1 32,53.6 20.2,60.5 				"/>
			</g>
			<g>
				<polygon class="st5" points="16.2,53.6 28,46.8 32,49.1 20.2,55.9 				"/>
			</g>
			<g>
				<polygon class="st4" points="20.2,55.9 20.2,60.5 16.2,58.2 16.2,53.6 				"/>
			</g>
		</g>
		<g class="st3">
			<g>
				<polygon class="st4" points="24.1,62.7 35.9,55.9 35.9,60.4 24.1,67.3 				"/>
			</g>
			<g>
				<polygon class="st4" points="20.2,60.5 32,53.6 35.9,55.9 24.1,62.7 				"/>
			</g>
			<g>
				<polygon class="st4" points="24.1,62.7 24.1,67.3 20.2,65 20.2,60.5 				"/>
			</g>
		</g>
		<g class="st3">
			<g>
				<polygon class="st6" points="24.1,58.2 35.9,51.4 35.9,55.9 24.1,62.7 				"/>
			</g>
			<g>
				<polygon class="st6" points="20.2,55.9 32,49.1 35.9,51.4 24.1,58.2 				"/>
			</g>
			<g>
				<polygon class="st6" points="24.1,58.2 24.1,62.7 20.2,60.5 20.2,55.9 				"/>
			</g>
		</g>
		<g class="st3">
			<g>
				<polygon class="st4" points="24.1,53.7 35.9,46.8 35.9,51.4 24.1,58.2 				"/>
			</g>
			<g>
				<polygon class="st4" points="20.2,51.4 32,44.5 35.9,46.8 24.1,53.7 				"/>
			</g>
			<g>
				<polygon class="st4" points="24.1,53.7 24.1,58.2 20.2,55.9 20.2,51.4 				"/>
			</g>
		</g>
		<g class="st3">
			<g>
				<polygon class="st4" points="28.1,65 39.9,58.2 39.8,62.7 28.1,69.6 				"/>
			</g>
			<g>
				<polygon class="st4" points="24.1,62.7 35.9,55.9 39.9,58.2 28.1,65 				"/>
			</g>
			<g>
				<polygon class="st4" points="28.1,65 28.1,69.6 24.1,67.3 24.1,62.7 				"/>
			</g>
		</g>
		<g class="st3">
			<g>
				<polygon class="st6" points="28.1,60.5 39.9,53.6 39.9,58.2 28.1,65 				"/>
			</g>
			<g>
				<polygon class="st6" points="24.1,58.2 35.9,51.4 39.9,53.6 28.1,60.5 				"/>
			</g>
			<g>
				<polygon class="st6" points="28.1,60.5 28.1,65 24.1,62.7 24.1,58.2 				"/>
			</g>
			<g>
				<polygon class="st7" points="28.1,55.9 28.1,60.5 24.1,58.2 24.1,53.7 				"/>
			</g>
			<g>
				<polygon class="st7" points="28.1,55.9 39.9,49.1 39.9,53.6 28.1,60.5 				"/>
			</g>
			<g>
				<polygon class="st7" points="24.1,53.7 35.9,46.8 39.9,49.1 28.1,55.9 				"/>
			</g>
			<g>
				<polygon class="st4" points="24.2,49.1 35.9,42.3 35.9,46.8 24.1,53.7 				"/>
			</g>
			<g>
				<polygon class="st5" points="20.2,46.8 32,40 35.9,42.3 24.2,49.1 				"/>
			</g>
			<g>
				<polygon class="st4" points="24.2,49.1 24.1,53.7 20.2,51.4 20.2,46.8 				"/>
			</g>
		</g>
		<g class="st3">
			<g>
				<polygon class="st7" points="28.1,51.4 39.9,44.6 39.9,49.1 28.1,55.9 				"/>
			</g>
			<g>
				<polygon class="st7" points="24.2,49.1 35.9,42.3 39.9,44.6 28.1,51.4 				"/>
			</g>
			<g>
				<polygon class="st7" points="28.1,51.4 28.1,55.9 24.1,53.7 24.2,49.1 				"/>
			</g>
		</g>
		<g class="st3">
			<g>
				<polygon class="st4" points="32,62.8 43.8,55.9 43.8,60.5 32,67.3 				"/>
			</g>
			<g>
				<polygon class="st4" points="28.1,60.5 39.9,53.6 43.8,55.9 32,62.8 				"/>
			</g>
			<g>
				<polygon class="st4" points="32,62.8 32,67.3 28.1,65 28.1,60.5 				"/>
			</g>
		</g>
		<g class="st3">
			<g>
				<polygon class="st6" points="32,58.2 43.8,51.4 43.8,55.9 32,62.8 				"/>
			</g>
			<g>
				<polygon class="st6" points="28.1,55.9 39.9,49.1 43.8,51.4 32,58.2 				"/>
			</g>
			<g>
				<polygon class="st6" points="32,58.2 32,62.8 28.1,60.5 28.1,55.9 				"/>
			</g>
		</g>
		<g class="st3">
			<g>
				<polygon class="st7" points="32.1,53.7 43.8,46.8 43.8,51.4 32,58.2 				"/>
			</g>
			<g>
				<polygon class="st7" points="28.1,51.4 39.9,44.6 43.8,46.8 32.1,53.7 				"/>
			</g>
			<g>
				<polygon class="st7" points="32.1,53.7 32,58.2 28.1,55.9 28.1,51.4 				"/>
			</g>
		</g>
		<g class="st3">
			<g>
				<polygon class="st4" points="36,65 47.8,58.2 47.8,62.7 36,69.6 				"/>
			</g>
			<g>
				<polygon class="st4" points="32,62.8 43.8,55.9 47.8,58.2 36,65 				"/>
			</g>
			<g>
				<polygon class="st4" points="36,65 36,69.6 32,67.3 32,62.8 				"/>
			</g>
		</g>
		<g class="st3">
			<g>
				<polygon class="st4" points="16.3,21.8 28.1,15 28.1,19.5 16.3,26.4 				"/>
			</g>
			<g>
				<polygon class="st4" points="12.4,19.5 24.1,12.7 28.1,15 16.3,21.8 				"/>
			</g>
			<g>
				<polygon class="st4" points="16.3,21.8 16.3,26.4 12.4,24.1 12.3,24.1 12.4,19.5 				"/>
			</g>
			<g>
				<polygon class="st4" points="16.3,17.3 28.1,10.4 28.1,15 16.3,21.8 				"/>
			</g>
			<g>
				<polygon class="st5" points="12.4,15 24.1,8.2 28.1,10.4 16.3,17.3 				"/>
			</g>
			<g>
				<polygon class="st4" points="16.3,17.3 16.3,21.8 12.4,19.5 12.4,15 				"/>
			</g>
		</g>
		<g class="st3">
			<g>
				<polygon class="st6" points="36,60.5 47.8,53.7 47.8,58.2 36,65 				"/>
			</g>
			<g>
				<polygon class="st6" points="32,58.2 43.8,51.4 47.8,53.7 36,60.5 				"/>
			</g>
			<g>
				<polygon class="st6" points="36,60.5 36,65 32,62.8 32,58.2 				"/>
			</g>
			<g>
				<polygon class="st4" points="28.1,46.9 39.9,40 39.9,44.6 28.1,51.4 				"/>
			</g>
			<g>
				<polygon class="st4" points="24.2,44.6 36,37.7 39.9,40 28.1,46.9 				"/>
			</g>
			<g>
				<polygon class="st4" points="28.1,46.9 28.1,51.4 24.2,49.1 24.2,44.6 				"/>
			</g>
			<g>
				<polygon class="st7" points="32.1,53.7 43.8,46.8 47.8,49.1 36,56 				"/>
			</g>
			<g>
				<polygon class="st7" points="36,56 36,60.5 32,58.2 32.1,53.7 				"/>
			</g>
			<g>
				<polygon class="st7" points="36,56 47.8,49.1 47.8,53.7 36,60.5 				"/>
			</g>
			<g>
				<polygon class="st4" points="32.1,49.1 43.9,42.3 43.8,46.8 32.1,53.7 				"/>
			</g>
			<g>
				<polygon class="st4" points="28.1,46.9 39.9,40 43.9,42.3 32.1,49.1 				"/>
			</g>
			<g>
				<polygon class="st4" points="32.1,49.1 32.1,53.7 28.1,51.4 28.1,46.9 				"/>
			</g>
			<g>
				<polygon class="st4" points="28.1,42.3 39.9,35.5 39.9,40 28.1,46.9 				"/>
			</g>
			<g>
				<polygon class="st4" points="24.2,40 36,33.2 39.9,35.5 28.1,42.3 				"/>
			</g>
			<g>
				<polygon class="st4" points="28.1,42.3 28.1,46.9 24.2,44.6 24.2,40 				"/>
			</g>
			<g>
				<polygon class="st4" points="24.2,35.5 36,28.6 36,33.2 24.2,40 				"/>
			</g>
			<g>
				<polygon class="st4" points="20.3,33.2 32,26.4 36,28.6 24.2,35.5 				"/>
			</g>
			<g>
				<polygon class="st4" points="24.2,35.5 24.2,40 20.2,37.7 20.3,33.2 				"/>
			</g>
			<g>
				<polygon class="st4" points="16.3,26.4 28.1,19.5 32,21.8 20.2,28.6 				"/>
			</g>
			<g>
				<polygon class="st4" points="20.3,28.7 32,21.8 32,26.4 20.3,33.2 				"/>
			</g>
			<g>
				<polygon class="st4" points="20.2,28.6 32,21.8 32,21.8 20.3,28.7 				"/>
			</g>
			<g>
				<polygon class="st4" points="20.3,28.7 20.3,33.2 16.3,30.9 16.3,26.4 20.2,28.6 				"/>
			</g>
			<g>
				<polygon class="st7" points="32.1,44.6 43.9,37.7 43.9,42.3 32.1,49.1 				"/>
			</g>
			<g>
				<polygon class="st7" points="32.1,44.6 32.1,49.1 28.1,46.9 28.1,42.3 				"/>
			</g>
			<g>
				<polygon class="st7" points="28.1,42.3 39.9,35.5 43.9,37.7 32.1,44.6 				"/>
			</g>
			<g>
				<polygon class="st7" points="24.2,35.5 36,28.6 39.9,30.9 28.1,37.8 				"/>
			</g>
			<g>
				<polygon class="st7" points="28.1,37.8 39.9,30.9 39.9,35.5 28.1,42.3 				"/>
			</g>
			<g>
				<polygon class="st7" points="28.1,37.8 28.1,42.3 24.2,40 24.2,35.5 				"/>
			</g>
			<g>
				<polygon class="st7" points="20.3,28.7 32,21.8 36,24.1 24.2,30.9 				"/>
			</g>
			<g>
				<polygon class="st7" points="24.2,30.9 24.2,35.5 20.3,33.2 20.3,28.7 24.2,30.9 				"/>
			</g>
			<g>
				<polygon class="st7" points="24.2,30.9 36,24.1 36,24.1 24.2,30.9 				"/>
			</g>
			<g>
				<polygon class="st7" points="24.2,30.9 36,24.1 36,28.6 24.2,35.5 				"/>
			</g>
			<g>
				<polygon class="st8" points="16.3,21.8 28.1,15 32,17.3 20.3,24.1 				"/>
			</g>
			<g>
				<polygon class="st8" points="20.3,24.1 20.2,28.6 16.3,26.4 16.3,26.4 16.3,21.8 				"/>
			</g>
			<g>
				<polygon class="st8" points="20.3,24.1 32,17.3 32,21.8 20.2,28.6 				"/>
			</g>
			<g>
				<polygon class="st8" points="32.1,40 43.9,33.2 43.9,37.7 32.1,44.6 				"/>
			</g>
			<g>
				<polygon class="st8" points="28.1,37.8 39.9,30.9 43.9,33.2 32.1,40 				"/>
			</g>
			<g>
				<polygon class="st8" points="32.1,40 32.1,44.6 28.1,42.3 28.1,37.8 				"/>
			</g>
			<g>
				<polygon class="st7" points="24.2,30.9 36,24.1 39.9,26.4 28.1,33.2 				"/>
			</g>
			<g>
				<polygon class="st7" points="28.2,33.2 28.1,37.8 24.2,35.5 24.2,30.9 28.1,33.2 				"/>
			</g>
			<g>
				<polygon class="st7" points="28.2,33.2 40,26.4 39.9,30.9 28.1,37.8 				"/>
			</g>
			<g>
				<polygon class="st7" points="28.1,33.2 39.9,26.4 40,26.4 28.2,33.2 				"/>
			</g>
			<g>
				<polygon class="st8" points="24.2,26.4 36,19.5 36,24.1 24.2,30.9 				"/>
			</g>
			<g>
				<polygon class="st8" points="20.3,24.1 32,17.3 36,19.5 24.2,26.4 				"/>
			</g>
			<g>
				<polygon class="st8" points="24.2,26.4 24.2,30.9 20.3,28.7 20.2,28.6 20.3,24.1 				"/>
			</g>
			<g>
				<polygon class="st4" points="20.3,19.6 20.3,24.1 16.3,21.8 16.3,17.3 				"/>
			</g>
			<g>
				<polygon class="st4" points="20.3,19.6 32,12.7 32,17.3 20.3,24.1 				"/>
			</g>
			<g>
				<polygon class="st5" points="16.3,17.3 28.1,10.4 32,12.7 20.3,19.6 				"/>
			</g>
			<g>
				<polygon class="st8" points="24.2,26.4 36,19.5 39.9,21.8 28.2,28.7 				"/>
			</g>
			<g>
				<polygon class="st8" points="28.2,28.7 39.9,21.8 39.9,26.4 28.1,33.2 				"/>
			</g>
			<g>
				<polygon class="st8" points="28.2,28.7 28.1,33.2 24.2,30.9 24.2,30.9 24.2,26.4 				"/>
			</g>
			<g>
				<polygon class="st5" points="20.3,19.6 32,12.7 36,15 24.2,21.8 				"/>
			</g>
			<g>
				<polygon class="st4" points="24.2,21.8 36,15 36,19.5 24.2,26.4 				"/>
			</g>
			<g>
				<polygon class="st4" points="24.2,21.8 24.2,26.4 20.3,24.1 20.3,19.6 				"/>
			</g>
		</g>
		<g class="st3">
			<g>
				<polygon class="st7" points="36,51.4 47.8,44.6 47.8,49.1 36,56 				"/>
			</g>
			<g>
				<polygon class="st7" points="32.1,49.1 43.9,42.3 47.8,44.6 36,51.4 				"/>
			</g>
			<g>
				<polygon class="st7" points="36,51.4 36,56 32.1,53.7 32.1,49.1 				"/>
			</g>
		</g>
		<g class="st3">
			<g>
				<polygon class="st4" points="40,62.8 51.7,55.9 51.7,60.5 40,67.3 				"/>
			</g>
			<g>
				<polygon class="st4" points="36,60.5 47.8,53.7 51.7,55.9 40,62.8 				"/>
			</g>
			<g>
				<polygon class="st4" points="40,62.8 40,67.3 36,65 36,60.5 				"/>
			</g>
		</g>
		<g class="st3">
			<g>
				<polygon class="st6" points="40,58.2 51.8,51.4 51.7,55.9 40,62.8 				"/>
			</g>
			<g>
				<polygon class="st6" points="40,58.2 40,62.8 36,60.5 36,56 				"/>
			</g>
			<g>
				<polygon class="st6" points="36,56 47.8,49.1 51.8,51.4 40,58.2 				"/>
			</g>
			<g>
				<polygon class="st4" points="40,58.2 51.8,51.4 55.7,53.7 43.9,60.5 				"/>
			</g>
			<g>
				<polygon class="st4" points="43.9,60.5 55.7,53.7 55.7,58.2 43.9,65.1 				"/>
			</g>
			<g>
				<polygon class="st4" points="43.9,60.5 43.9,65.1 40,62.8 40,58.2 				"/>
			</g>
			<g>
				<polygon class="st7" points="40,53.7 40,58.2 36,56 36,51.4 				"/>
			</g>
			<g>
				<polygon class="st7" points="40,53.7 51.8,46.9 51.8,51.4 40,58.2 				"/>
			</g>
			<g>
				<polygon class="st7" points="36,51.4 47.8,44.6 51.8,46.9 40,53.7 				"/>
			</g>
			<g>
				<polygon class="st7" points="36,46.9 47.8,40 47.8,44.6 36,51.4 				"/>
			</g>
			<g>
				<polygon class="st7" points="32.1,44.6 43.9,37.7 47.8,40 36,46.9 				"/>
			</g>
			<g>
				<polygon class="st7" points="36,46.9 36,51.4 32.1,49.1 32.1,44.6 				"/>
			</g>
		</g>
		<g class="st3">
			<g>
				<polygon class="st4" points="28.2,24.1 40,17.3 39.9,21.8 28.2,28.7 				"/>
			</g>
			<g>
				<polygon class="st5" points="24.2,21.8 36,15 40,17.3 28.2,24.1 				"/>
			</g>
			<g>
				<polygon class="st4" points="28.2,24.1 28.2,28.7 24.2,26.4 24.2,21.8 				"/>
			</g>
		</g>
		<g class="st3">
			<g>
				<polygon class="st7" points="36.1,42.3 47.8,35.5 47.8,40 36,46.9 				"/>
			</g>
			<g>
				<polygon class="st7" points="32.1,40 43.9,33.2 47.8,35.5 36.1,42.3 				"/>
			</g>
			<g>
				<polygon class="st7" points="36.1,42.3 36,46.9 32.1,44.6 32.1,40 				"/>
			</g>
			<g>
				<polygon class="st7" points="28.2,33.2 40,26.4 43.9,28.6 32.1,35.5 				"/>
			</g>
			<g>
				<polygon class="st7" points="32.1,35.5 32.1,40 28.1,37.8 28.2,33.2 32.1,35.5 				"/>
			</g>
			<g>
				<polygon class="st7" points="32.1,35.5 43.9,28.6 43.9,28.7 32.1,35.5 				"/>
			</g>
			<g>
				<polygon class="st7" points="32.1,35.5 43.9,28.7 43.9,33.2 32.1,40 				"/>
			</g>
			<g>
				<polygon class="st8" points="32.1,30.9 43.9,24.1 43.9,28.6 32.1,35.5 				"/>
			</g>
			<g>
				<polygon class="st8" points="28.2,28.7 39.9,21.8 43.9,24.1 32.1,30.9 				"/>
			</g>
			<g>
				<polygon class="st8" points="32.1,30.9 32.1,35.5 28.2,33.2 28.1,33.2 28.2,28.7 				"/>
			</g>
		</g>
		<g class="st3">
			<g>
				<polygon class="st4" points="32.1,26.4 43.9,19.6 43.9,24.1 32.1,30.9 				"/>
			</g>
			<g>
				<polygon class="st5" points="28.2,24.1 40,17.3 43.9,19.6 32.1,26.4 				"/>
			</g>
			<g>
				<polygon class="st4" points="32.1,26.4 32.1,30.9 28.2,28.7 28.2,24.1 				"/>
			</g>
		</g>
		<g class="st3">
			<g>
				<polygon class="st7" points="32.1,35.5 43.9,28.7 47.8,30.9 36,37.8 				"/>
			</g>
			<g>
				<polygon class="st7" points="36.1,37.8 47.9,30.9 47.8,35.5 36.1,42.3 				"/>
			</g>
			<g>
				<polygon class="st7" points="36,37.8 47.8,30.9 47.9,30.9 36.1,37.8 				"/>
			</g>
			<g>
				<polygon class="st7" points="36.1,37.8 36.1,42.3 32.1,40 32.1,35.5 36,37.8 				"/>
			</g>
			<g>
				<polygon class="st7" points="36.1,33.2 47.8,26.4 47.8,30.9 36,37.8 				"/>
			</g>
			<g>
				<polygon class="st7" points="32.1,30.9 43.9,24.1 47.8,26.4 36.1,33.2 				"/>
			</g>
			<g>
				<polygon class="st7" points="36.1,33.2 36,37.8 32.1,35.5 32.1,35.5 32.1,30.9 				"/>
			</g>
		</g>
		<g class="st3">
			<g>
				<polygon class="st7" points="40,49.2 51.8,42.3 51.8,46.9 40,53.7 				"/>
			</g>
			<g>
				<polygon class="st7" points="36,46.9 47.8,40 51.8,42.3 40,49.2 				"/>
			</g>
			<g>
				<polygon class="st7" points="40,49.2 40,53.7 36,51.4 36,46.9 				"/>
			</g>
		</g>
		<g class="st3">
			<g>
				<polygon class="st7" points="40,44.6 51.8,37.8 51.8,42.3 40,49.2 				"/>
			</g>
			<g>
				<polygon class="st7" points="36.1,42.3 47.8,35.5 51.8,37.8 40,44.6 				"/>
			</g>
			<g>
				<polygon class="st7" points="40,44.6 40,49.2 36,46.9 36.1,42.3 				"/>
			</g>
		</g>
		<g class="st3">
			<g>
				<polygon class="st6" points="43.9,56 55.7,49.1 55.7,53.7 43.9,60.5 				"/>
			</g>
			<g>
				<polygon class="st6" points="40,53.7 51.8,46.9 55.7,49.1 43.9,56 				"/>
			</g>
			<g>
				<polygon class="st6" points="43.9,56 43.9,60.5 40,58.2 40,53.7 				"/>
			</g>
		</g>
		<g class="st3">
			<g>
				<polygon class="st4" points="47.9,67.4 59.7,60.5 59.7,65.1 47.9,71.9 				"/>
			</g>
			<g>
				<polygon class="st4" points="43.9,65.1 55.7,58.2 59.7,60.5 47.9,67.4 				"/>
			</g>
			<g>
				<polygon class="st4" points="47.9,67.4 47.9,71.9 43.9,69.6 43.9,65.1 				"/>
			</g>
		</g>
		<g class="st3">
			<g>
				<polygon class="st7" points="44,51.4 55.7,44.6 55.7,49.1 43.9,56 				"/>
			</g>
			<g>
				<polygon class="st7" points="40,49.2 51.8,42.3 55.7,44.6 44,51.4 				"/>
			</g>
			<g>
				<polygon class="st7" points="44,51.4 43.9,56 40,53.7 40,49.2 				"/>
			</g>
		</g>
		<g class="st3">
			<g>
				<polygon class="st6" points="47.9,62.8 59.7,56 59.7,60.5 47.9,67.4 				"/>
			</g>
			<g>
				<polygon class="st6" points="43.9,60.5 55.7,53.7 59.7,56 47.9,62.8 				"/>
			</g>
			<g>
				<polygon class="st6" points="47.9,62.8 47.9,67.4 43.9,65.1 43.9,60.5 				"/>
			</g>
		</g>
		<g class="st3">
			<g>
				<polygon class="st4" points="51.8,74.2 63.6,67.3 63.6,71.9 51.8,78.7 				"/>
			</g>
			<g>
				<polygon class="st4" points="47.9,71.9 59.7,65.1 63.6,67.3 51.8,74.2 				"/>
			</g>
			<g>
				<polygon class="st4" points="51.8,74.2 51.8,78.7 47.9,76.4 47.9,71.9 				"/>
			</g>
		</g>
		<g class="st3">
			<g>
				<polygon class="st6" points="51.8,69.6 63.6,62.8 63.6,67.3 51.8,74.2 				"/>
			</g>
			<g>
				<polygon class="st6" points="47.9,67.4 59.7,60.5 63.6,62.8 51.8,69.6 				"/>
			</g>
			<g>
				<polygon class="st6" points="51.8,69.6 51.8,74.2 47.9,71.9 47.9,67.4 				"/>
			</g>
		</g>
		<g class="st3">
			<g>
				<polygon class="st4" points="59.7,83.3 71.5,76.4 71.5,81 59.7,87.8 				"/>
			</g>
			<g>
				<polygon class="st4" points="55.8,81 67.6,74.2 71.5,76.4 59.7,83.3 				"/>
			</g>
			<g>
				<polygon class="st4" points="59.7,83.3 59.7,87.8 55.8,85.6 55.8,81 				"/>
			</g>
		</g>
		<g class="st3">
			<g>
				<polygon class="st7" points="36.1,28.7 47.9,21.8 47.8,26.4 36.1,33.2 				"/>
			</g>
			<g>
				<polygon class="st7" points="32.1,26.4 43.9,19.6 47.9,21.8 36.1,28.7 				"/>
			</g>
			<g>
				<polygon class="st7" points="36.1,28.7 36.1,33.2 32.1,30.9 32.1,26.4 				"/>
			</g>
		</g>
		<g class="st3">
			<g>
				<polygon class="st4" points="36.1,24.1 47.9,17.3 47.9,21.8 36.1,28.7 				"/>
			</g>
			<g>
				<polygon class="st4" points="32.1,21.9 43.9,15 47.9,17.3 36.1,24.1 				"/>
			</g>
			<g>
				<polygon class="st4" points="36.1,24.1 36.1,28.7 32.1,26.4 32.1,21.9 				"/>
			</g>
		</g>
		<g class="st3">
			<g>
				<polygon class="st8" points="44,46.9 55.8,40.1 55.7,44.6 44,51.4 				"/>
			</g>
			<g>
				<polygon class="st8" points="40,44.6 51.8,37.8 55.8,40.1 44,46.9 				"/>
			</g>
			<g>
				<polygon class="st8" points="44,46.9 44,51.4 40,49.2 40,44.6 				"/>
			</g>
			<g>
				<polygon class="st7" points="36.1,37.8 47.9,30.9 51.8,33.2 40,40.1 				"/>
			</g>
			<g>
				<polygon class="st7" points="40,40.1 40,44.6 36.1,42.3 36.1,37.8 40,40.1 				"/>
			</g>
			<g>
				<polygon class="st7" points="40,40.1 51.8,33.2 51.8,33.2 40,40.1 				"/>
			</g>
			<g>
				<polygon class="st7" points="40,40.1 51.8,33.2 51.8,37.8 40,44.6 				"/>
			</g>
			<g>
				<polygon class="st7" points="40,35.5 51.8,28.7 51.8,33.2 40,40.1 				"/>
			</g>
			<g>
				<polygon class="st7" points="36.1,33.2 47.8,26.4 51.8,28.7 40,35.5 				"/>
			</g>
			<g>
				<polygon class="st7" points="40,35.5 40,40.1 36.1,37.8 36,37.8 36.1,33.2 				"/>
			</g>
		</g>
		<g class="st3">
			<g>
				<polygon class="st7" points="47.9,58.3 59.7,51.4 59.7,56 47.9,62.8 				"/>
			</g>
			<g>
				<polygon class="st7" points="44,56 55.7,49.1 59.7,51.4 47.9,58.3 				"/>
			</g>
			<g>
				<polygon class="st7" points="47.9,58.3 47.9,62.8 43.9,60.5 44,56 				"/>
			</g>
		</g>
		<g class="st3">
			<g>
				<polygon class="st7" points="40,31 51.8,24.1 51.8,28.7 40,35.5 				"/>
			</g>
			<g>
				<polygon class="st7" points="36.1,28.7 47.9,21.8 51.8,24.1 40,31 				"/>
			</g>
			<g>
				<polygon class="st7" points="40,31 40,35.5 36.1,33.2 36.1,28.7 				"/>
			</g>
		</g>
		<g class="st3">
			<g>
				<polygon class="st7" points="40,40.1 51.8,33.2 55.7,35.5 44,42.3 				"/>
			</g>
			<g>
				<polygon class="st7" points="44,42.3 55.8,35.5 55.8,40.1 44,46.9 				"/>
			</g>
			<g>
				<polygon class="st7" points="44,42.3 55.7,35.5 55.8,35.5 44,42.3 				"/>
			</g>
			<g>
				<polygon class="st7" points="44,42.3 44,46.9 40,44.6 40,40.1 44,42.3 				"/>
			</g>
		</g>
		<g class="st3">
			<g>
				<polygon class="st7" points="47.9,53.7 59.7,46.9 59.7,51.4 47.9,58.3 				"/>
			</g>
			<g>
				<polygon class="st7" points="44,51.4 55.8,44.6 59.7,46.9 47.9,53.7 				"/>
			</g>
			<g>
				<polygon class="st7" points="47.9,53.7 47.9,58.3 44,56 44,51.4 				"/>
			</g>
		</g>
		<g class="st3">
			<g>
				<polygon class="st7" points="51.8,65.1 63.6,58.3 63.6,62.8 51.8,69.6 				"/>
			</g>
			<g>
				<polygon class="st7" points="47.9,62.8 59.7,56 63.6,58.3 51.8,65.1 				"/>
			</g>
			<g>
				<polygon class="st7" points="51.8,65.1 51.8,69.6 47.9,67.4 47.9,62.8 				"/>
			</g>
		</g>
		<g class="st3">
			<g>
				<polygon class="st4" points="55.8,76.5 67.6,69.6 67.6,74.2 55.8,81 				"/>
			</g>
			<g>
				<polygon class="st4" points="51.8,74.2 63.6,67.3 67.6,69.6 55.8,76.5 				"/>
			</g>
			<g>
				<polygon class="st4" points="55.8,76.5 55.8,81 51.8,78.7 51.8,74.2 				"/>
			</g>
		</g>
		<g class="st3">
			<g>
				<polygon class="st6" points="59.7,78.8 71.5,71.9 71.5,76.4 59.7,83.3 				"/>
			</g>
			<g>
				<polygon class="st6" points="55.8,76.5 67.6,69.6 71.5,71.9 59.7,78.8 				"/>
			</g>
			<g>
				<polygon class="st6" points="59.7,78.8 59.7,83.3 55.8,81 55.8,76.5 				"/>
			</g>
		</g>
		<g class="st3">
			<g>
				<polygon class="st7" points="55.8,71.9 67.6,65.1 67.6,69.6 55.8,76.5 				"/>
			</g>
			<g>
				<polygon class="st7" points="51.8,69.6 63.6,62.8 67.6,65.1 55.8,71.9 				"/>
			</g>
			<g>
				<polygon class="st7" points="55.8,71.9 55.8,76.5 51.8,74.2 51.8,69.6 				"/>
			</g>
			<g>
				<polygon class="st7" points="55.8,67.4 55.8,71.9 51.8,69.6 51.8,65.1 				"/>
			</g>
			<g>
				<polygon class="st7" points="55.8,67.4 67.6,60.5 67.6,65.1 55.8,71.9 				"/>
			</g>
			<g>
				<polygon class="st7" points="51.8,65.1 63.6,58.3 67.6,60.5 55.8,67.4 				"/>
			</g>
			<g>
				<polygon class="st8" points="51.9,60.6 63.6,53.7 63.6,58.3 51.8,65.1 				"/>
			</g>
			<g>
				<polygon class="st8" points="47.9,58.3 59.7,51.4 63.6,53.7 51.9,60.6 				"/>
			</g>
			<g>
				<polygon class="st8" points="51.9,60.6 51.8,65.1 47.9,62.8 47.9,58.3 				"/>
			</g>
		</g>
		<g class="st3">
			<g>
				<polygon class="st8" points="40,26.4 51.8,19.6 51.8,24.1 40,31 				"/>
			</g>
			<g>
				<polygon class="st8" points="36.1,24.1 47.9,17.3 51.8,19.6 40,26.4 				"/>
			</g>
			<g>
				<polygon class="st8" points="40,26.4 40,31 36.1,28.7 36.1,24.1 				"/>
			</g>
		</g>
		<g class="st3">
			<g>
				<polygon class="st7" points="44,37.8 55.8,31 55.7,35.5 44,42.3 				"/>
			</g>
			<g>
				<polygon class="st7" points="40,35.5 51.8,28.7 55.8,31 44,37.8 				"/>
			</g>
			<g>
				<polygon class="st7" points="44,37.8 44,42.3 40,40.1 40,40.1 40,35.5 				"/>
			</g>
		</g>
		<g class="st3">
			<g>
				<polygon class="st7" points="47.9,49.2 59.7,42.3 59.7,46.9 47.9,53.7 				"/>
			</g>
			<g>
				<polygon class="st7" points="44,46.9 55.8,40.1 59.7,42.3 47.9,49.2 				"/>
			</g>
			<g>
				<polygon class="st7" points="47.9,49.2 47.9,53.7 44,51.4 44,46.9 				"/>
			</g>
		</g>
		<g class="st3">
			<g>
				<polygon class="st7" points="51.9,56 63.7,49.2 63.6,53.7 51.9,60.6 				"/>
			</g>
			<g>
				<polygon class="st7" points="47.9,53.7 59.7,46.9 63.7,49.2 51.9,56 				"/>
			</g>
			<g>
				<polygon class="st7" points="51.9,56 51.9,60.6 47.9,58.3 47.9,53.7 				"/>
			</g>
		</g>
		<g class="st3">
			<g>
				<polygon class="st4" points="59.7,83.3 71.5,76.4 75.4,78.7 63.7,85.6 				"/>
			</g>
			<g>
				<polygon class="st4" points="63.7,85.6 63.7,90.1 59.7,87.8 59.7,83.3 				"/>
			</g>
			<g>
				<polygon class="st4" points="63.7,85.6 75.4,78.7 75.4,83.3 63.7,90.1 				"/>
			</g>
			<g>
				<polygon class="st4" points="67.6,87.9 67.6,92.4 63.7,90.1 63.7,85.6 				"/>
			</g>
			<g>
				<polygon class="st4" points="63.7,85.6 75.4,78.7 79.4,81 67.6,87.9 				"/>
			</g>
			<g>
				<polygon class="st9" points="67.6,87.9 79.4,81 79.4,85.6 67.6,92.4 				"/>
			</g>
			<g>
				<polygon class="st6" points="63.7,81 75.5,74.2 75.4,78.7 63.7,85.6 				"/>
			</g>
			<g>
				<polygon class="st6" points="59.7,78.8 71.5,71.9 75.5,74.2 63.7,81 				"/>
			</g>
			<g>
				<polygon class="st6" points="63.7,81 63.7,85.6 59.7,83.3 59.7,78.8 				"/>
			</g>
			<g>
				<polygon class="st6" points="59.8,74.2 59.7,78.8 55.8,76.5 55.8,71.9 				"/>
			</g>
			<g>
				<polygon class="st6" points="59.8,74.2 71.5,67.4 71.5,71.9 59.7,78.8 				"/>
			</g>
			<g>
				<polygon class="st6" points="55.8,71.9 67.6,65.1 71.5,67.4 59.8,74.2 				"/>
			</g>
			<g>
				<polygon class="st6" points="59.8,69.7 71.5,62.8 71.5,67.4 59.8,74.2 				"/>
			</g>
			<g>
				<polygon class="st6" points="55.8,67.4 67.6,60.5 71.5,62.8 59.8,69.7 				"/>
			</g>
			<g>
				<polygon class="st6" points="59.8,69.7 59.8,74.2 55.8,71.9 55.8,67.4 				"/>
			</g>
			<g>
				<polygon class="st4" points="55.8,62.8 67.6,56 67.6,60.5 55.8,67.4 				"/>
			</g>
			<g>
				<polygon class="st4" points="51.9,60.6 63.6,53.7 67.6,56 55.8,62.8 				"/>
			</g>
			<g>
				<polygon class="st4" points="55.8,62.8 55.8,67.4 51.8,65.1 51.9,60.6 				"/>
			</g>
		</g>
		<g class="st3">
			<g>
				<polygon class="st9" points="67.6,83.3 79.4,76.5 79.4,81 67.6,87.9 				"/>
			</g>
			<g>
				<polygon class="st5" points="63.7,81 75.5,74.2 79.4,76.5 67.6,83.3 				"/>
			</g>
			<g>
				<polygon class="st4" points="67.6,83.3 67.6,87.9 63.7,85.6 63.7,81 				"/>
			</g>
		</g>
		<g class="st3">
			<g>
				<polygon class="st4" points="36.1,19.6 47.9,12.8 47.9,17.3 36.1,24.1 				"/>
			</g>
			<g>
				<polygon class="st5" points="32.2,17.3 43.9,10.5 47.9,12.8 36.1,19.6 				"/>
			</g>
			<g>
				<polygon class="st4" points="36.1,19.6 36.1,24.1 32.1,21.9 32.2,17.3 				"/>
			</g>
		</g>
		<g class="st3">
			<g>
				<polygon class="st7" points="44,33.3 55.8,26.4 55.8,31 44,37.8 				"/>
			</g>
			<g>
				<polygon class="st7" points="40,31 51.8,24.1 55.8,26.4 44,33.3 				"/>
			</g>
			<g>
				<polygon class="st7" points="44,33.3 44,37.8 40,35.5 40,31 				"/>
			</g>
			<g>
				<polygon class="st7" points="44,28.7 44,33.3 40,31 40,26.4 				"/>
			</g>
			<g>
				<polygon class="st7" points="44,28.7 55.8,21.9 55.8,26.4 44,33.3 				"/>
			</g>
			<g>
				<polygon class="st7" points="40,26.4 51.8,19.6 55.8,21.9 44,28.7 				"/>
			</g>
			<g>
				<polygon class="st8" points="40.1,21.9 51.8,15 51.8,19.6 40,26.4 				"/>
			</g>
			<g>
				<polygon class="st8" points="36.1,19.6 47.9,12.8 51.8,15 40.1,21.9 				"/>
			</g>
			<g>
				<polygon class="st8" points="40.1,21.9 40,26.4 36.1,24.1 36.1,19.6 				"/>
			</g>
		</g>
		<g class="st3">
			<g>
				<polygon class="st8" points="44,42.4 55.8,35.5 59.7,37.8 47.9,44.6 				"/>
			</g>
			<g>
				<polygon class="st8" points="48,44.6 59.7,37.8 59.7,42.3 47.9,49.2 				"/>
			</g>
			<g>
				<polygon class="st8" points="47.9,44.6 59.7,37.8 59.7,37.8 48,44.6 				"/>
			</g>
			<g>
				<polygon class="st8" points="48,44.6 47.9,49.2 44,46.9 44,42.4 47.9,44.6 				"/>
			</g>
		</g>
		<g class="st3">
			<g>
				<polygon class="st6" points="55.8,58.3 67.6,51.5 67.6,56 55.8,62.8 				"/>
			</g>
			<g>
				<polygon class="st6" points="51.9,56 63.7,49.2 67.6,51.5 55.8,58.3 				"/>
			</g>
			<g>
				<polygon class="st6" points="55.8,58.3 55.8,62.8 51.9,60.6 51.9,56 				"/>
			</g>
		</g>
		<g class="st3">
			<g>
				<polygon class="st7" points="47.9,40.1 59.7,33.2 59.7,37.8 47.9,44.6 				"/>
			</g>
			<g>
				<polygon class="st7" points="44,37.8 55.8,31 59.7,33.2 47.9,40.1 				"/>
			</g>
			<g>
				<polygon class="st7" points="47.9,40.1 47.9,44.6 44,42.4 44,42.4 44,37.8 				"/>
			</g>
		</g>
		<g class="st3">
			<g>
				<polygon class="st7" points="51.9,51.5 63.7,44.6 63.7,49.2 51.9,56 				"/>
			</g>
			<g>
				<polygon class="st7" points="47.9,49.2 59.7,42.3 63.7,44.6 51.9,51.5 				"/>
			</g>
			<g>
				<polygon class="st7" points="51.9,51.5 51.9,56 47.9,53.7 47.9,49.2 				"/>
			</g>
		</g>
		<g class="st3">
			<g>
				<polygon class="st4" points="40.1,17.3 51.8,10.5 51.8,15 40.1,21.9 				"/>
			</g>
			<g>
				<polygon class="st4" points="36.1,15.1 47.9,8.2 51.8,10.5 40.1,17.3 				"/>
			</g>
			<g>
				<polygon class="st4" points="40.1,17.3 40.1,21.9 36.1,19.6 36.1,15.1 				"/>
			</g>
		</g>
		<g class="st3">
			<g>
				<polygon class="st4" points="40.1,12.8 51.9,6 51.8,10.5 40.1,17.3 				"/>
			</g>
			<g>
				<polygon class="st5" points="36.1,10.5 47.9,3.7 51.9,6 40.1,12.8 				"/>
			</g>
			<g>
				<polygon class="st4" points="40.1,12.8 40.1,17.3 36.1,15.1 36.1,10.5 				"/>
			</g>
		</g>
		<g class="st3">
			<g>
				<polygon class="st7" points="44,24.2 55.8,17.3 55.8,21.9 44,28.7 				"/>
			</g>
			<g>
				<polygon class="st7" points="40.1,21.9 51.8,15 55.8,17.3 44,24.2 				"/>
			</g>
			<g>
				<polygon class="st7" points="44,24.2 44,28.7 40,26.4 40.1,21.9 				"/>
			</g>
		</g>
		<g class="st3">
			<g>
				<polygon class="st7" points="48,35.5 59.7,28.7 59.7,33.2 47.9,40.1 				"/>
			</g>
			<g>
				<polygon class="st7" points="44,33.3 55.8,26.4 59.7,28.7 48,35.5 				"/>
			</g>
			<g>
				<polygon class="st7" points="48,35.5 47.9,40.1 44,37.8 44,33.3 				"/>
			</g>
		</g>
		<g class="st3">
			<g>
				<polygon class="st7" points="48,44.6 59.7,37.8 63.7,40.1 51.9,46.9 				"/>
			</g>
			<g>
				<polygon class="st7" points="51.9,46.9 63.7,40.1 63.7,44.6 51.9,51.5 				"/>
			</g>
			<g>
				<polygon class="st7" points="51.9,46.9 63.7,40.1 63.7,40.1 51.9,46.9 				"/>
			</g>
			<g>
				<polygon class="st7" points="51.9,46.9 51.9,51.5 47.9,49.2 48,44.6 51.9,46.9 				"/>
			</g>
		</g>
		<g class="st3">
			<g>
				<polygon class="st8" points="44,19.6 55.8,12.8 55.8,17.3 44,24.2 				"/>
			</g>
			<g>
				<polygon class="st8" points="40.1,17.3 51.8,10.5 55.8,12.8 44,19.6 				"/>
			</g>
			<g>
				<polygon class="st8" points="44,19.6 44,24.2 40.1,21.9 40.1,17.3 				"/>
			</g>
		</g>
		<g class="st3">
			<g>
				<polygon class="st6" points="48,31 59.8,24.2 59.7,28.7 48,35.5 				"/>
			</g>
			<g>
				<polygon class="st6" points="44,28.7 55.8,21.9 59.8,24.2 48,31 				"/>
			</g>
			<g>
				<polygon class="st6" points="48,31 48,35.5 44,33.3 44,28.7 				"/>
			</g>
		</g>
		<g class="st3">
			<g>
				<polygon class="st7" points="51.9,42.4 63.7,35.5 63.7,40.1 51.9,46.9 				"/>
			</g>
			<g>
				<polygon class="st7" points="47.9,40.1 59.7,33.2 63.7,35.5 51.9,42.4 				"/>
			</g>
			<g>
				<polygon class="st7" points="51.9,42.4 51.9,46.9 48,44.6 47.9,44.6 47.9,40.1 				"/>
			</g>
		</g>
		<g class="st3">
			<g>
				<polygon class="st9" points="63.7,76.5 75.5,69.6 75.5,74.2 63.7,81 				"/>
			</g>
			<g>
				<polygon class="st4" points="59.8,74.2 71.5,67.4 75.5,69.6 63.7,76.5 				"/>
			</g>
			<g>
				<polygon class="st4" points="63.7,76.5 63.7,81 59.7,78.8 59.8,74.2 				"/>
			</g>
			<g>
				<polygon class="st9" points="63.7,72 75.5,65.1 75.5,69.6 63.7,76.5 				"/>
			</g>
			<g>
				<polygon class="st5" points="59.8,69.7 71.5,62.8 75.5,65.1 63.7,72 				"/>
			</g>
			<g>
				<polygon class="st4" points="63.7,72 63.7,76.5 59.8,74.2 59.8,69.7 				"/>
			</g>
			<g>
				<polygon class="st4" points="59.8,65.1 59.8,69.7 55.8,67.4 55.8,62.8 				"/>
			</g>
			<g>
				<polygon class="st9" points="59.8,65.1 71.6,58.3 71.5,62.8 59.8,69.7 				"/>
			</g>
			<g>
				<polygon class="st4" points="55.8,62.8 67.6,56 71.6,58.3 59.8,65.1 				"/>
			</g>
			<g>
				<polygon class="st9" points="59.8,60.6 71.6,53.7 71.6,58.3 59.8,65.1 				"/>
			</g>
			<g>
				<polygon class="st4" points="55.8,58.3 67.6,51.5 71.6,53.7 59.8,60.6 				"/>
			</g>
			<g>
				<polygon class="st4" points="59.8,60.6 59.8,65.1 55.8,62.8 55.8,58.3 				"/>
			</g>
			<g>
				<polygon class="st7" points="55.8,53.8 67.6,46.9 67.6,51.5 55.8,58.3 				"/>
			</g>
			<g>
				<polygon class="st7" points="51.9,51.5 63.7,44.6 67.6,46.9 55.8,53.8 				"/>
			</g>
			<g>
				<polygon class="st7" points="55.8,53.8 55.8,58.3 51.9,56 51.9,51.5 				"/>
			</g>
		</g>
		<g class="st3">
			<g>
				<polygon class="st8" points="44,15.1 55.8,8.2 55.8,12.8 44,19.6 				"/>
			</g>
			<g>
				<polygon class="st8" points="40.1,12.8 51.9,6 55.8,8.2 44,15.1 				"/>
			</g>
			<g>
				<polygon class="st8" points="44,15.1 44,19.6 40.1,17.3 40.1,12.8 				"/>
			</g>
		</g>
		<g class="st3">
			<g>
				<polygon class="st7" points="48,26.5 59.8,19.6 59.8,24.2 48,31 				"/>
			</g>
			<g>
				<polygon class="st7" points="44,24.2 55.8,17.3 59.8,19.6 48,26.5 				"/>
			</g>
			<g>
				<polygon class="st7" points="48,26.5 48,31 44,28.7 44,24.2 				"/>
			</g>
		</g>
		<g class="st3">
			<g>
				<polygon class="st9" points="44,10.5 55.8,3.7 55.8,8.2 44,15.1 				"/>
			</g>
			<g>
				<polygon class="st5" points="40.1,8.3 51.9,1.4 55.8,3.7 44,10.5 				"/>
			</g>
			<g>
				<polygon class="st4" points="44,10.5 44,15.1 40.1,12.8 40.1,8.3 				"/>
			</g>
		</g>
		<g class="st3">
			<g>
				<polygon class="st9" points="48,21.9 59.8,15.1 59.8,19.6 48,26.5 				"/>
			</g>
			<g>
				<polygon class="st4" points="44,19.6 55.8,12.8 59.8,15.1 48,21.9 				"/>
			</g>
			<g>
				<polygon class="st4" points="48,21.9 48,26.5 44,24.2 44,19.6 				"/>
			</g>
		</g>
		<g class="st3">
			<g>
				<polygon class="st6" points="59.8,56 71.6,49.2 71.6,53.7 59.8,60.6 				"/>
			</g>
			<g>
				<polygon class="st6" points="55.8,53.8 67.6,46.9 71.6,49.2 59.8,56 				"/>
			</g>
			<g>
				<polygon class="st6" points="59.8,56 59.8,60.6 55.8,58.3 55.8,53.8 				"/>
			</g>
			<g>
				<polygon class="st7" points="51.9,46.9 63.7,40.1 67.6,42.3 55.8,49.2 				"/>
			</g>
			<g>
				<polygon class="st7" points="55.9,49.2 67.6,42.4 67.6,46.9 55.8,53.8 				"/>
			</g>
			<g>
				<polygon class="st7" points="55.8,49.2 67.6,42.3 67.6,42.4 55.9,49.2 				"/>
			</g>
			<g>
				<polygon class="st7" points="55.9,49.2 55.8,53.8 51.9,51.5 51.9,46.9 55.8,49.2 				"/>
			</g>
			<g>
				<polygon class="st7" points="55.8,44.7 55.8,49.2 51.9,46.9 51.9,46.9 51.9,42.4 				"/>
			</g>
			<g>
				<polygon class="st7" points="55.8,44.7 67.6,37.8 67.6,42.3 55.8,49.2 				"/>
			</g>
			<g>
				<polygon class="st7" points="51.9,42.4 63.7,35.5 67.6,37.8 55.8,44.7 				"/>
			</g>
			<g>
				<polygon class="st6" points="51.9,37.8 63.7,31 63.7,35.5 51.9,42.4 				"/>
			</g>
			<g>
				<polygon class="st6" points="48,35.5 59.7,28.7 63.7,31 51.9,37.8 				"/>
			</g>
			<g>
				<polygon class="st6" points="51.9,37.8 51.9,42.4 47.9,40.1 48,35.5 				"/>
			</g>
			<g>
				<polygon class="st9" points="51.9,33.3 63.7,26.4 63.7,31 51.9,37.8 				"/>
			</g>
			<g>
				<polygon class="st4" points="48,31 59.8,24.2 63.7,26.4 51.9,33.3 				"/>
			</g>
			<g>
				<polygon class="st4" points="51.9,33.3 51.9,37.8 48,35.5 48,31 				"/>
			</g>
		</g>
		<g class="st3">
			<g>
				<polygon class="st9" points="51.9,28.7 63.7,21.9 63.7,26.4 51.9,33.3 				"/>
			</g>
			<g>
				<polygon class="st5" points="48,26.5 59.8,19.6 63.7,21.9 51.9,28.7 				"/>
			</g>
			<g>
				<polygon class="st4" points="51.9,28.7 51.9,33.3 48,31 48,26.5 				"/>
			</g>
		</g>
		<g class="st3">
			<g>
				<polygon class="st4" points="55.9,40.1 67.6,33.3 67.6,37.8 55.8,44.7 				"/>
			</g>
			<g>
				<polygon class="st5" points="51.9,37.8 63.7,31 67.6,33.3 55.9,40.1 				"/>
			</g>
			<g>
				<polygon class="st4" points="55.9,40.1 55.8,44.7 51.9,42.4 51.9,37.8 				"/>
			</g>
		</g>
		<g class="st3">
			<g>
				<polygon class="st9" points="63.8,58.3 75.5,51.5 75.5,56 63.7,62.9 				"/>
			</g>
			<g>
				<polygon class="st4" points="59.8,56 71.6,49.2 75.5,51.5 63.8,58.3 				"/>
			</g>
			<g>
				<polygon class="st4" points="63.8,58.3 63.7,62.9 59.8,60.6 59.8,56 				"/>
			</g>
			<g>
				<polygon class="st7" points="55.9,49.2 67.6,42.4 71.6,44.6 59.8,51.5 				"/>
			</g>
			<g>
				<polygon class="st7" points="59.8,51.5 71.6,44.6 71.6,44.6 59.8,51.5 				"/>
			</g>
			<g>
				<polygon class="st7" points="59.8,51.5 71.6,44.6 71.6,49.2 59.8,56 				"/>
			</g>
			<g>
				<polygon class="st7" points="59.8,51.5 59.8,56 55.8,53.8 55.9,49.2 59.8,51.5 				"/>
			</g>
			<g>
				<polygon class="st6" points="59.8,51.5 71.6,44.6 75.5,46.9 63.7,53.8 				"/>
			</g>
			<g>
				<polygon class="st6" points="63.8,53.8 75.5,46.9 75.5,51.5 63.8,58.3 				"/>
			</g>
			<g>
				<polygon class="st6" points="63.8,53.8 63.8,58.3 59.8,56 59.8,51.5 63.7,53.8 				"/>
			</g>
			<g>
				<polygon class="st6" points="63.7,53.8 75.5,46.9 75.5,46.9 63.8,53.8 				"/>
			</g>
			<g>
				<polygon class="st7" points="59.8,46.9 71.6,40.1 71.6,44.6 59.8,51.5 				"/>
			</g>
			<g>
				<polygon class="st7" points="59.8,46.9 59.8,51.5 55.9,49.2 55.8,49.2 55.8,44.7 				"/>
			</g>
			<g>
				<polygon class="st7" points="55.8,44.7 67.6,37.8 71.6,40.1 59.8,46.9 				"/>
			</g>
			<g>
				<polygon class="st7" points="63.8,49.2 63.7,53.8 59.8,51.5 59.8,51.5 59.8,46.9 				"/>
			</g>
			<g>
				<polygon class="st7" points="63.8,49.2 75.5,42.4 75.5,46.9 63.7,53.8 				"/>
			</g>
			<g>
				<polygon class="st7" points="59.8,46.9 71.6,40.1 75.5,42.4 63.8,49.2 				"/>
			</g>
			<g>
				<polygon class="st4" points="59.8,42.4 71.6,35.5 71.6,40.1 59.8,46.9 				"/>
			</g>
			<g>
				<polygon class="st5" points="55.9,40.1 67.6,33.3 71.6,35.5 59.8,42.4 				"/>
			</g>
			<g>
				<polygon class="st4" points="59.8,42.4 59.8,46.9 55.8,44.7 55.9,40.1 				"/>
			</g>
		</g>
		<g class="st3">
			<g>
				<polygon class="st4" points="63.8,44.7 75.6,37.8 75.5,42.4 63.8,49.2 				"/>
			</g>
			<g>
				<polygon class="st5" points="59.8,42.4 71.6,35.5 75.6,37.8 63.8,44.7 				"/>
			</g>
			<g>
				<polygon class="st4" points="63.8,44.7 63.8,49.2 59.8,46.9 59.8,42.4 				"/>
			</g>
		</g>
		<g class="st3">
			<g>
				<polygon class="st4" points="63.8,53.8 75.5,46.9 79.5,49.2 67.7,56 				"/>
			</g>
			<g>
				<polygon class="st9" points="67.7,56.1 79.5,49.2 79.5,53.8 67.7,60.6 				"/>
			</g>
			<g>
				<polygon class="st4" points="67.7,56 79.5,49.2 79.5,49.2 67.7,56.1 				"/>
			</g>
			<g>
				<polygon class="st4" points="67.7,56.1 67.7,60.6 63.8,58.3 63.8,53.8 67.7,56 				"/>
			</g>
		</g>
		<g class="st3">
			<g>
				<polygon class="st6" points="67.7,51.5 79.5,44.7 79.5,49.2 67.7,56 				"/>
			</g>
			<g>
				<polygon class="st6" points="63.8,49.2 75.5,42.4 79.5,44.7 67.7,51.5 				"/>
			</g>
			<g>
				<polygon class="st6" points="67.7,51.5 67.7,56 63.8,53.8 63.7,53.8 63.8,49.2 				"/>
			</g>
		</g>
		<g class="st3">
			<g>
				<polygon class="st4" points="67.7,47 79.5,40.1 79.5,44.7 67.7,51.5 				"/>
			</g>
			<g>
				<polygon class="st5" points="63.8,44.7 75.6,37.8 79.5,40.1 67.7,47 				"/>
			</g>
			<g>
				<polygon class="st4" points="67.7,47 67.7,51.5 63.8,49.2 63.8,44.7 				"/>
			</g>
		</g>
		<g class="st3">
			<g>
				<polygon class="st9" points="71.7,53.8 83.4,46.9 83.4,51.5 71.7,58.3 				"/>
			</g>
			<g>
				<polygon class="st4" points="67.7,51.5 79.5,44.7 83.4,46.9 71.7,53.8 				"/>
			</g>
			<g>
				<polygon class="st4" points="71.7,53.8 71.7,58.3 67.7,56.1 67.7,56 67.7,51.5 				"/>
			</g>
		</g>
		<g class="st3">
			<g>
				<polygon class="st9" points="71.7,49.2 83.5,42.4 83.4,46.9 71.7,53.8 				"/>
			</g>
			<g>
				<polygon class="st5" points="67.7,47 79.5,40.1 83.5,42.4 71.7,49.2 				"/>
			</g>
			<g>
				<polygon class="st4" points="71.7,49.2 71.7,53.8 67.7,51.5 67.7,47 				"/>
			</g>
		</g>
		<g class="st3">
			<g>
				<polygon class="st9" points="48,17.4 59.8,10.5 59.8,15.1 48,21.9 				"/>
			</g>
			<g>
				<polygon class="st5" points="44,15.1 55.8,8.2 59.8,10.5 48,17.4 				"/>
			</g>
			<g>
				<polygon class="st4" points="48,17.4 48,21.9 44,19.6 44,15.1 				"/>
			</g>
		</g>
	</g>
</g>
</svg>
