<?xml version="1.0" encoding="utf-8"?>
<!-- Generator: Adobe Illustrator 23.0.1, SVG Export Plug-In . SVG Version: 6.00 Build 0)  -->
<svg version="1.1" id="Слой_1" xmlns="http://www.w3.org/2000/svg" xmlns:xlink="http://www.w3.org/1999/xlink" x="0px" y="0px"
	 viewBox="0 0 93.9 93.9" style="enable-background:new 0 0 93.9 93.9;" xml:space="preserve">
<style type="text/css">
	.st0{display:none;}
	.st1{display:inline;}
	.st2{fill:#FFFFFF;}
	.st3{enable-background:new    ;}
	.st4{fill:#D34435;}
	.st5{fill:#BB3416;}
	.st6{fill:#A01C07;}
	.st7{fill:#8E969B;}
	.st8{fill:#ACB2B5;}
	.st9{fill:#737E84;}
	.st10{fill:#D2D6D8;}
	.st11{fill:#EAEAEA;}
</style>
<g class="st0">
	<g id="OBJECTS" class="st1">
		<g>
			<path class="st2" d="M29.1,31.3c2.5-3,4.4-5.3,6.6-7.9c3.5,2.4,7,4.8,10.6,7.1c12.1,7.9,25,13.8,39.2,16.7
				c4.4,0.9,7.6-0.7,8.3-4.3c0.7-3.3-1.4-6.2-5.7-7.1c-16.6-3.5-30.9-11.7-44.8-21.6c2.1-2.6,4.2-5.1,6.6-8.2
				C39,4.3,28.6,2.5,17.7,0.7C21.5,11,25.2,20.9,29.1,31.3z"/>
			<path class="st2" d="M0,62.3c0,8.2,0,16.4,0,24.5c0,5.7,2,7.7,7.7,7.8c1.2,0,2.5,0.1,3.7,0c3.9-0.3,6.2-2.4,6.2-6.3
				c0.1-17.3,0.1-34.7,0-52c0-3.9-2.3-6-6.2-6.3C9.9,30,8.5,30,7,30.1c-4.7,0.1-6.9,2.3-7,7C0,45.5,0,53.9,0,62.3z"/>
			<path class="st2" d="M23.5,68.4c0,6.3,0,12.7,0,19c0,5,2.2,7.1,7.2,7.2c1.5,0,2.9,0.1,4.4,0c3.7-0.3,6-2.4,6-6.1
				c0.1-13.5,0.1-27.1,0-40.6c0-3.7-2.3-5.8-6-6c-1.6-0.1-3.2-0.1-4.8,0c-4.5,0.2-6.7,2.3-6.8,6.8C23.5,55.2,23.5,61.8,23.5,68.4z"
				/>
			<path class="st2" d="M64.6,73.9c0-4.5,0.1-9,0-13.5c-0.1-4.5-2.3-6.7-6.8-6.8c-1.6,0-3.2-0.1-4.8,0c-3.7,0.3-6,2.3-6,6
				c-0.1,9.6-0.1,19.3,0,28.9c0,3.7,2.3,5.8,6,6.1c1.7,0.1,3.4,0.1,5.1,0c4.1-0.2,6.3-2.3,6.4-6.4C64.7,83.4,64.6,78.7,64.6,73.9z"
				/>
			<path class="st2" d="M88.1,79.7c0-2.7,0.1-5.4,0-8c-0.2-4.1-2.3-6.2-6.4-6.4c-1.6-0.1-3.2-0.1-4.8,0c-3.9,0.2-6.2,2.3-6.3,6.1
				c-0.2,5.7-0.2,11.4,0,17.2c0.1,3.7,2.3,5.8,6.1,6c1.8,0.1,3.7,0.1,5.5,0c3.7-0.3,5.8-2.4,6-6.1C88.2,85.6,88.1,82.6,88.1,79.7z"
				/>
		</g>
	</g>
	<g id="DESIGNED_BY_FREEPIK" class="st1">
	</g>
</g>
<g>
	<g>
		<g class="st3">
			<g>
				<polygon class="st4" points="6.5,65.7 22.6,56.4 22.5,62.6 6.4,71.9 				"/>
			</g>
			<g>
				<polygon class="st4" points="1.1,62.6 17.1,53.3 22.6,56.4 6.5,65.7 				"/>
			</g>
			<g>
				<polygon class="st4" points="6.5,65.7 6.4,71.9 1,68.8 1.1,62.6 				"/>
			</g>
			<g>
				<polygon class="st5" points="6.5,65.7 22.6,56.4 28,59.5 11.9,68.9 				"/>
			</g>
			<g>
				<polygon class="st6" points="11.9,68.9 28,59.5 27.9,65.7 11.9,75.1 				"/>
			</g>
			<g>
				<polygon class="st5" points="11.9,68.9 11.9,75.1 6.4,71.9 6.5,65.7 				"/>
			</g>
			<g>
				<polygon class="st5" points="6.5,59.5 22.6,50.2 22.6,56.4 6.5,65.7 				"/>
			</g>
			<g>
				<polygon class="st5" points="6.5,59.5 6.5,65.7 1.1,62.6 1.1,56.4 				"/>
			</g>
			<g>
				<polygon class="st4" points="1.1,56.4 17.2,47.1 22.6,50.2 6.5,59.5 				"/>
			</g>
			<g>
				<polygon class="st4" points="11.9,62.6 11.9,68.9 6.5,65.7 6.5,59.5 				"/>
			</g>
			<g>
				<polygon class="st4" points="11.9,62.6 28,53.3 28,59.5 11.9,68.9 				"/>
			</g>
			<g>
				<polygon class="st4" points="6.5,59.5 22.6,50.2 28,53.3 11.9,62.6 				"/>
			</g>
		</g>
		<g class="st3">
			<g>
				<polygon class="st5" points="11.9,56.4 28,47.1 28,53.3 11.9,62.6 				"/>
			</g>
			<g>
				<polygon class="st4" points="6.5,53.3 22.6,44 28,47.1 11.9,56.4 				"/>
			</g>
			<g>
				<polygon class="st5" points="11.9,56.4 11.9,62.6 6.5,59.5 6.5,53.3 				"/>
			</g>
		</g>
		<g class="st3">
			<g>
				<polygon class="st6" points="17.3,65.8 33.4,56.4 33.3,62.6 17.3,72 				"/>
			</g>
			<g>
				<polygon class="st5" points="11.9,62.6 28,53.3 33.4,56.4 17.3,65.8 				"/>
			</g>
			<g>
				<polygon class="st5" points="17.3,65.8 17.3,72 11.9,68.9 11.9,62.6 				"/>
			</g>
		</g>
		<g class="st3">
			<g>
				<polygon class="st4" points="17.3,59.6 33.4,50.2 33.4,56.4 17.3,65.8 				"/>
			</g>
			<g>
				<polygon class="st4" points="11.9,56.4 28,47.1 33.4,50.2 17.3,59.6 				"/>
			</g>
			<g>
				<polygon class="st4" points="17.3,59.6 17.3,65.8 11.9,62.6 11.9,56.4 				"/>
			</g>
		</g>
		<g class="st3">
			<g>
				<polygon class="st5" points="17.3,53.3 33.4,44 33.4,50.2 17.3,59.6 				"/>
			</g>
			<g>
				<polygon class="st4" points="11.9,50.2 28,40.9 33.4,44 17.3,53.3 				"/>
			</g>
			<g>
				<polygon class="st5" points="17.3,53.3 17.3,59.6 11.9,56.4 11.9,50.2 				"/>
			</g>
		</g>
		<g class="st3">
			<g>
				<polygon class="st6" points="22.7,62.7 38.8,53.3 38.8,59.5 22.7,68.9 				"/>
			</g>
			<g>
				<polygon class="st5" points="17.3,59.6 33.4,50.2 38.8,53.3 22.7,62.7 				"/>
			</g>
			<g>
				<polygon class="st5" points="22.7,62.7 22.7,68.9 17.3,65.8 17.3,59.6 				"/>
			</g>
		</g>
		<g class="st3">
			<g>
				<polygon class="st7" points="22.7,56.5 38.8,47.1 38.8,53.3 22.7,62.7 				"/>
			</g>
			<g>
				<polygon class="st7" points="17.3,53.3 33.4,44 38.8,47.1 22.7,56.5 				"/>
			</g>
			<g>
				<polygon class="st7" points="22.7,56.5 22.7,62.7 17.3,59.6 17.3,53.3 				"/>
			</g>
		</g>
		<g class="st3">
			<g>
				<polygon class="st7" points="22.7,50.3 38.8,40.9 38.8,47.1 22.7,56.5 				"/>
			</g>
			<g>
				<polygon class="st7" points="17.3,47.1 33.4,37.8 38.8,40.9 22.7,50.3 				"/>
			</g>
			<g>
				<polygon class="st7" points="22.7,50.3 22.7,56.5 17.3,53.3 17.3,47.1 				"/>
			</g>
			<g>
				<polygon class="st8" points="6.6,28.5 22.7,19.2 28,22.3 11.9,31.6 				"/>
			</g>
			<g>
				<polygon class="st8" points="12,31.6 28.1,22.3 28,28.5 12,37.8 				"/>
			</g>
			<g>
				<polygon class="st8" points="12,31.6 12,37.8 6.6,34.7 6.6,28.5 11.9,31.6 				"/>
			</g>
			<g>
				<polygon class="st8" points="11.9,31.6 28,22.3 28.1,22.3 12,31.6 				"/>
			</g>
			<g>
				<polygon class="st9" points="12,31.6 28.1,22.3 33.4,25.4 17.4,34.7 				"/>
			</g>
			<g>
				<polygon class="st9" points="17.4,34.7 33.5,25.4 33.4,31.6 17.4,40.9 				"/>
			</g>
			<g>
				<polygon class="st9" points="17.4,34.7 17.4,40.9 12,37.8 12,31.6 17.4,34.7 				"/>
			</g>
			<g>
				<polygon class="st9" points="17.4,34.7 33.4,25.4 33.5,25.4 17.4,34.7 				"/>
			</g>
			<g>
				<polygon class="st10" points="12,25.4 28,16.1 33.5,19.2 17.4,28.5 				"/>
			</g>
			<g>
				<polygon class="st8" points="17.4,28.5 17.4,34.7 12,31.6 11.9,31.6 12,25.4 				"/>
			</g>
			<g>
				<polygon class="st8" points="17.4,28.5 33.5,19.2 33.4,25.4 17.4,34.7 				"/>
			</g>
		</g>
		<g class="st3">
			<g>
				<polygon class="st7" points="22.8,44.1 38.8,34.7 38.8,40.9 22.7,50.3 				"/>
			</g>
			<g>
				<polygon class="st7" points="17.4,40.9 33.4,31.6 38.8,34.7 22.8,44.1 				"/>
			</g>
			<g>
				<polygon class="st7" points="22.8,44.1 22.7,50.3 17.3,47.1 17.4,40.9 				"/>
			</g>
		</g>
		<g class="st3">
			<g>
				<polygon class="st9" points="28.1,59.6 44.2,50.2 44.2,56.4 28.1,65.8 				"/>
			</g>
			<g>
				<polygon class="st9" points="28.1,59.6 28.1,65.8 22.7,62.7 22.7,56.5 				"/>
			</g>
			<g>
				<polygon class="st9" points="22.7,56.5 38.8,47.1 44.2,50.2 28.1,59.6 				"/>
			</g>
			<g>
				<polygon class="st9" points="28.1,59.6 44.2,50.2 49.6,53.3 33.5,62.7 				"/>
			</g>
			<g>
				<polygon class="st9" points="33.5,62.7 49.6,53.3 49.6,59.6 33.5,68.9 				"/>
			</g>
			<g>
				<polygon class="st9" points="33.5,62.7 33.5,68.9 28.1,65.8 28.1,59.6 				"/>
			</g>
		</g>
		<g class="st3">
			<g>
				<polygon class="st9" points="44.3,81.3 60.4,72 60.3,78.2 44.3,87.6 				"/>
			</g>
			<g>
				<polygon class="st7" points="38.9,78.2 55,68.9 60.4,72 44.3,81.3 				"/>
			</g>
			<g>
				<polygon class="st7" points="44.3,81.3 44.3,87.6 38.9,84.4 38.9,78.2 				"/>
			</g>
		</g>
		<g class="st3">
			<g>
				<polygon class="st10" points="17.4,34.7 33.5,25.4 38.8,28.5 22.8,37.8 				"/>
			</g>
			<g>
				<polygon class="st7" points="22.8,37.9 38.9,28.5 38.8,34.7 22.8,44.1 				"/>
			</g>
			<g>
				<polygon class="st7" points="22.8,37.8 38.8,28.5 38.9,28.5 22.8,37.9 				"/>
			</g>
			<g>
				<polygon class="st7" points="22.8,37.9 22.8,44.1 17.4,40.9 17.4,34.7 22.8,37.8 				"/>
			</g>
		</g>
		<g class="st3">
			<g>
				<polygon class="st4" points="28.1,53.4 44.2,44 44.2,50.2 28.1,59.6 				"/>
			</g>
			<g>
				<polygon class="st4" points="22.7,50.3 38.8,40.9 44.2,44 28.1,53.4 				"/>
			</g>
			<g>
				<polygon class="st4" points="28.1,53.4 28.1,59.6 22.7,56.5 22.7,50.3 				"/>
			</g>
		</g>
		<g class="st3">
			<g>
				<polygon class="st8" points="28.2,47.2 44.3,37.8 44.2,44 28.1,53.4 				"/>
			</g>
			<g>
				<polygon class="st8" points="22.8,44.1 38.8,34.7 44.3,37.8 28.2,47.2 				"/>
			</g>
			<g>
				<polygon class="st8" points="28.2,47.2 28.1,53.4 22.7,50.3 22.8,44.1 				"/>
			</g>
		</g>
		<g class="st3">
			<g>
				<polygon class="st2" points="22.8,37.9 38.9,28.5 44.2,31.6 28.1,41 				"/>
			</g>
			<g>
				<polygon class="st2" points="28.2,41 44.3,31.6 44.3,37.8 28.2,47.2 				"/>
			</g>
			<g>
				<polygon class="st2" points="28.1,41 44.2,31.6 44.3,31.6 28.2,41 				"/>
			</g>
			<g>
				<polygon class="st11" points="28.2,41 28.2,47.2 22.8,44.1 22.8,37.9 28.1,41 				"/>
			</g>
		</g>
		<g class="st3">
			<g>
				<polygon class="st7" points="38.9,72 55,62.7 55,68.9 38.9,78.2 				"/>
			</g>
			<g>
				<polygon class="st7" points="33.5,68.9 49.6,59.6 55,62.7 38.9,72 				"/>
			</g>
			<g>
				<polygon class="st7" points="38.9,72 38.9,78.2 33.5,75.1 33.5,68.9 				"/>
			</g>
			<g>
				<polygon class="st7" points="38.9,65.8 55,56.5 55,62.7 38.9,72 				"/>
			</g>
			<g>
				<polygon class="st7" points="33.5,62.7 49.6,53.3 55,56.5 38.9,65.8 				"/>
			</g>
			<g>
				<polygon class="st7" points="38.9,65.8 38.9,72 33.5,68.9 33.5,62.7 				"/>
			</g>
			<g>
				<polygon class="st7" points="33.5,56.5 33.5,62.7 28.1,59.6 28.1,53.4 				"/>
			</g>
			<g>
				<polygon class="st7" points="33.5,56.5 49.6,47.1 49.6,53.3 33.5,62.7 				"/>
			</g>
			<g>
				<polygon class="st2" points="33.5,56.5 49.6,47.1 55,50.3 38.9,59.6 				"/>
			</g>
			<g>
				<polygon class="st7" points="28.1,53.4 44.2,44 49.6,47.1 33.5,56.5 				"/>
			</g>
			<g>
				<polygon class="st11" points="38.9,59.6 38.9,65.8 33.5,62.7 33.5,56.5 				"/>
			</g>
			<g>
				<polygon class="st10" points="38.9,59.6 55,50.3 55,56.5 38.9,65.8 				"/>
			</g>
			<g>
				<polygon class="st7" points="33.6,50.3 49.7,40.9 49.6,47.1 33.5,56.5 				"/>
			</g>
			<g>
				<polygon class="st10" points="33.6,50.3 49.7,40.9 55,44.1 39,53.4 				"/>
			</g>
			<g>
				<polygon class="st7" points="28.2,47.2 44.3,37.8 49.7,40.9 33.6,50.3 				"/>
			</g>
			<g>
				<polygon class="st7" points="33.6,50.3 33.5,56.5 28.1,53.4 28.2,47.2 				"/>
			</g>
			<g>
				<polygon class="st10" points="39,53.4 55,44.1 55,50.3 38.9,59.6 				"/>
			</g>
			<g>
				<polygon class="st10" points="39,53.4 38.9,59.6 33.5,56.5 33.6,50.3 				"/>
			</g>
			<g>
				<polygon class="st10" points="28.2,41 44.3,31.6 49.6,34.7 33.5,44.1 				"/>
			</g>
			<g>
				<polygon class="st10" points="33.6,44.1 33.6,50.3 28.2,47.2 28.2,41 33.5,44.1 				"/>
			</g>
			<g>
				<polygon class="st10" points="33.5,44.1 49.6,34.7 49.7,34.7 33.6,44.1 				"/>
			</g>
			<g>
				<polygon class="st10" points="33.6,44.1 49.7,34.7 49.7,40.9 33.6,50.3 				"/>
			</g>
			<g>
				<polygon class="st7" points="33.6,44.1 49.7,34.7 55,37.8 39,47.2 				"/>
			</g>
			<g>
				<polygon class="st7" points="39,47.2 55.1,37.9 55,44.1 39,53.4 				"/>
			</g>
			<g>
				<polygon class="st7" points="39,47.2 39,53.4 33.6,50.3 33.6,44.1 39,47.2 				"/>
			</g>
			<g>
				<polygon class="st7" points="39,47.2 55,37.8 55.1,37.9 39,47.2 				"/>
			</g>
			<g>
				<polygon class="st2" points="33.6,37.9 49.7,28.5 49.6,34.7 33.5,44.1 				"/>
			</g>
			<g>
				<polygon class="st2" points="28.2,34.8 44.3,25.4 49.7,28.5 33.6,37.9 				"/>
			</g>
			<g>
				<polygon class="st11" points="33.6,37.9 33.5,44.1 28.2,41 28.1,41 28.2,34.8 				"/>
			</g>
		</g>
		<g class="st3">
			<g>
				<polygon class="st7" points="44.3,75.1 60.4,65.8 60.4,72 44.3,81.3 				"/>
			</g>
			<g>
				<polygon class="st10" points="38.9,72 55,62.7 60.4,65.8 44.3,75.1 				"/>
			</g>
			<g>
				<polygon class="st7" points="44.3,75.1 44.3,81.3 38.9,78.2 38.9,72 				"/>
			</g>
		</g>
		<g class="st3">
			<g>
				<polygon class="st10" points="39,41 55,31.6 55,37.8 39,47.2 				"/>
			</g>
			<g>
				<polygon class="st10" points="33.6,37.9 49.7,28.5 55,31.6 39,41 				"/>
			</g>
			<g>
				<polygon class="st10" points="39,41 39,47.2 33.6,44.1 33.5,44.1 33.6,37.9 				"/>
			</g>
		</g>
		<g class="st3">
			<g>
				<polygon class="st10" points="44.3,56.5 60.4,47.2 60.4,53.4 44.3,62.7 				"/>
			</g>
			<g>
				<polygon class="st2" points="39,53.4 55,44.1 60.4,47.2 44.3,56.5 				"/>
			</g>
			<g>
				<polygon class="st11" points="44.3,56.5 44.3,62.7 38.9,59.6 39,53.4 				"/>
			</g>
		</g>
		<g class="st3">
			<g>
				<polygon class="st10" points="39,47.2 55.1,37.9 60.4,41 44.3,50.3 				"/>
			</g>
			<g>
				<polygon class="st10" points="44.4,50.3 60.5,41 60.4,47.2 44.3,56.5 				"/>
			</g>
			<g>
				<polygon class="st10" points="44.3,50.3 60.4,41 60.5,41 44.4,50.3 				"/>
			</g>
			<g>
				<polygon class="st10" points="44.4,50.3 44.3,56.5 39,53.4 39,47.2 44.3,50.3 				"/>
			</g>
			<g>
				<polygon class="st2" points="44.4,44.1 44.3,50.3 39,47.2 39,47.2 39,41 				"/>
			</g>
			<g>
				<polygon class="st2" points="44.4,44.1 60.5,34.8 60.4,41 44.3,50.3 				"/>
			</g>
			<g>
				<polygon class="st2" points="39,41 55,31.6 60.5,34.8 44.4,44.1 				"/>
			</g>
			<g>
				<polygon class="st2" points="39,34.8 55.1,25.4 55,31.6 39,41 				"/>
			</g>
			<g>
				<polygon class="st2" points="33.6,31.7 49.7,22.3 55.1,25.4 39,34.8 				"/>
			</g>
			<g>
				<polygon class="st11" points="39,34.8 39,41 33.6,37.9 33.6,31.7 				"/>
			</g>
		</g>
		<g class="st3">
			<g>
				<polygon class="st10" points="44.4,37.9 60.5,28.5 60.5,34.8 44.4,44.1 				"/>
			</g>
			<g>
				<polygon class="st10" points="39,34.8 55.1,25.4 60.5,28.5 44.4,37.9 				"/>
			</g>
			<g>
				<polygon class="st10" points="44.4,37.9 44.4,44.1 39,41 39,34.8 				"/>
			</g>
		</g>
		<g class="st3">
			<g>
				<polygon class="st2" points="44.4,50.3 60.5,41 65.8,44.1 49.8,53.4 				"/>
			</g>
			<g>
				<polygon class="st10" points="49.8,53.5 65.9,44.1 65.9,50.3 49.8,59.7 				"/>
			</g>
			<g>
				<polygon class="st2" points="49.8,53.4 65.8,44.1 65.9,44.1 49.8,53.5 				"/>
			</g>
			<g>
				<polygon class="st11" points="49.8,53.5 49.8,59.7 44.4,56.5 44.4,50.3 49.8,53.4 				"/>
			</g>
		</g>
		<g class="st3">
			<g>
				<polygon class="st2" points="44.4,31.7 60.5,22.3 60.5,28.5 44.4,37.9 				"/>
			</g>
			<g>
				<polygon class="st2" points="39,28.6 55.1,19.2 60.5,22.3 44.4,31.7 				"/>
			</g>
			<g>
				<polygon class="st11" points="44.4,31.7 44.4,37.9 39,34.8 39,28.6 				"/>
			</g>
		</g>
		<g class="st3">
			<g>
				<polygon class="st2" points="49.8,47.2 65.9,37.9 65.8,44.1 49.8,53.4 				"/>
			</g>
			<g>
				<polygon class="st2" points="44.4,44.1 60.5,34.8 65.9,37.9 49.8,47.2 				"/>
			</g>
			<g>
				<polygon class="st2" points="49.8,47.2 49.8,53.4 44.4,50.3 44.4,50.3 44.4,44.1 				"/>
			</g>
		</g>
		<g class="st3">
			<g>
				<polygon class="st7" points="49.8,41 65.9,31.7 65.9,37.9 49.8,47.2 				"/>
			</g>
			<g>
				<polygon class="st7" points="44.4,37.9 60.5,28.6 65.9,31.7 49.8,41 				"/>
			</g>
			<g>
				<polygon class="st7" points="49.8,41 49.8,47.2 44.4,44.1 44.4,37.9 				"/>
			</g>
		</g>
		<g class="st3">
			<g>
				<polygon class="st10" points="49.8,34.8 65.9,25.5 65.9,31.7 49.8,41 				"/>
			</g>
			<g>
				<polygon class="st10" points="44.4,31.7 60.5,22.4 65.9,25.5 49.8,34.8 				"/>
			</g>
			<g>
				<polygon class="st10" points="49.8,34.8 49.8,41 44.4,37.9 44.4,31.7 				"/>
			</g>
		</g>
		<g class="st3">
			<g>
				<polygon class="st10" points="55.2,50.4 71.3,41 71.3,47.2 55.2,56.6 				"/>
			</g>
			<g>
				<polygon class="st2" points="49.8,47.2 65.9,37.9 71.3,41 55.2,50.4 				"/>
			</g>
			<g>
				<polygon class="st11" points="55.2,50.4 55.2,56.6 49.8,53.5 49.8,53.4 49.8,47.2 				"/>
			</g>
		</g>
		<g class="st3">
			<g>
				<polygon class="st10" points="55.2,44.1 71.3,34.8 71.3,41 55.2,50.4 				"/>
			</g>
			<g>
				<polygon class="st10" points="49.8,41 65.9,31.7 71.3,34.8 55.2,44.1 				"/>
			</g>
			<g>
				<polygon class="st10" points="55.2,44.1 55.2,50.4 49.8,47.2 49.8,41 				"/>
			</g>
		</g>
		<g class="st3">
			<g>
				<polygon class="st2" points="49.8,28.6 65.9,19.3 65.9,25.5 49.8,34.8 				"/>
			</g>
			<g>
				<polygon class="st2" points="44.4,25.5 60.5,16.1 65.9,19.3 49.8,28.6 				"/>
			</g>
			<g>
				<polygon class="st11" points="49.8,28.6 49.8,34.8 44.4,31.7 44.4,25.5 				"/>
			</g>
		</g>
		<g class="st3">
			<g>
				<polygon class="st7" points="55.2,37.9 71.3,28.6 71.3,34.8 55.2,44.1 				"/>
			</g>
			<g>
				<polygon class="st7" points="49.8,34.8 65.9,25.5 71.3,28.6 55.2,37.9 				"/>
			</g>
			<g>
				<polygon class="st7" points="55.2,37.9 55.2,44.1 49.8,41 49.8,34.8 				"/>
			</g>
		</g>
		<g class="st3">
			<g>
				<polygon class="st10" points="60.6,47.3 76.7,37.9 76.7,44.1 60.6,53.5 				"/>
			</g>
			<g>
				<polygon class="st2" points="55.2,44.1 71.3,34.8 76.7,37.9 60.6,47.3 				"/>
			</g>
			<g>
				<polygon class="st11" points="60.6,47.3 60.6,53.5 55.2,50.4 55.2,44.1 				"/>
			</g>
		</g>
		<g class="st3">
			<g>
				<polygon class="st2" points="55.2,31.7 71.3,22.4 71.3,28.6 55.2,37.9 				"/>
			</g>
			<g>
				<polygon class="st2" points="49.8,28.6 65.9,19.3 71.3,22.4 55.2,31.7 				"/>
			</g>
			<g>
				<polygon class="st2" points="55.2,31.7 55.2,37.9 49.8,34.8 49.8,28.6 				"/>
			</g>
		</g>
		<g class="st3">
			<g>
				<polygon class="st2" points="55.3,25.5 71.3,16.2 71.3,22.4 55.2,31.7 				"/>
			</g>
			<g>
				<polygon class="st2" points="49.8,22.4 65.9,13.1 71.3,16.2 55.3,25.5 				"/>
			</g>
			<g>
				<polygon class="st11" points="55.3,25.5 55.2,31.7 49.8,28.6 49.8,22.4 				"/>
			</g>
		</g>
		<g class="st3">
			<g>
				<polygon class="st2" points="60.6,41.1 76.7,31.7 76.7,37.9 60.6,47.3 				"/>
			</g>
			<g>
				<polygon class="st2" points="55.2,37.9 71.3,28.6 76.7,31.7 60.6,41.1 				"/>
			</g>
			<g>
				<polygon class="st2" points="60.6,41.1 60.6,47.3 55.2,44.1 55.2,37.9 				"/>
			</g>
		</g>
		<g class="st3">
			<g>
				<polygon class="st7" points="60.6,34.8 76.7,25.5 76.7,31.7 60.6,41.1 				"/>
			</g>
			<g>
				<polygon class="st7" points="55.2,31.7 71.3,22.4 76.7,25.5 60.6,34.8 				"/>
			</g>
			<g>
				<polygon class="st7" points="60.6,34.8 60.6,41.1 55.2,37.9 55.2,31.7 				"/>
			</g>
		</g>
		<g class="st3">
			<g>
				<polygon class="st10" points="66,44.2 82.1,34.8 82.1,41 66,50.4 				"/>
			</g>
			<g>
				<polygon class="st2" points="60.6,41.1 76.7,31.7 82.1,34.8 66,44.2 				"/>
			</g>
			<g>
				<polygon class="st11" points="66,44.2 66,50.4 60.6,47.3 60.6,41.1 				"/>
			</g>
			<g>
				<polygon class="st10" points="66,38 66,44.2 60.6,41.1 60.6,34.8 				"/>
			</g>
			<g>
				<polygon class="st10" points="66,38 82.1,28.6 82.1,34.8 66,44.2 				"/>
			</g>
			<g>
				<polygon class="st10" points="60.6,34.8 76.7,25.5 82.1,28.6 66,38 				"/>
			</g>
			<g>
				<polygon class="st10" points="60.7,28.6 76.7,19.3 76.7,25.5 60.6,34.8 				"/>
			</g>
			<g>
				<polygon class="st10" points="55.3,25.5 71.3,16.2 76.7,19.3 60.7,28.6 				"/>
			</g>
			<g>
				<polygon class="st10" points="60.7,28.6 60.6,34.8 55.2,31.7 55.3,25.5 				"/>
			</g>
		</g>
		<g class="st3">
			<g>
				<polygon class="st2" points="60.7,22.4 76.8,13.1 76.7,19.3 60.7,28.6 				"/>
			</g>
			<g>
				<polygon class="st2" points="55.3,19.3 71.4,10 76.8,13.1 60.7,22.4 				"/>
			</g>
			<g>
				<polygon class="st11" points="60.7,22.4 60.7,28.6 55.3,25.5 55.3,19.3 				"/>
			</g>
		</g>
		<g class="st3">
			<g>
				<polygon class="st10" points="71.4,41.1 87.5,31.7 87.5,37.9 71.4,47.3 				"/>
			</g>
			<g>
				<polygon class="st2" points="66,38 82.1,28.6 87.5,31.7 71.4,41.1 				"/>
			</g>
			<g>
				<polygon class="st11" points="71.4,41.1 71.4,47.3 66,44.2 66,38 				"/>
			</g>
			<g>
				<polygon class="st7" points="60.7,28.6 76.7,19.3 82.1,22.4 66.1,31.8 				"/>
			</g>
			<g>
				<polygon class="st7" points="66.1,31.8 82.1,22.4 82.1,28.6 66,38 				"/>
			</g>
			<g>
				<polygon class="st7" points="66.1,31.8 66,38 60.6,34.8 60.7,28.6 				"/>
			</g>
			<g>
				<polygon class="st10" points="66.1,31.8 82.1,22.4 87.5,25.5 71.4,34.9 				"/>
			</g>
			<g>
				<polygon class="st10" points="71.4,34.9 71.4,41.1 66,38 66.1,31.8 				"/>
			</g>
			<g>
				<polygon class="st10" points="71.4,34.9 87.5,25.5 87.5,31.7 71.4,41.1 				"/>
			</g>
			<g>
				<polygon class="st10" points="66.1,25.6 82.2,16.2 82.1,22.4 66.1,31.8 				"/>
			</g>
			<g>
				<polygon class="st10" points="66.1,25.6 66.1,31.8 60.7,28.6 60.7,22.4 				"/>
			</g>
			<g>
				<polygon class="st10" points="60.7,22.4 76.8,13.1 82.2,16.2 66.1,25.6 				"/>
			</g>
			<g>
				<polygon class="st7" points="71.5,28.7 87.6,19.3 87.5,25.5 71.4,34.9 				"/>
			</g>
			<g>
				<polygon class="st7" points="71.5,28.7 71.4,34.9 66.1,31.8 66.1,25.6 				"/>
			</g>
			<g>
				<polygon class="st7" points="66.1,25.6 82.2,16.2 87.6,19.3 71.5,28.7 				"/>
			</g>
			<g>
				<polygon class="st2" points="66.1,19.3 82.2,10 82.2,16.2 66.1,25.6 				"/>
			</g>
			<g>
				<polygon class="st2" points="60.7,16.2 76.8,6.9 82.2,10 66.1,19.3 				"/>
			</g>
			<g>
				<polygon class="st11" points="66.1,19.3 66.1,25.6 60.7,22.4 60.7,16.2 				"/>
			</g>
		</g>
		<g class="st3">
			<g>
				<polygon class="st2" points="71.5,22.5 87.6,13.1 87.6,19.3 71.5,28.7 				"/>
			</g>
			<g>
				<polygon class="st2" points="66.1,19.3 82.2,10 87.6,13.1 71.5,22.5 				"/>
			</g>
			<g>
				<polygon class="st11" points="71.5,22.5 71.5,28.7 66.1,25.6 66.1,19.3 				"/>
			</g>
		</g>
		<g class="st3">
			<g>
				<polygon class="st10" points="76.8,38 92.9,28.6 92.9,34.8 76.8,44.2 				"/>
			</g>
			<g>
				<polygon class="st2" points="71.4,34.9 87.5,25.5 92.9,28.6 76.8,38 				"/>
			</g>
			<g>
				<polygon class="st11" points="76.8,38 76.8,44.2 71.4,41.1 71.4,34.9 				"/>
			</g>
		</g>
		<g class="st3">
			<g>
				<polygon class="st10" points="76.9,31.8 92.9,22.4 92.9,28.6 76.8,38 				"/>
			</g>
			<g>
				<polygon class="st2" points="71.5,28.7 87.6,19.3 92.9,22.4 76.9,31.8 				"/>
			</g>
			<g>
				<polygon class="st11" points="76.9,31.8 76.8,38 71.4,34.9 71.5,28.7 				"/>
			</g>
		</g>
		<g class="st3">
			<g>
				<polygon class="st10" points="76.9,25.6 93,16.2 92.9,22.4 76.9,31.8 				"/>
			</g>
			<g>
				<polygon class="st2" points="71.5,22.5 87.6,13.1 93,16.2 76.9,25.6 				"/>
			</g>
			<g>
				<polygon class="st11" points="76.9,25.6 76.9,31.8 71.5,28.7 71.5,22.5 				"/>
			</g>
		</g>
		<g class="st3">
			<g>
				<polygon class="st8" points="49.7,78.3 65.8,68.9 65.8,75.1 49.7,84.5 				"/>
			</g>
			<g>
				<polygon class="st10" points="44.3,75.2 60.4,65.8 65.8,68.9 49.7,78.3 				"/>
			</g>
			<g>
				<polygon class="st8" points="49.7,78.3 49.7,84.5 44.3,81.4 44.3,75.2 				"/>
			</g>
		</g>
	</g>
</g>
</svg>
