<?xml version="1.0" encoding="utf-8"?>
<!-- Generator: Adobe Illustrator 23.0.1, SVG Export Plug-In . SVG Version: 6.00 Build 0)  -->
<svg version="1.1" xmlns="http://www.w3.org/2000/svg" xmlns:xlink="http://www.w3.org/1999/xlink" x="0px" y="0px"
	 viewBox="0 0 93.95 93.95" style="enable-background:new 0 0 93.95 93.95;" xml:space="preserve">
<style type="text/css">
	.st0{display:none;}
	.st1{display:inline;fill:#FFFFFF;}
	.st2{enable-background:new    ;}
	.st3{fill:#51585B;}
	.st4{fill:#B7C0C6;}
	.st5{fill:#9DA6AC;}
	.st6{fill:#B4BCBE;}
	.st7{fill:#D3D8DB;}
	.st8{fill:#696F71;}
	.st9{fill:#3F4648;}
	.st10{fill:#838E93;}
	.st11{fill:#9CA5AC;}
</style>
<g id="OBJECTS" class="st0">
	<path class="st1" d="M85.02,18.36c-0.03-0.94-0.4-1.23-1.18-1.41C70.9,14.01,59.15,8.28,48.33,0.41c-0.38-0.27-0.68-0.39-0.98-0.38
		l0,0l0-0.04c-0.3,0.01-0.59,0.17-0.96,0.41c-3.78,2.45-7.52,5.01-11.44,7.2c-7.88,4.4-16.16,7.76-24.95,9.65
		c-0.62,0.13-1.07,0.31-1.09,1.2c-0.19,7.22,0.22,14.34,1.7,21.41c0.66,3.13,1.49,6.23,2.48,9.1h0.05l-0.05,0.08
		c3.36,10.09,8.58,19.2,15.43,27.43c5.3,6.37,11.3,11.92,18.23,16.56l0-0.04c11.57-7.73,20.78-17.77,27.73-30
		c2.57-4.52,4.63-9.06,6.24-13.95h0.03C84.05,39.3,85.41,29.05,85.02,18.36z"/>
</g>
<g id="DESIGNED_BY_FREEPIK">
	<g>
		<g class="st2">
			<g>
				<polygon class="st3" points="20.55,62.1 30.38,56.39 30.37,60.18 20.54,65.89 				"/>
			</g>
			<g>
				<polygon class="st3" points="17.25,60.19 27.08,54.48 30.38,56.39 20.55,62.1 				"/>
			</g>
			<g>
				<polygon class="st3" points="20.55,62.1 20.54,65.89 17.24,63.98 17.25,60.19 				"/>
			</g>
		</g>
		<g class="st2">
			<g>
				<polygon class="st3" points="23.85,64 33.68,58.29 33.67,62.08 23.84,67.79 				"/>
			</g>
			<g>
				<polygon class="st3" points="20.55,62.1 30.38,56.39 33.68,58.29 23.85,64 				"/>
			</g>
			<g>
				<polygon class="st3" points="23.85,64 23.84,67.79 20.54,65.89 20.55,62.1 				"/>
			</g>
			<g>
				<polygon class="st4" points="20.56,58.31 20.55,62.1 17.25,60.19 17.26,56.4 				"/>
			</g>
			<g>
				<polygon class="st4" points="20.56,58.31 30.39,52.6 30.38,56.39 20.55,62.1 				"/>
			</g>
			<g>
				<polygon class="st4" points="17.26,56.4 27.09,50.69 30.39,52.6 20.56,58.31 				"/>
			</g>
			<g>
				<polygon class="st5" points="20.57,54.52 30.4,48.81 30.39,52.6 20.56,58.31 				"/>
			</g>
			<g>
				<polygon class="st5" points="17.27,52.61 27.1,46.9 30.4,48.81 20.57,54.52 				"/>
			</g>
			<g>
				<polygon class="st5" points="20.57,54.52 20.56,58.31 17.26,56.4 17.27,52.61 				"/>
			</g>
		</g>
		<g class="st2">
			<g>
				<polygon class="st3" points="27.15,65.91 36.98,60.2 36.97,63.99 27.14,69.7 				"/>
			</g>
			<g>
				<polygon class="st3" points="23.85,64 33.68,58.29 36.98,60.2 27.15,65.91 				"/>
			</g>
			<g>
				<polygon class="st3" points="27.15,65.91 27.14,69.7 23.84,67.79 23.85,64 				"/>
			</g>
			<g>
				<polygon class="st4" points="23.86,60.21 33.69,54.5 33.68,58.29 23.85,64 				"/>
			</g>
			<g>
				<polygon class="st4" points="20.56,58.31 30.39,52.6 33.69,54.5 23.86,60.21 				"/>
			</g>
			<g>
				<polygon class="st4" points="23.86,60.21 23.85,64 20.55,62.1 20.56,58.31 				"/>
			</g>
			<g>
				<polygon class="st3" points="27.16,62.12 27.15,65.91 23.85,64 23.86,60.21 				"/>
			</g>
			<g>
				<polygon class="st3" points="27.16,62.12 36.99,56.41 36.98,60.2 27.15,65.91 				"/>
			</g>
			<g>
				<polygon class="st3" points="23.86,60.21 33.69,54.5 36.99,56.41 27.16,62.12 				"/>
			</g>
			<g>
				<polygon class="st5" points="23.87,56.42 23.86,60.21 20.56,58.31 20.57,54.52 				"/>
			</g>
			<g>
				<polygon class="st5" points="23.87,56.42 33.7,50.71 33.69,54.5 23.86,60.21 				"/>
			</g>
			<g>
				<polygon class="st5" points="20.57,54.52 30.4,48.81 33.7,50.71 23.87,56.42 				"/>
			</g>
			<g>
				<polygon class="st3" points="20.58,50.72 30.41,45.01 30.4,48.81 20.57,54.52 				"/>
			</g>
			<g>
				<polygon class="st3" points="20.58,50.72 20.57,54.52 17.27,52.61 17.28,48.82 				"/>
			</g>
			<g>
				<polygon class="st3" points="17.28,48.82 27.11,43.1 30.41,45.01 20.58,50.72 				"/>
			</g>
			<g>
				<polygon class="st3" points="20.58,50.72 30.41,45.01 33.71,46.92 23.88,52.63 				"/>
			</g>
			<g>
				<polygon class="st3" points="23.88,52.63 33.71,46.92 33.7,50.71 23.87,56.42 				"/>
			</g>
			<g>
				<polygon class="st3" points="23.88,52.63 23.87,56.42 20.57,54.52 20.58,50.72 				"/>
			</g>
			<g>
				<polygon class="st3" points="20.59,46.93 30.42,41.22 30.41,45.01 20.58,50.72 				"/>
			</g>
			<g>
				<polygon class="st3" points="17.29,45.03 27.12,39.31 30.42,41.22 20.59,46.93 				"/>
			</g>
			<g>
				<polygon class="st3" points="20.59,46.93 20.58,50.72 17.28,48.82 17.29,45.03 				"/>
			</g>
			<g>
				<polygon class="st3" points="20.6,43.14 30.43,37.43 30.42,41.22 20.59,46.93 				"/>
			</g>
			<g>
				<polygon class="st3" points="17.3,41.24 27.13,35.52 30.43,37.43 20.6,43.14 				"/>
			</g>
			<g>
				<polygon class="st3" points="20.6,43.14 20.59,46.93 17.29,45.03 17.3,41.24 				"/>
			</g>
		</g>
		<g class="st2">
			<g>
				<polygon class="st3" points="27.17,58.33 37,52.62 36.99,56.41 27.16,62.12 				"/>
			</g>
			<g>
				<polygon class="st3" points="23.87,56.42 33.7,50.71 37,52.62 27.17,58.33 				"/>
			</g>
			<g>
				<polygon class="st3" points="27.17,58.33 27.16,62.12 23.86,60.21 23.87,56.42 				"/>
			</g>
		</g>
		<g class="st2">
			<g>
				<polygon class="st3" points="30.45,67.82 40.28,62.1 40.27,65.89 30.44,71.61 				"/>
			</g>
			<g>
				<polygon class="st3" points="27.15,65.91 36.98,60.2 40.28,62.1 30.45,67.82 				"/>
			</g>
			<g>
				<polygon class="st3" points="30.45,67.82 30.44,71.61 27.14,69.7 27.15,65.91 				"/>
			</g>
		</g>
		<g class="st2">
			<g>
				<polygon class="st4" points="23.89,48.84 33.72,43.13 33.71,46.92 23.88,52.63 				"/>
			</g>
			<g>
				<polygon class="st4" points="20.59,46.93 30.42,41.22 33.72,43.13 23.89,48.84 				"/>
			</g>
			<g>
				<polygon class="st4" points="23.89,48.84 23.88,52.63 20.58,50.72 20.59,46.93 				"/>
			</g>
			<g>
				<polygon class="st5" points="23.9,45.05 23.89,48.84 20.59,46.93 20.6,43.14 				"/>
			</g>
			<g>
				<polygon class="st5" points="23.9,45.05 33.73,39.34 33.72,43.13 23.89,48.84 				"/>
			</g>
			<g>
				<polygon class="st5" points="20.6,43.14 30.43,37.43 33.73,39.34 23.9,45.05 				"/>
			</g>
			<g>
				<polygon class="st3" points="17.31,37.44 27.14,31.73 30.42,33.62 20.59,39.34 				"/>
			</g>
			<g>
				<polygon class="st3" points="20.61,39.35 30.44,33.64 30.43,37.43 20.6,43.14 				"/>
			</g>
			<g>
				<polygon class="st3" points="20.61,39.35 20.6,43.14 17.3,41.24 17.31,37.44 20.59,39.34 				"/>
			</g>
			<g>
				<polygon class="st3" points="20.59,39.34 30.42,33.62 30.44,33.64 20.61,39.35 				"/>
			</g>
			<g>
				<polygon class="st5" points="20.6,35.55 30.43,29.83 30.42,33.62 20.59,39.34 				"/>
			</g>
			<g>
				<polygon class="st5" points="17.31,33.64 27.14,27.93 30.43,29.83 20.6,35.55 				"/>
			</g>
			<g>
				<polygon class="st5" points="20.6,35.55 20.59,39.34 17.31,37.44 17.29,37.43 17.31,33.64 				"/>
			</g>
		</g>
		<g class="st2">
			<g>
				<polygon class="st3" points="33.75,69.72 43.58,64.01 43.57,67.8 33.74,73.51 				"/>
			</g>
			<g>
				<polygon class="st3" points="30.45,67.82 40.28,62.1 43.58,64.01 33.75,69.72 				"/>
			</g>
			<g>
				<polygon class="st3" points="33.75,69.72 33.74,73.51 30.44,71.61 30.45,67.82 				"/>
			</g>
			<g>
				<polygon class="st4" points="30.46,64.03 40.29,58.31 40.28,62.1 30.45,67.82 				"/>
			</g>
			<g>
				<polygon class="st4" points="27.16,62.12 36.99,56.41 40.29,58.31 30.46,64.03 				"/>
			</g>
			<g>
				<polygon class="st4" points="30.46,64.03 30.45,67.82 27.15,65.91 27.16,62.12 				"/>
			</g>
			<g>
				<polygon class="st4" points="30.47,60.24 30.46,64.03 27.16,62.12 27.17,58.33 				"/>
			</g>
			<g>
				<polygon class="st4" points="30.47,60.24 40.3,54.52 40.29,58.31 30.46,64.03 				"/>
			</g>
			<g>
				<polygon class="st4" points="27.17,58.33 37,52.62 40.3,54.52 30.47,60.24 				"/>
			</g>
			<g>
				<polygon class="st3" points="27.18,54.53 37.01,48.82 37,52.62 27.17,58.33 				"/>
			</g>
			<g>
				<polygon class="st3" points="23.88,52.63 33.71,46.92 37.01,48.82 27.18,54.53 				"/>
			</g>
			<g>
				<polygon class="st3" points="27.18,54.53 27.17,58.33 23.87,56.42 23.88,52.63 				"/>
			</g>
		</g>
		<g class="st2">
			<g>
				<polygon class="st4" points="20.61,31.76 30.44,26.04 30.43,29.83 20.6,35.55 				"/>
			</g>
			<g>
				<polygon class="st4" points="17.32,29.85 27.15,24.14 30.44,26.04 20.61,31.76 				"/>
			</g>
			<g>
				<polygon class="st4" points="20.61,31.76 20.6,35.55 17.31,33.64 17.32,29.85 				"/>
			</g>
		</g>
		<g class="st2">
			<g>
				<polygon class="st3" points="37.05,71.62 37.04,75.41 33.74,73.51 33.75,69.72 				"/>
			</g>
			<g>
				<polygon class="st3" points="37.05,71.62 46.88,65.91 46.87,69.7 37.04,75.41 				"/>
			</g>
			<g>
				<polygon class="st3" points="33.75,69.72 43.58,64.01 46.88,65.91 37.05,71.62 				"/>
			</g>
			<g>
				<polygon class="st4" points="33.76,65.93 43.59,60.22 43.58,64.01 33.75,69.72 				"/>
			</g>
			<g>
				<polygon class="st4" points="33.76,65.93 33.75,69.72 30.45,67.82 30.46,64.03 				"/>
			</g>
			<g>
				<polygon class="st4" points="30.46,64.03 40.29,58.31 43.59,60.22 33.76,65.93 				"/>
			</g>
			<g>
				<polygon class="st3" points="37.05,71.62 46.88,65.91 50.17,67.82 40.34,73.53 				"/>
			</g>
			<g>
				<polygon class="st3" points="40.34,73.53 50.17,67.82 50.16,71.61 40.33,77.32 				"/>
			</g>
			<g>
				<polygon class="st3" points="40.34,73.53 40.33,77.32 37.04,75.41 37.05,71.62 				"/>
			</g>
			<g>
				<polygon class="st5" points="37.06,67.83 46.89,62.12 46.88,65.91 37.05,71.62 				"/>
			</g>
			<g>
				<polygon class="st5" points="33.76,65.93 43.59,60.22 46.89,62.12 37.06,67.83 				"/>
			</g>
			<g>
				<polygon class="st5" points="37.06,67.83 37.05,71.62 33.75,69.72 33.76,65.93 				"/>
			</g>
			<g>
				<polygon class="st4" points="33.77,62.14 43.6,56.43 43.59,60.22 33.76,65.93 				"/>
			</g>
			<g>
				<polygon class="st4" points="30.47,60.24 40.3,54.52 43.6,56.43 33.77,62.14 				"/>
			</g>
			<g>
				<polygon class="st4" points="33.77,62.14 33.76,65.93 30.46,64.03 30.47,60.24 				"/>
			</g>
			<g>
				<polygon class="st3" points="30.48,56.44 30.47,60.24 27.17,58.33 27.18,54.53 				"/>
			</g>
			<g>
				<polygon class="st3" points="30.48,56.44 40.31,50.73 40.3,54.52 30.47,60.24 				"/>
			</g>
			<g>
				<polygon class="st3" points="27.18,54.53 37.01,48.82 40.31,50.73 30.48,56.44 				"/>
			</g>
			<g>
				<polygon class="st4" points="23.89,48.84 33.72,43.13 37.02,45.03 27.19,50.74 				"/>
			</g>
			<g>
				<polygon class="st4" points="27.19,50.74 27.18,54.53 23.88,52.63 23.89,48.84 				"/>
			</g>
			<g>
				<polygon class="st4" points="27.19,50.74 37.02,45.03 37.01,48.82 27.18,54.53 				"/>
			</g>
			<g>
				<polygon class="st3" points="43.64,75.43 53.47,69.72 53.46,73.51 43.63,79.22 				"/>
			</g>
			<g>
				<polygon class="st3" points="40.34,73.53 50.17,67.82 53.47,69.72 43.64,75.43 				"/>
			</g>
			<g>
				<polygon class="st3" points="43.64,75.43 43.63,79.22 40.33,77.32 40.34,73.53 				"/>
			</g>
			<g>
				<polygon class="st4" points="40.36,69.74 50.19,64.03 50.17,67.82 40.34,73.53 				"/>
			</g>
			<g>
				<polygon class="st4" points="40.36,69.74 40.34,73.53 37.05,71.62 37.06,67.83 				"/>
			</g>
			<g>
				<polygon class="st4" points="37.06,67.83 46.89,62.12 50.19,64.03 40.36,69.74 				"/>
			</g>
			<g>
				<polygon class="st4" points="37.07,64.04 37.06,67.83 33.76,65.93 33.77,62.14 				"/>
			</g>
			<g>
				<polygon class="st4" points="37.07,64.04 46.9,58.33 46.89,62.12 37.06,67.83 				"/>
			</g>
			<g>
				<polygon class="st4" points="33.77,62.14 43.6,56.43 46.9,58.33 37.07,64.04 				"/>
			</g>
			<g>
				<polygon class="st3" points="33.78,58.34 43.61,52.63 43.6,56.43 33.77,62.14 				"/>
			</g>
			<g>
				<polygon class="st3" points="33.78,58.34 33.77,62.14 30.47,60.24 30.48,56.44 				"/>
			</g>
			<g>
				<polygon class="st3" points="30.48,56.44 40.31,50.73 43.61,52.63 33.78,58.34 				"/>
			</g>
			<g>
				<polygon class="st5" points="30.49,52.65 30.48,56.44 27.18,54.53 27.19,50.74 				"/>
			</g>
			<g>
				<polygon class="st5" points="30.49,52.65 40.32,46.94 40.31,50.73 30.48,56.44 				"/>
			</g>
			<g>
				<polygon class="st5" points="27.19,50.74 37.02,45.03 40.32,46.94 30.49,52.65 				"/>
			</g>
			<g>
				<polygon class="st5" points="27.2,46.95 27.19,50.74 23.89,48.84 23.9,45.05 				"/>
			</g>
			<g>
				<polygon class="st5" points="23.9,45.05 33.73,39.34 37.03,41.24 27.2,46.95 				"/>
			</g>
			<g>
				<polygon class="st5" points="27.2,46.95 37.03,41.24 37.02,45.03 27.19,50.74 				"/>
			</g>
			<g>
				<polygon class="st3" points="20.61,39.35 30.44,33.64 33.73,35.53 23.9,41.24 				"/>
			</g>
			<g>
				<polygon class="st3" points="23.91,41.25 23.9,45.05 20.6,43.14 20.61,39.35 23.9,41.24 				"/>
			</g>
			<g>
				<polygon class="st3" points="23.91,41.25 33.74,35.54 33.73,39.34 23.9,45.05 				"/>
			</g>
			<g>
				<polygon class="st3" points="23.9,41.24 33.73,35.53 33.74,35.54 23.91,41.25 				"/>
			</g>
			<g>
				<polygon class="st3" points="40.36,69.74 50.19,64.03 53.48,65.93 43.65,71.64 				"/>
			</g>
			<g>
				<polygon class="st3" points="43.65,71.64 53.48,65.93 53.47,69.72 43.64,75.43 				"/>
			</g>
			<g>
				<polygon class="st3" points="43.65,71.64 43.64,75.43 40.34,73.53 40.36,69.74 				"/>
			</g>
			<g>
				<polygon class="st4" points="40.37,65.95 50.2,60.24 50.19,64.03 40.36,69.74 				"/>
			</g>
			<g>
				<polygon class="st4" points="37.07,64.04 46.9,58.33 50.2,60.24 40.37,65.95 				"/>
			</g>
			<g>
				<polygon class="st4" points="40.37,65.95 40.36,69.74 37.06,67.83 37.07,64.04 				"/>
			</g>
			<g>
				<polygon class="st3" points="37.08,60.25 37.07,64.04 33.77,62.14 33.78,58.34 				"/>
			</g>
			<g>
				<polygon class="st3" points="37.08,60.25 46.91,54.54 46.9,58.33 37.07,64.04 				"/>
			</g>
			<g>
				<polygon class="st3" points="33.78,58.34 43.61,52.63 46.91,54.54 37.08,60.25 				"/>
			</g>
			<g>
				<polygon class="st4" points="30.49,52.65 40.32,46.94 43.62,48.84 33.79,54.55 				"/>
			</g>
			<g>
				<polygon class="st4" points="33.79,54.55 43.62,48.84 43.61,52.63 33.78,58.34 				"/>
			</g>
			<g>
				<polygon class="st4" points="33.79,54.55 33.78,58.34 30.48,56.44 30.49,52.65 				"/>
			</g>
			<g>
				<polygon class="st4" points="27.2,46.95 37.03,41.24 40.33,43.15 30.5,48.86 				"/>
			</g>
			<g>
				<polygon class="st4" points="30.5,48.86 40.33,43.15 40.32,46.94 30.49,52.65 				"/>
			</g>
			<g>
				<polygon class="st4" points="30.5,48.86 30.49,52.65 27.19,50.74 27.2,46.95 				"/>
			</g>
			<g>
				<polygon class="st3" points="23.91,41.25 33.74,35.54 37.02,37.43 27.19,43.15 				"/>
			</g>
			<g>
				<polygon class="st3" points="27.21,43.16 27.2,46.95 23.9,45.05 23.91,41.25 27.19,43.15 				"/>
			</g>
			<g>
				<polygon class="st3" points="27.19,43.15 37.02,37.43 37.04,37.44 27.21,43.16 				"/>
			</g>
			<g>
				<polygon class="st3" points="27.21,43.16 37.04,37.44 37.03,41.24 27.2,46.95 				"/>
			</g>
			<g>
				<polygon class="st4" points="23.91,37.45 23.9,41.24 20.61,39.35 20.59,39.34 20.6,35.55 				"/>
			</g>
			<g>
				<polygon class="st4" points="23.91,37.45 33.74,31.74 33.73,35.53 23.9,41.24 				"/>
			</g>
			<g>
				<polygon class="st4" points="20.6,35.55 30.43,29.83 33.74,31.74 23.91,37.45 				"/>
			</g>
			<g>
				<polygon class="st3" points="43.66,67.85 53.49,62.14 53.48,65.93 43.65,71.64 				"/>
			</g>
			<g>
				<polygon class="st3" points="40.37,65.95 50.2,60.24 53.49,62.14 43.66,67.85 				"/>
			</g>
			<g>
				<polygon class="st3" points="43.66,67.85 43.65,71.64 40.36,69.74 40.37,65.95 				"/>
			</g>
			<g>
				<polygon class="st3" points="40.38,62.15 50.21,56.44 50.2,60.24 40.37,65.95 				"/>
			</g>
			<g>
				<polygon class="st3" points="37.08,60.25 46.91,54.54 50.21,56.44 40.38,62.15 				"/>
			</g>
			<g>
				<polygon class="st3" points="40.38,62.15 40.37,65.95 37.07,64.04 37.08,60.25 				"/>
			</g>
			<g>
				<polygon class="st3" points="37.09,56.46 46.92,50.75 46.91,54.54 37.08,60.25 				"/>
			</g>
			<g>
				<polygon class="st3" points="37.09,56.46 37.08,60.25 33.78,58.34 33.79,54.55 				"/>
			</g>
			<g>
				<polygon class="st3" points="33.79,54.55 43.62,48.84 46.92,50.75 37.09,56.46 				"/>
			</g>
			<g>
				<polygon class="st4" points="33.8,50.76 43.63,45.05 43.62,48.84 33.79,54.55 				"/>
			</g>
			<g>
				<polygon class="st4" points="33.8,50.76 33.79,54.55 30.49,52.65 30.5,48.86 				"/>
			</g>
			<g>
				<polygon class="st4" points="30.5,48.86 40.33,43.15 43.63,45.05 33.8,50.76 				"/>
			</g>
			<g>
				<polygon class="st3" points="27.21,43.16 37.04,37.44 40.32,39.34 30.49,45.05 				"/>
			</g>
			<g>
				<polygon class="st3" points="30.49,45.05 40.32,39.34 40.34,39.35 30.51,45.06 				"/>
			</g>
			<g>
				<polygon class="st3" points="30.51,45.06 30.5,48.86 27.2,46.95 27.21,43.16 30.49,45.05 				"/>
			</g>
			<g>
				<polygon class="st3" points="30.51,45.06 40.34,39.35 40.33,43.15 30.5,48.86 				"/>
			</g>
			<g>
				<polygon class="st4" points="27.21,39.36 37.04,33.64 37.02,37.43 27.19,43.15 				"/>
			</g>
			<g>
				<polygon class="st4" points="27.21,39.36 27.19,43.15 23.91,41.25 23.9,41.24 23.91,37.45 				"/>
			</g>
			<g>
				<polygon class="st4" points="23.91,37.45 33.74,31.74 37.04,33.64 27.21,39.36 				"/>
			</g>
			<g>
				<polygon class="st4" points="23.92,33.66 33.75,27.95 33.74,31.74 23.91,37.45 				"/>
			</g>
			<g>
				<polygon class="st4" points="23.92,33.66 23.91,37.45 20.6,35.55 20.61,31.76 				"/>
			</g>
			<g>
				<polygon class="st4" points="20.61,31.76 30.44,26.04 33.75,27.95 23.92,33.66 				"/>
			</g>
			<g>
				<polygon class="st3" points="20.62,27.97 20.61,31.76 17.32,29.85 17.33,26.06 				"/>
			</g>
			<g>
				<polygon class="st3" points="20.62,27.97 30.45,22.25 30.44,26.04 20.61,31.76 				"/>
			</g>
			<g>
				<polygon class="st3" points="17.33,26.06 27.16,20.35 30.45,22.25 20.62,27.97 				"/>
			</g>
			<g>
				<polygon class="st3" points="43.67,64.06 53.5,58.34 53.49,62.14 43.66,67.85 				"/>
			</g>
			<g>
				<polygon class="st3" points="40.38,62.15 50.21,56.44 53.5,58.34 43.67,64.06 				"/>
			</g>
			<g>
				<polygon class="st3" points="43.67,64.06 43.66,67.85 40.37,65.95 40.38,62.15 				"/>
			</g>
			<g>
				<polygon class="st5" points="40.39,58.36 50.22,52.65 50.21,56.44 40.38,62.15 				"/>
			</g>
			<g>
				<polygon class="st5" points="40.39,58.36 40.38,62.15 37.08,60.25 37.09,56.46 				"/>
			</g>
			<g>
				<polygon class="st5" points="37.09,56.46 46.92,50.75 50.22,52.65 40.39,58.36 				"/>
			</g>
			<g>
				<polygon class="st3" points="37.1,52.67 37.09,56.46 33.79,54.55 33.8,50.76 				"/>
			</g>
			<g>
				<polygon class="st3" points="37.1,52.67 46.93,46.96 46.92,50.75 37.09,56.46 				"/>
			</g>
			<g>
				<polygon class="st3" points="33.8,50.76 43.63,45.05 46.93,46.96 37.1,52.67 				"/>
			</g>
			<g>
				<polygon class="st3" points="30.51,45.06 40.34,39.35 43.63,41.25 33.8,46.96 				"/>
			</g>
			<g>
				<polygon class="st3" points="33.81,46.97 43.64,41.26 43.63,45.05 33.8,50.76 				"/>
			</g>
			<g>
				<polygon class="st3" points="33.8,46.96 43.63,41.25 43.64,41.26 33.81,46.97 				"/>
			</g>
			<g>
				<polygon class="st3" points="33.81,46.97 33.8,50.76 30.5,48.86 30.51,45.06 33.8,46.96 				"/>
			</g>
			<g>
				<polygon class="st4" points="27.21,39.36 37.04,33.64 40.33,35.55 30.5,41.26 				"/>
			</g>
			<g>
				<polygon class="st4" points="30.5,41.26 40.33,35.55 40.32,39.34 30.49,45.05 				"/>
			</g>
			<g>
				<polygon class="st4" points="30.5,41.26 30.49,45.05 27.21,43.16 27.19,43.15 27.21,39.36 				"/>
			</g>
			<g>
				<polygon class="st4" points="23.92,33.66 33.75,27.95 37.05,29.85 27.22,35.57 				"/>
			</g>
			<g>
				<polygon class="st4" points="27.22,35.57 37.05,29.85 37.04,33.64 27.21,39.36 				"/>
			</g>
			<g>
				<polygon class="st4" points="27.22,35.57 27.21,39.36 23.91,37.45 23.92,33.66 				"/>
			</g>
			<g>
				<polygon class="st3" points="23.93,29.87 33.76,24.16 33.75,27.95 23.92,33.66 				"/>
			</g>
			<g>
				<polygon class="st3" points="20.62,27.97 30.45,22.25 33.76,24.16 23.93,29.87 				"/>
			</g>
			<g>
				<polygon class="st3" points="23.93,29.87 23.92,33.66 20.61,31.76 20.62,27.97 				"/>
			</g>
			<g>
				<polygon class="st3" points="20.64,24.17 30.47,18.46 30.45,22.25 20.62,27.97 				"/>
			</g>
			<g>
				<polygon class="st3" points="17.34,22.26 27.17,16.55 30.47,18.46 20.64,24.17 				"/>
			</g>
			<g>
				<polygon class="st3" points="20.64,24.17 20.62,27.97 17.33,26.06 17.34,22.26 				"/>
			</g>
			<g>
				<polygon class="st3" points="33.81,46.97 43.64,41.26 46.92,43.15 37.09,48.86 				"/>
			</g>
			<g>
				<polygon class="st3" points="37.11,48.87 46.94,43.16 46.93,46.96 37.1,52.67 				"/>
			</g>
			<g>
				<polygon class="st3" points="37.09,48.86 46.92,43.15 46.94,43.16 37.11,48.87 				"/>
			</g>
			<g>
				<polygon class="st3" points="37.11,48.87 37.1,52.67 33.8,50.76 33.81,46.97 37.09,48.86 				"/>
			</g>
			<g>
				<polygon class="st3" points="33.81,43.17 43.64,37.46 43.63,41.25 33.8,46.96 				"/>
			</g>
			<g>
				<polygon class="st3" points="33.81,43.17 33.8,46.96 30.51,45.06 30.49,45.05 30.5,41.26 				"/>
			</g>
			<g>
				<polygon class="st3" points="30.5,41.26 40.33,35.55 43.64,37.46 33.81,43.17 				"/>
			</g>
			<g>
				<polygon class="st5" points="30.51,37.47 40.34,31.76 40.33,35.55 30.5,41.26 				"/>
			</g>
			<g>
				<polygon class="st5" points="30.51,37.47 30.5,41.26 27.21,39.36 27.22,35.57 				"/>
			</g>
			<g>
				<polygon class="st5" points="27.22,35.57 37.05,29.85 40.34,31.76 30.51,37.47 				"/>
			</g>
			<g>
				<polygon class="st3" points="23.93,29.87 33.76,24.16 37.06,26.06 27.23,31.78 				"/>
			</g>
			<g>
				<polygon class="st3" points="27.23,31.78 37.06,26.06 37.05,29.85 27.22,35.57 				"/>
			</g>
			<g>
				<polygon class="st3" points="27.23,31.78 27.22,35.57 23.92,33.66 23.93,29.87 				"/>
			</g>
			<g>
				<polygon class="st4" points="20.64,24.17 30.47,18.46 33.77,20.36 23.94,26.08 				"/>
			</g>
			<g>
				<polygon class="st4" points="23.94,26.08 33.77,20.36 33.76,24.16 23.93,29.87 				"/>
			</g>
			<g>
				<polygon class="st4" points="23.94,26.08 23.93,29.87 20.62,27.97 20.64,24.17 				"/>
			</g>
			<g>
				<polygon class="st3" points="20.65,20.38 30.48,14.67 30.47,18.46 20.64,24.17 				"/>
			</g>
			<g>
				<polygon class="st3" points="20.65,20.38 20.64,24.17 17.34,22.26 17.35,18.47 				"/>
			</g>
			<g>
				<polygon class="st3" points="17.35,18.47 27.18,12.76 30.48,14.67 20.65,20.38 				"/>
			</g>
			<g>
				<polygon class="st3" points="33.82,39.38 43.65,33.67 43.64,37.46 33.81,43.17 				"/>
			</g>
			<g>
				<polygon class="st3" points="33.82,39.38 33.81,43.17 30.5,41.26 30.51,37.47 				"/>
			</g>
			<g>
				<polygon class="st3" points="30.51,37.47 40.34,31.76 43.65,33.67 33.82,39.38 				"/>
			</g>
			<g>
				<polygon class="st3" points="27.23,31.78 37.06,26.06 40.36,27.97 30.53,33.68 				"/>
			</g>
			<g>
				<polygon class="st3" points="30.53,33.68 40.36,27.97 40.34,31.76 30.51,37.47 				"/>
			</g>
			<g>
				<polygon class="st3" points="30.53,33.68 30.51,37.47 27.22,35.57 27.23,31.78 				"/>
			</g>
			<g>
				<polygon class="st4" points="23.94,26.08 33.77,20.36 37.07,22.27 27.24,27.98 				"/>
			</g>
			<g>
				<polygon class="st4" points="27.24,27.98 27.23,31.78 23.93,29.87 23.94,26.08 				"/>
			</g>
			<g>
				<polygon class="st4" points="27.24,27.98 37.07,22.27 37.06,26.06 27.23,31.78 				"/>
			</g>
			<g>
				<polygon class="st4" points="20.65,20.38 30.48,14.67 33.78,16.57 23.95,22.29 				"/>
			</g>
			<g>
				<polygon class="st4" points="23.95,22.29 33.78,16.57 33.77,20.36 23.94,26.08 				"/>
			</g>
			<g>
				<polygon class="st4" points="23.95,22.29 23.94,26.08 20.64,24.17 20.65,20.38 				"/>
			</g>
			<g>
				<polygon class="st3" points="17.36,14.69 27.19,8.97 30.49,10.88 20.66,16.59 				"/>
			</g>
			<g>
				<polygon class="st3" points="20.66,16.59 20.65,20.38 17.35,18.47 17.36,14.69 				"/>
			</g>
			<g>
				<polygon class="st3" points="20.66,16.59 30.49,10.88 30.48,14.67 20.65,20.38 				"/>
			</g>
			<g>
				<polygon class="st3" points="33.83,35.59 33.82,39.38 30.51,37.47 30.53,33.68 				"/>
			</g>
			<g>
				<polygon class="st3" points="33.83,35.59 43.66,29.88 43.65,33.67 33.82,39.38 				"/>
			</g>
			<g>
				<polygon class="st3" points="30.53,33.68 40.36,27.97 43.66,29.88 33.83,35.59 				"/>
			</g>
			<g>
				<polygon class="st4" points="27.24,27.98 37.07,22.27 40.37,24.17 30.54,29.88 				"/>
			</g>
			<g>
				<polygon class="st4" points="30.54,29.88 40.37,24.17 40.36,27.97 30.53,33.68 				"/>
			</g>
			<g>
				<polygon class="st4" points="30.54,29.88 30.53,33.68 27.23,31.78 27.24,27.98 				"/>
			</g>
			<g>
				<polygon class="st5" points="27.25,24.19 37.08,18.48 37.07,22.27 27.24,27.98 				"/>
			</g>
			<g>
				<polygon class="st5" points="23.95,22.29 33.78,16.57 37.08,18.48 27.25,24.19 				"/>
			</g>
			<g>
				<polygon class="st5" points="27.25,24.19 27.24,27.98 23.94,26.08 23.95,22.29 				"/>
			</g>
			<g>
				<polygon class="st3" points="23.96,18.5 23.95,22.29 20.65,20.38 20.66,16.59 				"/>
			</g>
			<g>
				<polygon class="st3" points="23.96,18.5 33.79,12.78 33.78,16.57 23.95,22.29 				"/>
			</g>
			<g>
				<polygon class="st3" points="20.66,16.59 30.49,10.88 33.79,12.78 23.96,18.5 				"/>
			</g>
			<g>
				<polygon class="st4" points="17.37,10.89 27.2,5.18 30.5,7.08 20.67,12.79 				"/>
			</g>
			<g>
				<polygon class="st4" points="20.67,12.79 20.66,16.59 17.36,14.69 17.37,10.89 				"/>
			</g>
			<g>
				<polygon class="st4" points="20.67,12.79 30.5,7.08 30.49,10.88 20.66,16.59 				"/>
			</g>
			<g>
				<polygon class="st3" points="27.26,20.4 27.25,24.19 23.95,22.29 23.96,18.5 				"/>
			</g>
			<g>
				<polygon class="st3" points="23.96,18.5 33.79,12.78 37.09,14.69 27.26,20.4 				"/>
			</g>
			<g>
				<polygon class="st3" points="27.26,20.4 37.09,14.69 37.08,18.48 27.25,24.19 				"/>
			</g>
			<g>
				<polygon class="st5" points="20.68,9 30.51,3.29 30.5,7.08 20.67,12.79 				"/>
			</g>
			<g>
				<polygon class="st6" points="17.38,7.1 27.21,1.39 30.51,3.29 20.68,9 				"/>
			</g>
			<g>
				<polygon class="st5" points="20.68,9 20.67,12.79 17.37,10.89 17.38,7.1 				"/>
			</g>
		</g>
		<g class="st2">
			<g>
				<polygon class="st3" points="46.95,77.34 56.78,71.63 56.77,75.42 46.94,81.13 				"/>
			</g>
			<g>
				<polygon class="st3" points="43.65,75.44 53.48,69.73 56.78,71.63 46.95,77.34 				"/>
			</g>
			<g>
				<polygon class="st3" points="46.95,77.34 46.94,81.13 43.64,79.23 43.65,75.44 				"/>
			</g>
		</g>
		<g class="st2">
			<g>
				<polygon class="st5" points="46.96,73.55 56.79,67.84 56.78,71.63 46.95,77.34 				"/>
			</g>
			<g>
				<polygon class="st5" points="43.66,71.65 53.49,65.94 56.79,67.84 46.96,73.55 				"/>
			</g>
			<g>
				<polygon class="st5" points="46.96,73.55 46.95,77.34 43.65,75.44 43.66,71.65 				"/>
			</g>
		</g>
		<g class="st2">
			<g>
				<polygon class="st4" points="37.11,45.07 46.94,39.36 46.92,43.15 37.09,48.86 				"/>
			</g>
			<g>
				<polygon class="st4" points="33.81,43.17 43.64,37.46 46.94,39.36 37.11,45.07 				"/>
			</g>
			<g>
				<polygon class="st4" points="37.11,45.07 37.09,48.86 33.81,46.97 33.8,46.96 33.81,43.17 				"/>
			</g>
		</g>
		<g class="st2">
			<g>
				<polygon class="st4" points="40.4,54.57 50.23,48.86 50.22,52.65 40.39,58.36 				"/>
			</g>
			<g>
				<polygon class="st4" points="37.1,52.67 46.93,46.96 50.23,48.86 40.4,54.57 				"/>
			</g>
			<g>
				<polygon class="st4" points="40.4,54.57 40.39,58.36 37.09,56.46 37.1,52.67 				"/>
			</g>
		</g>
		<g class="st2">
			<g>
				<polygon class="st4" points="23.97,14.7 33.8,8.99 33.79,12.78 23.96,18.5 				"/>
			</g>
			<g>
				<polygon class="st4" points="20.67,12.79 30.5,7.08 33.8,8.99 23.97,14.7 				"/>
			</g>
			<g>
				<polygon class="st4" points="23.97,14.7 23.96,18.5 20.66,16.59 20.67,12.79 				"/>
			</g>
		</g>
		<g class="st2">
			<g>
				<polygon class="st5" points="23.98,10.91 33.81,5.2 33.8,8.99 23.97,14.7 				"/>
			</g>
			<g>
				<polygon class="st6" points="20.68,9 30.51,3.29 33.81,5.2 23.98,10.91 				"/>
			</g>
			<g>
				<polygon class="st5" points="23.98,10.91 23.97,14.7 20.67,12.79 20.68,9 				"/>
			</g>
		</g>
		<g class="st2">
			<g>
				<polygon class="st4" points="33.84,31.79 43.67,26.08 43.66,29.88 33.83,35.59 				"/>
			</g>
			<g>
				<polygon class="st4" points="30.54,29.88 40.37,24.17 43.67,26.08 33.84,31.79 				"/>
			</g>
			<g>
				<polygon class="st4" points="33.84,31.79 33.83,35.59 30.53,33.68 30.54,29.88 				"/>
			</g>
			<g>
				<polygon class="st4" points="30.55,26.1 30.54,29.88 27.24,27.98 27.25,24.19 				"/>
			</g>
			<g>
				<polygon class="st4" points="30.55,26.1 40.38,20.38 40.37,24.17 30.54,29.88 				"/>
			</g>
			<g>
				<polygon class="st4" points="27.25,24.19 37.08,18.48 40.38,20.38 30.55,26.1 				"/>
			</g>
			<g>
				<polygon class="st3" points="30.56,22.31 40.39,16.59 40.38,20.38 30.55,26.1 				"/>
			</g>
			<g>
				<polygon class="st3" points="27.26,20.4 37.09,14.69 40.39,16.59 30.56,22.31 				"/>
			</g>
			<g>
				<polygon class="st3" points="30.56,22.31 30.55,26.1 27.25,24.19 27.26,20.4 				"/>
			</g>
		</g>
		<g class="st2">
			<g>
				<polygon class="st4" points="43.69,60.27 53.52,54.55 53.5,58.34 43.67,64.06 				"/>
			</g>
			<g>
				<polygon class="st4" points="40.39,58.36 50.22,52.65 53.52,54.55 43.69,60.27 				"/>
			</g>
			<g>
				<polygon class="st4" points="43.69,60.27 43.67,64.06 40.38,62.15 40.39,58.36 				"/>
			</g>
			<g>
				<polygon class="st4" points="43.7,56.48 53.53,50.76 53.52,54.55 43.69,60.27 				"/>
			</g>
			<g>
				<polygon class="st4" points="40.4,54.57 50.23,48.86 53.53,50.76 43.7,56.48 				"/>
			</g>
			<g>
				<polygon class="st4" points="43.7,56.48 43.69,60.27 40.39,58.36 40.4,54.57 				"/>
			</g>
			<g>
				<polygon class="st3" points="37.11,48.87 46.94,43.16 50.22,45.05 40.39,50.77 				"/>
			</g>
			<g>
				<polygon class="st3" points="40.41,50.78 40.4,54.57 37.1,52.67 37.11,48.87 40.39,50.77 				"/>
			</g>
			<g>
				<polygon class="st3" points="40.39,50.77 50.22,45.05 50.24,45.06 40.41,50.78 				"/>
			</g>
			<g>
				<polygon class="st3" points="40.41,50.78 50.24,45.06 50.23,48.86 40.4,54.57 				"/>
			</g>
			<g>
				<polygon class="st4" points="40.4,46.98 40.39,50.77 37.11,48.87 37.09,48.86 37.11,45.07 				"/>
			</g>
			<g>
				<polygon class="st4" points="40.4,46.98 50.23,41.26 50.22,45.05 40.39,50.77 				"/>
			</g>
			<g>
				<polygon class="st4" points="37.11,45.07 46.94,39.36 50.23,41.26 40.4,46.98 				"/>
			</g>
			<g>
				<polygon class="st4" points="37.12,41.28 46.95,35.57 46.94,39.36 37.11,45.07 				"/>
			</g>
			<g>
				<polygon class="st4" points="33.82,39.38 43.65,33.67 46.95,35.57 37.12,41.28 				"/>
			</g>
			<g>
				<polygon class="st4" points="37.12,41.28 37.11,45.07 33.81,43.17 33.82,39.38 				"/>
			</g>
		</g>
		<g class="st2">
			<g>
				<polygon class="st4" points="46.97,69.76 56.8,64.05 56.79,67.84 46.96,73.55 				"/>
			</g>
			<g>
				<polygon class="st4" points="43.67,67.86 53.51,62.15 56.8,64.05 46.97,69.76 				"/>
			</g>
			<g>
				<polygon class="st4" points="46.97,69.76 46.96,73.55 43.66,71.65 43.67,67.86 				"/>
			</g>
		</g>
		<g class="st2">
			<g>
				<polygon class="st3" points="50.26,79.25 60.08,73.54 60.07,77.33 50.24,83.04 				"/>
			</g>
			<g>
				<polygon class="st3" points="46.95,77.34 56.78,71.63 60.08,73.54 50.26,79.25 				"/>
			</g>
			<g>
				<polygon class="st3" points="50.26,79.25 50.24,83.04 46.94,81.13 46.95,77.34 				"/>
			</g>
			<g>
				<polygon class="st4" points="50.27,75.46 60.1,69.75 60.08,73.54 50.26,79.25 				"/>
			</g>
			<g>
				<polygon class="st4" points="46.96,73.55 56.79,67.84 60.1,69.75 50.27,75.46 				"/>
			</g>
			<g>
				<polygon class="st4" points="50.27,75.46 50.26,79.25 46.95,77.34 46.96,73.55 				"/>
			</g>
			<g>
				<polygon class="st4" points="50.28,71.67 50.27,75.46 46.96,73.55 46.97,69.76 				"/>
			</g>
			<g>
				<polygon class="st4" points="50.28,71.67 60.11,65.96 60.1,69.75 50.27,75.46 				"/>
			</g>
			<g>
				<polygon class="st4" points="46.97,69.76 56.8,64.05 60.11,65.96 50.28,71.67 				"/>
			</g>
			<g>
				<polygon class="st3" points="46.98,65.97 56.81,60.26 56.8,64.05 46.97,69.76 				"/>
			</g>
			<g>
				<polygon class="st3" points="43.69,64.06 53.52,58.35 56.81,60.26 46.98,65.97 				"/>
			</g>
			<g>
				<polygon class="st3" points="46.98,65.97 46.97,69.76 43.67,67.86 43.69,64.06 				"/>
			</g>
		</g>
		<g class="st2">
			<g>
				<polygon class="st3" points="53.55,81.16 63.38,75.44 63.37,79.23 53.54,84.94 				"/>
			</g>
			<g>
				<polygon class="st3" points="50.26,79.25 60.08,73.54 63.38,75.44 53.55,81.16 				"/>
			</g>
			<g>
				<polygon class="st3" points="53.55,81.16 53.54,84.94 50.24,83.04 50.26,79.25 				"/>
			</g>
		</g>
		<g class="st2">
			<g>
				<polygon class="st4" points="53.56,77.36 63.39,71.65 63.38,75.44 53.55,81.16 				"/>
			</g>
			<g>
				<polygon class="st4" points="50.27,75.46 60.1,69.75 63.39,71.65 53.56,77.36 				"/>
			</g>
			<g>
				<polygon class="st4" points="53.56,77.36 53.55,81.16 50.26,79.25 50.27,75.46 				"/>
			</g>
		</g>
		<g class="st2">
			<g>
				<polygon class="st3" points="56.86,83.06 66.69,77.35 66.68,81.14 56.85,86.85 				"/>
			</g>
			<g>
				<polygon class="st3" points="53.55,81.16 63.38,75.44 66.69,77.35 56.86,83.06 				"/>
			</g>
			<g>
				<polygon class="st3" points="56.86,83.06 56.85,86.85 53.54,84.94 53.55,81.16 				"/>
			</g>
		</g>
		<g class="st2">
			<g>
				<polygon class="st3" points="37.13,37.49 46.96,31.78 46.95,35.57 37.12,41.28 				"/>
			</g>
			<g>
				<polygon class="st3" points="33.83,35.59 43.66,29.88 46.96,31.78 37.13,37.49 				"/>
			</g>
			<g>
				<polygon class="st3" points="37.13,37.49 37.12,41.28 33.82,39.38 33.83,35.59 				"/>
			</g>
		</g>
		<g class="st2">
			<g>
				<polygon class="st4" points="37.14,33.7 46.97,27.98 46.96,31.78 37.13,37.49 				"/>
			</g>
			<g>
				<polygon class="st4" points="33.84,31.79 43.67,26.08 46.97,27.98 37.14,33.7 				"/>
			</g>
			<g>
				<polygon class="st4" points="37.14,33.7 37.13,37.49 33.83,35.59 33.84,31.79 				"/>
			</g>
		</g>
		<g class="st2">
			<g>
				<polygon class="st5" points="40.41,43.19 50.24,37.48 50.23,41.26 40.4,46.98 				"/>
			</g>
			<g>
				<polygon class="st5" points="37.12,41.28 46.95,35.57 50.24,37.48 40.41,43.19 				"/>
			</g>
			<g>
				<polygon class="st5" points="40.41,43.19 40.4,46.98 37.11,45.07 37.12,41.28 				"/>
			</g>
		</g>
		<g class="st2">
			<g>
				<polygon class="st3" points="40.41,50.78 50.24,45.06 53.52,46.96 43.69,52.67 				"/>
			</g>
			<g>
				<polygon class="st3" points="43.7,52.68 53.53,46.96 53.53,50.76 43.7,56.48 				"/>
			</g>
			<g>
				<polygon class="st3" points="43.69,52.67 53.52,46.96 53.53,46.96 43.7,52.68 				"/>
			</g>
			<g>
				<polygon class="st3" points="43.7,52.68 43.7,56.48 40.4,54.57 40.41,50.78 43.69,52.67 				"/>
			</g>
		</g>
		<g class="st2">
			<g>
				<polygon class="st4" points="47,62.18 56.82,56.47 56.81,60.26 46.98,65.97 				"/>
			</g>
			<g>
				<polygon class="st4" points="43.7,60.27 53.53,54.56 56.82,56.47 47,62.18 				"/>
			</g>
			<g>
				<polygon class="st4" points="47,62.18 46.98,65.97 43.69,64.06 43.7,60.27 				"/>
			</g>
		</g>
		<g class="st2">
			<g>
				<polygon class="st5" points="53.58,73.57 63.41,67.86 63.39,71.65 53.56,77.36 				"/>
			</g>
			<g>
				<polygon class="st5" points="50.28,71.67 60.11,65.96 63.41,67.86 53.58,73.57 				"/>
			</g>
			<g>
				<polygon class="st5" points="53.58,73.57 53.56,77.36 50.27,75.46 50.28,71.67 				"/>
			</g>
		</g>
		<g class="st2">
			<g>
				<polygon class="st3" points="60.16,84.97 69.99,79.25 69.97,83.04 60.15,88.76 				"/>
			</g>
			<g>
				<polygon class="st3" points="56.86,83.06 66.69,77.35 69.99,79.25 60.16,84.97 				"/>
			</g>
			<g>
				<polygon class="st3" points="60.16,84.97 60.15,88.76 56.85,86.85 56.86,83.06 				"/>
			</g>
		</g>
		<g class="st2">
			<g>
				<polygon class="st3" points="50.29,67.87 60.12,62.16 60.11,65.96 50.28,71.67 				"/>
			</g>
			<g>
				<polygon class="st3" points="46.98,65.97 56.81,60.26 60.12,62.16 50.29,67.87 				"/>
			</g>
			<g>
				<polygon class="st3" points="50.29,67.87 50.28,71.67 46.97,69.76 46.98,65.97 				"/>
			</g>
		</g>
		<g class="st2">
			<g>
				<polygon class="st4" points="33.85,28 43.68,22.29 43.67,26.08 33.84,31.79 				"/>
			</g>
			<g>
				<polygon class="st4" points="30.55,26.1 40.38,20.38 43.68,22.29 33.85,28 				"/>
			</g>
			<g>
				<polygon class="st4" points="33.85,28 33.84,31.79 30.54,29.88 30.55,26.1 				"/>
			</g>
			<g>
				<polygon class="st4" points="27.27,16.61 37.1,10.89 37.09,14.69 27.26,20.4 				"/>
			</g>
			<g>
				<polygon class="st4" points="27.27,16.61 27.26,20.4 23.96,18.5 23.97,14.7 				"/>
			</g>
			<g>
				<polygon class="st4" points="23.97,14.7 33.8,8.99 37.1,10.89 27.27,16.61 				"/>
			</g>
			<g>
				<polygon class="st3" points="33.86,24.21 33.85,28 30.55,26.1 30.56,22.31 				"/>
			</g>
			<g>
				<polygon class="st3" points="33.86,24.21 43.69,18.5 43.68,22.29 33.85,28 				"/>
			</g>
			<g>
				<polygon class="st3" points="30.56,22.31 40.39,16.59 43.69,18.5 33.86,24.21 				"/>
			</g>
			<g>
				<polygon class="st4" points="27.27,16.61 37.1,10.89 40.4,12.8 30.57,18.51 				"/>
			</g>
			<g>
				<polygon class="st4" points="30.57,18.51 30.56,22.31 27.26,20.4 27.27,16.61 				"/>
			</g>
			<g>
				<polygon class="st4" points="30.57,18.51 40.4,12.8 40.39,16.59 30.56,22.31 				"/>
			</g>
			<g>
				<polygon class="st4" points="27.28,12.82 37.11,7.1 37.1,10.89 27.27,16.61 				"/>
			</g>
			<g>
				<polygon class="st7" points="23.98,10.91 33.81,5.2 37.11,7.1 27.28,12.82 				"/>
			</g>
			<g>
				<polygon class="st4" points="27.28,12.82 27.27,16.61 23.97,14.7 23.98,10.91 				"/>
			</g>
		</g>
		<g class="st2">
			<g>
				<polygon class="st3" points="40.43,39.4 50.26,33.68 50.24,37.48 40.41,43.19 				"/>
			</g>
			<g>
				<polygon class="st3" points="37.13,37.49 46.96,31.78 50.26,33.68 40.43,39.4 				"/>
			</g>
			<g>
				<polygon class="st3" points="40.43,39.4 40.41,43.19 37.12,41.28 37.13,37.49 				"/>
			</g>
		</g>
		<g class="st2">
			<g>
				<polygon class="st4" points="43.7,48.88 53.53,43.17 53.52,46.96 43.69,52.67 				"/>
			</g>
			<g>
				<polygon class="st4" points="40.4,46.98 50.23,41.26 53.53,43.17 43.7,48.88 				"/>
			</g>
			<g>
				<polygon class="st4" points="43.7,48.88 43.69,52.67 40.41,50.78 40.39,50.77 40.4,46.98 				"/>
			</g>
		</g>
		<g class="st2">
			<g>
				<polygon class="st5" points="47.01,58.39 56.84,52.67 56.82,56.47 47,62.18 				"/>
			</g>
			<g>
				<polygon class="st5" points="43.71,56.48 53.54,50.77 56.84,52.67 47.01,58.39 				"/>
			</g>
			<g>
				<polygon class="st5" points="47.01,58.39 47,62.18 43.7,60.27 43.71,56.48 				"/>
			</g>
		</g>
		<g class="st2">
			<g>
				<polygon class="st3" points="33.87,20.42 43.7,14.7 43.69,18.5 33.86,24.21 				"/>
			</g>
			<g>
				<polygon class="st3" points="30.57,18.51 40.4,12.8 43.7,14.7 33.87,20.42 				"/>
			</g>
			<g>
				<polygon class="st3" points="33.87,20.42 33.86,24.21 30.56,22.31 30.57,18.51 				"/>
			</g>
		</g>
		<g class="st2">
			<g>
				<polygon class="st4" points="37.15,29.91 46.98,24.19 46.97,27.98 37.14,33.7 				"/>
			</g>
			<g>
				<polygon class="st4" points="33.85,28 43.68,22.29 46.98,24.19 37.15,29.91 				"/>
			</g>
			<g>
				<polygon class="st4" points="37.15,29.91 37.14,33.7 33.84,31.79 33.85,28 				"/>
			</g>
		</g>
		<g class="st2">
			<g>
				<polygon class="st3" points="40.44,35.6 50.27,29.89 50.26,33.68 40.43,39.4 				"/>
			</g>
			<g>
				<polygon class="st3" points="37.14,33.7 46.97,27.98 50.27,29.89 40.44,35.6 				"/>
			</g>
			<g>
				<polygon class="st3" points="40.44,35.6 40.43,39.4 37.13,37.49 37.14,33.7 				"/>
			</g>
		</g>
		<g class="st2">
			<g>
				<polygon class="st4" points="43.71,45.09 53.54,39.38 53.53,43.17 43.7,48.88 				"/>
			</g>
			<g>
				<polygon class="st4" points="40.41,43.19 50.24,37.48 53.54,39.38 43.71,45.09 				"/>
			</g>
			<g>
				<polygon class="st4" points="43.71,45.09 43.7,48.88 40.4,46.98 40.41,43.19 				"/>
			</g>
		</g>
		<g class="st2">
			<g>
				<polygon class="st3" points="43.72,52.69 53.55,46.97 56.83,48.87 47,54.58 				"/>
			</g>
			<g>
				<polygon class="st3" points="47.02,54.59 56.85,48.88 56.84,52.67 47.01,58.39 				"/>
			</g>
			<g>
				<polygon class="st3" points="47,54.58 56.83,48.87 56.85,48.88 47.02,54.59 				"/>
			</g>
			<g>
				<polygon class="st3" points="47.02,54.59 47.01,58.39 43.71,56.48 43.72,52.69 47,54.58 				"/>
			</g>
		</g>
		<g class="st2">
			<g>
				<polygon class="st5" points="50.3,64.08 60.13,58.37 60.12,62.16 50.29,67.87 				"/>
			</g>
			<g>
				<polygon class="st5" points="47,62.18 56.82,56.47 60.13,58.37 50.3,64.08 				"/>
			</g>
			<g>
				<polygon class="st5" points="50.3,64.08 50.29,67.87 46.98,65.97 47,62.18 				"/>
			</g>
		</g>
		<g class="st2">
			<g>
				<polygon class="st4" points="30.58,14.72 40.41,9.01 40.4,12.8 30.57,18.51 				"/>
			</g>
			<g>
				<polygon class="st7" points="27.28,12.82 37.11,7.1 40.41,9.01 30.58,14.72 				"/>
			</g>
			<g>
				<polygon class="st4" points="30.58,14.72 30.57,18.51 27.27,16.61 27.28,12.82 				"/>
			</g>
		</g>
		<g class="st2">
			<g>
				<polygon class="st3" points="33.88,16.63 43.71,10.91 43.7,14.7 33.87,20.42 				"/>
			</g>
			<g>
				<polygon class="st8" points="30.58,14.72 40.41,9.01 43.71,10.91 33.88,16.63 				"/>
			</g>
			<g>
				<polygon class="st3" points="33.88,16.63 33.87,20.42 30.57,18.51 30.58,14.72 				"/>
			</g>
		</g>
		<g class="st2">
			<g>
				<polygon class="st3" points="37.16,26.12 46.99,20.4 46.98,24.19 37.15,29.91 				"/>
			</g>
			<g>
				<polygon class="st3" points="33.86,24.21 43.69,18.5 46.99,20.4 37.16,26.12 				"/>
			</g>
			<g>
				<polygon class="st3" points="37.16,26.12 37.15,29.91 33.85,28 33.86,24.21 				"/>
			</g>
		</g>
		<g class="st2">
			<g>
				<polygon class="st4" points="37.17,22.32 47,16.61 46.99,20.4 37.16,26.12 				"/>
			</g>
			<g>
				<polygon class="st4" points="33.87,20.42 43.7,14.7 47,16.61 37.17,22.32 				"/>
			</g>
			<g>
				<polygon class="st4" points="37.17,22.32 37.16,26.12 33.86,24.21 33.87,20.42 				"/>
			</g>
		</g>
		<g class="st2">
			<g>
				<polygon class="st3" points="40.45,31.81 50.28,26.1 50.27,29.89 40.44,35.6 				"/>
			</g>
			<g>
				<polygon class="st3" points="37.15,29.91 46.98,24.19 50.28,26.1 40.45,31.81 				"/>
			</g>
			<g>
				<polygon class="st3" points="40.45,31.81 40.44,35.6 37.14,33.7 37.15,29.91 				"/>
			</g>
		</g>
		<g class="st2">
			<g>
				<polygon class="st3" points="43.72,41.3 53.55,35.59 53.54,39.38 43.71,45.09 				"/>
			</g>
			<g>
				<polygon class="st3" points="40.43,39.4 50.26,33.68 53.55,35.59 43.72,41.3 				"/>
			</g>
			<g>
				<polygon class="st3" points="43.72,41.3 43.71,45.09 40.41,43.19 40.43,39.4 				"/>
			</g>
		</g>
		<g class="st2">
			<g>
				<polygon class="st4" points="47.01,50.79 56.84,45.08 56.83,48.87 47,54.58 				"/>
			</g>
			<g>
				<polygon class="st4" points="43.71,48.89 53.54,43.18 56.84,45.08 47.01,50.79 				"/>
			</g>
			<g>
				<polygon class="st4" points="47.01,50.79 47,54.58 43.72,52.69 43.71,52.68 43.71,48.89 				"/>
			</g>
		</g>
		<g class="st2">
			<g>
				<polygon class="st4" points="56.87,79.27 66.7,73.56 66.69,77.35 56.86,83.06 				"/>
			</g>
			<g>
				<polygon class="st4" points="53.56,77.36 63.39,71.65 66.7,73.56 56.87,79.27 				"/>
			</g>
			<g>
				<polygon class="st4" points="56.87,79.27 56.86,83.06 53.55,81.16 53.56,77.36 				"/>
			</g>
			<g>
				<polygon class="st4" points="56.88,75.48 66.71,69.77 66.7,73.56 56.87,79.27 				"/>
			</g>
			<g>
				<polygon class="st4" points="53.58,73.57 63.41,67.86 66.71,69.77 56.88,75.48 				"/>
			</g>
			<g>
				<polygon class="st4" points="56.88,75.48 56.87,79.27 53.56,77.36 53.58,73.57 				"/>
			</g>
			<g>
				<polygon class="st3" points="53.59,69.78 53.58,73.57 50.28,71.67 50.29,67.87 				"/>
			</g>
			<g>
				<polygon class="st3" points="53.59,69.78 63.42,64.07 63.41,67.86 53.58,73.57 				"/>
			</g>
			<g>
				<polygon class="st3" points="50.29,67.87 60.12,62.16 63.42,64.07 53.59,69.78 				"/>
			</g>
			<g>
				<polygon class="st4" points="53.6,65.99 63.43,60.28 63.42,64.07 53.59,69.78 				"/>
			</g>
			<g>
				<polygon class="st4" points="50.3,64.08 60.13,58.37 63.43,60.28 53.6,65.99 				"/>
			</g>
			<g>
				<polygon class="st4" points="53.6,65.99 53.59,69.78 50.29,67.87 50.3,64.08 				"/>
			</g>
			<g>
				<polygon class="st4" points="50.31,60.29 60.14,54.58 60.13,58.37 50.3,64.08 				"/>
			</g>
			<g>
				<polygon class="st4" points="47.01,58.39 56.84,52.67 60.14,54.58 50.31,60.29 				"/>
			</g>
			<g>
				<polygon class="st4" points="50.31,60.29 50.3,64.08 47,62.18 47.01,58.39 				"/>
			</g>
		</g>
		<g class="st2">
			<g>
				<polygon class="st3" points="63.45,86.87 73.28,81.16 73.27,84.95 63.44,90.66 				"/>
			</g>
			<g>
				<polygon class="st3" points="60.16,84.97 69.99,79.25 73.28,81.16 63.45,86.87 				"/>
			</g>
			<g>
				<polygon class="st3" points="63.45,86.87 63.44,90.66 60.15,88.76 60.16,84.97 				"/>
			</g>
		</g>
		<g class="st2">
			<g>
				<polygon class="st4" points="43.73,37.51 53.56,31.79 53.55,35.59 43.72,41.3 				"/>
			</g>
			<g>
				<polygon class="st4" points="40.44,35.6 50.27,29.89 53.56,31.79 43.73,37.51 				"/>
			</g>
			<g>
				<polygon class="st4" points="43.73,37.51 43.72,41.3 40.43,39.4 40.44,35.6 				"/>
			</g>
			<g>
				<polygon class="st4" points="43.74,33.72 53.58,28 53.56,31.79 43.73,37.51 				"/>
			</g>
			<g>
				<polygon class="st4" points="40.45,31.81 50.28,26.1 53.58,28 43.74,33.72 				"/>
			</g>
			<g>
				<polygon class="st4" points="43.74,33.72 43.73,37.51 40.44,35.6 40.45,31.81 				"/>
			</g>
			<g>
				<polygon class="st3" points="37.16,26.12 46.99,20.4 50.29,22.31 40.46,28.02 				"/>
			</g>
			<g>
				<polygon class="st3" points="40.46,28.02 50.29,22.31 50.28,26.1 40.45,31.81 				"/>
			</g>
			<g>
				<polygon class="st3" points="40.46,28.02 40.45,31.81 37.15,29.91 37.16,26.12 				"/>
			</g>
			<g>
				<polygon class="st3" points="40.46,28.02 50.29,22.31 53.59,24.21 43.76,29.93 				"/>
			</g>
			<g>
				<polygon class="st3" points="43.76,29.93 43.74,33.72 40.45,31.81 40.46,28.02 				"/>
			</g>
			<g>
				<polygon class="st3" points="43.76,29.93 53.59,24.21 53.58,28 43.74,33.72 				"/>
			</g>
			<g>
				<polygon class="st4" points="40.47,24.23 40.46,28.02 37.16,26.12 37.17,22.32 				"/>
			</g>
			<g>
				<polygon class="st4" points="40.47,24.23 50.3,18.51 50.29,22.31 40.46,28.02 				"/>
			</g>
			<g>
				<polygon class="st4" points="37.17,22.32 47,16.61 50.3,18.51 40.47,24.23 				"/>
			</g>
			<g>
				<polygon class="st7" points="33.88,16.63 43.71,10.91 47.01,12.82 37.18,18.53 				"/>
			</g>
			<g>
				<polygon class="st4" points="37.18,18.53 47.01,12.82 47,16.61 37.17,22.32 				"/>
			</g>
			<g>
				<polygon class="st4" points="37.18,18.53 37.17,22.32 33.87,20.42 33.88,16.63 				"/>
			</g>
			<g>
				<polygon class="st5" points="43.77,26.13 53.6,20.42 53.59,24.21 43.76,29.93 				"/>
			</g>
			<g>
				<polygon class="st5" points="40.47,24.23 50.3,18.51 53.6,20.42 43.77,26.13 				"/>
			</g>
			<g>
				<polygon class="st5" points="43.77,26.13 43.76,29.93 40.46,28.02 40.47,24.23 				"/>
			</g>
			<g>
				<polygon class="st7" points="37.18,18.53 47.01,12.82 50.31,14.72 40.48,20.43 				"/>
			</g>
			<g>
				<polygon class="st4" points="40.48,20.43 50.31,14.72 50.3,18.51 40.47,24.23 				"/>
			</g>
			<g>
				<polygon class="st4" points="40.48,20.43 40.47,24.23 37.17,22.32 37.18,18.53 				"/>
			</g>
		</g>
		<g class="st2">
			<g>
				<polygon class="st3" points="56.87,79.27 66.7,73.56 70,75.46 60.17,81.18 				"/>
			</g>
			<g>
				<polygon class="st3" points="60.17,81.18 60.16,84.97 56.86,83.06 56.87,79.27 				"/>
			</g>
			<g>
				<polygon class="st3" points="60.17,81.18 70,75.46 69.99,79.25 60.16,84.97 				"/>
			</g>
			<g>
				<polygon class="st4" points="63.46,83.08 63.45,86.87 60.16,84.97 60.17,81.18 				"/>
			</g>
			<g>
				<polygon class="st4" points="60.17,81.18 70,75.46 73.29,77.37 63.46,83.08 				"/>
			</g>
			<g>
				<polygon class="st4" points="63.46,83.08 73.29,77.37 73.28,81.16 63.45,86.87 				"/>
			</g>
			<g>
				<polygon class="st3" points="60.18,77.39 70.01,71.67 70,75.46 60.17,81.18 				"/>
			</g>
			<g>
				<polygon class="st3" points="56.88,75.48 66.71,69.77 70.01,71.67 60.18,77.39 				"/>
			</g>
			<g>
				<polygon class="st3" points="60.18,77.39 60.17,81.18 56.87,79.27 56.88,75.48 				"/>
			</g>
			<g>
				<polygon class="st3" points="56.89,71.69 56.88,75.48 53.58,73.57 53.59,69.78 				"/>
			</g>
			<g>
				<polygon class="st3" points="56.89,71.69 66.72,65.97 66.71,69.77 56.88,75.48 				"/>
			</g>
			<g>
				<polygon class="st3" points="53.59,69.78 63.42,64.07 66.72,65.97 56.89,71.69 				"/>
			</g>
			<g>
				<polygon class="st3" points="56.9,67.9 66.73,62.18 66.72,65.97 56.89,71.69 				"/>
			</g>
			<g>
				<polygon class="st3" points="53.6,65.99 63.43,60.28 66.73,62.18 56.9,67.9 				"/>
			</g>
			<g>
				<polygon class="st3" points="56.9,67.9 56.89,71.69 53.59,69.78 53.6,65.99 				"/>
			</g>
			<g>
				<polygon class="st4" points="53.61,62.2 53.6,65.99 50.3,64.08 50.31,60.29 				"/>
			</g>
			<g>
				<polygon class="st4" points="53.61,62.2 63.44,56.49 63.43,60.28 53.6,65.99 				"/>
			</g>
			<g>
				<polygon class="st4" points="50.31,60.29 60.14,54.58 63.44,56.49 53.61,62.2 				"/>
			</g>
			<g>
				<polygon class="st3" points="47.02,54.59 56.85,48.88 60.13,50.78 50.3,56.49 				"/>
			</g>
			<g>
				<polygon class="st3" points="50.32,56.5 50.31,60.29 47.01,58.39 47.02,54.59 50.3,56.49 				"/>
			</g>
			<g>
				<polygon class="st3" points="50.32,56.5 60.15,50.79 60.14,54.58 50.31,60.29 				"/>
			</g>
			<g>
				<polygon class="st3" points="50.3,56.49 60.13,50.78 60.15,50.79 50.32,56.5 				"/>
			</g>
			<g>
				<polygon class="st3" points="50.32,56.5 60.15,50.79 63.43,52.68 53.6,58.39 				"/>
			</g>
			<g>
				<polygon class="st3" points="53.6,58.39 63.43,52.68 63.45,52.69 53.62,58.4 				"/>
			</g>
			<g>
				<polygon class="st3" points="53.62,58.4 53.61,62.2 50.31,60.29 50.32,56.5 53.6,58.39 				"/>
			</g>
			<g>
				<polygon class="st3" points="53.62,58.4 63.45,52.69 63.44,56.49 53.61,62.2 				"/>
			</g>
			<g>
				<polygon class="st3" points="50.31,52.7 50.3,56.49 47.02,54.59 47,54.58 47.01,50.79 				"/>
			</g>
			<g>
				<polygon class="st3" points="50.31,52.7 60.14,46.99 60.13,50.78 50.3,56.49 				"/>
			</g>
			<g>
				<polygon class="st3" points="47.01,50.79 56.84,45.08 60.14,46.99 50.31,52.7 				"/>
			</g>
			<g>
				<polygon class="st4" points="43.72,45.1 53.55,39.39 56.85,41.29 47.02,47 				"/>
			</g>
			<g>
				<polygon class="st4" points="47.02,47 56.85,41.29 56.84,45.08 47.01,50.79 				"/>
			</g>
			<g>
				<polygon class="st4" points="47.02,47 47.01,50.79 43.71,48.89 43.72,45.1 				"/>
			</g>
			<g>
				<polygon class="st4" points="50.31,52.7 60.14,46.99 63.44,48.89 53.61,54.6 				"/>
			</g>
			<g>
				<polygon class="st4" points="53.61,54.6 53.6,58.39 50.32,56.5 50.3,56.49 50.31,52.7 				"/>
			</g>
			<g>
				<polygon class="st4" points="53.61,54.6 63.44,48.89 63.43,52.68 53.6,58.39 				"/>
			</g>
			<g>
				<polygon class="st3" points="47.02,47 56.85,41.29 60.16,43.2 50.33,48.91 				"/>
			</g>
			<g>
				<polygon class="st3" points="50.33,48.91 60.16,43.2 60.14,46.99 50.31,52.7 				"/>
			</g>
			<g>
				<polygon class="st3" points="50.33,48.91 50.31,52.7 47.01,50.79 47.02,47 				"/>
			</g>
			<g>
				<polygon class="st3" points="47.03,43.21 56.86,37.5 56.85,41.29 47.02,47 				"/>
			</g>
			<g>
				<polygon class="st3" points="43.73,41.31 53.56,35.59 56.86,37.5 47.03,43.21 				"/>
			</g>
			<g>
				<polygon class="st3" points="47.03,43.21 47.02,47 43.72,45.1 43.73,41.31 				"/>
			</g>
		</g>
		<g class="st2">
			<g>
				<polygon class="st9" points="66.75,88.78 76.58,83.06 76.57,86.85 66.74,92.57 				"/>
			</g>
			<g>
				<polygon class="st3" points="63.45,86.87 73.28,81.16 76.58,83.06 66.75,88.78 				"/>
			</g>
			<g>
				<polygon class="st3" points="66.75,88.78 66.74,92.57 63.44,90.66 63.45,86.87 				"/>
			</g>
		</g>
		<g class="st2">
			<g>
				<polygon class="st3" points="60.19,73.59 70.02,67.88 70.01,71.67 60.18,77.39 				"/>
			</g>
			<g>
				<polygon class="st3" points="56.89,71.69 66.72,65.97 70.02,67.88 60.19,73.59 				"/>
			</g>
			<g>
				<polygon class="st3" points="60.19,73.59 60.18,77.39 56.88,75.48 56.89,71.69 				"/>
			</g>
		</g>
		<g class="st2">
			<g>
				<polygon class="st10" points="66.76,84.98 76.59,79.27 76.58,83.06 66.75,88.78 				"/>
			</g>
			<g>
				<polygon class="st5" points="63.46,83.08 73.29,77.37 76.59,79.27 66.76,84.98 				"/>
			</g>
			<g>
				<polygon class="st5" points="66.76,84.98 66.75,88.78 63.45,86.87 63.46,83.08 				"/>
			</g>
		</g>
		<g class="st2">
			<g>
				<polygon class="st4" points="63.48,79.29 73.31,73.58 73.29,77.37 63.46,83.08 				"/>
			</g>
			<g>
				<polygon class="st4" points="60.18,77.39 70.01,71.67 73.31,73.58 63.48,79.29 				"/>
			</g>
			<g>
				<polygon class="st4" points="63.48,79.29 63.46,83.08 60.17,81.18 60.18,77.39 				"/>
			</g>
		</g>
		<g class="st2">
			<g>
				<polygon class="st3" points="56.91,64.11 66.74,58.39 66.73,62.18 56.9,67.9 				"/>
			</g>
			<g>
				<polygon class="st3" points="53.61,62.2 63.44,56.49 66.74,58.39 56.91,64.11 				"/>
			</g>
			<g>
				<polygon class="st3" points="56.91,64.11 56.9,67.9 53.6,65.99 53.61,62.2 				"/>
			</g>
		</g>
		<g class="st2">
			<g>
				<polygon class="st4" points="47.04,39.42 56.87,33.7 56.86,37.5 47.03,43.21 				"/>
			</g>
			<g>
				<polygon class="st4" points="43.74,37.51 53.57,31.8 56.87,33.7 47.04,39.42 				"/>
			</g>
			<g>
				<polygon class="st4" points="47.04,39.42 47.03,43.21 43.73,41.31 43.74,37.51 				"/>
			</g>
		</g>
		<g class="st2">
			<g>
				<polygon class="st5" points="47.05,35.63 56.88,29.91 56.87,33.7 47.04,39.42 				"/>
			</g>
			<g>
				<polygon class="st5" points="43.76,33.72 53.59,28.01 56.88,29.91 47.05,35.63 				"/>
			</g>
			<g>
				<polygon class="st5" points="47.05,35.63 47.04,39.42 43.74,37.51 43.76,33.72 				"/>
			</g>
		</g>
		<g class="st2">
			<g>
				<polygon class="st3" points="50.34,45.12 60.17,39.41 60.16,43.2 50.33,48.91 				"/>
			</g>
			<g>
				<polygon class="st3" points="47.03,43.21 56.86,37.5 60.17,39.41 50.34,45.12 				"/>
			</g>
			<g>
				<polygon class="st3" points="50.34,45.12 50.33,48.91 47.02,47 47.03,43.21 				"/>
			</g>
		</g>
		<g class="st2">
			<g>
				<polygon class="st4" points="43.78,22.34 53.61,16.63 53.6,20.42 43.77,26.13 				"/>
			</g>
			<g>
				<polygon class="st7" points="40.48,20.43 50.31,14.72 53.61,16.63 43.78,22.34 				"/>
			</g>
			<g>
				<polygon class="st4" points="43.78,22.34 43.77,26.13 40.47,24.23 40.48,20.43 				"/>
			</g>
		</g>
		<g class="st2">
			<g>
				<polygon class="st4" points="53.62,50.81 63.45,45.1 63.44,48.89 53.61,54.6 				"/>
			</g>
			<g>
				<polygon class="st4" points="50.33,48.91 60.16,43.2 63.45,45.1 53.62,50.81 				"/>
			</g>
			<g>
				<polygon class="st4" points="53.62,50.81 53.61,54.6 50.31,52.7 50.33,48.91 				"/>
			</g>
			<g>
				<polygon class="st3" points="53.63,47.02 63.46,41.31 63.45,45.1 53.62,50.81 				"/>
			</g>
			<g>
				<polygon class="st3" points="50.34,45.12 60.17,39.41 63.46,41.31 53.63,47.02 				"/>
			</g>
			<g>
				<polygon class="st3" points="53.63,47.02 53.62,50.81 50.33,48.91 50.34,45.12 				"/>
			</g>
			<g>
				<polygon class="st5" points="47.04,39.42 56.87,33.7 60.18,35.61 50.35,41.32 				"/>
			</g>
			<g>
				<polygon class="st5" points="50.35,41.32 60.18,35.61 60.17,39.41 50.34,45.12 				"/>
			</g>
			<g>
				<polygon class="st5" points="50.35,41.32 50.34,45.12 47.03,43.21 47.04,39.42 				"/>
			</g>
			<g>
				<polygon class="st4" points="53.65,43.23 63.48,37.52 63.46,41.31 53.63,47.02 				"/>
			</g>
			<g>
				<polygon class="st4" points="53.65,43.23 53.63,47.02 50.34,45.12 50.35,41.32 				"/>
			</g>
			<g>
				<polygon class="st4" points="50.35,41.32 60.18,35.61 63.48,37.52 53.65,43.23 				"/>
			</g>
			<g>
				<polygon class="st4" points="50.36,37.53 50.35,41.32 47.04,39.42 47.05,35.63 				"/>
			</g>
			<g>
				<polygon class="st4" points="50.36,37.53 60.19,31.82 60.18,35.61 50.35,41.32 				"/>
			</g>
			<g>
				<polygon class="st4" points="47.05,35.63 56.88,29.91 60.19,31.82 50.36,37.53 				"/>
			</g>
			<g>
				<polygon class="st3" points="47.07,31.84 56.89,26.12 56.88,29.91 47.05,35.63 				"/>
			</g>
			<g>
				<polygon class="st3" points="43.77,29.93 53.6,24.22 56.89,26.12 47.07,31.84 				"/>
			</g>
			<g>
				<polygon class="st3" points="47.07,31.84 47.05,35.63 43.76,33.72 43.77,29.93 				"/>
			</g>
		</g>
		<g class="st2">
			<g>
				<polygon class="st10" points="66.77,81.2 76.6,75.48 76.59,79.27 66.76,84.98 				"/>
			</g>
			<g>
				<polygon class="st5" points="63.48,79.29 73.31,73.58 76.6,75.48 66.77,81.2 				"/>
			</g>
			<g>
				<polygon class="st5" points="66.77,81.2 66.76,84.98 63.46,83.08 63.48,79.29 				"/>
			</g>
			<g>
				<polygon class="st3" points="63.49,75.49 73.32,69.78 73.31,73.58 63.48,79.29 				"/>
			</g>
			<g>
				<polygon class="st3" points="60.19,73.59 70.02,67.88 73.32,69.78 63.49,75.49 				"/>
			</g>
			<g>
				<polygon class="st3" points="63.49,75.49 63.48,79.29 60.18,77.39 60.19,73.59 				"/>
			</g>
			<g>
				<polygon class="st4" points="56.9,67.9 66.73,62.18 70.03,64.09 60.2,69.8 				"/>
			</g>
			<g>
				<polygon class="st4" points="60.2,69.8 70.03,64.09 70.02,67.88 60.19,73.59 				"/>
			</g>
			<g>
				<polygon class="st4" points="60.2,69.8 60.19,73.59 56.89,71.69 56.9,67.9 				"/>
			</g>
			<g>
				<polygon class="st9" points="66.78,77.4 76.61,71.69 76.6,75.48 66.77,81.2 				"/>
			</g>
			<g>
				<polygon class="st3" points="63.49,75.49 73.32,69.78 76.61,71.69 66.78,77.4 				"/>
			</g>
			<g>
				<polygon class="st3" points="66.78,77.4 66.77,81.2 63.48,79.29 63.49,75.49 				"/>
			</g>
			<g>
				<polygon class="st4" points="60.2,69.8 70.03,64.09 73.33,65.99 63.5,71.7 				"/>
			</g>
			<g>
				<polygon class="st4" points="63.5,71.7 73.33,65.99 73.32,69.78 63.49,75.49 				"/>
			</g>
			<g>
				<polygon class="st4" points="63.5,71.7 63.49,75.49 60.19,73.59 60.2,69.8 				"/>
			</g>
			<g>
				<polygon class="st4" points="60.21,66.01 60.2,69.8 56.9,67.9 56.91,64.11 				"/>
			</g>
			<g>
				<polygon class="st4" points="60.21,66.01 70.04,60.3 70.03,64.09 60.2,69.8 				"/>
			</g>
			<g>
				<polygon class="st4" points="56.91,64.11 66.74,58.39 70.04,60.3 60.21,66.01 				"/>
			</g>
			<g>
				<polygon class="st3" points="53.62,58.4 63.45,52.69 66.73,54.59 56.9,60.3 				"/>
			</g>
			<g>
				<polygon class="st3" points="56.9,60.3 66.73,54.59 66.75,54.6 56.92,60.31 				"/>
			</g>
			<g>
				<polygon class="st3" points="56.92,60.31 66.75,54.6 66.74,58.39 56.91,64.11 				"/>
			</g>
			<g>
				<polygon class="st3" points="56.92,60.31 56.91,64.11 53.61,62.2 53.62,58.4 56.9,60.3 				"/>
			</g>
			<g>
				<polygon class="st3" points="56.92,60.31 66.75,54.6 70.03,56.49 60.2,62.2 				"/>
			</g>
			<g>
				<polygon class="st3" points="60.2,62.2 70.03,56.49 70.05,56.5 60.22,62.21 				"/>
			</g>
			<g>
				<polygon class="st3" points="60.22,62.21 70.05,56.5 70.04,60.3 60.21,66.01 				"/>
			</g>
			<g>
				<polygon class="st3" points="60.22,62.21 60.21,66.01 56.91,64.11 56.92,60.31 60.2,62.2 				"/>
			</g>
			<g>
				<polygon class="st4" points="56.91,56.51 66.74,50.79 66.73,54.59 56.9,60.3 				"/>
			</g>
			<g>
				<polygon class="st4" points="56.91,56.51 56.9,60.3 53.62,58.4 53.6,58.39 53.61,54.6 				"/>
			</g>
			<g>
				<polygon class="st4" points="53.61,54.6 63.44,48.89 66.74,50.79 56.91,56.51 				"/>
			</g>
			<g>
				<polygon class="st5" points="60.21,58.41 60.2,62.2 56.92,60.31 56.9,60.3 56.91,56.51 				"/>
			</g>
			<g>
				<polygon class="st5" points="60.21,58.41 70.05,52.7 70.03,56.49 60.2,62.2 				"/>
			</g>
			<g>
				<polygon class="st5" points="56.91,56.51 66.74,50.79 70.05,52.7 60.21,58.41 				"/>
			</g>
			<g>
				<polygon class="st4" points="56.92,52.72 56.91,56.51 53.61,54.6 53.62,50.81 				"/>
			</g>
			<g>
				<polygon class="st4" points="56.92,52.72 66.75,47 66.74,50.79 56.91,56.51 				"/>
			</g>
			<g>
				<polygon class="st4" points="53.62,50.81 63.45,45.1 66.75,47 56.92,52.72 				"/>
			</g>
			<g>
				<polygon class="st3" points="56.93,48.93 66.76,43.22 66.75,47 56.92,52.72 				"/>
			</g>
			<g>
				<polygon class="st3" points="53.63,47.02 63.46,41.31 66.76,43.22 56.93,48.93 				"/>
			</g>
			<g>
				<polygon class="st3" points="56.93,48.93 56.92,52.72 53.62,50.81 53.63,47.02 				"/>
			</g>
		</g>
		<g class="st2">
			<g>
				<polygon class="st4" points="63.51,67.91 73.34,62.2 73.33,65.99 63.5,71.7 				"/>
			</g>
			<g>
				<polygon class="st4" points="60.21,66.01 70.04,60.3 73.34,62.2 63.51,67.91 				"/>
			</g>
			<g>
				<polygon class="st4" points="63.51,67.91 63.5,71.7 60.2,69.8 60.21,66.01 				"/>
			</g>
		</g>
		<g class="st2">
			<g>
				<polygon class="st3" points="50.37,33.74 60.2,28.03 60.19,31.82 50.36,37.53 				"/>
			</g>
			<g>
				<polygon class="st3" points="47.07,31.84 56.89,26.12 60.2,28.03 50.37,33.74 				"/>
			</g>
			<g>
				<polygon class="st3" points="50.37,33.74 50.36,37.53 47.05,35.63 47.07,31.84 				"/>
			</g>
		</g>
		<g class="st2">
			<g>
				<polygon class="st4" points="56.94,45.13 66.77,39.42 66.76,43.22 56.93,48.93 				"/>
			</g>
			<g>
				<polygon class="st4" points="53.65,43.23 63.48,37.52 66.77,39.42 56.94,45.13 				"/>
			</g>
			<g>
				<polygon class="st4" points="56.94,45.13 56.93,48.93 53.63,47.02 53.65,43.23 				"/>
			</g>
		</g>
		<g class="st2">
			<g>
				<polygon class="st4" points="60.23,54.63 70.06,48.91 70.05,52.7 60.21,58.41 				"/>
			</g>
			<g>
				<polygon class="st4" points="56.92,52.72 66.75,47 70.06,48.91 60.23,54.63 				"/>
			</g>
			<g>
				<polygon class="st4" points="60.23,54.63 60.21,58.41 56.91,56.51 56.92,52.72 				"/>
			</g>
		</g>
		<g class="st2">
			<g>
				<polygon class="st3" points="60.22,62.21 70.05,56.5 73.33,58.4 63.5,64.11 				"/>
			</g>
			<g>
				<polygon class="st3" points="63.52,64.12 73.35,58.41 73.34,62.2 63.51,67.91 				"/>
			</g>
			<g>
				<polygon class="st3" points="63.5,64.11 73.33,58.4 73.35,58.41 63.52,64.12 				"/>
			</g>
			<g>
				<polygon class="st3" points="63.52,64.12 63.51,67.91 60.21,66.01 60.22,62.21 63.5,64.11 				"/>
			</g>
		</g>
		<g class="st2">
			<g>
				<polygon class="st10" points="66.79,73.61 76.63,67.9 76.61,71.69 66.78,77.4 				"/>
			</g>
			<g>
				<polygon class="st5" points="63.5,71.7 73.33,65.99 76.63,67.9 66.79,73.61 				"/>
			</g>
			<g>
				<polygon class="st5" points="66.79,73.61 66.78,77.4 63.49,75.49 63.5,71.7 				"/>
			</g>
		</g>
		<g class="st2">
			<g>
				<polygon class="st4" points="63.51,60.32 73.34,54.61 73.33,58.4 63.5,64.11 				"/>
			</g>
			<g>
				<polygon class="st4" points="60.21,58.41 70.05,52.7 73.34,54.61 63.51,60.32 				"/>
			</g>
			<g>
				<polygon class="st4" points="63.51,60.32 63.5,64.11 60.22,62.21 60.2,62.2 60.21,58.41 				"/>
			</g>
		</g>
		<g class="st2">
			<g>
				<polygon class="st4" points="47.08,28.04 56.91,22.33 56.89,26.12 47.07,31.84 				"/>
			</g>
			<g>
				<polygon class="st4" points="43.78,26.14 53.61,20.42 56.91,22.33 47.08,28.04 				"/>
			</g>
			<g>
				<polygon class="st4" points="47.08,28.04 47.07,31.84 43.77,29.93 43.78,26.14 				"/>
			</g>
		</g>
		<g class="st2">
			<g>
				<polygon class="st4" points="47.09,24.25 56.92,18.54 56.91,22.33 47.08,28.04 				"/>
			</g>
			<g>
				<polygon class="st7" points="43.79,22.35 53.62,16.63 56.92,18.54 47.09,24.25 				"/>
			</g>
			<g>
				<polygon class="st4" points="47.09,24.25 47.08,28.04 43.78,26.14 43.79,22.35 				"/>
			</g>
		</g>
		<g class="st2">
			<g>
				<polygon class="st4" points="50.38,29.95 60.21,24.24 60.2,28.03 50.37,33.74 				"/>
			</g>
			<g>
				<polygon class="st4" points="47.08,28.04 56.91,22.33 60.21,24.24 50.38,29.95 				"/>
			</g>
			<g>
				<polygon class="st4" points="50.38,29.95 50.37,33.74 47.07,31.84 47.08,28.04 				"/>
			</g>
		</g>
		<g class="st2">
			<g>
				<polygon class="st4" points="53.66,39.44 63.49,33.73 63.48,37.52 53.65,43.23 				"/>
			</g>
			<g>
				<polygon class="st4" points="50.36,37.53 60.19,31.82 63.49,33.73 53.66,39.44 				"/>
			</g>
			<g>
				<polygon class="st4" points="53.66,39.44 53.65,43.23 50.35,41.32 50.36,37.53 				"/>
			</g>
		</g>
		<g class="st2">
			<g>
				<polygon class="st3" points="60.24,50.84 70.07,45.12 70.06,48.91 60.23,54.63 				"/>
			</g>
			<g>
				<polygon class="st3" points="56.93,48.93 66.76,43.22 70.07,45.12 60.24,50.84 				"/>
			</g>
			<g>
				<polygon class="st3" points="60.24,50.84 60.23,54.63 56.92,52.72 56.93,48.93 				"/>
			</g>
		</g>
		<g class="st2">
			<g>
				<polygon class="st3" points="53.67,35.65 63.5,29.94 63.49,33.73 53.66,39.44 				"/>
			</g>
			<g>
				<polygon class="st3" points="50.37,33.74 60.2,28.03 63.5,29.94 53.67,35.65 				"/>
			</g>
			<g>
				<polygon class="st3" points="53.67,35.65 53.66,39.44 50.36,37.53 50.37,33.74 				"/>
			</g>
		</g>
		<g class="st2">
			<g>
				<polygon class="st3" points="60.25,47.04 70.08,41.33 70.07,45.12 60.24,50.84 				"/>
			</g>
			<g>
				<polygon class="st3" points="56.94,45.13 66.77,39.42 70.08,41.33 60.25,47.04 				"/>
			</g>
			<g>
				<polygon class="st3" points="60.25,47.04 60.24,50.84 56.93,48.93 56.94,45.13 				"/>
			</g>
		</g>
		<g class="st2">
			<g>
				<polygon class="st11" points="66.81,69.82 76.64,64.11 76.63,67.9 66.79,73.61 				"/>
			</g>
			<g>
				<polygon class="st4" points="63.51,67.91 73.34,62.2 76.64,64.11 66.81,69.82 				"/>
			</g>
			<g>
				<polygon class="st4" points="66.81,69.82 66.79,73.61 63.5,71.7 63.51,67.91 				"/>
			</g>
			<g>
				<polygon class="st3" points="63.52,64.12 73.35,58.41 76.63,60.3 66.8,66.01 				"/>
			</g>
			<g>
				<polygon class="st9" points="66.82,66.02 76.65,60.31 76.64,64.11 66.81,69.82 				"/>
			</g>
			<g>
				<polygon class="st3" points="66.82,66.02 66.81,69.82 63.51,67.91 63.52,64.12 66.8,66.01 				"/>
			</g>
			<g>
				<polygon class="st3" points="66.8,66.01 76.63,60.3 76.65,60.31 66.82,66.02 				"/>
			</g>
			<g>
				<polygon class="st9" points="66.81,62.22 76.64,56.51 76.63,60.3 66.8,66.01 				"/>
			</g>
			<g>
				<polygon class="st3" points="63.51,60.32 73.34,54.61 76.64,56.51 66.81,62.22 				"/>
			</g>
			<g>
				<polygon class="st3" points="66.81,62.22 66.8,66.01 63.52,64.12 63.5,64.11 63.51,60.32 				"/>
			</g>
			<g>
				<polygon class="st4" points="63.52,56.53 73.35,50.82 73.34,54.61 63.51,60.32 				"/>
			</g>
			<g>
				<polygon class="st4" points="60.23,54.63 70.06,48.91 73.35,50.82 63.52,56.53 				"/>
			</g>
			<g>
				<polygon class="st4" points="63.52,56.53 63.51,60.32 60.21,58.41 60.23,54.63 				"/>
			</g>
		</g>
		<g class="st2">
			<g>
				<polygon class="st4" points="50.39,26.16 60.22,20.44 60.21,24.24 50.38,29.95 				"/>
			</g>
			<g>
				<polygon class="st7" points="47.09,24.25 56.92,18.54 60.22,20.44 50.39,26.16 				"/>
			</g>
			<g>
				<polygon class="st4" points="50.39,26.16 50.38,29.95 47.08,28.04 47.09,24.25 				"/>
			</g>
		</g>
		<g class="st2">
			<g>
				<polygon class="st4" points="56.95,41.34 66.78,35.63 66.77,39.42 56.94,45.13 				"/>
			</g>
			<g>
				<polygon class="st4" points="53.66,39.44 63.49,33.73 66.78,35.63 56.95,41.34 				"/>
			</g>
			<g>
				<polygon class="st4" points="56.95,41.34 56.94,45.13 53.65,43.23 53.66,39.44 				"/>
			</g>
			<g>
				<polygon class="st3" points="56.97,37.55 56.95,41.34 53.66,39.44 53.67,35.65 				"/>
			</g>
			<g>
				<polygon class="st3" points="56.97,37.55 66.79,31.84 66.78,35.63 56.95,41.34 				"/>
			</g>
			<g>
				<polygon class="st3" points="53.67,35.65 63.5,29.94 66.79,31.84 56.97,37.55 				"/>
			</g>
			<g>
				<polygon class="st3" points="53.68,31.85 63.51,26.14 63.5,29.94 53.67,35.65 				"/>
			</g>
			<g>
				<polygon class="st3" points="50.38,29.95 60.21,24.24 63.51,26.14 53.68,31.85 				"/>
			</g>
			<g>
				<polygon class="st3" points="53.68,31.85 53.67,35.65 50.37,33.74 50.38,29.95 				"/>
			</g>
		</g>
		<g class="st2">
			<g>
				<polygon class="st3" points="53.69,28.06 63.52,22.35 63.51,26.14 53.68,31.85 				"/>
			</g>
			<g>
				<polygon class="st8" points="50.39,26.16 60.22,20.44 63.52,22.35 53.69,28.06 				"/>
			</g>
			<g>
				<polygon class="st3" points="53.69,28.06 53.68,31.85 50.38,29.95 50.39,26.16 				"/>
			</g>
		</g>
		<g class="st2">
			<g>
				<polygon class="st9" points="66.82,58.43 76.65,52.72 76.64,56.51 66.81,62.22 				"/>
			</g>
			<g>
				<polygon class="st3" points="63.52,56.53 73.35,50.82 76.65,52.72 66.82,58.43 				"/>
			</g>
			<g>
				<polygon class="st3" points="66.82,58.43 66.81,62.22 63.51,60.32 63.52,56.53 				"/>
			</g>
			<g>
				<polygon class="st3" points="63.53,52.74 73.36,47.03 73.35,50.82 63.52,56.53 				"/>
			</g>
			<g>
				<polygon class="st3" points="60.24,50.84 70.07,45.12 73.36,47.03 63.53,52.74 				"/>
			</g>
			<g>
				<polygon class="st3" points="63.53,52.74 63.52,56.53 60.23,54.63 60.24,50.84 				"/>
			</g>
			<g>
				<polygon class="st3" points="66.83,54.64 66.82,58.43 63.52,56.53 63.53,52.74 				"/>
			</g>
			<g>
				<polygon class="st9" points="66.83,54.64 76.66,48.93 76.65,52.72 66.82,58.43 				"/>
			</g>
			<g>
				<polygon class="st3" points="63.53,52.74 73.36,47.03 76.66,48.93 66.83,54.64 				"/>
			</g>
			<g>
				<polygon class="st4" points="63.55,48.94 63.53,52.74 60.24,50.84 60.25,47.04 				"/>
			</g>
			<g>
				<polygon class="st4" points="60.25,47.04 70.08,41.33 73.38,43.23 63.55,48.94 				"/>
			</g>
			<g>
				<polygon class="st4" points="63.55,48.94 73.38,43.23 73.36,47.03 63.53,52.74 				"/>
			</g>
			<g>
				<polygon class="st3" points="60.26,43.25 60.25,47.04 56.94,45.13 56.95,41.34 				"/>
			</g>
			<g>
				<polygon class="st3" points="56.95,41.34 66.78,35.63 70.09,37.54 60.26,43.25 				"/>
			</g>
			<g>
				<polygon class="st3" points="60.26,43.25 70.09,37.54 70.08,41.33 60.25,47.04 				"/>
			</g>
			<g>
				<polygon class="st11" points="66.84,50.85 76.67,45.14 76.66,48.93 66.83,54.64 				"/>
			</g>
			<g>
				<polygon class="st4" points="66.84,50.85 66.83,54.64 63.53,52.74 63.55,48.94 				"/>
			</g>
			<g>
				<polygon class="st4" points="63.55,48.94 73.38,43.23 76.67,45.14 66.84,50.85 				"/>
			</g>
			<g>
				<polygon class="st4" points="63.56,45.15 63.55,48.94 60.25,47.04 60.26,43.25 				"/>
			</g>
			<g>
				<polygon class="st4" points="63.56,45.15 73.39,39.44 73.38,43.23 63.55,48.94 				"/>
			</g>
			<g>
				<polygon class="st4" points="60.26,43.25 70.09,37.54 73.39,39.44 63.56,45.15 				"/>
			</g>
			<g>
				<polygon class="st3" points="60.27,39.46 60.26,43.25 56.95,41.34 56.97,37.55 				"/>
			</g>
			<g>
				<polygon class="st3" points="60.27,39.46 70.1,33.75 70.09,37.54 60.26,43.25 				"/>
			</g>
			<g>
				<polygon class="st3" points="56.97,37.55 66.79,31.84 70.1,33.75 60.27,39.46 				"/>
			</g>
			<g>
				<polygon class="st4" points="53.68,31.85 63.51,26.14 66.81,28.04 56.98,33.76 				"/>
			</g>
			<g>
				<polygon class="st4" points="56.98,33.76 66.81,28.04 66.79,31.84 56.97,37.55 				"/>
			</g>
			<g>
				<polygon class="st4" points="56.98,33.76 56.97,37.55 53.67,35.65 53.68,31.85 				"/>
			</g>
			<g>
				<polygon class="st10" points="66.86,47.06 76.68,41.35 76.67,45.14 66.84,50.85 				"/>
			</g>
			<g>
				<polygon class="st5" points="66.86,47.06 66.84,50.85 63.55,48.94 63.56,45.15 				"/>
			</g>
			<g>
				<polygon class="st5" points="63.56,45.15 73.39,39.44 76.68,41.35 66.86,47.06 				"/>
			</g>
			<g>
				<polygon class="st3" points="63.57,41.36 63.56,45.15 60.26,43.25 60.27,39.46 				"/>
			</g>
			<g>
				<polygon class="st3" points="63.57,41.36 73.4,35.65 73.39,39.44 63.56,45.15 				"/>
			</g>
			<g>
				<polygon class="st3" points="60.27,39.46 70.1,33.75 73.4,35.65 63.57,41.36 				"/>
			</g>
			<g>
				<polygon class="st4" points="60.28,35.66 60.27,39.46 56.97,37.55 56.98,33.76 				"/>
			</g>
			<g>
				<polygon class="st4" points="56.98,33.76 66.81,28.04 70.11,29.95 60.28,35.66 				"/>
			</g>
			<g>
				<polygon class="st4" points="60.28,35.66 70.11,29.95 70.1,33.75 60.27,39.46 				"/>
			</g>
			<g>
				<polygon class="st7" points="53.69,28.06 63.52,22.35 66.82,24.25 56.99,29.97 				"/>
			</g>
			<g>
				<polygon class="st4" points="56.99,29.97 56.98,33.76 53.68,31.85 53.69,28.06 				"/>
			</g>
			<g>
				<polygon class="st4" points="56.99,29.97 66.82,24.25 66.81,28.04 56.98,33.76 				"/>
			</g>
			<g>
				<polygon class="st4" points="60.29,31.87 70.12,26.16 70.11,29.95 60.28,35.66 				"/>
			</g>
			<g>
				<polygon class="st4" points="60.29,31.87 60.28,35.66 56.98,33.76 56.99,29.97 				"/>
			</g>
			<g>
				<polygon class="st7" points="56.99,29.97 66.82,24.25 70.12,26.16 60.29,31.87 				"/>
			</g>
		</g>
		<g class="st2">
			<g>
				<polygon class="st9" points="66.87,43.27 76.7,37.56 76.68,41.35 66.86,47.06 				"/>
			</g>
			<g>
				<polygon class="st3" points="63.57,41.36 73.4,35.65 76.7,37.56 66.87,43.27 				"/>
			</g>
			<g>
				<polygon class="st3" points="66.87,43.27 66.86,47.06 63.56,45.15 63.57,41.36 				"/>
			</g>
			<g>
				<polygon class="st4" points="63.58,37.57 63.57,41.36 60.27,39.46 60.28,35.66 				"/>
			</g>
			<g>
				<polygon class="st4" points="63.58,37.57 73.41,31.85 73.4,35.65 63.57,41.36 				"/>
			</g>
			<g>
				<polygon class="st4" points="60.28,35.66 70.11,29.95 73.41,31.85 63.58,37.57 				"/>
			</g>
			<g>
				<polygon class="st4" points="63.59,33.78 73.42,28.06 73.41,31.85 63.58,37.57 				"/>
			</g>
			<g>
				<polygon class="st7" points="60.29,31.87 70.12,26.16 73.42,28.06 63.59,33.78 				"/>
			</g>
			<g>
				<polygon class="st4" points="63.59,33.78 63.58,37.57 60.28,35.66 60.29,31.87 				"/>
			</g>
		</g>
		<g class="st2">
			<g>
				<polygon class="st10" points="66.88,39.47 76.71,33.76 76.7,37.56 66.87,43.27 				"/>
			</g>
			<g>
				<polygon class="st5" points="63.58,37.57 73.41,31.85 76.71,33.76 66.88,39.47 				"/>
			</g>
			<g>
				<polygon class="st5" points="66.88,39.47 66.87,43.27 63.57,41.36 63.58,37.57 				"/>
			</g>
		</g>
		<g class="st2">
			<g>
				<polygon class="st11" points="66.89,35.68 76.72,29.97 76.71,33.76 66.88,39.47 				"/>
			</g>
			<g>
				<polygon class="st7" points="63.59,33.78 73.42,28.06 76.72,29.97 66.89,35.68 				"/>
			</g>
			<g>
				<polygon class="st4" points="66.89,35.68 66.88,39.47 63.58,37.57 63.59,33.78 				"/>
			</g>
		</g>
	</g>
</g>
</svg>
